<svg width="15" height="14" viewBox="0 0 15 14" fill="none" xmlns="http://www.w3.org/2000/svg">
<path opacity="0.9" d="M2.53593 13.8183C1.84076 12.6741 1.37007 11.4793 1.12386 10.2338C0.877654 8.98827 0.85593 7.76448 1.05869 6.56241C1.26145 5.36034 1.68145 4.20896 2.31869 3.10827C2.97041 1.9931 3.83938 0.993791 4.92558 0.110343L6.59834 1.13138C6.888 1.31965 7.01834 1.55138 6.98938 1.82655C6.96041 2.10172 6.86627 2.31896 6.70696 2.47827C6.40283 2.84034 6.11317 3.31827 5.838 3.91207C5.56283 4.50586 5.36731 5.17207 5.25145 5.91069C5.15007 6.64931 5.16455 7.43862 5.2949 8.27862C5.42524 9.11862 5.7511 9.95862 6.27248 10.7986C6.53317 11.2186 6.60559 11.5879 6.48972 11.9065C6.37386 12.2107 6.1349 12.4279 5.77283 12.5583L2.53593 13.8183ZM9.74834 13.8183C9.05317 12.6741 8.58248 11.4793 8.33627 10.2338C8.09007 8.98827 8.06834 7.76448 8.2711 6.56241C8.47386 5.36034 8.89386 4.20896 9.5311 3.10827C10.1828 1.9931 11.0518 0.993791 12.138 0.110343L13.8108 1.13138C14.1004 1.31965 14.2308 1.55138 14.2018 1.82655C14.1728 2.10172 14.0787 2.31896 13.9194 2.47827C13.6152 2.84034 13.3256 3.31827 13.0504 3.91207C12.7752 4.50586 12.5797 5.17207 12.4639 5.91069C12.3625 6.64931 12.377 7.43862 12.5073 8.27862C12.6377 9.11862 12.9635 9.95862 13.4849 10.7986C13.7456 11.2186 13.818 11.5879 13.7021 11.9065C13.5863 12.2107 13.3473 12.4279 12.9852 12.5583L9.74834 13.8183Z" fill="#F0B73F"/>
</svg>
