<svg width="42" height="48" viewBox="0 0 42 48" fill="none" xmlns="http://www.w3.org/2000/svg">
<rect width="42" height="48" rx="2" fill="#008080"/>
<path d="M13.44 13.216C14.0587 12.9707 14.6773 12.656 15.296 12.272C15.9253 11.888 16.48 11.4347 16.96 10.912H18.32V22H16.384V13.504C16.096 13.728 15.7333 13.9467 15.296 14.16C14.8587 14.3733 14.4373 14.5493 14.032 14.688L13.44 13.216ZM26.4858 13.296C26.2298 13.6053 25.9631 13.936 25.6858 14.288C25.4191 14.64 25.1578 15.008 24.9018 15.392C24.6458 15.776 24.4004 16.1707 24.1658 16.576C23.9311 16.9707 23.7178 17.3653 23.5258 17.76H26.4858V13.296ZM28.3738 10.912V17.76H29.6218V19.344H28.3738V22H26.4858V19.344H21.6217V17.968C21.8351 17.4987 22.1178 16.96 22.4698 16.352C22.8324 15.744 23.2324 15.12 23.6698 14.48C24.1071 13.84 24.5711 13.2107 25.0618 12.592C25.5524 11.9733 26.0431 11.4133 26.5338 10.912H28.3738Z" fill="white"/>
<path d="M15.866 34.878C15.866 35.3447 15.8147 35.7787 15.712 36.18C15.6187 36.5813 15.446 36.936 15.194 37.244C14.9513 37.5427 14.62 37.7807 14.2 37.958C13.7893 38.126 13.2713 38.21 12.646 38.21C12.3287 38.21 12.0347 38.182 11.764 38.126C11.5027 38.0793 11.2647 38.0187 11.05 37.944C10.8353 37.86 10.6487 37.776 10.49 37.692C10.3313 37.5987 10.2053 37.51 10.112 37.426L10.644 36.348C10.84 36.488 11.092 36.6373 11.4 36.796C11.7173 36.9453 12.1093 37.02 12.576 37.02C13.248 37.02 13.738 36.852 14.046 36.516C14.354 36.1707 14.508 35.5827 14.508 34.752V28.298H15.866V34.878ZM20.584 37.062C20.892 37.062 21.1627 37.0573 21.396 37.048C21.6387 37.0293 21.8393 37.0013 21.998 36.964V34.794C21.9047 34.7473 21.7507 34.71 21.536 34.682C21.3307 34.6447 21.0787 34.626 20.78 34.626C20.584 34.626 20.374 34.64 20.15 34.668C19.9353 34.696 19.7347 34.7567 19.548 34.85C19.3707 34.934 19.2213 35.0553 19.1 35.214C18.9787 35.3633 18.918 35.564 18.918 35.816C18.918 36.2827 19.0673 36.6093 19.366 36.796C19.6647 36.9733 20.0707 37.062 20.584 37.062ZM20.472 30.538C20.9947 30.538 21.4333 30.608 21.788 30.748C22.152 30.8787 22.4413 31.07 22.656 31.322C22.88 31.5647 23.0387 31.8587 23.132 32.204C23.2253 32.54 23.272 32.9133 23.272 33.324V37.874C23.16 37.8927 23.0013 37.9207 22.796 37.958C22.6 37.986 22.376 38.014 22.124 38.042C21.872 38.07 21.5967 38.0933 21.298 38.112C21.0087 38.14 20.7193 38.154 20.43 38.154C20.0193 38.154 19.6413 38.112 19.296 38.028C18.9507 37.944 18.652 37.8133 18.4 37.636C18.148 37.4493 17.952 37.2067 17.812 36.908C17.672 36.6093 17.602 36.25 17.602 35.83C17.602 35.4287 17.6813 35.0833 17.84 34.794C18.008 34.5047 18.232 34.2713 18.512 34.094C18.792 33.9167 19.1187 33.786 19.492 33.702C19.8653 33.618 20.2573 33.576 20.668 33.576C20.7987 33.576 20.934 33.5853 21.074 33.604C21.214 33.6133 21.3447 33.632 21.466 33.66C21.5967 33.6787 21.7087 33.6973 21.802 33.716C21.8953 33.7347 21.9607 33.7487 21.998 33.758V33.394C21.998 33.1793 21.9747 32.9693 21.928 32.764C21.8813 32.5493 21.7973 32.3627 21.676 32.204C21.5547 32.036 21.3867 31.9053 21.172 31.812C20.9667 31.7093 20.696 31.658 20.36 31.658C19.9307 31.658 19.5527 31.6907 19.226 31.756C18.9087 31.812 18.6707 31.8727 18.512 31.938L18.358 30.86C18.526 30.7853 18.806 30.7153 19.198 30.65C19.59 30.5753 20.0147 30.538 20.472 30.538ZM25.4345 30.93C25.7331 30.8553 26.1298 30.776 26.6245 30.692C27.1191 30.608 27.6885 30.566 28.3325 30.566C28.9111 30.566 29.3918 30.65 29.7745 30.818C30.1571 30.9767 30.4605 31.2053 30.6845 31.504C30.9178 31.7933 31.0811 32.1433 31.1745 32.554C31.2678 32.9647 31.3145 33.4173 31.3145 33.912V38H30.0125V34.192C30.0125 33.744 29.9798 33.3613 29.9145 33.044C29.8585 32.7267 29.7605 32.47 29.6205 32.274C29.4805 32.078 29.2938 31.938 29.0605 31.854C28.8271 31.7607 28.5378 31.714 28.1925 31.714C28.0525 31.714 27.9078 31.7187 27.7585 31.728C27.6091 31.7373 27.4645 31.7513 27.3245 31.77C27.1938 31.7793 27.0725 31.7933 26.9605 31.812C26.8578 31.8307 26.7831 31.8447 26.7365 31.854V38H25.4345V30.93Z" fill="white"/>
</svg>
