<svg width="42" height="48" viewBox="0 0 42 48" fill="none" xmlns="http://www.w3.org/2000/svg">
<rect width="42" height="48" rx="2" fill="#008080"/>
<path d="M13.44 13.216C14.0587 12.9707 14.6773 12.656 15.296 12.272C15.9253 11.888 16.48 11.4347 16.96 10.912H18.32V22H16.384V13.504C16.096 13.728 15.7333 13.9467 15.296 14.16C14.8587 14.3733 14.4373 14.5493 14.032 14.688L13.44 13.216ZM23.5578 22C23.6218 21.1893 23.7658 20.336 23.9898 19.44C24.2138 18.544 24.4858 17.6747 24.8058 16.832C25.1364 15.9787 25.4938 15.184 25.8778 14.448C26.2724 13.7013 26.6618 13.0773 27.0458 12.576H21.9418V10.912H29.3498V12.384C28.9978 12.7787 28.6138 13.3173 28.1978 14C27.7818 14.6827 27.3871 15.456 27.0138 16.32C26.6404 17.1733 26.3151 18.0907 26.0378 19.072C25.7711 20.0533 25.6058 21.0293 25.5418 22H23.5578Z" fill="white"/>
<path d="M16.854 38C16.6487 37.6547 16.4107 37.2673 16.14 36.838C15.8787 36.4087 15.594 35.9653 15.286 35.508C14.978 35.0413 14.656 34.57 14.32 34.094C13.9933 33.618 13.6667 33.1607 13.34 32.722C13.0133 32.274 12.696 31.854 12.388 31.462C12.08 31.07 11.7953 30.7247 11.534 30.426V38H10.204V28.298H11.282C11.7207 28.7647 12.1873 29.3107 12.682 29.936C13.186 30.552 13.6807 31.1913 14.166 31.854C14.6607 32.5073 15.1227 33.1513 15.552 33.786C15.9907 34.4207 16.3593 34.9853 16.658 35.48V28.298H17.988V38H16.854ZM26.7315 34.36C26.7315 34.9387 26.6475 35.4613 26.4795 35.928C26.3115 36.3947 26.0735 36.796 25.7655 37.132C25.4669 37.468 25.1075 37.7293 24.6875 37.916C24.2675 38.0933 23.8102 38.182 23.3155 38.182C22.8209 38.182 22.3635 38.0933 21.9435 37.916C21.5235 37.7293 21.1595 37.468 20.8515 37.132C20.5529 36.796 20.3195 36.3947 20.1515 35.928C19.9835 35.4613 19.8995 34.9387 19.8995 34.36C19.8995 33.7907 19.9835 33.2727 20.1515 32.806C20.3195 32.33 20.5529 31.924 20.8515 31.588C21.1595 31.252 21.5235 30.9953 21.9435 30.818C22.3635 30.6313 22.8209 30.538 23.3155 30.538C23.8102 30.538 24.2675 30.6313 24.6875 30.818C25.1075 30.9953 25.4669 31.252 25.7655 31.588C26.0735 31.924 26.3115 32.33 26.4795 32.806C26.6475 33.2727 26.7315 33.7907 26.7315 34.36ZM25.3735 34.36C25.3735 33.5387 25.1869 32.89 24.8135 32.414C24.4495 31.9287 23.9502 31.686 23.3155 31.686C22.6809 31.686 22.1769 31.9287 21.8035 32.414C21.4395 32.89 21.2575 33.5387 21.2575 34.36C21.2575 35.1813 21.4395 35.8347 21.8035 36.32C22.1769 36.796 22.6809 37.034 23.3155 37.034C23.9502 37.034 24.4495 36.796 24.8135 36.32C25.1869 35.8347 25.3735 35.1813 25.3735 34.36ZM34.056 30.72C33.692 32.0827 33.2626 33.3893 32.768 34.64C32.2826 35.8907 31.8113 37.0107 31.354 38H30.178C29.7206 37.0107 29.2446 35.8907 28.75 34.64C28.2646 33.3893 27.84 32.0827 27.476 30.72H28.876C28.988 31.1773 29.1186 31.6673 29.268 32.19C29.4266 32.7033 29.59 33.2167 29.758 33.73C29.9353 34.234 30.1126 34.724 30.29 35.2C30.4673 35.676 30.6353 36.1007 30.794 36.474C30.9526 36.1007 31.1206 35.676 31.298 35.2C31.4753 34.724 31.648 34.234 31.816 33.73C31.9933 33.2167 32.1566 32.7033 32.306 32.19C32.4646 31.6673 32.6 31.1773 32.712 30.72H34.056Z" fill="white"/>
</svg>
