<svg width="42" height="48" viewBox="0 0 42 48" fill="none" xmlns="http://www.w3.org/2000/svg">
<rect width="42" height="48" rx="2" fill="#008080"/>
<path d="M12.44 13.216C13.0587 12.9707 13.6773 12.656 14.296 12.272C14.9253 11.888 15.48 11.4347 15.96 10.912H17.32V22H15.384V13.504C15.096 13.728 14.7333 13.9467 14.296 14.16C13.8587 14.3733 13.4373 14.5493 13.032 14.688L12.44 13.216ZM28.4138 19.024C28.4138 19.4827 28.3338 19.9093 28.1737 20.304C28.0138 20.6987 27.7738 21.04 27.4538 21.328C27.1338 21.616 26.7338 21.84 26.2538 22C25.7844 22.16 25.2404 22.24 24.6218 22.24C23.8964 22.24 23.2938 22.1387 22.8138 21.936C22.3338 21.7333 21.9498 21.4773 21.6618 21.168C21.3738 20.8587 21.1658 20.528 21.0378 20.176C20.9204 19.8133 20.8618 19.472 20.8618 19.152C20.8618 18.832 20.9044 18.5387 20.9898 18.272C21.0858 17.9947 21.2138 17.744 21.3738 17.52C21.5338 17.2853 21.7151 17.072 21.9178 16.88C22.1204 16.688 22.3338 16.5173 22.5578 16.368C22.0671 16.0267 21.6991 15.6587 21.4538 15.264C21.2191 14.8587 21.1018 14.368 21.1018 13.792C21.1018 13.376 21.1818 12.9813 21.3418 12.608C21.5124 12.224 21.7524 11.888 22.0618 11.6C22.3711 11.312 22.7444 11.0827 23.1818 10.912C23.6191 10.7413 24.1044 10.656 24.6378 10.656C25.2671 10.656 25.8004 10.7467 26.2378 10.928C26.6858 11.1093 27.0484 11.344 27.3258 11.632C27.6138 11.92 27.8218 12.24 27.9498 12.592C28.0778 12.944 28.1418 13.2853 28.1418 13.616C28.1418 14.2027 27.9818 14.7253 27.6618 15.184C27.3418 15.632 26.9738 15.9893 26.5578 16.256C27.1871 16.5973 27.6511 16.992 27.9498 17.44C28.2591 17.888 28.4138 18.416 28.4138 19.024ZM22.7658 19.12C22.7658 19.28 22.7978 19.4507 22.8618 19.632C22.9258 19.8133 23.0324 19.9787 23.1818 20.128C23.3311 20.2773 23.5231 20.4053 23.7578 20.512C23.9924 20.608 24.2858 20.656 24.6378 20.656C24.9578 20.656 25.2351 20.6133 25.4698 20.528C25.7044 20.4427 25.8964 20.3307 26.0458 20.192C26.1951 20.0427 26.3071 19.8773 26.3818 19.696C26.4564 19.504 26.4938 19.312 26.4938 19.12C26.4938 18.8213 26.4351 18.56 26.3178 18.336C26.2004 18.112 26.0298 17.92 25.8058 17.76C25.5924 17.5893 25.3364 17.4453 25.0378 17.328C24.7391 17.2 24.4084 17.088 24.0458 16.992C23.6618 17.2373 23.3524 17.536 23.1178 17.888C22.8831 18.2293 22.7658 18.64 22.7658 19.12ZM26.2538 13.648C26.2538 13.5093 26.2218 13.36 26.1578 13.2C26.1044 13.0293 26.0084 12.8747 25.8698 12.736C25.7418 12.5973 25.5764 12.48 25.3738 12.384C25.1711 12.288 24.9258 12.24 24.6378 12.24C24.3498 12.24 24.0991 12.288 23.8858 12.384C23.6831 12.4693 23.5178 12.5867 23.3898 12.736C23.2618 12.8747 23.1658 13.0293 23.1018 13.2C23.0378 13.36 23.0058 13.52 23.0058 13.68C23.0058 14.0853 23.1551 14.4693 23.4538 14.832C23.7631 15.1947 24.2751 15.4827 24.9898 15.696C25.3844 15.4507 25.6938 15.1733 25.9178 14.864C26.1418 14.544 26.2538 14.1387 26.2538 13.648Z" fill="white"/>
<path d="M10.204 38V28.298H16.056V29.46H11.562V32.386H15.552V33.534H11.562V38H10.204ZM17.0421 34.374C17.0421 33.73 17.1355 33.17 17.3221 32.694C17.5088 32.2087 17.7561 31.8073 18.0641 31.49C18.3721 31.1727 18.7268 30.9347 19.1281 30.776C19.5295 30.6173 19.9401 30.538 20.3601 30.538C21.3401 30.538 22.0915 30.846 22.6141 31.462C23.1368 32.0687 23.3981 32.9973 23.3981 34.248C23.3981 34.304 23.3981 34.3787 23.3981 34.472C23.3981 34.556 23.3935 34.6353 23.3841 34.71H18.4001C18.4561 35.466 18.6755 36.04 19.0581 36.432C19.4408 36.824 20.0381 37.02 20.8501 37.02C21.3075 37.02 21.6901 36.9827 21.9981 36.908C22.3155 36.824 22.5535 36.7447 22.7121 36.67L22.8941 37.762C22.7355 37.846 22.4555 37.9347 22.0541 38.028C21.6621 38.1213 21.2141 38.168 20.7101 38.168C20.0755 38.168 19.5248 38.0747 19.0581 37.888C18.6008 37.692 18.2228 37.426 17.9241 37.09C17.6255 36.754 17.4015 36.3573 17.2521 35.9C17.1121 35.4333 17.0421 34.9247 17.0421 34.374ZM22.0401 33.66C22.0495 33.072 21.9001 32.5913 21.5921 32.218C21.2935 31.8353 20.8781 31.644 20.3461 31.644C20.0475 31.644 19.7815 31.7047 19.5481 31.826C19.3241 31.938 19.1328 32.0873 18.9741 32.274C18.8155 32.4607 18.6895 32.6753 18.5961 32.918C18.5121 33.1607 18.4561 33.408 18.4281 33.66H22.0401ZM26.5704 31.042C26.7291 30.9393 26.9671 30.832 27.2844 30.72C27.6111 30.608 27.9844 30.552 28.4044 30.552C28.9271 30.552 29.3891 30.6453 29.7904 30.832C30.2011 31.0187 30.5464 31.28 30.8264 31.616C31.1064 31.952 31.3164 32.3533 31.4564 32.82C31.6058 33.2867 31.6804 33.8 31.6804 34.36C31.6804 34.948 31.5918 35.48 31.4144 35.956C31.2464 36.4227 31.0038 36.8193 30.6864 37.146C30.3691 37.4727 29.9864 37.7247 29.5384 37.902C29.0904 38.0793 28.5864 38.168 28.0264 38.168C27.4198 38.168 26.8831 38.126 26.4164 38.042C25.9498 37.958 25.5671 37.874 25.2684 37.79V27.36L26.5704 27.136V31.042ZM26.5704 36.866C26.7011 36.9033 26.8831 36.9407 27.1164 36.978C27.3591 37.006 27.6578 37.02 28.0124 37.02C28.7124 37.02 29.2724 36.7913 29.6924 36.334C30.1124 35.8673 30.3224 35.2093 30.3224 34.36C30.3224 33.9867 30.2851 33.6367 30.2104 33.31C30.1358 32.9833 30.0144 32.7033 29.8464 32.47C29.6784 32.2273 29.4591 32.0407 29.1884 31.91C28.9271 31.77 28.6098 31.7 28.2364 31.7C27.8818 31.7 27.5551 31.7607 27.2564 31.882C26.9578 32.0033 26.7291 32.1293 26.5704 32.26V36.866Z" fill="white"/>
</svg>
