<svg width="42" height="48" viewBox="0 0 42 48" fill="none" xmlns="http://www.w3.org/2000/svg">
<rect width="42" height="48" rx="2" fill="#008080"/>
<path d="M20.4 16.448C20.4 18.3147 20.0587 19.7493 19.376 20.752C18.6933 21.744 17.7493 22.24 16.544 22.24C15.3387 22.24 14.3947 21.744 13.712 20.752C13.0293 19.7493 12.688 18.3147 12.688 16.448C12.688 15.52 12.7733 14.6987 12.944 13.984C13.1253 13.2587 13.3813 12.6507 13.712 12.16C14.0533 11.6693 14.4587 11.296 14.928 11.04C15.408 10.784 15.9467 10.656 16.544 10.656C17.7493 10.656 18.6933 11.1573 19.376 12.16C20.0587 13.152 20.4 14.5813 20.4 16.448ZM18.4 16.448C18.4 15.872 18.368 15.3333 18.304 14.832C18.24 14.3307 18.1333 13.8987 17.984 13.536C17.8453 13.1627 17.6587 12.8693 17.424 12.656C17.1893 12.4427 16.896 12.336 16.544 12.336C16.192 12.336 15.8933 12.4427 15.648 12.656C15.4133 12.8693 15.2213 13.1627 15.072 13.536C14.9333 13.8987 14.832 14.3307 14.768 14.832C14.7147 15.3333 14.688 15.872 14.688 16.448C14.688 17.024 14.7147 17.5627 14.768 18.064C14.832 18.5653 14.9333 19.0027 15.072 19.376C15.2213 19.7387 15.4133 20.0267 15.648 20.24C15.8933 20.4533 16.192 20.56 16.544 20.56C16.896 20.56 17.1893 20.4533 17.424 20.24C17.6587 20.0267 17.8453 19.7387 17.984 19.376C18.1333 19.0027 18.24 18.5653 18.304 18.064C18.368 17.5627 18.4 17.024 18.4 16.448ZM22.5338 13.216C23.1524 12.9707 23.7711 12.656 24.3898 12.272C25.0191 11.888 25.5738 11.4347 26.0538 10.912H27.4138V22H25.4778V13.504C25.1898 13.728 24.8271 13.9467 24.3898 14.16C23.9524 14.3733 23.5311 14.5493 23.1258 14.688L22.5338 13.216Z" fill="white"/>
<path d="M10.204 38V28.298H16.056V29.46H11.562V32.386H15.552V33.534H11.562V38H10.204ZM17.0421 34.374C17.0421 33.73 17.1355 33.17 17.3221 32.694C17.5088 32.2087 17.7561 31.8073 18.0641 31.49C18.3721 31.1727 18.7268 30.9347 19.1281 30.776C19.5295 30.6173 19.9401 30.538 20.3601 30.538C21.3401 30.538 22.0915 30.846 22.6141 31.462C23.1368 32.0687 23.3981 32.9973 23.3981 34.248C23.3981 34.304 23.3981 34.3787 23.3981 34.472C23.3981 34.556 23.3935 34.6353 23.3841 34.71H18.4001C18.4561 35.466 18.6755 36.04 19.0581 36.432C19.4408 36.824 20.0381 37.02 20.8501 37.02C21.3075 37.02 21.6901 36.9827 21.9981 36.908C22.3155 36.824 22.5535 36.7447 22.7121 36.67L22.8941 37.762C22.7355 37.846 22.4555 37.9347 22.0541 38.028C21.6621 38.1213 21.2141 38.168 20.7101 38.168C20.0755 38.168 19.5248 38.0747 19.0581 37.888C18.6008 37.692 18.2228 37.426 17.9241 37.09C17.6255 36.754 17.4015 36.3573 17.2521 35.9C17.1121 35.4333 17.0421 34.9247 17.0421 34.374ZM22.0401 33.66C22.0495 33.072 21.9001 32.5913 21.5921 32.218C21.2935 31.8353 20.8781 31.644 20.3461 31.644C20.0475 31.644 19.7815 31.7047 19.5481 31.826C19.3241 31.938 19.1328 32.0873 18.9741 32.274C18.8155 32.4607 18.6895 32.6753 18.5961 32.918C18.5121 33.1607 18.4561 33.408 18.4281 33.66H22.0401ZM26.5704 31.042C26.7291 30.9393 26.9671 30.832 27.2844 30.72C27.6111 30.608 27.9844 30.552 28.4044 30.552C28.9271 30.552 29.3891 30.6453 29.7904 30.832C30.2011 31.0187 30.5464 31.28 30.8264 31.616C31.1064 31.952 31.3164 32.3533 31.4564 32.82C31.6058 33.2867 31.6804 33.8 31.6804 34.36C31.6804 34.948 31.5918 35.48 31.4144 35.956C31.2464 36.4227 31.0038 36.8193 30.6864 37.146C30.3691 37.4727 29.9864 37.7247 29.5384 37.902C29.0904 38.0793 28.5864 38.168 28.0264 38.168C27.4198 38.168 26.8831 38.126 26.4164 38.042C25.9498 37.958 25.5671 37.874 25.2684 37.79V27.36L26.5704 27.136V31.042ZM26.5704 36.866C26.7011 36.9033 26.8831 36.9407 27.1164 36.978C27.3591 37.006 27.6578 37.02 28.0124 37.02C28.7124 37.02 29.2724 36.7913 29.6924 36.334C30.1124 35.8673 30.3224 35.2093 30.3224 34.36C30.3224 33.9867 30.2851 33.6367 30.2104 33.31C30.1358 32.9833 30.0144 32.7033 29.8464 32.47C29.6784 32.2273 29.4591 32.0407 29.1884 31.91C28.9271 31.77 28.6098 31.7 28.2364 31.7C27.8818 31.7 27.5551 31.7607 27.2564 31.882C26.9578 32.0033 26.7291 32.1293 26.5704 32.26V36.866Z" fill="white"/>
</svg>
