<svg width="42" height="48" viewBox="0 0 42 48" fill="none" xmlns="http://www.w3.org/2000/svg">
<rect width="42" height="48" rx="2" fill="#008080"/>
<path d="M19.696 13.792C19.696 14.176 19.616 14.5547 19.456 14.928C19.296 15.2907 19.088 15.648 18.832 16C18.5867 16.3413 18.304 16.6773 17.984 17.008C17.664 17.328 17.344 17.6427 17.024 17.952C16.8533 18.112 16.6613 18.304 16.448 18.528C16.2347 18.752 16.032 18.976 15.84 19.2C15.648 19.424 15.4827 19.6427 15.344 19.856C15.2053 20.0587 15.1307 20.2293 15.12 20.368H20.048V22H12.992C12.9813 21.9147 12.976 21.8133 12.976 21.696C12.976 21.568 12.976 21.472 12.976 21.408C12.976 20.896 13.056 20.4267 13.216 20C13.3867 19.5627 13.6053 19.1573 13.872 18.784C14.1387 18.4107 14.4373 18.0587 14.768 17.728C15.0987 17.3973 15.4293 17.072 15.76 16.752C16.016 16.5067 16.2613 16.2667 16.496 16.032C16.7307 15.7973 16.9333 15.568 17.104 15.344C17.2853 15.1093 17.4293 14.8747 17.536 14.64C17.6427 14.3947 17.696 14.144 17.696 13.888C17.696 13.3333 17.536 12.9387 17.216 12.704C16.896 12.4693 16.5067 12.352 16.048 12.352C15.7493 12.352 15.472 12.3947 15.216 12.48C14.96 12.5653 14.7307 12.6667 14.528 12.784C14.336 12.9013 14.1653 13.024 14.016 13.152C13.8667 13.2693 13.7547 13.3653 13.68 13.44L12.72 12.08C13.168 11.6533 13.6907 11.312 14.288 11.056C14.896 10.7893 15.5467 10.656 16.24 10.656C17.424 10.656 18.2933 10.9387 18.848 11.504C19.4133 12.0587 19.696 12.8213 19.696 13.792ZM28.7898 13.792C28.7898 14.176 28.7098 14.5547 28.5498 14.928C28.3898 15.2907 28.1818 15.648 27.9258 16C27.6804 16.3413 27.3978 16.6773 27.0778 17.008C26.7578 17.328 26.4378 17.6427 26.1178 17.952C25.9471 18.112 25.7551 18.304 25.5418 18.528C25.3284 18.752 25.1258 18.976 24.9338 19.2C24.7418 19.424 24.5764 19.6427 24.4378 19.856C24.2991 20.0587 24.2244 20.2293 24.2138 20.368H29.1418V22H22.0858C22.0751 21.9147 22.0698 21.8133 22.0698 21.696C22.0698 21.568 22.0698 21.472 22.0698 21.408C22.0698 20.896 22.1498 20.4267 22.3098 20C22.4804 19.5627 22.6991 19.1573 22.9658 18.784C23.2324 18.4107 23.5311 18.0587 23.8618 17.728C24.1924 17.3973 24.5231 17.072 24.8538 16.752C25.1098 16.5067 25.3551 16.2667 25.5898 16.032C25.8244 15.7973 26.0271 15.568 26.1978 15.344C26.3791 15.1093 26.5231 14.8747 26.6298 14.64C26.7364 14.3947 26.7898 14.144 26.7898 13.888C26.7898 13.3333 26.6298 12.9387 26.3098 12.704C25.9898 12.4693 25.6004 12.352 25.1418 12.352C24.8431 12.352 24.5658 12.3947 24.3098 12.48C24.0538 12.5653 23.8244 12.6667 23.6218 12.784C23.4298 12.9013 23.2591 13.024 23.1098 13.152C22.9604 13.2693 22.8484 13.3653 22.7738 13.44L21.8138 12.08C22.2618 11.6533 22.7844 11.312 23.3818 11.056C23.9898 10.7893 24.6404 10.656 25.3338 10.656C26.5178 10.656 27.3871 10.9387 27.9418 11.504C28.5071 12.0587 28.7898 12.8213 28.7898 13.792Z" fill="white"/>
<path d="M18.17 33.142C18.17 33.982 18.0393 34.7147 17.778 35.34C17.5167 35.956 17.148 36.4693 16.672 36.88C16.196 37.2813 15.6267 37.5847 14.964 37.79C14.3013 37.986 13.5733 38.084 12.78 38.084C12.388 38.084 11.954 38.0653 11.478 38.028C11.0113 38 10.5867 37.9393 10.204 37.846V28.438C10.5867 28.3447 11.0113 28.284 11.478 28.256C11.954 28.2187 12.388 28.2 12.78 28.2C13.5733 28.2 14.3013 28.3027 14.964 28.508C15.6267 28.704 16.196 29.0073 16.672 29.418C17.148 29.8193 17.5167 30.3327 17.778 30.958C18.0393 31.574 18.17 32.302 18.17 33.142ZM12.892 36.894C14.18 36.894 15.1413 36.5673 15.776 35.914C16.4107 35.2513 16.728 34.3273 16.728 33.142C16.728 31.9567 16.4107 31.0373 15.776 30.384C15.1413 29.7213 14.18 29.39 12.892 29.39C12.5093 29.39 12.2107 29.3947 11.996 29.404C11.7907 29.4133 11.646 29.4227 11.562 29.432V36.852C11.646 36.8613 11.7907 36.8707 11.996 36.88C12.2107 36.8893 12.5093 36.894 12.892 36.894ZM19.6945 34.374C19.6945 33.73 19.7878 33.17 19.9745 32.694C20.1611 32.2087 20.4085 31.8073 20.7165 31.49C21.0245 31.1727 21.3791 30.9347 21.7805 30.776C22.1818 30.6173 22.5925 30.538 23.0125 30.538C23.9925 30.538 24.7438 30.846 25.2665 31.462C25.7891 32.0687 26.0505 32.9973 26.0505 34.248C26.0505 34.304 26.0505 34.3787 26.0505 34.472C26.0505 34.556 26.0458 34.6353 26.0365 34.71H21.0525C21.1085 35.466 21.3278 36.04 21.7105 36.432C22.0931 36.824 22.6905 37.02 23.5025 37.02C23.9598 37.02 24.3425 36.9827 24.6505 36.908C24.9678 36.824 25.2058 36.7447 25.3645 36.67L25.5465 37.762C25.3878 37.846 25.1078 37.9347 24.7065 38.028C24.3145 38.1213 23.8665 38.168 23.3625 38.168C22.7278 38.168 22.1771 38.0747 21.7105 37.888C21.2531 37.692 20.8751 37.426 20.5765 37.09C20.2778 36.754 20.0538 36.3573 19.9045 35.9C19.7645 35.4333 19.6945 34.9247 19.6945 34.374ZM24.6925 33.66C24.7018 33.072 24.5525 32.5913 24.2445 32.218C23.9458 31.8353 23.5305 31.644 22.9985 31.644C22.6998 31.644 22.4338 31.7047 22.2005 31.826C21.9765 31.938 21.7851 32.0873 21.6265 32.274C21.4678 32.4607 21.3418 32.6753 21.2485 32.918C21.1645 33.1607 21.1085 33.408 21.0805 33.66H24.6925ZM31.0848 38.168C30.4968 38.168 29.9788 38.0747 29.5308 37.888C29.0921 37.7013 28.7188 37.44 28.4108 37.104C28.1121 36.768 27.8881 36.3713 27.7388 35.914C27.5894 35.4473 27.5148 34.934 27.5148 34.374C27.5148 33.814 27.5941 33.3007 27.7528 32.834C27.9208 32.3673 28.1541 31.966 28.4528 31.63C28.7514 31.2847 29.1154 31.0187 29.5448 30.832C29.9834 30.636 30.4688 30.538 31.0008 30.538C31.3274 30.538 31.6541 30.566 31.9808 30.622C32.3074 30.678 32.6201 30.7667 32.9188 30.888L32.6248 31.994C32.4288 31.9007 32.2001 31.826 31.9388 31.77C31.6868 31.714 31.4161 31.686 31.1268 31.686C30.3988 31.686 29.8388 31.9147 29.4468 32.372C29.0641 32.8293 28.8728 33.4967 28.8728 34.374C28.8728 34.766 28.9148 35.1253 28.9988 35.452C29.0921 35.7787 29.2321 36.0587 29.4188 36.292C29.6148 36.5253 29.8621 36.7073 30.1608 36.838C30.4594 36.9593 30.8234 37.02 31.2528 37.02C31.5981 37.02 31.9108 36.9873 32.1908 36.922C32.4708 36.8567 32.6901 36.7867 32.8488 36.712L33.0308 37.804C32.9561 37.8507 32.8488 37.8973 32.7088 37.944C32.5688 37.9813 32.4101 38.014 32.2328 38.042C32.0554 38.0793 31.8641 38.1073 31.6588 38.126C31.4628 38.154 31.2714 38.168 31.0848 38.168Z" fill="white"/>
</svg>
