<svg width="42" height="48" viewBox="0 0 42 48" fill="none" xmlns="http://www.w3.org/2000/svg">
<rect width="42" height="48" rx="2" fill="#008080"/>
<path d="M20.4 16.448C20.4 18.3147 20.0587 19.7493 19.376 20.752C18.6933 21.744 17.7493 22.24 16.544 22.24C15.3387 22.24 14.3947 21.744 13.712 20.752C13.0293 19.7493 12.688 18.3147 12.688 16.448C12.688 15.52 12.7733 14.6987 12.944 13.984C13.1253 13.2587 13.3813 12.6507 13.712 12.16C14.0533 11.6693 14.4587 11.296 14.928 11.04C15.408 10.784 15.9467 10.656 16.544 10.656C17.7493 10.656 18.6933 11.1573 19.376 12.16C20.0587 13.152 20.4 14.5813 20.4 16.448ZM18.4 16.448C18.4 15.872 18.368 15.3333 18.304 14.832C18.24 14.3307 18.1333 13.8987 17.984 13.536C17.8453 13.1627 17.6587 12.8693 17.424 12.656C17.1893 12.4427 16.896 12.336 16.544 12.336C16.192 12.336 15.8933 12.4427 15.648 12.656C15.4133 12.8693 15.2213 13.1627 15.072 13.536C14.9333 13.8987 14.832 14.3307 14.768 14.832C14.7147 15.3333 14.688 15.872 14.688 16.448C14.688 17.024 14.7147 17.5627 14.768 18.064C14.832 18.5653 14.9333 19.0027 15.072 19.376C15.2213 19.7387 15.4133 20.0267 15.648 20.24C15.8933 20.4533 16.192 20.56 16.544 20.56C16.896 20.56 17.1893 20.4533 17.424 20.24C17.6587 20.0267 17.8453 19.7387 17.984 19.376C18.1333 19.0027 18.24 18.5653 18.304 18.064C18.368 17.5627 18.4 17.024 18.4 16.448ZM28.7898 13.792C28.7898 14.176 28.7098 14.5547 28.5498 14.928C28.3898 15.2907 28.1818 15.648 27.9258 16C27.6804 16.3413 27.3978 16.6773 27.0778 17.008C26.7578 17.328 26.4378 17.6427 26.1178 17.952C25.9471 18.112 25.7551 18.304 25.5418 18.528C25.3284 18.752 25.1258 18.976 24.9338 19.2C24.7418 19.424 24.5764 19.6427 24.4378 19.856C24.2991 20.0587 24.2244 20.2293 24.2138 20.368H29.1418V22H22.0858C22.0751 21.9147 22.0698 21.8133 22.0698 21.696C22.0698 21.568 22.0698 21.472 22.0698 21.408C22.0698 20.896 22.1498 20.4267 22.3098 20C22.4804 19.5627 22.6991 19.1573 22.9658 18.784C23.2324 18.4107 23.5311 18.0587 23.8618 17.728C24.1924 17.3973 24.5231 17.072 24.8538 16.752C25.1098 16.5067 25.3551 16.2667 25.5898 16.032C25.8244 15.7973 26.0271 15.568 26.1978 15.344C26.3791 15.1093 26.5231 14.8747 26.6298 14.64C26.7364 14.3947 26.7898 14.144 26.7898 13.888C26.7898 13.3333 26.6298 12.9387 26.3098 12.704C25.9898 12.4693 25.6004 12.352 25.1418 12.352C24.8431 12.352 24.5658 12.3947 24.3098 12.48C24.0538 12.5653 23.8244 12.6667 23.6218 12.784C23.4298 12.9013 23.2591 13.024 23.1098 13.152C22.9604 13.2693 22.8484 13.3653 22.7738 13.44L21.8138 12.08C22.2618 11.6533 22.7844 11.312 23.3818 11.056C23.9898 10.7893 24.6404 10.656 25.3338 10.656C26.5178 10.656 27.3871 10.9387 27.9418 11.504C28.5071 12.0587 28.7898 12.8213 28.7898 13.792Z" fill="white"/>
<path d="M14.558 36.656C14.4647 36.432 14.3387 36.1473 14.18 35.802C14.0307 35.4567 13.8673 35.0833 13.69 34.682C13.5127 34.2807 13.3213 33.87 13.116 33.45C12.92 33.0207 12.7333 32.6193 12.556 32.246C12.3787 31.8633 12.2107 31.5227 12.052 31.224C11.9027 30.9253 11.7813 30.6967 11.688 30.538C11.5853 31.6393 11.5013 32.834 11.436 34.122C11.3707 35.4007 11.3147 36.6933 11.268 38H9.938C9.97533 37.16 10.0173 36.3153 10.064 35.466C10.1107 34.6073 10.162 33.7673 10.218 32.946C10.2833 32.1153 10.3487 31.308 10.414 30.524C10.4887 29.74 10.568 28.998 10.652 28.298H11.842C12.094 28.7087 12.3647 29.194 12.654 29.754C12.9433 30.314 13.2327 30.902 13.522 31.518C13.8113 32.1247 14.0913 32.736 14.362 33.352C14.6327 33.9587 14.88 34.514 15.104 35.018C15.328 34.514 15.5753 33.9587 15.846 33.352C16.1167 32.736 16.3967 32.1247 16.686 31.518C16.9753 30.902 17.2647 30.314 17.554 29.754C17.8433 29.194 18.114 28.7087 18.366 28.298H19.556C19.8733 31.4247 20.1113 34.6587 20.27 38H18.94C18.8933 36.6933 18.8373 35.4007 18.772 34.122C18.7067 32.834 18.6227 31.6393 18.52 30.538C18.4267 30.6967 18.3007 30.9253 18.142 31.224C17.9927 31.5227 17.8293 31.8633 17.652 32.246C17.4747 32.6193 17.2833 33.0207 17.078 33.45C16.882 33.87 16.6953 34.2807 16.518 34.682C16.3407 35.0833 16.1727 35.4567 16.014 35.802C15.8647 36.1473 15.7433 36.432 15.65 36.656H14.558ZM24.7793 37.062C25.0873 37.062 25.358 37.0573 25.5913 37.048C25.834 37.0293 26.0346 37.0013 26.1933 36.964V34.794C26.1 34.7473 25.946 34.71 25.7313 34.682C25.526 34.6447 25.274 34.626 24.9753 34.626C24.7793 34.626 24.5693 34.64 24.3453 34.668C24.1306 34.696 23.93 34.7567 23.7433 34.85C23.566 34.934 23.4166 35.0553 23.2953 35.214C23.174 35.3633 23.1133 35.564 23.1133 35.816C23.1133 36.2827 23.2626 36.6093 23.5613 36.796C23.86 36.9733 24.266 37.062 24.7793 37.062ZM24.6673 30.538C25.19 30.538 25.6286 30.608 25.9833 30.748C26.3473 30.8787 26.6366 31.07 26.8513 31.322C27.0753 31.5647 27.234 31.8587 27.3273 32.204C27.4206 32.54 27.4673 32.9133 27.4673 33.324V37.874C27.3553 37.8927 27.1966 37.9207 26.9913 37.958C26.7953 37.986 26.5713 38.014 26.3193 38.042C26.0673 38.07 25.792 38.0933 25.4933 38.112C25.204 38.14 24.9146 38.154 24.6253 38.154C24.2146 38.154 23.8366 38.112 23.4913 38.028C23.146 37.944 22.8473 37.8133 22.5953 37.636C22.3433 37.4493 22.1473 37.2067 22.0073 36.908C21.8673 36.6093 21.7973 36.25 21.7973 35.83C21.7973 35.4287 21.8766 35.0833 22.0353 34.794C22.2033 34.5047 22.4273 34.2713 22.7073 34.094C22.9873 33.9167 23.314 33.786 23.6873 33.702C24.0606 33.618 24.4526 33.576 24.8633 33.576C24.994 33.576 25.1293 33.5853 25.2693 33.604C25.4093 33.6133 25.54 33.632 25.6613 33.66C25.792 33.6787 25.904 33.6973 25.9973 33.716C26.0906 33.7347 26.156 33.7487 26.1933 33.758V33.394C26.1933 33.1793 26.17 32.9693 26.1233 32.764C26.0766 32.5493 25.9926 32.3627 25.8713 32.204C25.75 32.036 25.582 31.9053 25.3673 31.812C25.162 31.7093 24.8913 31.658 24.5553 31.658C24.126 31.658 23.748 31.6907 23.4213 31.756C23.104 31.812 22.866 31.8727 22.7073 31.938L22.5533 30.86C22.7213 30.7853 23.0013 30.7153 23.3933 30.65C23.7853 30.5753 24.21 30.538 24.6673 30.538ZM32.3178 30.566C32.4298 30.566 32.5558 30.5753 32.6958 30.594C32.8451 30.6033 32.9898 30.622 33.1298 30.65C33.2698 30.6687 33.3958 30.692 33.5078 30.72C33.6291 30.7387 33.7178 30.7573 33.7738 30.776L33.5498 31.91C33.4471 31.8727 33.2744 31.8307 33.0318 31.784C32.7984 31.728 32.4951 31.7 32.1218 31.7C31.8791 31.7 31.6364 31.728 31.3938 31.784C31.1604 31.8307 31.0064 31.8633 30.9318 31.882V38H29.6298V31.028C29.9378 30.916 30.3204 30.8133 30.7778 30.72C31.2351 30.6173 31.7484 30.566 32.3178 30.566Z" fill="white"/>
</svg>
