<svg width="42" height="48" viewBox="0 0 42 48" fill="none" xmlns="http://www.w3.org/2000/svg">
<rect width="42" height="48" rx="2" fill="#008080"/>
<path d="M20.4 16.448C20.4 18.3147 20.0587 19.7493 19.376 20.752C18.6933 21.744 17.7493 22.24 16.544 22.24C15.3387 22.24 14.3947 21.744 13.712 20.752C13.0293 19.7493 12.688 18.3147 12.688 16.448C12.688 15.52 12.7733 14.6987 12.944 13.984C13.1253 13.2587 13.3813 12.6507 13.712 12.16C14.0533 11.6693 14.4587 11.296 14.928 11.04C15.408 10.784 15.9467 10.656 16.544 10.656C17.7493 10.656 18.6933 11.1573 19.376 12.16C20.0587 13.152 20.4 14.5813 20.4 16.448ZM18.4 16.448C18.4 15.872 18.368 15.3333 18.304 14.832C18.24 14.3307 18.1333 13.8987 17.984 13.536C17.8453 13.1627 17.6587 12.8693 17.424 12.656C17.1893 12.4427 16.896 12.336 16.544 12.336C16.192 12.336 15.8933 12.4427 15.648 12.656C15.4133 12.8693 15.2213 13.1627 15.072 13.536C14.9333 13.8987 14.832 14.3307 14.768 14.832C14.7147 15.3333 14.688 15.872 14.688 16.448C14.688 17.024 14.7147 17.5627 14.768 18.064C14.832 18.5653 14.9333 19.0027 15.072 19.376C15.2213 19.7387 15.4133 20.0267 15.648 20.24C15.8933 20.4533 16.192 20.56 16.544 20.56C16.896 20.56 17.1893 20.4533 17.424 20.24C17.6587 20.0267 17.8453 19.7387 17.984 19.376C18.1333 19.0027 18.24 18.5653 18.304 18.064C18.368 17.5627 18.4 17.024 18.4 16.448ZM27.2218 18.832C27.2218 18.48 27.1524 18.1653 27.0138 17.888C26.8751 17.6107 26.6298 17.376 26.2778 17.184C25.9364 16.992 25.4724 16.848 24.8858 16.752C24.3098 16.656 23.5791 16.608 22.6938 16.608C22.8111 15.584 22.9018 14.6133 22.9658 13.696C23.0298 12.768 23.0831 11.84 23.1258 10.912H28.7898V12.544H24.7738C24.7631 12.7253 24.7471 12.9333 24.7258 13.168C24.7151 13.392 24.6991 13.6213 24.6778 13.856C24.6671 14.0907 24.6511 14.3147 24.6298 14.528C24.6084 14.7413 24.5871 14.9227 24.5658 15.072C26.1444 15.1573 27.3071 15.52 28.0538 16.16C28.8111 16.7893 29.1898 17.6533 29.1898 18.752C29.1898 19.2533 29.1044 19.7173 28.9338 20.144C28.7631 20.5707 28.5018 20.9387 28.1498 21.248C27.7978 21.5573 27.3551 21.8027 26.8218 21.984C26.2884 22.1547 25.6644 22.24 24.9498 22.24C24.6618 22.24 24.3684 22.2187 24.0698 22.176C23.7711 22.1333 23.4831 22.08 23.2057 22.016C22.9391 21.9627 22.6991 21.904 22.4858 21.84C22.2724 21.776 22.1124 21.7173 22.0058 21.664L22.3738 20.032C22.5978 20.1387 22.9178 20.256 23.3338 20.384C23.7604 20.5013 24.2778 20.56 24.8858 20.56C25.3018 20.56 25.6591 20.5173 25.9578 20.432C26.2564 20.336 26.4964 20.208 26.6778 20.048C26.8698 19.888 27.0084 19.7067 27.0938 19.504C27.1791 19.2907 27.2218 19.0667 27.2218 18.832Z" fill="white"/>
<path d="M18.17 33.142C18.17 33.982 18.0393 34.7147 17.778 35.34C17.5167 35.956 17.148 36.4693 16.672 36.88C16.196 37.2813 15.6267 37.5847 14.964 37.79C14.3013 37.986 13.5733 38.084 12.78 38.084C12.388 38.084 11.954 38.0653 11.478 38.028C11.0113 38 10.5867 37.9393 10.204 37.846V28.438C10.5867 28.3447 11.0113 28.284 11.478 28.256C11.954 28.2187 12.388 28.2 12.78 28.2C13.5733 28.2 14.3013 28.3027 14.964 28.508C15.6267 28.704 16.196 29.0073 16.672 29.418C17.148 29.8193 17.5167 30.3327 17.778 30.958C18.0393 31.574 18.17 32.302 18.17 33.142ZM12.892 36.894C14.18 36.894 15.1413 36.5673 15.776 35.914C16.4107 35.2513 16.728 34.3273 16.728 33.142C16.728 31.9567 16.4107 31.0373 15.776 30.384C15.1413 29.7213 14.18 29.39 12.892 29.39C12.5093 29.39 12.2107 29.3947 11.996 29.404C11.7907 29.4133 11.646 29.4227 11.562 29.432V36.852C11.646 36.8613 11.7907 36.8707 11.996 36.88C12.2107 36.8893 12.5093 36.894 12.892 36.894ZM19.6945 34.374C19.6945 33.73 19.7878 33.17 19.9745 32.694C20.1611 32.2087 20.4085 31.8073 20.7165 31.49C21.0245 31.1727 21.3791 30.9347 21.7805 30.776C22.1818 30.6173 22.5925 30.538 23.0125 30.538C23.9925 30.538 24.7438 30.846 25.2665 31.462C25.7891 32.0687 26.0505 32.9973 26.0505 34.248C26.0505 34.304 26.0505 34.3787 26.0505 34.472C26.0505 34.556 26.0458 34.6353 26.0365 34.71H21.0525C21.1085 35.466 21.3278 36.04 21.7105 36.432C22.0931 36.824 22.6905 37.02 23.5025 37.02C23.9598 37.02 24.3425 36.9827 24.6505 36.908C24.9678 36.824 25.2058 36.7447 25.3645 36.67L25.5465 37.762C25.3878 37.846 25.1078 37.9347 24.7065 38.028C24.3145 38.1213 23.8665 38.168 23.3625 38.168C22.7278 38.168 22.1771 38.0747 21.7105 37.888C21.2531 37.692 20.8751 37.426 20.5765 37.09C20.2778 36.754 20.0538 36.3573 19.9045 35.9C19.7645 35.4333 19.6945 34.9247 19.6945 34.374ZM24.6925 33.66C24.7018 33.072 24.5525 32.5913 24.2445 32.218C23.9458 31.8353 23.5305 31.644 22.9985 31.644C22.6998 31.644 22.4338 31.7047 22.2005 31.826C21.9765 31.938 21.7851 32.0873 21.6265 32.274C21.4678 32.4607 21.3418 32.6753 21.2485 32.918C21.1645 33.1607 21.1085 33.408 21.0805 33.66H24.6925ZM31.0848 38.168C30.4968 38.168 29.9788 38.0747 29.5308 37.888C29.0921 37.7013 28.7188 37.44 28.4108 37.104C28.1121 36.768 27.8881 36.3713 27.7388 35.914C27.5894 35.4473 27.5148 34.934 27.5148 34.374C27.5148 33.814 27.5941 33.3007 27.7528 32.834C27.9208 32.3673 28.1541 31.966 28.4528 31.63C28.7514 31.2847 29.1154 31.0187 29.5448 30.832C29.9834 30.636 30.4688 30.538 31.0008 30.538C31.3274 30.538 31.6541 30.566 31.9808 30.622C32.3074 30.678 32.6201 30.7667 32.9188 30.888L32.6248 31.994C32.4288 31.9007 32.2001 31.826 31.9388 31.77C31.6868 31.714 31.4161 31.686 31.1268 31.686C30.3988 31.686 29.8388 31.9147 29.4468 32.372C29.0641 32.8293 28.8728 33.4967 28.8728 34.374C28.8728 34.766 28.9148 35.1253 28.9988 35.452C29.0921 35.7787 29.2321 36.0587 29.4188 36.292C29.6148 36.5253 29.8621 36.7073 30.1608 36.838C30.4594 36.9593 30.8234 37.02 31.2528 37.02C31.5981 37.02 31.9108 36.9873 32.1908 36.922C32.4708 36.8567 32.6901 36.7867 32.8488 36.712L33.0308 37.804C32.9561 37.8507 32.8488 37.8973 32.7088 37.944C32.5688 37.9813 32.4101 38.014 32.2328 38.042C32.0554 38.0793 31.8641 38.1073 31.6588 38.126C31.4628 38.154 31.2714 38.168 31.0848 38.168Z" fill="white"/>
</svg>
