<svg width="16" height="16" viewBox="0 0 16 16" fill="none" xmlns="http://www.w3.org/2000/svg">
<path d="M6.50011 4.00028C6.6327 4.00031 6.75986 4.05301 6.85361 4.14678L10.3536 7.64678C10.4473 7.74055 10.5 7.8677 10.5 8.00028C10.5 8.13287 10.4473 8.26002 10.3536 8.35378L6.85361 11.8538C6.75931 11.9449 6.633 11.9953 6.50191 11.9941C6.37081 11.993 6.2454 11.9404 6.1527 11.8477C6.05999 11.755 6.00741 11.6296 6.00627 11.4985C6.00513 11.3674 6.05553 11.2411 6.14661 11.1468L9.29311 8.00028L6.14661 4.85378C6.07927 4.7829 6.03393 4.69401 6.01608 4.59788C5.99824 4.50176 6.00865 4.40251 6.04606 4.31219C6.08348 4.22186 6.14628 4.14432 6.22687 4.08896C6.30746 4.0336 6.40237 4.0028 6.50011 4.00028Z" fill="black"/>
</svg>
