<svg width="53" height="52" viewBox="0 0 53 52" fill="none" xmlns="http://www.w3.org/2000/svg">
<rect width="52.5778" height="52" rx="8" fill="#FFABAB" fill-opacity="0.7"/>
<g clip-path="url(#clip0_2751_10921)">
<path d="M24.25 34.75H14.1875C13.6076 34.7493 13.0516 34.5186 12.6415 34.1085C12.2314 33.6984 12.0007 33.1424 12 32.5625V14.1875C12.0007 13.6076 12.2314 13.0516 12.6415 12.6415C13.0516 12.2314 13.6076 12.0007 14.1875 12H15.0625V12.875H14.1875C13.8394 12.875 13.5056 13.0133 13.2594 13.2594C13.0133 13.5056 12.875 13.8394 12.875 14.1875V32.5625C12.875 32.9106 13.0133 33.2444 13.2594 33.4906C13.5056 33.7367 13.8394 33.875 14.1875 33.875H24.25V34.75Z" fill="#CF4141"/>
<path d="M15.9375 12H16.8129V12.875H15.9375V12Z" fill="#CF4141"/>
<path d="M37.8125 34.75V33.875C38.1606 33.875 38.4944 33.7367 38.7406 33.4906C38.9867 33.2444 39.125 32.9106 39.125 32.5625V14.1875C39.125 13.8394 38.9867 13.5056 38.7406 13.2594C38.4944 13.0133 38.1606 12.875 37.8125 12.875H17.6875V12H37.8125C38.3924 12.0007 38.9484 12.2314 39.3585 12.6415C39.7686 13.0516 39.9993 13.6076 40 14.1875V32.5625C39.9993 33.1424 39.7686 33.6984 39.3585 34.1085C38.9484 34.5186 38.3924 34.7493 37.8125 34.75Z" fill="#CF4141"/>
<path d="M20.3257 35.9648L20.764 34.2151L21.6128 34.4278L21.1744 36.1775L20.3257 35.9648Z" fill="#CF4141"/>
<path d="M24.25 38.25H19.875C19.759 38.25 19.6477 38.2039 19.5656 38.1219C19.4836 38.0398 19.4375 37.9285 19.4375 37.8125V36.9375C19.4375 36.5894 19.5758 36.2556 19.8219 36.0094C20.0681 35.7633 20.4019 35.625 20.75 35.625H24.25V36.5H20.75C20.634 36.5 20.5227 36.5461 20.4406 36.6281C20.3586 36.7102 20.3125 36.8215 20.3125 36.9375V37.375H24.25V38.25Z" fill="#CF4141"/>
<path d="M12.4375 30.375H24.25V31.25H12.4375V30.375Z" fill="#CF4141"/>
<path d="M13.75 32.125H14.625V33H13.75V32.125Z" fill="#CF4141"/>
<path d="M15.5 32.125H18.125V33H15.5V32.125Z" fill="#CF4141"/>
<path d="M36.0625 40H27.3125C26.7326 39.9993 26.1766 39.7686 25.7665 39.3585C25.3564 38.9484 25.1257 38.3924 25.125 37.8125V20.3125C25.1257 19.7326 25.3564 19.1766 25.7665 18.7665C26.1766 18.3564 26.7326 18.1257 27.3125 18.125H36.0625C36.6424 18.1257 37.1984 18.3564 37.6085 18.7665C38.0186 19.1766 38.2493 19.7326 38.25 20.3125V37.8125C38.2493 38.3924 38.0186 38.9484 37.6085 39.3585C37.1984 39.7686 36.6424 39.9993 36.0625 40ZM27.3125 19C26.9644 19 26.6306 19.1383 26.3844 19.3844C26.1383 19.6306 26 19.9644 26 20.3125V37.8125C26 38.1606 26.1383 38.4944 26.3844 38.7406C26.6306 38.9867 26.9644 39.125 27.3125 39.125H36.0625C36.4106 39.125 36.7444 38.9867 36.9906 38.7406C37.2367 38.4944 37.375 38.1606 37.375 37.8125V20.3125C37.375 19.9644 37.2367 19.6306 36.9906 19.3844C36.7444 19.1383 36.4106 19 36.0625 19H27.3125Z" fill="#CF4141"/>
<path d="M33.875 22.5H29.5C28.6801 22.5 28.3367 21.786 28.2282 21.1875H25.5625V20.3125H28.625C28.741 20.3125 28.8523 20.3586 28.9344 20.4406C29.0164 20.5227 29.0625 20.634 29.0625 20.75C29.0625 20.7574 29.087 21.625 29.5 21.625H33.875C34.288 21.625 34.3125 20.7574 34.3125 20.75C34.3125 20.634 34.3586 20.5227 34.4406 20.4406C34.5227 20.3586 34.634 20.3125 34.75 20.3125H37.8125V21.1875H35.1468C35.0383 21.786 34.6949 22.5 33.875 22.5Z" fill="#CF4141"/>
<path d="M29.9375 19.875H33.4375V20.75H29.9375V19.875Z" fill="#CF4141"/>
<path d="M29.9375 37.8125H33.4375V38.6875H29.9375V37.8125Z" fill="#CF4141"/>
<path d="M25.5625 36.5H37.8125V37.375H25.5625V36.5Z" fill="#CF4141"/>
<path d="M19.875 24.25H18.125C18.009 24.25 17.8977 24.2039 17.8156 24.1219C17.7336 24.0398 17.6875 23.9285 17.6875 23.8125V23.1711C17.4432 23.0942 17.2062 22.9958 16.9792 22.8771L16.5251 23.3313C16.443 23.4133 16.3318 23.4593 16.2157 23.4593C16.0997 23.4593 15.9885 23.4133 15.9064 23.3313L14.6687 22.0936C14.5867 22.0115 14.5407 21.9003 14.5407 21.7843C14.5407 21.6682 14.5867 21.557 14.6687 21.4749L15.1224 21.0208C15.0039 20.7938 14.9057 20.5568 14.8289 20.3125H14.1875C14.0715 20.3125 13.9602 20.2664 13.8781 20.1844C13.7961 20.1023 13.75 19.991 13.75 19.875V18.125C13.75 18.009 13.7961 17.8977 13.8781 17.8156C13.9602 17.7336 14.0715 17.6875 14.1875 17.6875H14.8289C14.9058 17.4432 15.0042 17.2062 15.1229 16.9792L14.6687 16.5251C14.5867 16.443 14.5407 16.3318 14.5407 16.2157C14.5407 16.0997 14.5867 15.9885 14.6687 15.9064L15.9064 14.6687C15.9885 14.5867 16.0997 14.5407 16.2157 14.5407C16.3318 14.5407 16.443 14.5867 16.5251 14.6687L16.9792 15.1224C17.2062 15.0039 17.4432 14.9057 17.6875 14.8289V14.1875C17.6875 14.0715 17.7336 13.9602 17.8156 13.8781C17.8977 13.7961 18.009 13.75 18.125 13.75H19.875C19.991 13.75 20.1023 13.7961 20.1844 13.8781C20.2664 13.9602 20.3125 14.0715 20.3125 14.1875V14.8289C20.5568 14.9058 20.7938 15.0042 21.0208 15.1229L21.4749 14.6687C21.557 14.5867 21.6682 14.5407 21.7843 14.5407C21.9003 14.5407 22.0115 14.5867 22.0936 14.6687L23.3313 15.9064C23.4133 15.9885 23.4593 16.0997 23.4593 16.2157C23.4593 16.3318 23.4133 16.443 23.3313 16.5251L22.8776 16.9792C22.9961 17.2062 23.0943 17.4432 23.1711 17.6875H23.8125C23.9285 17.6875 24.0398 17.7336 24.1219 17.8156C24.2039 17.8977 24.25 18.009 24.25 18.125V19.875C24.25 19.991 24.2039 20.1023 24.1219 20.1844C24.0398 20.2664 23.9285 20.3125 23.8125 20.3125H23.1711C23.0942 20.5568 22.9958 20.7938 22.8771 21.0208L23.3313 21.4749C23.4133 21.557 23.4593 21.6682 23.4593 21.7843C23.4593 21.9003 23.4133 22.0115 23.3313 22.0936L22.0936 23.3313C22.0115 23.4133 21.9003 23.4593 21.7843 23.4593C21.6682 23.4593 21.557 23.4133 21.4749 23.3313L21.0208 22.8776C20.7938 22.9961 20.5568 23.0943 20.3125 23.1711V23.8125C20.3125 23.9285 20.2664 24.0398 20.1844 24.1219C20.1023 24.2039 19.991 24.25 19.875 24.25ZM18.5625 23.375H19.4375V22.8369C19.4374 22.7377 19.471 22.6413 19.5329 22.5638C19.5947 22.4862 19.6811 22.4319 19.7779 22.4099C20.1614 22.3226 20.5273 22.1707 20.8598 21.9606C20.9438 21.9076 21.0433 21.8848 21.1419 21.8958C21.2406 21.9069 21.3326 21.9511 21.4028 22.0214L21.7843 22.4029L22.4029 21.7843L22.0214 21.4028C21.9511 21.3326 21.9069 21.2406 21.8958 21.1419C21.8848 21.0433 21.9076 20.9438 21.9606 20.8598C22.1707 20.5273 22.3226 20.1614 22.4099 19.7779C22.4319 19.6811 22.4862 19.5947 22.5638 19.5329C22.6413 19.471 22.7377 19.4374 22.8369 19.4375H23.375V18.5625H22.8369C22.7377 18.5626 22.6413 18.529 22.5638 18.4671C22.4862 18.4053 22.4319 18.3189 22.4099 18.2221C22.3226 17.8386 22.1707 17.4727 21.9606 17.1402C21.9076 17.0562 21.8848 16.9567 21.8958 16.8581C21.9069 16.7594 21.9511 16.6674 22.0214 16.5973L22.4029 16.2157L21.7843 15.5971L21.4028 15.9786C21.3326 16.0489 21.2406 16.0931 21.1419 16.1042C21.0433 16.1152 20.9438 16.0924 20.8598 16.0394C20.5273 15.8293 20.1614 15.6774 19.7779 15.5901C19.6811 15.5681 19.5947 15.5138 19.5329 15.4362C19.471 15.3587 19.4374 15.2623 19.4375 15.1631V14.625H18.5625V15.1631C18.5626 15.2623 18.529 15.3587 18.4671 15.4362C18.4053 15.5138 18.3189 15.5681 18.2221 15.5901C17.8386 15.6774 17.4727 15.8293 17.1402 16.0394C17.0562 16.0924 16.9567 16.1152 16.8581 16.1042C16.7594 16.0931 16.6674 16.0489 16.5973 15.9786L16.2157 15.5971L15.5971 16.2157L15.9786 16.5973C16.0489 16.6674 16.0931 16.7594 16.1042 16.8581C16.1152 16.9567 16.0924 17.0562 16.0394 17.1402C15.8293 17.4727 15.6774 17.8386 15.5901 18.2221C15.5681 18.3189 15.5138 18.4053 15.4362 18.4671C15.3587 18.529 15.2623 18.5626 15.1631 18.5625H14.625V19.4375H15.1631C15.2623 19.4374 15.3587 19.471 15.4362 19.5329C15.5138 19.5947 15.5681 19.6811 15.5901 19.7779C15.6774 20.1614 15.8293 20.5273 16.0394 20.8598C16.0924 20.9438 16.1152 21.0433 16.1042 21.1419C16.0931 21.2406 16.0489 21.3326 15.9786 21.4028L15.5971 21.7843L16.2157 22.4029L16.5973 22.0214C16.6674 21.9511 16.7594 21.9069 16.8581 21.8958C16.9567 21.8848 17.0562 21.9076 17.1402 21.9606C17.4727 22.1707 17.8386 22.3226 18.2221 22.4099C18.3189 22.4319 18.4053 22.4862 18.4671 22.5638C18.529 22.6413 18.5626 22.7377 18.5625 22.8369V23.375Z" fill="#CF4141"/>
<path d="M19 21.1875C18.5674 21.1875 18.1444 21.0592 17.7847 20.8188C17.425 20.5785 17.1446 20.2368 16.979 19.8371C16.8134 19.4374 16.7701 18.9976 16.8545 18.5732C16.9389 18.1489 17.1473 17.7591 17.4532 17.4532C17.7591 17.1473 18.1489 16.9389 18.5732 16.8545C18.9976 16.7701 19.4374 16.8134 19.8371 16.979C20.2368 17.1446 20.5785 17.425 20.8188 17.7847C21.0592 18.1444 21.1875 18.5674 21.1875 19C21.1868 19.5799 20.9561 20.1359 20.546 20.546C20.1359 20.9561 19.5799 21.1868 19 21.1875ZM19 17.6875C18.7404 17.6875 18.4867 17.7645 18.2708 17.9087C18.055 18.0529 17.8867 18.2579 17.7874 18.4977C17.6881 18.7376 17.6621 19.0015 17.7127 19.2561C17.7634 19.5107 17.8884 19.7445 18.0719 19.9281C18.2555 20.1116 18.4893 20.2366 18.7439 20.2873C18.9985 20.3379 19.2624 20.3119 19.5023 20.2126C19.7421 20.1133 19.9471 19.945 20.0913 19.7292C20.2355 19.5133 20.3125 19.2596 20.3125 19C20.3125 18.6519 20.1742 18.3181 19.9281 18.0719C19.6819 17.8258 19.3481 17.6875 19 17.6875Z" fill="#CF4141"/>
<path d="M19.4375 29.9375H18.5625V28.1875C18.5625 28.0715 18.6086 27.9602 18.6906 27.8781C18.7727 27.7961 18.884 27.75 19 27.75H19.6414C19.7183 27.5057 19.8167 27.2687 19.9354 27.0417L19.4813 26.5876C19.3992 26.5055 19.3532 26.3943 19.3532 26.2783C19.3532 26.1622 19.3992 26.051 19.4813 25.9689L20.7189 24.7313C20.801 24.6492 20.9122 24.6032 21.0282 24.6032C21.1443 24.6032 21.2555 24.6492 21.3376 24.7313L21.7917 25.1849C22.0187 25.0664 22.2557 24.9682 22.5 24.8914V24.25C22.5 24.134 22.5461 24.0227 22.6281 23.9406C22.7102 23.8586 22.8215 23.8125 22.9375 23.8125H24.6875V24.6875H23.375V25.2256C23.3751 25.3248 23.3415 25.4212 23.2796 25.4987C23.2178 25.5763 23.1314 25.6306 23.0346 25.6526C22.6511 25.7399 22.2852 25.8918 21.9527 26.1019C21.8687 26.1549 21.7692 26.1777 21.6706 26.1667C21.5719 26.1556 21.4799 26.1114 21.4097 26.0411L21.0282 25.6596L20.4096 26.2783L20.7911 26.6597C20.8614 26.7299 20.9056 26.8219 20.9167 26.9206C20.9277 27.0192 20.9049 27.1187 20.8519 27.2027C20.6418 27.5352 20.4899 27.9011 20.4026 28.2846C20.3806 28.3814 20.3263 28.4678 20.2487 28.5296C20.1712 28.5915 20.0748 28.6251 19.9756 28.625H19.4375V29.9375Z" fill="#CF4141"/>
<path d="M22.5 29.0625H21.625C21.6257 28.4826 21.8564 27.9266 22.2665 27.5165C22.6766 27.1064 23.2326 26.8757 23.8125 26.875V27.75C23.4644 27.75 23.1306 27.8883 22.8844 28.1344C22.6383 28.3806 22.5 28.7144 22.5 29.0625Z" fill="#CF4141"/>
<path d="M31.6875 33.875C30.7357 33.875 29.8052 33.5928 29.0138 33.0639C28.2224 32.5351 27.6056 31.7835 27.2413 30.9042C26.8771 30.0248 26.7818 29.0572 26.9675 28.1236C27.1532 27.1901 27.6115 26.3326 28.2846 25.6596C28.9576 24.9865 29.8151 24.5282 30.7486 24.3425C31.6822 24.1568 32.6498 24.2521 33.5292 24.6163C34.4085 24.9806 35.1601 25.5974 35.6889 26.3888C36.2178 27.1802 36.5 28.1107 36.5 29.0625C36.4985 30.3384 35.991 31.5616 35.0888 32.4638C34.1866 33.366 32.9634 33.8735 31.6875 33.875ZM31.6875 25.125C30.9087 25.125 30.1475 25.3559 29.4999 25.7886C28.8524 26.2212 28.3477 26.8362 28.0497 27.5557C27.7517 28.2752 27.6737 29.0669 27.8257 29.8307C27.9776 30.5945 28.3526 31.2961 28.9033 31.8467C29.4539 32.3974 30.1555 32.7724 30.9193 32.9243C31.6831 33.0763 32.4748 32.9983 33.1943 32.7003C33.9138 32.4023 34.5288 31.8976 34.9614 31.2501C35.3941 30.6025 35.625 29.8413 35.625 29.0625C35.6237 28.0186 35.2085 27.0178 34.4703 26.2797C33.7322 25.5415 32.7314 25.1263 31.6875 25.125Z" fill="#CF4141"/>
<path d="M30.8124 32.1249C30.6964 32.1249 30.5851 32.0788 30.5031 31.9967L28.3156 29.8092C28.2336 29.7272 28.1875 29.6159 28.1875 29.4999C28.1875 29.3839 28.2336 29.2726 28.3156 29.1906L29.6281 27.8781C29.7101 27.7961 29.8214 27.75 29.9374 27.75C30.0534 27.75 30.1647 27.7961 30.2467 27.8781L30.8124 28.4438L33.1281 26.1281C33.2101 26.0461 33.3214 26 33.4374 26C33.5534 26 33.6647 26.0461 33.7467 26.1281L35.0592 27.4406C35.1412 27.5226 35.1873 27.6339 35.1873 27.7499C35.1873 27.8659 35.1412 27.9772 35.0592 28.0592L31.1217 31.9967C31.0397 32.0788 30.9284 32.1249 30.8124 32.1249ZM29.2435 29.4999L30.8124 31.0688L34.1313 27.7499L33.4374 27.056L31.1217 29.3717C31.0397 29.4537 30.9284 29.4998 30.8124 29.4998C30.6964 29.4998 30.5851 29.4537 30.5031 29.3717L29.9374 28.806L29.2435 29.4999Z" fill="#CF4141"/>
<path d="M36.9375 13.75H37.8125V14.625H36.9375V13.75Z" fill="#CF4141"/>
<path d="M30.375 13.75H36.0625V14.625H30.375V13.75Z" fill="#CF4141"/>
</g>
<defs>
<clipPath id="clip0_2751_10921">
<rect width="28" height="28" fill="white" transform="translate(12 12)"/>
</clipPath>
</defs>
</svg>
