<svg width="255" height="312" viewBox="0 0 255 312" fill="none" xmlns="http://www.w3.org/2000/svg">
<g filter="url(#filter0_d_1743_2339)">
<rect x="73" y="126" width="52.5778" height="52" rx="8" fill="white"/>
<rect x="73.5" y="126.5" width="51.5778" height="51" rx="7.5" stroke="#D2D2D2"/>
</g>
<path d="M107.724 148.905C107.724 144.091 103.81 140.174 98.9999 140.174C94.1898 140.174 90.2764 144.091 90.2764 148.905C90.2764 151.325 91.2442 153.574 93.002 155.239C94.0837 156.263 94.7119 157.737 94.7474 159.298C94.3797 159.581 94.1384 160.02 94.1384 160.519C94.1384 160.94 94.3091 161.322 94.5839 161.601C94.3091 161.88 94.1384 162.262 94.1384 162.684C94.1384 163.536 94.8311 164.228 95.6826 164.228H96.4106C96.4395 165.633 97.5874 166.769 98.9999 166.769C100.413 166.769 101.561 165.633 101.59 164.228H102.318C103.169 164.228 103.862 163.536 103.862 162.684C103.862 162.262 103.691 161.88 103.416 161.601C103.691 161.322 103.862 160.94 103.862 160.519C103.862 160.024 103.623 159.587 103.26 159.304C103.294 157.74 103.923 156.262 105.005 155.235C106.758 153.571 107.724 151.323 107.724 148.905ZM102.939 160.519C102.939 160.861 102.66 161.14 102.318 161.14H95.6826C95.3401 161.14 95.0615 160.861 95.0615 160.519C95.0615 160.176 95.3401 159.897 95.6826 159.897H102.318C102.66 159.897 102.939 160.176 102.939 160.519ZM98.9999 165.846C98.0961 165.846 97.3572 165.125 97.3293 164.228H100.671C100.643 165.125 99.9041 165.846 98.9999 165.846ZM102.318 163.305H101.133H96.8668H95.6826C95.3401 163.305 95.0615 163.027 95.0615 162.684C95.0615 162.341 95.3401 162.063 95.6826 162.063H102.318C102.66 162.063 102.939 162.341 102.939 162.684C102.939 163.027 102.66 163.305 102.318 163.305ZM102.346 158.974H102.318H95.6826H95.6619C95.5501 157.281 94.8259 155.695 93.6366 154.568C92.0651 153.08 91.1994 151.069 91.1994 148.905C91.1994 144.6 94.6988 141.097 98.9999 141.097C103.301 141.097 106.801 144.6 106.801 148.905C106.801 151.067 105.937 153.078 104.37 154.565C103.181 155.693 102.457 157.28 102.346 158.974Z" fill="black"/>
<path d="M104.202 146.739L103.477 145.48C103.296 145.166 102.916 145.025 102.575 145.144L101.842 145.398C101.47 145.095 101.058 144.856 100.615 144.687L100.468 143.925C100.4 143.57 100.088 143.312 99.7263 143.312H98.2726C97.9108 143.312 97.5989 143.57 97.5313 143.925L97.3843 144.687C96.942 144.856 96.5301 145.095 96.1572 145.398L95.424 145.144C95.083 145.025 94.7032 145.166 94.522 145.48L93.7969 146.738C93.6166 147.051 93.6839 147.45 93.9562 147.686L94.54 148.193C94.5024 148.428 94.4835 148.667 94.4835 148.904C94.4835 149.141 94.5024 149.38 94.54 149.615L93.9583 150.118C93.6842 150.354 93.6166 150.753 93.7972 151.066L94.5223 152.325C94.7032 152.639 95.0818 152.78 95.4228 152.662L96.1536 152.409C96.5283 152.712 96.9417 152.95 97.3847 153.118L97.531 153.879C97.5992 154.234 97.9108 154.492 98.2726 154.492H99.7263C100.088 154.492 100.4 154.234 100.468 153.879L100.615 153.118C101.058 152.95 101.471 152.712 101.845 152.409L102.575 152.661C102.917 152.78 103.296 152.638 103.477 152.325L104.202 151.067C104.383 150.753 104.315 150.354 104.042 150.118L103.455 149.611C103.492 149.378 103.511 149.141 103.511 148.904C103.511 148.668 103.492 148.431 103.455 148.197L104.043 147.686C104.315 147.45 104.383 147.051 104.202 146.739ZM102.531 148.269C102.569 148.478 102.588 148.692 102.588 148.904C102.588 149.117 102.569 149.33 102.531 149.539C102.483 149.803 102.578 150.073 102.777 150.246L103.333 150.726L102.746 151.744L102.054 151.505C101.804 151.418 101.531 151.469 101.324 151.643C100.99 151.924 100.618 152.138 100.216 152.282C99.964 152.371 99.7768 152.588 99.7272 152.846L99.5878 153.569H98.4114L98.272 152.846C98.2224 152.588 98.0352 152.371 97.7831 152.282C97.3813 152.139 97.0087 151.924 96.6749 151.643C96.4685 151.47 96.1956 151.418 95.9456 151.505L95.253 151.744L94.6665 150.726L95.2164 150.251C95.4165 150.079 95.5115 149.808 95.4643 149.543C95.4258 149.332 95.4066 149.117 95.4066 148.904C95.4066 148.691 95.4258 148.476 95.464 148.265C95.5118 148.002 95.4174 147.731 95.2188 147.559L94.6659 147.079L95.2524 146.061L95.9472 146.302C96.1969 146.389 96.4784 146.335 96.6815 146.163C97.0124 145.882 97.3834 145.666 97.7843 145.523C98.0355 145.433 98.2224 145.217 98.272 144.959L98.4114 144.236H99.5878L99.7272 144.959C99.7768 145.217 99.9637 145.433 100.215 145.523C100.616 145.666 100.987 145.882 101.317 146.163C101.521 146.336 101.803 146.389 102.051 146.302L102.746 146.061L103.333 147.079L102.777 147.562C102.577 147.736 102.483 148.006 102.531 148.269Z" fill="black"/>
<path d="M98.9998 146.619C97.7417 146.619 96.7183 147.643 96.7183 148.901C96.7183 150.159 97.7417 151.182 98.9998 151.182C100.258 151.182 101.282 150.159 101.282 148.901C101.282 147.643 100.258 146.619 98.9998 146.619ZM98.9998 150.259C98.2507 150.259 97.6413 149.65 97.6413 148.901C97.6413 148.152 98.2507 147.542 98.9998 147.542C99.7489 147.542 100.359 148.152 100.359 148.901C100.359 149.65 99.7489 150.259 98.9998 150.259Z" fill="black"/>
<path d="M99.4612 138.605V137.692C99.4612 137.437 99.2544 137.23 98.9996 137.23C98.7448 137.23 98.5381 137.437 98.5381 137.692V138.605C98.5381 138.86 98.7448 139.066 98.9996 139.066C99.2544 139.066 99.4612 138.86 99.4612 138.605Z" fill="black"/>
<path d="M93.8519 140.447C93.9303 140.447 94.0096 140.427 94.0824 140.385C94.3032 140.257 94.3786 139.975 94.2512 139.754L93.7948 138.964C93.6674 138.742 93.3849 138.667 93.1644 138.795C92.9435 138.922 92.8681 139.205 92.9955 139.425L93.452 140.216C93.5373 140.364 93.6923 140.447 93.8519 140.447Z" fill="black"/>
<path d="M89.8524 144.154C89.9251 144.196 90.0045 144.215 90.0829 144.215C90.2421 144.215 90.3972 144.133 90.4828 143.985C90.6102 143.764 90.5348 143.482 90.314 143.354L89.5234 142.898C89.3031 142.771 89.021 142.846 88.893 143.066C88.7656 143.287 88.841 143.569 89.0619 143.697L89.8524 144.154Z" fill="black"/>
<path d="M87.7906 148.439C87.5358 148.439 87.3291 148.646 87.3291 148.901C87.3291 149.156 87.5358 149.363 87.7906 149.363H88.7035C88.9583 149.363 89.165 149.156 89.165 148.901C89.165 148.646 88.9583 148.439 88.7035 148.439H87.7906Z" fill="black"/>
<path d="M89.2929 154.968C89.3713 154.968 89.4507 154.948 89.5234 154.906L90.314 154.449C90.5348 154.322 90.6102 154.039 90.4828 153.819C90.3551 153.598 90.073 153.522 89.8524 153.65L89.0619 154.106C88.841 154.234 88.7656 154.516 88.893 154.737C88.9786 154.885 89.1337 154.968 89.2929 154.968Z" fill="black"/>
<path d="M107.686 154.449L108.476 154.906C108.549 154.948 108.628 154.968 108.707 154.968C108.866 154.968 109.021 154.885 109.107 154.737C109.234 154.516 109.159 154.234 108.938 154.106L108.147 153.65C107.927 153.522 107.645 153.598 107.517 153.819C107.39 154.039 107.465 154.322 107.686 154.449Z" fill="black"/>
<path d="M110.209 149.363C110.464 149.363 110.671 149.156 110.671 148.901C110.671 148.646 110.464 148.439 110.209 148.439H109.296C109.042 148.439 108.835 148.646 108.835 148.901C108.835 149.156 109.042 149.363 109.296 149.363H110.209Z" fill="black"/>
<path d="M108.147 144.154L108.938 143.697C109.159 143.569 109.234 143.287 109.107 143.066C108.979 142.846 108.697 142.771 108.476 142.898L107.686 143.354C107.465 143.482 107.39 143.764 107.517 143.985C107.603 144.133 107.758 144.215 107.917 144.215C107.995 144.215 108.075 144.196 108.147 144.154Z" fill="black"/>
<path d="M104.148 140.447C104.307 140.447 104.462 140.364 104.548 140.216L105.004 139.425C105.132 139.204 105.056 138.922 104.835 138.795C104.615 138.667 104.332 138.743 104.205 138.963L103.748 139.754C103.621 139.975 103.696 140.257 103.917 140.385C103.99 140.427 104.069 140.447 104.148 140.447Z" fill="black"/>
<defs>
<filter id="filter0_d_1743_2339" x="-56.1" y="0.899994" width="310.778" height="310.2" filterUnits="userSpaceOnUse" color-interpolation-filters="sRGB">
<feFlood flood-opacity="0" result="BackgroundImageFix"/>
<feColorMatrix in="SourceAlpha" type="matrix" values="0 0 0 0 0 0 0 0 0 0 0 0 0 0 0 0 0 0 127 0" result="hardAlpha"/>
<feOffset dy="4"/>
<feGaussianBlur stdDeviation="64.55"/>
<feColorMatrix type="matrix" values="0 0 0 0 0 0 0 0 0 0 0 0 0 0 0 0 0 0 0.04 0"/>
<feBlend mode="normal" in2="BackgroundImageFix" result="effect1_dropShadow_1743_2339"/>
<feBlend mode="normal" in="SourceGraphic" in2="effect1_dropShadow_1743_2339" result="shape"/>
</filter>
</defs>
</svg>
