<svg width="38" height="38" viewBox="0 0 38 38" fill="none" xmlns="http://www.w3.org/2000/svg">
<circle cx="18.8235" cy="19.0579" r="18.8235" fill="#F4F4F4"/>
<path d="M26.5449 23.7285C25.9161 23.095 24.3934 22.1706 23.6545 21.798C22.6924 21.3134 22.6132 21.2738 21.857 21.8356C21.3526 22.2106 21.0172 22.5455 20.4269 22.4196C19.8365 22.2937 18.5537 21.5838 17.4304 20.4642C16.3071 19.3446 15.556 18.0246 15.4297 17.4363C15.3034 16.848 15.6439 16.5166 16.0153 16.011C16.5388 15.2984 16.4992 15.1796 16.0517 14.2175C15.7029 13.4693 14.7515 11.9608 14.1156 11.3353C13.4354 10.6634 13.4354 10.7822 12.9971 10.9643C12.6403 11.1145 12.2979 11.2969 11.9744 11.5095C11.3409 11.9304 10.9893 12.2799 10.7434 12.8053C10.4975 13.3307 10.3871 14.5624 11.6568 16.8689C12.9266 19.1755 13.8175 20.3549 15.6614 22.1935C17.5052 24.0322 18.9231 25.0207 20.9958 26.1831C23.5599 27.6191 24.5434 27.3392 25.0704 27.0937C25.5974 26.8483 25.9486 26.4999 26.3703 25.8664C26.5834 25.5434 26.7663 25.2015 26.9167 24.845C27.0992 24.4083 27.218 24.4083 26.5449 23.7285Z" stroke="#198D8D" stroke-width="1.17647" stroke-miterlimit="10"/>
</svg>
