<svg width="38" height="39" viewBox="0 0 38 39" fill="none" xmlns="http://www.w3.org/2000/svg">
<circle cx="18.8235" cy="19.6477" r="18.8235" fill="#F4F4F4"/>
<path d="M19 10.0234C15.1354 10.0234 12 12.8274 12 16.281C12 20.2547 16.6667 26.552 18.3802 28.727C18.4513 28.8188 18.5446 28.8936 18.6523 28.9451C18.76 28.9966 18.8791 29.0234 19 29.0234C19.1209 29.0234 19.24 28.9966 19.3477 28.9451C19.4554 28.8936 19.5487 28.8188 19.6198 28.727C21.3333 26.5529 26 20.2579 26 16.281C26 12.8274 22.8646 10.0234 19 10.0234Z" stroke="#198D8D" stroke-width="1.4" stroke-linecap="round" stroke-linejoin="round"/>
<path d="M18.8 20.223C20.3464 20.223 21.6 18.9694 21.6 17.423C21.6 15.8766 20.3464 14.623 18.8 14.623C17.2536 14.623 16 15.8766 16 17.423C16 18.9694 17.2536 20.223 18.8 20.223Z" stroke="#198D8D" stroke-width="1.4" stroke-linecap="round" stroke-linejoin="round"/>
</svg>
