<svg width="73" height="72" viewBox="0 0 73 72" fill="none" xmlns="http://www.w3.org/2000/svg">
<rect width="72.8" height="72" rx="20" fill="#E0F8F8"/>
<path d="M48.4521 43.3738L41.8311 40.5499C41.7424 40.5121 41.6468 40.4934 41.5504 40.4951C41.4541 40.4967 41.3591 40.5187 41.2718 40.5595C40.1206 41.099 39.1941 42.0236 38.6522 43.1736C36.3668 42.4105 34.2895 41.1277 32.5836 39.4261C30.8777 37.7245 29.5897 35.6504 28.8208 33.3669C29.9696 32.8268 30.8968 31.9069 31.4459 30.7624C31.488 30.6745 31.5108 30.5787 31.513 30.4813C31.5151 30.3839 31.4964 30.2872 31.4582 30.1976L28.6207 23.5492C28.5804 23.4566 28.5212 23.3735 28.4468 23.3053C28.3725 23.2371 28.2846 23.1852 28.1889 23.1531C27.6431 22.9727 27.0721 22.8802 26.4973 22.8789C25.04 22.8807 23.6429 23.4604 22.6124 24.4909C21.5819 25.5214 21.0022 26.9185 21.0004 28.3758C20.9658 34.2738 23.2505 39.9492 27.3618 44.1782C31.4732 48.4073 37.0818 50.8512 42.9785 50.9831C43.1868 50.9995 43.4089 50.9995 43.6172 50.9995C43.8256 50.9995 44.0491 50.9995 44.2889 50.9817C45.6202 50.819 46.8459 50.1747 47.7348 49.1704C48.6237 48.1661 49.1144 46.8712 49.1142 45.53C49.1178 44.9639 49.0294 44.4009 48.8523 43.8631C48.8298 43.7554 48.7817 43.6547 48.712 43.5695C48.6423 43.4844 48.5532 43.4172 48.4521 43.3738ZM44.1573 49.6164C43.9833 49.6301 43.8023 49.6301 43.6186 49.6287C43.4555 49.6287 43.2554 49.6287 43.047 49.615C37.5036 49.4971 32.2287 47.2046 28.3604 43.2322C24.4921 39.2598 22.3405 33.9259 22.3698 28.3813C22.3702 27.7554 22.5129 27.1379 22.7871 26.5753C23.0612 26.0127 23.4597 25.5197 23.9524 25.1338C24.445 24.7478 25.019 24.4789 25.6309 24.3473C26.2427 24.2158 26.8765 24.2251 27.4843 24.3745L30.071 30.4361C29.5594 31.3233 28.7376 31.9899 27.7639 32.3073C27.5944 32.3627 27.4532 32.4821 27.3702 32.6401C27.2873 32.798 27.2692 32.982 27.3198 33.1531C28.1188 35.8898 29.5951 38.3807 31.6121 40.3956C33.6291 42.4104 36.1217 43.884 38.8592 44.6801C39.0304 44.7307 39.2146 44.7124 39.3726 44.6292C39.5305 44.546 39.6498 44.4044 39.705 44.2346C40.0222 43.261 40.694 42.4423 41.5871 41.9413L47.6186 44.5129C47.7052 44.8449 47.7481 45.1869 47.7461 45.53C47.7479 46.5313 47.3844 47.4988 46.7237 48.2512C46.0629 49.0035 45.1505 49.4889 44.1573 49.6164Z" fill="#008080"/>
<path d="M37.1471 21C36.9653 21 36.791 21.0722 36.6624 21.2007C36.5339 21.3293 36.4617 21.5036 36.4617 21.6854C36.4617 21.8672 36.5339 22.0415 36.6624 22.1701C36.791 22.2986 36.9653 22.3708 37.1471 22.3708C40.3201 22.3744 43.362 23.6366 45.6056 25.8804C47.8491 28.1242 49.1109 31.1663 49.1142 34.3393C49.1142 34.5211 49.1864 34.6954 49.3149 34.8239C49.4435 34.9525 49.6178 35.0247 49.7996 35.0247C49.9814 35.0247 50.1557 34.9525 50.2842 34.8239C50.4128 34.6954 50.485 34.5211 50.485 34.3393C50.481 30.8029 49.0745 27.4126 46.5741 24.9119C44.0736 22.4112 40.6834 21.0044 37.1471 21Z" fill="#008080"/>
<path d="M37.1471 26.4841C39.2297 26.4866 41.2263 27.3152 42.6989 28.788C44.1714 30.2607 44.9996 32.2575 45.0018 34.3401C45.0018 34.5219 45.074 34.6963 45.2025 34.8248C45.3311 34.9533 45.5054 35.0255 45.6872 35.0255C45.8689 35.0255 46.0433 34.9533 46.1718 34.8248C46.3004 34.6963 46.3726 34.5219 46.3726 34.3401C46.37 31.894 45.3973 29.5488 43.6678 27.8191C41.9382 26.0893 39.5932 25.1162 37.1471 25.1133C36.9653 25.1133 36.791 25.1855 36.6624 25.314C36.5339 25.4426 36.4617 25.6169 36.4617 25.7987C36.4617 25.9805 36.5339 26.1548 36.6624 26.2833C36.791 26.4119 36.9653 26.4841 37.1471 26.4841Z" fill="#008080"/>
<path d="M37.1471 30.5954C38.1394 30.5969 39.0906 30.9918 39.7922 31.6936C40.4937 32.3954 40.8883 33.3468 40.8894 34.3391C40.8894 34.5209 40.9616 34.6952 41.0901 34.8237C41.2186 34.9523 41.393 35.0245 41.5748 35.0245C41.7565 35.0245 41.9309 34.9523 42.0594 34.8237C42.1879 34.6952 42.2602 34.5209 42.2602 34.3391C42.2587 32.9833 41.7196 31.6835 40.7611 30.7247C39.8025 29.7659 38.5028 29.2264 37.1471 29.2246C36.9653 29.2246 36.791 29.2968 36.6624 29.4254C36.5339 29.5539 36.4617 29.7282 36.4617 29.91C36.4617 30.0918 36.5339 30.2661 36.6624 30.3947C36.791 30.5232 36.9653 30.5954 37.1471 30.5954Z" fill="#008080"/>
</svg>
