<svg width="32" height="32" viewBox="0 0 32 32" fill="none" xmlns="http://www.w3.org/2000/svg">
<path d="M29.5 27.9999H2.50002C1.83452 27.9879 1.85302 27.0079 2.50002 26.9999H29.5C30.1655 27.0114 30.147 27.9919 29.5 27.9999ZM3.00002 25.9999V18.4999C3.00002 18.2234 3.22402 17.9999 3.50002 17.9999H7.50002C7.77602 17.9999 8.00002 18.2234 8.00002 18.4999V25.9999C8.00002 26.2764 7.77602 26.4999 7.50002 26.4999H3.50002C3.22402 26.4999 3.00002 26.2764 3.00002 25.9999ZM4.00002 25.4999H7.00002V18.9999H4.00002V25.4999ZM14.5 13.4999C14.776 13.4999 15 13.7234 15 13.9999V25.9999C15 26.2764 14.776 26.4999 14.5 26.4999H10.5C10.224 26.4999 10 26.2764 10 25.9999V13.9999C10 13.7234 10.224 13.4999 10.5 13.4999H14.5ZM14 14.4999H11V25.4999H14V14.4999ZM21.5 14.9999C21.7765 14.9999 22 15.2234 22 15.4999V25.9999C22 26.2764 21.7765 26.4999 21.5 26.4999H17.5C17.2235 26.4999 17 26.2764 17 25.9999V15.4999C17 15.2234 17.2235 14.9999 17.5 14.9999H21.5ZM21 15.9999H18V25.4999H21V15.9999ZM24.5 9.9999H28.5C28.7765 9.9999 29 10.2234 29 10.4999V25.9999C29 26.2764 28.7765 26.4999 28.5 26.4999H24.5C24.2235 26.4999 24 26.2764 24 25.9999V10.4999C24 10.2234 24.2235 9.9999 24.5 9.9999ZM25 25.4999H28V10.9999H25V25.4999ZM4.00002 13.4999C3.96102 12.2849 5.49052 11.5449 6.41352 12.3184L11.043 9.3419C10.6365 7.3004 13.6395 6.7544 13.9805 8.8054L18.227 9.7154C18.626 9.0044 19.698 8.7684 20.359 9.2729L25.064 5.9084C24.5435 3.7074 27.88 3.2364 28 5.4989C28.0365 6.6834 26.578 7.4299 25.641 6.7254L20.936 10.0899C21.4515 12.1544 18.373 12.7894 18.0195 10.6934L13.773 9.7834C13.362 10.5189 12.24 10.7369 11.5865 10.1809L6.95702 13.1574C7.19352 14.0784 6.45002 15.0129 5.50002 14.9999C4.67302 14.9999 4.00002 14.3269 4.00002 13.4999ZM26.5 5.9999C27.157 5.9884 27.157 5.0114 26.5 4.9999C25.843 5.0114 25.843 5.9884 26.5 5.9999ZM19.5 10.9999C20.157 10.9884 20.157 10.0114 19.5 9.9999C18.843 10.0114 18.843 10.9884 19.5 10.9999ZM12.5 9.4999C13.157 9.4884 13.157 8.5114 12.5 8.4999C11.843 8.5114 11.843 9.4884 12.5 9.4999ZM5.50002 13.9999C6.15702 13.9884 6.15702 13.0114 5.50002 12.9999C4.84302 13.0114 4.84302 13.9884 5.50002 13.9999Z" fill="#121928"/>
</svg>
