<svg width="53" height="52" viewBox="0 0 53 52" fill="none" xmlns="http://www.w3.org/2000/svg">
<rect width="52.5778" height="52" rx="8" fill="#FFEE90" fill-opacity="0.7"/>
<path d="M13.2499 41.938C13.1489 41.938 13.048 41.9115 12.963 41.853C12.7186 41.6937 12.6496 41.3643 12.8089 41.1199L18.1427 32.9121C19.2264 31.2493 21.0539 30.2559 23.0408 30.2559H28.6561C29.8302 30.2559 30.7811 31.2068 30.7811 32.3809C30.7811 33.5549 29.8302 34.5059 28.6561 34.5059H24.4061C24.1139 34.5059 23.8749 34.2668 23.8749 33.9746C23.8749 33.6824 24.1139 33.4434 24.4061 33.4434H28.6561C29.2405 33.4434 29.7186 32.9652 29.7186 32.3809C29.7186 31.7965 29.2405 31.3184 28.6561 31.3184H23.0408C21.4152 31.3184 19.9171 32.1312 19.0299 33.4912L13.6961 41.699C13.5952 41.853 13.4252 41.9434 13.2499 41.9434V41.938Z" fill="#B59F28"/>
<path d="M23.3437 41.9375C23.248 41.9375 23.1577 41.9109 23.0727 41.8631C22.823 41.7091 22.738 41.385 22.8921 41.1353L24.5018 38.4578C24.5868 38.3197 24.7302 38.2241 24.8949 38.2028L29.9312 37.5972C30.8662 37.4856 31.7534 37.05 32.428 36.3806L33.1187 35.6847C33.3259 35.4775 33.6605 35.4775 33.8677 35.6847C34.0749 35.8919 34.0749 36.2266 33.8677 36.4337L33.1771 37.1297C32.3324 37.9744 31.2274 38.5109 30.0534 38.6544L25.2774 39.2281L23.8005 41.6825C23.6996 41.8472 23.5243 41.9375 23.3437 41.9375Z" fill="#B59F28"/>
<path d="M34.9941 35.0851C34.8559 35.0851 34.7231 35.032 34.6169 34.931C34.4097 34.7238 34.4097 34.3891 34.6169 34.182L37.9319 30.867C38.1125 30.681 38.2188 30.4313 38.2188 30.1763C38.2188 29.9213 38.1178 29.6663 37.9319 29.4751C37.5494 29.0926 36.9278 29.0979 36.5453 29.4751L32.9328 33.0982C32.0244 34.0066 30.8238 34.5007 29.5488 34.5007H27.0625C26.7703 34.5007 26.5312 34.2616 26.5312 33.9695C26.5312 33.6773 26.7703 33.4382 27.0625 33.4382H29.5488C30.5422 33.4382 31.4772 33.0504 32.1784 32.3438L35.7909 28.7207C36.5878 27.9238 37.8841 27.9238 38.6863 28.7207C39.0741 29.1138 39.2812 29.6291 39.2812 30.171C39.2812 30.7129 39.0688 31.2229 38.6863 31.6107L35.3659 34.931C35.2597 35.0373 35.1269 35.0851 34.9887 35.0851H34.9941Z" fill="#B59F28"/>
<path d="M32.9061 32.9067C32.7733 32.9067 32.6351 32.8536 32.5342 32.7527C32.327 32.5455 32.327 32.2108 32.5342 32.0036L34.622 29.8945C35.0205 29.4908 35.0205 28.832 34.622 28.4283C34.2448 28.0458 33.6339 28.0245 33.2301 28.3805L31.6683 29.7617C31.4505 29.9583 31.1158 29.937 30.9192 29.7139C30.7226 29.4961 30.7439 29.1561 30.967 28.9649L32.5289 27.5836C33.3523 26.8558 34.6061 26.8983 35.3764 27.6792C36.1839 28.4974 36.1839 29.8255 35.3764 30.6436L33.2886 32.7527C33.1823 32.8589 33.0495 32.912 32.9114 32.912L32.9061 32.9067Z" fill="#B59F28"/>
<path d="M28.1465 25.6655C27.8543 25.6655 27.6152 25.4317 27.6152 25.1395V25.1289C27.6152 24.8367 27.8543 24.5977 28.1465 24.5977C28.4387 24.5977 28.6777 24.8367 28.6777 25.1289C28.6777 25.4211 28.4387 25.6655 28.1465 25.6655Z" fill="#B59F28"/>
<path d="M30.25 28.1255C30.1119 28.1255 26.9775 28.099 25.4688 25.974C21.2772 25.6977 18.0312 22.2605 18.0312 18.0318C18.0312 16.2255 18.6262 14.5202 19.7472 13.1018C19.9278 12.8734 20.2625 12.8309 20.4909 13.0168C20.7194 13.1974 20.7619 13.5321 20.5759 13.7605C19.6038 14.9877 19.0938 16.4646 19.0938 18.0318C19.0938 21.7771 22.0316 24.8105 25.7769 24.9274C25.9575 24.9327 26.1222 25.0284 26.2125 25.1824C26.7013 25.9846 27.5141 26.4468 28.2844 26.7071C27.6416 25.8784 27.615 25.1505 27.615 25.1399C27.615 24.9221 27.7478 24.7255 27.9497 24.6459C27.9975 24.6246 28.0506 24.614 28.0984 24.6087C30.9778 23.6896 32.9062 21.0599 32.9062 18.0318C32.9062 14.2227 29.8091 11.1255 26 11.1255C24.5656 11.1255 23.1844 11.5665 22.0103 12.4005C21.7712 12.5705 21.4366 12.5121 21.2719 12.273C21.1019 12.034 21.1603 11.6993 21.3994 11.5346C22.7594 10.573 24.3478 10.0684 26.0053 10.0684C30.3987 10.0684 33.9741 13.6437 33.9741 18.0371C33.9741 21.4052 31.9128 24.343 28.7944 25.5012C28.9697 25.9049 29.4053 26.5796 30.4944 27.1215C30.7175 27.233 30.8291 27.4774 30.7759 27.7165C30.7175 27.9555 30.505 28.1255 30.2606 28.1255H30.25Z" fill="#B59F28"/>
<path d="M26 22.8125C23.365 22.8125 21.2188 20.6663 21.2188 18.0312C21.2188 15.3963 23.365 13.25 26 13.25C28.635 13.25 30.7812 15.3963 30.7812 18.0312C30.7812 18.8069 30.59 19.5825 30.2234 20.2678C30.0853 20.5281 29.7666 20.6238 29.5062 20.4856C29.2459 20.3475 29.1503 20.0288 29.2884 19.7684C29.57 19.2372 29.7188 18.6369 29.7188 18.0312C29.7188 15.9806 28.0506 14.3125 26 14.3125C23.9494 14.3125 22.2812 15.9806 22.2812 18.0312C22.2812 20.0819 23.9494 21.75 26 21.75C26.7278 21.75 27.4291 21.5428 28.0294 21.1444C28.2737 20.985 28.6031 21.0541 28.7625 21.2984C28.9219 21.5428 28.8528 21.8722 28.6084 22.0316C27.8328 22.5416 26.9297 22.8072 25.9947 22.8072L26 22.8125Z" fill="#B59F28"/>
<path d="M25.203 19.8905C25.0649 19.8905 24.9321 19.8374 24.8258 19.7365L23.7633 18.674C23.5561 18.4668 23.5561 18.1321 23.7633 17.9249C23.9705 17.7177 24.3052 17.7177 24.5124 17.9249L25.1977 18.6102L27.4767 16.3312C27.6839 16.124 28.0186 16.124 28.2258 16.3312C28.433 16.5384 28.433 16.873 28.2258 17.0802L25.5696 19.7365C25.4633 19.8427 25.3305 19.8905 25.1924 19.8905H25.203Z" fill="#B59F28"/>
</svg>
