<svg width="53" height="52" viewBox="0 0 53 52" fill="none" xmlns="http://www.w3.org/2000/svg">
<rect width="52.5778" height="52" rx="8" fill="#FFEE90" fill-opacity="0.7"/>
<path d="M12.6516 34.5504H39.3482C40.6423 34.5504 41.6944 33.4984 41.6944 32.205V14.8645C41.6944 13.5711 40.6416 12.5184 39.3482 12.5184H12.6516C11.3583 12.5184 10.3055 13.5711 10.3055 14.8645V32.2043C10.3055 33.4984 11.3583 34.5504 12.6516 34.5504ZM11.1166 14.8645C11.1166 14.0182 11.8053 13.3295 12.6516 13.3295H39.3482C40.1945 13.3295 40.8832 14.0182 40.8832 14.8645V32.205C40.8832 33.0513 40.1945 33.74 39.3482 33.74H12.6516C11.8053 33.74 11.1166 33.0513 11.1166 32.205V14.8645Z" fill="#B59F28" stroke="#B59F28" stroke-width="0.1"/>
<path d="M10.711 30.7279H41.2888C41.5127 30.7279 41.6944 30.5462 41.6944 30.3224C41.6944 30.0985 41.5127 29.9168 41.2888 29.9168H10.711C10.4871 29.9168 10.3055 30.0985 10.3055 30.3224C10.3055 30.5462 10.4871 30.7279 10.711 30.7279Z" fill="#B59F28" stroke="#B59F28" stroke-width="0.1"/>
<path d="M30.7843 26.5043V26.5043V20.4762C30.7843 19.8221 30.252 19.2898 29.5979 19.2898H22.4015C21.7474 19.2898 21.2151 19.8221 21.2151 20.4762V26.5043C21.2151 27.1584 21.7474 27.6906 22.4015 27.6906H29.5979C30.2521 27.6906 30.7835 27.1591 30.7843 26.5043ZM22.0262 20.4769C22.0262 20.2699 22.1944 20.1017 22.4015 20.1017H29.5979C29.8049 20.1017 29.9732 20.2705 29.9732 20.4769V26.505C29.9732 26.7121 29.805 26.8802 29.5979 26.8802H22.4015C22.1944 26.8802 22.0262 26.7121 22.0262 26.505V20.4769Z" fill="#B59F28" stroke="#B59F28" stroke-width="0.1"/>
<path d="M26.0009 21.1629L26.0009 21.1629L26.0322 21.1636L26.0322 21.1636C26.8645 21.1835 27.5285 21.873 27.5168 22.7019C27.5168 22.7019 27.5168 22.7019 27.5168 22.702L26.0009 21.1629ZM26.0009 21.1629H25.9997C25.1629 21.1629 24.4827 21.8438 24.4827 22.6799C24.4827 23.1155 24.6673 23.5228 24.9855 23.8082V24.8033C24.9855 25.3628 25.4402 25.8176 25.9997 25.8176C26.5593 25.8176 27.014 25.3628 27.014 24.8033V23.8082L26.0009 21.1629ZM25.9955 21.9747C25.6108 21.9747 25.2938 22.2913 25.2938 22.6806C25.2938 22.9197 25.4133 23.1401 25.6132 23.2709C25.6132 23.271 25.6132 23.271 25.6133 23.271L25.5859 23.3128C25.6861 23.3782 25.7466 23.4906 25.7466 23.61V24.8033C25.7466 24.9427 25.8604 25.0564 25.9997 25.0564C26.1391 25.0564 26.2529 24.9427 26.2529 24.8033V23.61C26.2529 23.4899 26.3133 23.3782 26.4136 23.3128L25.9955 21.9747ZM25.9955 21.9747H26.0176H25.9955Z" fill="#B59F28" stroke="#B59F28" stroke-width="0.1"/>
<path d="M27.5918 20.1012H28.9963C29.2201 20.1012 29.4018 19.9196 29.4018 19.6957V18.319C29.4018 17.4104 29.0474 16.5565 28.4051 15.9135C27.7629 15.2705 26.9082 14.9168 25.9996 14.9168C25.0911 14.9168 24.2364 15.2712 23.5942 15.9135C22.9512 16.5557 22.5975 17.4104 22.5975 18.319V19.6957C22.5975 19.9196 22.7791 20.1012 23.003 20.1012H24.4075C24.6313 20.1012 24.813 19.9196 24.813 19.6957V18.319C24.813 17.6646 25.3453 17.1324 25.9996 17.1324C26.654 17.1324 27.1863 17.6646 27.1863 18.319V19.6957C27.1863 19.9196 27.3679 20.1012 27.5918 20.1012ZM28.5907 18.319V19.2901H27.9974V18.319C27.9974 17.2176 27.101 16.3212 25.9996 16.3212C24.8982 16.3212 24.0019 17.2176 24.0019 18.319V19.2901H23.4086V18.319C23.4086 17.6268 23.6785 16.9768 24.1676 16.4869C24.6567 15.9971 25.3075 15.7279 25.9996 15.7279C26.6918 15.7279 27.3418 15.9978 27.8317 16.487C28.3215 16.9761 28.5907 17.6268 28.5907 18.319Z" fill="#B59F28" stroke="#B59F28" stroke-width="0.1"/>
<path d="M30.378 23.8959H33.7707C33.9946 23.8959 34.1763 23.7142 34.1763 23.4903C34.1763 23.2664 33.9946 23.0848 33.7707 23.0848H30.378C30.1541 23.0848 29.9725 23.2664 29.9725 23.4903C29.9725 23.7142 30.1541 23.8959 30.378 23.8959Z" fill="#B59F28" stroke="#B59F28" stroke-width="0.1"/>
<path d="M33.365 23.4906C33.365 24.0729 33.839 24.5468 34.4213 24.5468C35.0035 24.5468 35.4775 24.0729 35.4775 23.4906C35.4775 22.9083 35.0035 22.4344 34.4213 22.4344C33.839 22.4344 33.365 22.9083 33.365 23.4906ZM34.1762 23.4906C34.1762 23.3554 34.286 23.2455 34.4213 23.2455C34.5565 23.2455 34.6664 23.3554 34.6664 23.4906C34.6664 23.6258 34.5565 23.7357 34.4213 23.7357C34.286 23.7357 34.1762 23.6258 34.1762 23.4906Z" fill="#B59F28" stroke="#B59F28" stroke-width="0.1"/>
<path d="M32.271 27.5603L32.2712 27.5605C32.3473 27.6358 32.4502 27.6788 32.5581 27.6788H34.3771C34.6009 27.6788 34.7827 27.4979 34.7827 27.2739C34.7827 27.05 34.601 26.8684 34.3771 26.8684H32.726L31.6626 25.805C31.5044 25.6468 31.2473 25.6468 31.0892 25.805C30.931 25.9632 30.931 26.2202 31.0892 26.3784L32.271 27.5603Z" fill="#B59F28" stroke="#B59F28" stroke-width="0.1"/>
<path d="M30.378 26.4955H31.3764C31.6002 26.4955 31.782 26.3146 31.782 26.0899C31.782 25.866 31.6003 25.6844 31.3764 25.6844H30.378C30.1541 25.6844 29.9725 25.866 29.9725 26.0899C29.9725 26.3138 30.1541 26.4955 30.378 26.4955Z" fill="#B59F28" stroke="#B59F28" stroke-width="0.1"/>
<path d="M33.9715 27.2718C33.9715 27.8541 34.4454 28.3281 35.0277 28.3281C35.6107 28.3281 36.0839 27.8541 36.0839 27.2718C36.0839 26.6896 35.61 26.2156 35.0277 26.2156C34.4454 26.2156 33.9715 26.6896 33.9715 27.2718ZM34.7826 27.2718C34.7826 27.1366 34.8925 27.0267 35.0277 27.0267C35.1629 27.0267 35.2728 27.1366 35.2728 27.2718C35.2728 27.4071 35.1629 27.517 35.0277 27.517C34.8925 27.517 34.7826 27.4071 34.7826 27.2718Z" fill="#B59F28" stroke="#B59F28" stroke-width="0.1"/>
<path d="M31.0892 21.178L31.0893 21.1782C31.1687 21.2567 31.2725 21.2965 31.3762 21.2965C31.48 21.2965 31.5839 21.2568 31.6626 21.178L32.726 20.1146H34.3778C34.6017 20.1146 34.7834 19.933 34.7834 19.7091C34.7834 19.4852 34.6017 19.3035 34.3778 19.3035H32.5588C32.4511 19.3035 32.3481 19.3457 32.2717 19.422L31.0892 20.6046C30.931 20.7628 30.931 21.0198 31.0892 21.178Z" fill="#B59F28" stroke="#B59F28" stroke-width="0.1"/>
<path d="M30.378 21.2963H31.3764C31.6003 21.2963 31.782 21.1146 31.782 20.8907C31.782 20.6668 31.6003 20.4852 31.3764 20.4852H30.378C30.1541 20.4852 29.9725 20.6668 29.9725 20.8907C29.9725 21.1146 30.1541 21.2963 30.378 21.2963Z" fill="#B59F28" stroke="#B59F28" stroke-width="0.1"/>
<path d="M33.972 19.7093C33.972 20.2916 34.4459 20.7656 35.0282 20.7656C35.6112 20.7656 36.0844 20.2916 36.0844 19.7093C36.0844 19.1271 35.6105 18.6531 35.0282 18.6531C34.4459 18.6531 33.972 19.1271 33.972 19.7093ZM34.7831 19.7086C34.7831 19.5734 34.893 19.4635 35.0282 19.4635C35.1634 19.4635 35.2733 19.5734 35.2733 19.7086C35.2733 19.8439 35.1634 19.9537 35.0282 19.9537C34.893 19.9537 34.7831 19.8439 34.7831 19.7086Z" fill="#B59F28" stroke="#B59F28" stroke-width="0.1"/>
<path d="M18.2291 23.8959H21.6218C21.8457 23.8959 22.0274 23.7142 22.0274 23.4903C22.0274 23.2664 21.8457 23.0848 21.6218 23.0848H18.2291C18.0052 23.0848 17.8235 23.2664 17.8235 23.4903C17.8235 23.7142 18.0052 23.8959 18.2291 23.8959Z" fill="#B59F28" stroke="#B59F28" stroke-width="0.1"/>
<path d="M16.5223 23.4906C16.5223 24.0729 16.9962 24.5468 17.5785 24.5468C18.1608 24.5468 18.6347 24.0729 18.6347 23.4906C18.6347 22.9083 18.1608 22.4344 17.5785 22.4344C16.9962 22.4344 16.5223 22.9083 16.5223 23.4906ZM17.3334 23.4906C17.3334 23.3554 17.4433 23.2455 17.5785 23.2455C17.7137 23.2455 17.8236 23.3554 17.8236 23.4906C17.8236 23.6258 17.7137 23.7357 17.5785 23.7357C17.4433 23.7357 17.3334 23.6258 17.3334 23.4906Z" fill="#B59F28" stroke="#B59F28" stroke-width="0.1"/>
<path d="M17.6222 27.6775H19.4412C19.5484 27.6775 19.6521 27.6345 19.7283 27.5584L20.9101 26.3765C21.0683 26.2183 21.0683 25.9612 20.9101 25.803C20.7519 25.6448 20.4949 25.6448 20.3367 25.803L19.2733 26.8664H17.6222C17.3983 26.8664 17.2166 27.0481 17.2166 27.272C17.2166 27.4959 17.3983 27.6775 17.6222 27.6775Z" fill="#B59F28" stroke="#B59F28" stroke-width="0.1"/>
<path d="M20.6231 26.4955H21.6215C21.8453 26.4955 22.0271 26.3146 22.0271 26.0899C22.0271 25.866 21.8454 25.6844 21.6215 25.6844H20.6231C20.3993 25.6844 20.2176 25.866 20.2176 26.0899C20.2176 26.3138 20.3993 26.4955 20.6231 26.4955Z" fill="#B59F28" stroke="#B59F28" stroke-width="0.1"/>
<path d="M15.9153 27.2718C15.9153 27.8541 16.3893 28.3281 16.9716 28.3281C17.5538 28.3281 18.0278 27.8541 18.0278 27.2718C18.0278 26.6896 17.5538 26.2156 16.9716 26.2156C16.3893 26.2156 15.9153 26.6896 15.9153 27.2718ZM16.7264 27.2718C16.7264 27.1366 16.8363 27.0267 16.9716 27.0267C17.1068 27.0267 17.2167 27.1366 17.2167 27.2718C17.2167 27.4071 17.1068 27.517 16.9716 27.517C16.8363 27.517 16.7264 27.4071 16.7264 27.2718Z" fill="#B59F28" stroke="#B59F28" stroke-width="0.1"/>
<path d="M20.3357 21.178L20.3359 21.1782C20.4152 21.2567 20.519 21.2965 20.6228 21.2965C20.7265 21.2965 20.8305 21.2568 20.9093 21.1772C21.0674 21.019 21.0673 20.762 20.9092 20.6038L19.7273 19.422L19.7271 19.4218C19.651 19.3465 19.5481 19.3035 19.4402 19.3035H17.6212C17.3973 19.3035 17.2156 19.4852 17.2156 19.7091C17.2156 19.933 17.3973 20.1146 17.6212 20.1146H19.2723L20.3357 21.178Z" fill="#B59F28" stroke="#B59F28" stroke-width="0.1"/>
<path d="M20.6231 21.2963H21.6215C21.8454 21.2963 22.0271 21.1146 22.0271 20.8907C22.0271 20.6668 21.8454 20.4852 21.6215 20.4852H20.6231C20.3993 20.4852 20.2176 20.6668 20.2176 20.8907C20.2176 21.1146 20.3993 21.2963 20.6231 21.2963Z" fill="#B59F28" stroke="#B59F28" stroke-width="0.1"/>
<path d="M15.9153 19.7093C15.9153 20.2916 16.3893 20.7656 16.9716 20.7656C17.5538 20.7656 18.0278 20.2916 18.0278 19.7093C18.0278 19.1271 17.5538 18.6531 16.9716 18.6531C16.3893 18.6531 15.9153 19.1271 15.9153 19.7093ZM16.7264 19.7086C16.7264 19.5734 16.8363 19.4635 16.9716 19.4635C17.1068 19.4635 17.2167 19.5734 17.2167 19.7086C17.2167 19.8439 17.1068 19.9537 16.9716 19.9537C16.8363 19.9537 16.7264 19.8439 16.7264 19.7086Z" fill="#B59F28" stroke="#B59F28" stroke-width="0.1"/>
<path d="M21.7732 39.074C21.7732 39.2979 21.9549 39.4796 22.1788 39.4796C22.4027 39.4796 22.5844 39.2979 22.5844 39.074V34.1446C22.5844 33.9207 22.4027 33.7391 22.1788 33.7391C21.9549 33.7391 21.7732 33.9207 21.7732 34.1446V39.074Z" fill="#B59F28" stroke="#B59F28" stroke-width="0.1"/>
<path d="M29.4148 39.074C29.4148 39.2979 29.5965 39.4796 29.8204 39.4796C30.0443 39.4796 30.226 39.2979 30.226 39.074V34.1446C30.226 33.9207 30.0443 33.7391 29.8204 33.7391C29.5965 33.7391 29.4148 33.9207 29.4148 34.1446V39.074Z" fill="#B59F28" stroke="#B59F28" stroke-width="0.1"/>
<path d="M18.815 39.4799H33.1852C33.409 39.4799 33.5907 39.2982 33.5907 39.0743C33.5907 38.8504 33.409 38.6687 33.1852 38.6687H18.815C18.5911 38.6687 18.4095 38.8504 18.4095 39.0743C18.4095 39.2982 18.5911 39.4799 18.815 39.4799Z" fill="#B59F28" stroke="#B59F28" stroke-width="0.1"/>
</svg>
