<svg width="53" height="52" viewBox="0 0 53 52" fill="none" xmlns="http://www.w3.org/2000/svg">
<rect width="52.5778" height="52" rx="8" fill="#C5E5FF"/>
<path d="M28.5 37H27.5V32.1C27.5 31.9674 27.4473 31.8402 27.3536 31.7464C27.2598 31.6527 27.1326 31.6 27 31.6C26.8674 31.6 26.7402 31.6527 26.6464 31.7464C26.5527 31.8402 26.5 31.9674 26.5 32.1V37H13.5V27H17.66C17.7926 27 17.9198 26.9473 18.0136 26.8536C18.1073 26.7598 18.16 26.6326 18.16 26.5C18.16 26.3674 18.1073 26.2402 18.0136 26.1464C17.9198 26.0527 17.7926 26 17.66 26H13C12.8674 26 12.7402 26.0527 12.6464 26.1464C12.5527 26.2402 12.5 26.3674 12.5 26.5V37H11.5C11.3674 37 11.2402 37.0527 11.1464 37.1464C11.0527 37.2402 11 37.3674 11 37.5V38.5C11 39.163 11.2634 39.7989 11.7322 40.2678C12.2011 40.7366 12.837 41 13.5 41H26.5C27.163 41 27.7989 40.7366 28.2678 40.2678C28.7366 39.7989 29 39.163 29 38.5V37.5C29 37.3674 28.9473 37.2402 28.8536 37.1464C28.7598 37.0527 28.6326 37 28.5 37ZM28 38.5C28 38.8978 27.842 39.2794 27.5607 39.5607C27.2794 39.842 26.8978 40 26.5 40H25.5V39.5C25.5 39.3674 25.4473 39.2402 25.3536 39.1464C25.2598 39.0527 25.1326 39 25 39C24.8674 39 24.7402 39.0527 24.6464 39.1464C24.5527 39.2402 24.5 39.3674 24.5 39.5V40H15.5V39.5C15.5 39.3674 15.4473 39.2402 15.3536 39.1464C15.2598 39.0527 15.1326 39 15 39C14.8674 39 14.7402 39.0527 14.6464 39.1464C14.5527 39.2402 14.5 39.3674 14.5 39.5V40H13.5C13.1022 40 12.7206 39.842 12.4393 39.5607C12.158 39.2794 12 38.8978 12 38.5V38H28V38.5Z" fill="#1769AA"/>
<path d="M37 14H38C38.1326 14 38.2598 13.9473 38.3536 13.8536C38.4473 13.7598 38.5 13.6326 38.5 13.5C38.5 13.3674 38.4473 13.2402 38.3536 13.1464C38.2598 13.0527 38.1326 13 38 13H37C36.6022 13 36.2206 13.158 35.9393 13.4393C35.658 13.7206 35.5 14.1022 35.5 14.5V15H35C34.8674 15 34.7402 15.0527 34.6464 15.1464C34.5527 15.2402 34.5 15.3674 34.5 15.5C34.5 15.6326 34.5527 15.7598 34.6464 15.8536C34.7402 15.9473 34.8674 16 35 16H35.5V17.5C35.5 17.6326 35.5527 17.7598 35.6464 17.8536C35.7402 17.9473 35.8674 18 36 18C36.1326 18 36.2598 17.9473 36.3536 17.8536C36.4473 17.7598 36.5 17.6326 36.5 17.5V16H37C37.1326 16 37.2598 15.9473 37.3536 15.8536C37.4473 15.7598 37.5 15.6326 37.5 15.5C37.5 15.3674 37.4473 15.2402 37.3536 15.1464C37.2598 15.0527 37.1326 15 37 15H36.5V14.5C36.5 14.3674 36.5527 14.2402 36.6464 14.1464C36.7402 14.0527 36.8674 14 37 14Z" fill="#1769AA"/>
<path d="M39.5 11H33.5C33.1022 11 32.7206 11.158 32.4393 11.4393C32.158 11.7206 32 12.1022 32 12.5V13.5C32 13.6326 32.0527 13.7598 32.1464 13.8536C32.2402 13.9473 32.3674 14 32.5 14C32.6326 14 32.7598 13.9473 32.8536 13.8536C32.9473 13.7598 33 13.6326 33 13.5V12.5C33 12.3674 33.0527 12.2402 33.1464 12.1464C33.2402 12.0527 33.3674 12 33.5 12H39.5C39.6326 12 39.7598 12.0527 39.8536 12.1464C39.9473 12.2402 40 12.3674 40 12.5V18.5C40 18.6326 39.9473 18.7598 39.8536 18.8536C39.7598 18.9473 39.6326 19 39.5 19H33.5C33.3674 19 33.2402 18.9473 33.1464 18.8536C33.0527 18.7598 33 18.6326 33 18.5V15.5C33 15.3674 32.9473 15.2402 32.8536 15.1464C32.7598 15.0527 32.6326 15 32.5 15C32.3674 15 32.2402 15.0527 32.1464 15.1464C32.0527 15.2402 32 15.3674 32 15.5V18.5C32 18.8978 32.158 19.2794 32.4393 19.5607C32.7206 19.842 33.1022 20 33.5 20H39.5C39.8978 20 40.2794 19.842 40.5607 19.5607C40.842 19.2794 41 18.8978 41 18.5V12.5C41 12.1022 40.842 11.7206 40.5607 11.4393C40.2794 11.158 39.8978 11 39.5 11Z" fill="#1769AA"/>
<path d="M34.5 31C34.5 31.3956 34.6173 31.7822 34.8371 32.1111C35.0568 32.44 35.3692 32.6964 35.7346 32.8478C36.1001 32.9991 36.5022 33.0387 36.8902 32.9616C37.2781 32.8844 37.6345 32.6939 37.9142 32.4142C38.1939 32.1345 38.3844 31.7781 38.4616 31.3902C38.5387 31.0022 38.4991 30.6001 38.3478 30.2346C38.1964 29.8692 37.94 29.5568 37.6111 29.3371C37.2822 29.1173 36.8956 29 36.5 29C35.9696 29 35.4609 29.2107 35.0858 29.5858C34.7107 29.9609 34.5 30.4696 34.5 31ZM37.5 31C37.5 31.1978 37.4414 31.3911 37.3315 31.5556C37.2216 31.72 37.0654 31.8482 36.8827 31.9239C36.7 31.9996 36.4989 32.0194 36.3049 31.9808C36.1109 31.9422 35.9327 31.847 35.7929 31.7071C35.653 31.5673 35.5578 31.3891 35.5192 31.1951C35.4806 31.0011 35.5004 30.8 35.5761 30.6173C35.6518 30.4346 35.78 30.2784 35.9444 30.1685C36.1089 30.0586 36.3022 30 36.5 30C36.7652 30 37.0196 30.1054 37.2071 30.2929C37.3946 30.4804 37.5 30.7348 37.5 31Z" fill="#1769AA"/>
<path d="M39.5 26.5H33.5C33.1022 26.5 32.7206 26.658 32.4393 26.9393C32.158 27.2206 32 27.6022 32 28V34C32 34.3978 32.158 34.7794 32.4393 35.0607C32.7206 35.342 33.1022 35.5 33.5 35.5H39.5C39.8978 35.5 40.2794 35.342 40.5607 35.0607C40.842 34.7794 41 34.3978 41 34V33C41 32.8674 40.9473 32.7402 40.8536 32.6464C40.7598 32.5527 40.6326 32.5 40.5 32.5C40.3674 32.5 40.2402 32.5527 40.1464 32.6464C40.0527 32.7402 40 32.8674 40 33V34C40 34.1326 39.9473 34.2598 39.8536 34.3536C39.7598 34.4473 39.6326 34.5 39.5 34.5H33.5C33.3674 34.5 33.2402 34.4473 33.1464 34.3536C33.0527 34.2598 33 34.1326 33 34V28C33 27.8674 33.0527 27.7402 33.1464 27.6464C33.2402 27.5527 33.3674 27.5 33.5 27.5H39.5C39.6326 27.5 39.7598 27.5527 39.8536 27.6464C39.9473 27.7402 40 27.8674 40 28V31C40 31.1326 40.0527 31.2598 40.1464 31.3536C40.2402 31.4473 40.3674 31.5 40.5 31.5C40.6326 31.5 40.7598 31.4473 40.8536 31.3536C40.9473 31.2598 41 31.1326 41 31V28C41 27.6022 40.842 27.2206 40.5607 26.9393C40.2794 26.658 39.8978 26.5 39.5 26.5Z" fill="#1769AA"/>
<path d="M22.235 16.9254C22.3146 16.9748 22.4064 17.0007 22.5 17.0004C22.5783 17 22.6553 16.9811 22.725 16.9454L25.725 15.4454C25.8069 15.4035 25.8756 15.3397 25.9236 15.2612C25.9716 15.1827 25.997 15.0925 25.997 15.0004C25.997 14.9084 25.9716 14.8182 25.9236 14.7397C25.8756 14.6611 25.8069 14.5974 25.725 14.5554L22.725 13.0554C22.6489 13.0171 22.5642 12.9988 22.4791 13.0024C22.3939 13.006 22.3111 13.0312 22.2384 13.0758C22.1658 13.1204 22.1058 13.1828 22.064 13.2571C22.0223 13.3315 22.0003 13.4152 22 13.5004V16.5004C21.9998 16.5854 22.0213 16.669 22.0624 16.7434C22.1036 16.8177 22.1629 16.8804 22.235 16.9254ZM23 14.3104L24.38 15.0004L23 15.6904V14.3104Z" fill="#1769AA"/>
<path d="M23.5 19.5C24.39 19.5 25.26 19.2361 26.0001 18.7416C26.7401 18.2471 27.3169 17.5443 27.6575 16.7221C27.9981 15.8998 28.0872 14.995 27.9135 14.1221C27.7399 13.2492 27.3113 12.4474 26.682 11.818C26.0526 11.1887 25.2508 10.7601 24.3779 10.5865C23.505 10.4128 22.6002 10.5019 21.7779 10.8425C20.9557 11.1831 20.2529 11.7599 19.7584 12.4999C19.2639 13.24 19 14.11 19 15C19 16.1935 19.4741 17.3381 20.318 18.182C21.1619 19.0259 22.3065 19.5 23.5 19.5ZM23.5 11.5C24.1922 11.5 24.8689 11.7053 25.4445 12.0899C26.0201 12.4744 26.4687 13.0211 26.7336 13.6606C26.9985 14.3002 27.0678 15.0039 26.9327 15.6828C26.7977 16.3618 26.4644 16.9854 25.9749 17.4749C25.4854 17.9644 24.8618 18.2977 24.1828 18.4328C23.5039 18.5678 22.8001 18.4985 22.1606 18.2336C21.5211 17.9687 20.9744 17.5201 20.5899 16.9445C20.2053 16.3689 20 15.6922 20 15C20 14.0717 20.3687 13.1815 21.0251 12.5251C21.6815 11.8688 22.5717 11.5 23.5 11.5Z" fill="#1769AA"/>
<path d="M28.5 21.5C28.5776 21.5 28.6542 21.4819 28.7236 21.4472C28.793 21.4125 28.8534 21.3621 28.9 21.3L30.4 19.3C30.4796 19.1939 30.5137 19.0606 30.495 18.9293C30.4762 18.798 30.4061 18.6796 30.3 18.6C30.1939 18.5204 30.0606 18.4863 29.9293 18.505C29.798 18.5238 29.6796 18.5939 29.6 18.7L28.1 20.7C28.0204 20.8061 27.9863 20.9394 28.005 21.0707C28.0238 21.202 28.0939 21.3204 28.2 21.4C28.2866 21.4649 28.3918 21.5 28.5 21.5Z" fill="#1769AA"/>
<path d="M29.6 23.3C29.6466 23.3621 29.707 23.4125 29.7764 23.4472C29.8458 23.4819 29.9224 23.5 30 23.5C30.1082 23.5 30.2135 23.4649 30.3 23.4L32.3 21.9C32.4061 21.8204 32.4762 21.702 32.495 21.5707C32.5137 21.4394 32.4796 21.3061 32.4 21.2C32.3204 21.0939 32.202 21.0238 32.0707 21.005C31.9394 20.9863 31.8061 21.0204 31.7 21.1L29.7 22.6C29.5939 22.6796 29.5238 22.798 29.505 22.9293C29.4863 23.0606 29.5204 23.1939 29.6 23.3Z" fill="#1769AA"/>
<path d="M34.4998 24.4001C34.4879 24.3338 34.4627 24.2706 34.4258 24.2142C34.3889 24.1579 34.341 24.1096 34.285 24.0723C34.2289 24.0349 34.1659 24.0092 34.0997 23.9968C34.0335 23.9844 33.9655 23.9855 33.8998 24.0001L31.3998 24.5001C31.3341 24.5066 31.2704 24.5261 31.2122 24.5572C31.1541 24.5884 31.1026 24.6308 31.0609 24.6819C30.9765 24.785 30.9365 24.9174 30.9498 25.0501C30.963 25.1827 31.0284 25.3046 31.1316 25.389C31.2347 25.4734 31.3672 25.5133 31.4998 25.5001H31.5998L34.0998 25.0001C34.166 24.9882 34.2293 24.963 34.2856 24.9261C34.3419 24.8892 34.3902 24.8413 34.4276 24.7852C34.4649 24.7292 34.4906 24.6662 34.503 24.6C34.5154 24.5338 34.5143 24.4658 34.4998 24.4001Z" fill="#1769AA"/>
<path d="M11.5 24.5H17.5C17.6326 24.5 17.7598 24.4473 17.8536 24.3536C17.9473 24.2598 18 24.1326 18 24V16C18 15.8674 17.9473 15.7402 17.8536 15.6464C17.7598 15.5527 17.6326 15.5 17.5 15.5H11.5C11.3674 15.5 11.2402 15.5527 11.1464 15.6464C11.0527 15.7402 11 15.8674 11 16V24C11 24.1326 11.0527 24.2598 11.1464 24.3536C11.2402 24.4473 11.3674 24.5 11.5 24.5ZM12 16.5H17V23.5H12V16.5Z" fill="#1769AA"/>
<path d="M15.5 17.5H14.5C14.3674 17.5 14.2402 17.5527 14.1464 17.6464C14.0527 17.7402 14 17.8674 14 18C14 18.1326 14.0527 18.2598 14.1464 18.3536C14.2402 18.4473 14.3674 18.5 14.5 18.5H15.5C15.6326 18.5 15.7598 18.4473 15.8536 18.3536C15.9473 18.2598 16 18.1326 16 18C16 17.8674 15.9473 17.7402 15.8536 17.6464C15.7598 17.5527 15.6326 17.5 15.5 17.5Z" fill="#1769AA"/>
<path d="M15.5 19.5H13.5C13.3674 19.5 13.2402 19.5527 13.1464 19.6464C13.0527 19.7402 13 19.8674 13 20C13 20.1326 13.0527 20.2598 13.1464 20.3536C13.2402 20.4473 13.3674 20.5 13.5 20.5H15.5C15.6326 20.5 15.7598 20.4473 15.8536 20.3536C15.9473 20.2598 16 20.1326 16 20C16 19.8674 15.9473 19.7402 15.8536 19.6464C15.7598 19.5527 15.6326 19.5 15.5 19.5Z" fill="#1769AA"/>
<path d="M15.5 21.5H13.5C13.3674 21.5 13.2402 21.5527 13.1464 21.6464C13.0527 21.7402 13 21.8674 13 22C13 22.1326 13.0527 22.2598 13.1464 22.3536C13.2402 22.4473 13.3674 22.5 13.5 22.5H15.5C15.6326 22.5 15.7598 22.4473 15.8536 22.3536C15.9473 22.2598 16 22.1326 16 22C16 21.8674 15.9473 21.7402 15.8536 21.6464C15.7598 21.5527 15.6326 21.5 15.5 21.5Z" fill="#1769AA"/>
<path d="M28.0601 24.3506C28.0273 24.2935 27.9835 24.2434 27.9313 24.2032C27.8791 24.163 27.8195 24.1334 27.7559 24.1162C27.6923 24.0991 27.6259 24.0946 27.5606 24.103C27.4953 24.1115 27.4322 24.1328 27.3751 24.1656C27.318 24.1984 27.2679 24.2422 27.2277 24.2944C27.1875 24.3466 27.1579 24.4062 27.1407 24.4698C27.1236 24.5334 27.1191 24.5998 27.1276 24.6651C27.136 24.7304 27.1573 24.7935 27.1901 24.8506L29.3951 28.6656L21.3951 31.6656C21.3951 31.6656 21.3951 31.6656 21.3601 31.6656H21.3201L20.0201 32.4156L19.1551 32.9156C19.0412 32.9814 18.9155 33.0242 18.7851 33.0413C18.6547 33.0585 18.5221 33.0497 18.3951 33.0156C18.1399 32.9467 17.9224 32.7795 17.7901 32.5506L16.7901 30.8206C16.6725 30.5943 16.6458 30.3315 16.7155 30.0861C16.7852 29.8408 16.946 29.6313 17.1651 29.5006L18.8951 28.5006L20.1451 30.6656C20.1892 30.7419 20.2526 30.8052 20.329 30.8491C20.4054 30.893 20.492 30.916 20.5801 30.9156C20.668 30.916 20.7545 30.8931 20.8308 30.8494C20.9071 30.8056 20.9705 30.7425 21.0146 30.6665C21.0587 30.5904 21.082 30.504 21.0821 30.4161C21.0822 30.3282 21.0591 30.2418 21.0151 30.1656L19.7251 27.9356L26.0001 22.7606L26.2051 23.1156C26.2379 23.1727 26.2817 23.2228 26.3339 23.263C26.3861 23.3033 26.4457 23.3328 26.5093 23.35C26.5729 23.3672 26.6393 23.3716 26.7046 23.3632C26.77 23.3547 26.833 23.3334 26.8901 23.3006C26.9472 23.2678 26.9973 23.224 27.0375 23.1718C27.0778 23.1196 27.1073 23.06 27.1245 22.9964C27.1417 22.9328 27.1461 22.8664 27.1377 22.8011C27.1292 22.7358 27.1079 22.6727 27.0751 22.6156L26.5751 21.7506C26.5385 21.688 26.4886 21.634 26.4291 21.5926C26.3695 21.5512 26.3016 21.5232 26.2301 21.5106C26.1583 21.4971 26.0843 21.4994 26.0135 21.5176C25.9426 21.5357 25.8766 21.5692 25.8201 21.6156L18.8201 27.3856L16.6901 28.6156C16.3079 28.8382 16.0102 29.1813 15.8438 29.5912C15.6773 30.001 15.6514 30.4545 15.7701 30.8806L15.2701 31.1656C15.0125 31.3135 14.8046 31.5347 14.6728 31.8009C14.541 32.0671 14.4912 32.3665 14.5298 32.6611C14.5683 32.9557 14.6935 33.2321 14.8894 33.4555C15.0853 33.6788 15.3431 33.839 15.6301 33.9156C15.7574 33.9493 15.8885 33.9661 16.0201 33.9656C16.2831 33.9645 16.5415 33.8956 16.7701 33.7656L17.2701 33.4806C17.5103 33.7287 17.8124 33.9082 18.1451 34.0006C18.316 34.0484 18.4927 34.072 18.6701 34.0706C19.0216 34.0714 19.3668 33.9782 19.6701 33.8006L20.1051 33.5506L21.1051 35.2856C21.3038 35.6292 21.6307 35.88 22.014 35.9831C22.3973 36.0862 22.8058 36.0332 23.1501 35.8356C23.3209 35.7372 23.4706 35.6061 23.5907 35.4498C23.7108 35.2934 23.7989 35.115 23.85 34.9246C23.9011 34.7342 23.9141 34.5356 23.8884 34.3402C23.8627 34.1447 23.7987 33.9563 23.7001 33.7856L22.7901 32.2006L30.2901 29.3856C30.3581 29.36 30.4198 29.32 30.4707 29.2681C30.5216 29.2163 30.5607 29.154 30.5851 29.0856C30.6094 29.018 30.6189 28.9459 30.6129 28.8743C30.6068 28.8027 30.5854 28.7332 30.5501 28.6706L28.0601 24.3506ZM16.2501 32.8956C16.1932 32.9285 16.1303 32.9499 16.0651 32.9585C15.9999 32.967 15.9336 32.9627 15.8701 32.9456C15.742 32.9123 15.6323 32.8296 15.5651 32.7156C15.5322 32.6587 15.5108 32.5958 15.5023 32.5306C15.4937 32.4654 15.498 32.3991 15.5151 32.3356C15.5322 32.2718 15.5617 32.2119 15.6021 32.1596C15.6424 32.1072 15.6927 32.0634 15.7501 32.0306L16.1851 31.7806L16.6851 32.6456L16.2501 32.8956ZM22.8301 34.2956C22.863 34.3525 22.8844 34.4154 22.893 34.4806C22.9015 34.5458 22.8972 34.6121 22.8801 34.6756C22.8445 34.8027 22.76 34.9105 22.6451 34.9756C22.5309 35.0412 22.3954 35.0591 22.2681 35.0254C22.1408 34.9917 22.0319 34.9091 21.9651 34.7956L20.9651 33.0606L21.7951 32.5856H21.8351L22.8301 34.2956Z" fill="#1769AA"/>
</svg>
