<svg width="255" height="312" viewBox="0 0 255 312" fill="none" xmlns="http://www.w3.org/2000/svg">
<g filter="url(#filter0_d_1743_2354)">
<rect x="73" y="126" width="52.5778" height="52" rx="8" fill="white"/>
<rect x="73.5" y="126.5" width="51.5778" height="51" rx="7.5" stroke="#D2D2D2"/>
</g>
<path d="M112.5 164H85.5C84.8345 163.988 84.853 163.008 85.5 163H112.5C113.166 163.011 113.147 163.992 112.5 164ZM86 162V154.5C86 154.223 86.224 154 86.5 154H90.5C90.776 154 91 154.223 91 154.5V162C91 162.276 90.776 162.5 90.5 162.5H86.5C86.224 162.5 86 162.276 86 162ZM87 161.5H90V155H87V161.5ZM97.5 149.5C97.776 149.5 98 149.723 98 150V162C98 162.276 97.776 162.5 97.5 162.5H93.5C93.224 162.5 93 162.276 93 162V150C93 149.723 93.224 149.5 93.5 149.5H97.5ZM97 150.5H94V161.5H97V150.5ZM104.5 151C104.777 151 105 151.223 105 151.5V162C105 162.276 104.777 162.5 104.5 162.5H100.5C100.224 162.5 100 162.276 100 162V151.5C100 151.223 100.224 151 100.5 151H104.5ZM104 152H101V161.5H104V152ZM107.5 146H111.5C111.777 146 112 146.223 112 146.5V162C112 162.276 111.777 162.5 111.5 162.5H107.5C107.224 162.5 107 162.276 107 162V146.5C107 146.223 107.224 146 107.5 146ZM108 161.5H111V147H108V161.5ZM87 149.5C86.961 148.285 88.4905 147.545 89.4135 148.318L94.043 145.342C93.6365 143.3 96.6395 142.754 96.9805 144.805L101.227 145.715C101.626 145.004 102.698 144.768 103.359 145.273L108.064 141.908C107.544 139.707 110.88 139.236 111 141.499C111.037 142.683 109.578 143.43 108.641 142.725L103.936 146.09C104.452 148.154 101.373 148.789 101.02 146.693L96.773 145.783C96.362 146.519 95.24 146.737 94.5865 146.181L89.957 149.157C90.1935 150.078 89.45 151.013 88.5 151C87.673 151 87 150.327 87 149.5ZM109.5 142C110.157 141.988 110.157 141.011 109.5 141C108.843 141.011 108.843 141.988 109.5 142ZM102.5 147C103.157 146.988 103.157 146.011 102.5 146C101.843 146.011 101.843 146.988 102.5 147ZM95.5 145.5C96.157 145.488 96.157 144.511 95.5 144.5C94.843 144.511 94.843 145.488 95.5 145.5ZM88.5 150C89.157 149.988 89.157 149.011 88.5 149C87.843 149.011 87.843 149.988 88.5 150Z" fill="#121928"/>
<defs>
<filter id="filter0_d_1743_2354" x="-56.1" y="0.899994" width="310.778" height="310.2" filterUnits="userSpaceOnUse" color-interpolation-filters="sRGB">
<feFlood flood-opacity="0" result="BackgroundImageFix"/>
<feColorMatrix in="SourceAlpha" type="matrix" values="0 0 0 0 0 0 0 0 0 0 0 0 0 0 0 0 0 0 127 0" result="hardAlpha"/>
<feOffset dy="4"/>
<feGaussianBlur stdDeviation="64.55"/>
<feColorMatrix type="matrix" values="0 0 0 0 0 0 0 0 0 0 0 0 0 0 0 0 0 0 0.04 0"/>
<feBlend mode="normal" in2="BackgroundImageFix" result="effect1_dropShadow_1743_2354"/>
<feBlend mode="normal" in="SourceGraphic" in2="effect1_dropShadow_1743_2354" result="shape"/>
</filter>
</defs>
</svg>
