<svg width="255" height="312" viewBox="0 0 255 312" fill="none" xmlns="http://www.w3.org/2000/svg">
<g filter="url(#filter0_d_1885_518)">
<rect x="73" y="126" width="52.5778" height="52" rx="8" fill="white"/>
<rect x="73.5" y="126.5" width="51.5778" height="51" rx="7.5" stroke="#D2D2D2"/>
</g>
<path d="M114.289 151.532L109.366 142.568C109.298 142.445 109.184 142.354 109.049 142.314C108.914 142.275 108.768 142.291 108.645 142.358L106.433 143.572C106.309 143.64 106.218 143.755 106.178 143.89C106.139 144.025 106.155 144.17 106.223 144.294L106.428 144.669C106.038 144.831 105.617 144.906 105.194 144.888C104.771 144.87 104.358 144.76 103.982 144.566C102.35 143.898 99.7407 143.86 96.0064 144.45C95.5418 144.525 95.1258 144.78 94.8489 145.161L94.3903 145.795C92.6631 145.334 92.3278 145.4 91.4488 144.892L91.7771 144.294C91.8448 144.17 91.8606 144.025 91.8213 143.89C91.7819 143.755 91.6904 143.64 91.567 143.572L89.3549 142.358C89.2312 142.291 89.0859 142.275 88.9507 142.314C88.8156 142.354 88.7014 142.445 88.6332 142.568L83.7108 151.532C83.6432 151.655 83.6273 151.801 83.6667 151.936C83.7061 152.071 83.7975 152.186 83.921 152.253L86.1331 153.468C86.2567 153.536 86.4021 153.552 86.5374 153.512C86.6727 153.473 86.7868 153.381 86.8548 153.258L86.9022 153.171C87.2086 153.55 87.5235 153.918 87.8471 154.274C87.6842 154.535 87.6009 154.839 87.6076 155.146C87.6143 155.454 87.7105 155.754 87.8846 156.008C88.0587 156.262 88.303 156.46 88.5878 156.577C88.8725 156.694 89.1853 156.726 89.4878 156.669C89.4075 156.973 89.4198 157.294 89.523 157.592C89.6262 157.889 89.8158 158.149 90.0674 158.338C90.319 158.527 90.6213 158.637 90.9356 158.654C91.25 158.67 91.5621 158.593 91.8322 158.431C91.847 158.715 91.9382 158.99 92.096 159.227C92.2539 159.463 92.4726 159.653 92.7291 159.776C92.9857 159.899 93.2707 159.951 93.5541 159.926C93.8375 159.9 94.1089 159.799 94.3397 159.633C94.3321 159.942 94.4151 160.247 94.5786 160.509C94.742 160.771 94.9787 160.98 95.2594 161.11C95.5401 161.239 95.8527 161.284 96.1584 161.238C96.4641 161.192 96.7497 161.057 96.9799 160.851C99.0567 161.741 101.704 162.385 102.797 160.405C103.319 160.448 103.838 160.295 104.253 159.977C104.668 159.658 104.951 159.197 105.045 158.682C105.317 158.649 105.579 158.562 105.817 158.426C106.054 158.289 106.262 158.107 106.427 157.888C106.593 157.67 106.712 157.421 106.779 157.155C106.846 156.89 106.859 156.613 106.816 156.343C107.266 156.234 107.663 155.969 107.936 155.594C108.208 155.22 108.339 154.761 108.304 154.299C109.175 153.803 110.009 153.244 110.799 152.628L111.145 153.258C111.213 153.381 111.327 153.473 111.462 153.512C111.598 153.552 111.743 153.536 111.867 153.468L114.079 152.253C114.202 152.186 114.294 152.071 114.333 151.936C114.372 151.801 114.356 151.655 114.289 151.532ZM86.1788 152.281L84.8984 151.577L89.3092 143.545L90.5896 144.248L86.1888 152.263L86.1788 152.281ZM88.7873 154.77L89.676 153.685C89.7659 153.578 89.8944 153.511 90.0336 153.498C90.1727 153.485 90.3114 153.528 90.4195 153.616C90.5276 153.705 90.5965 153.832 90.6113 153.971C90.626 154.11 90.5854 154.249 90.4983 154.359L89.6091 155.444C89.1927 155.952 88.3557 155.299 88.7873 154.77ZM90.6155 156.73L92.6357 154.264C92.7256 154.157 92.8541 154.09 92.9934 154.076C93.1327 154.063 93.2716 154.106 93.3798 154.194C93.4881 154.283 93.557 154.411 93.5715 154.55C93.586 154.689 93.5451 154.829 93.4575 154.938L91.4373 157.404C91.3475 157.511 91.219 157.579 91.0796 157.592C90.9403 157.605 90.8014 157.562 90.6931 157.474C90.5848 157.385 90.516 157.257 90.5014 157.118C90.4869 156.979 90.5279 156.839 90.6155 156.73ZM93.0067 158.003L94.3535 156.359C94.4433 156.252 94.5718 156.184 94.7112 156.171C94.8505 156.158 94.9894 156.201 95.0976 156.289C95.2058 156.378 95.2747 156.506 95.2892 156.645C95.3038 156.784 95.2628 156.923 95.1753 157.033L93.8285 158.676C93.7386 158.783 93.6101 158.851 93.4708 158.864C93.3316 158.877 93.1928 158.835 93.0846 158.746C92.9763 158.657 92.9075 158.529 92.8929 158.39C92.8783 158.251 92.9192 158.112 93.0067 158.003ZM95.5151 159.325L96.0733 158.643C96.163 158.535 96.2917 158.467 96.4313 158.454C96.571 158.44 96.7102 158.483 96.8188 158.571C96.9273 158.66 96.9963 158.789 97.0107 158.928C97.0251 159.068 96.9837 159.207 96.8956 159.316L96.3369 159.998C96.2471 160.106 96.1185 160.173 95.9791 160.186C95.8397 160.2 95.7008 160.157 95.5925 160.068C95.4842 159.98 95.4153 159.852 95.4008 159.712C95.3863 159.573 95.4274 159.434 95.5151 159.325ZM105.453 155.079L101.449 152.734C101.327 152.664 101.183 152.645 101.047 152.681C100.912 152.717 100.796 152.805 100.725 152.926C100.654 153.047 100.634 153.191 100.669 153.327C100.704 153.463 100.791 153.579 100.911 153.651L104.916 155.996C105.169 156.145 105.442 156.257 105.728 156.328C105.776 156.47 105.792 156.621 105.774 156.769C105.756 156.918 105.704 157.061 105.622 157.187C105.54 157.312 105.431 157.418 105.303 157.495C105.174 157.572 105.03 157.619 104.88 157.632L100.972 155.54C100.848 155.474 100.703 155.461 100.569 155.502C100.435 155.543 100.323 155.636 100.257 155.759C100.191 155.883 100.176 156.028 100.216 156.162C100.257 156.296 100.348 156.409 100.471 156.477L104.019 158.376C104.005 158.529 103.957 158.677 103.881 158.81C103.805 158.944 103.702 159.06 103.578 159.15C103.454 159.241 103.313 159.305 103.163 159.337C103.013 159.369 102.857 159.37 102.707 159.338L99.7194 158.009C99.5909 157.953 99.4456 157.95 99.3151 158.001C99.1845 158.052 99.0794 158.152 99.0225 158.28C98.9656 158.408 98.9616 158.554 99.0112 158.685C99.0609 158.816 99.1603 158.922 99.2878 158.98L101.744 160.072C100.949 161.116 98.927 160.491 97.7078 160.002L97.7174 159.99C97.9264 159.737 98.052 159.426 98.0768 159.099C98.1016 158.772 98.0245 158.445 97.856 158.164C97.6876 157.882 97.436 157.66 97.136 157.528C96.836 157.395 96.5023 157.359 96.1809 157.424C96.3143 157.165 96.3739 156.874 96.3534 156.584C96.3329 156.293 96.2329 156.014 96.0645 155.777C95.896 155.539 95.6655 155.352 95.3982 155.237C95.1308 155.121 94.8369 155.082 94.5485 155.122C94.6697 154.769 94.6631 154.385 94.5301 154.037C94.397 153.688 94.1458 153.397 93.8203 153.215C93.4948 153.033 93.1157 152.971 92.749 153.039C92.3823 153.108 92.0514 153.303 91.814 153.591L91.6561 153.784C91.6108 153.479 91.478 153.194 91.2739 152.964C91.0698 152.734 90.8031 152.567 90.5064 152.486C90.2096 152.404 89.8955 152.41 89.6022 152.504C89.3089 152.597 89.0491 152.774 88.8542 153.012L88.5149 153.426C88.1507 153.018 87.7983 152.595 87.4579 152.16L90.9378 145.823C91.9144 146.382 92.4581 146.4 93.7222 146.718L91.993 149.108C91.8828 149.26 91.815 149.439 91.7965 149.626C91.778 149.814 91.8095 150.002 91.8877 150.173C91.9659 150.344 92.0881 150.492 92.2417 150.6C92.3953 150.708 92.575 150.774 92.7623 150.79C93.6947 150.881 94.6351 150.738 95.4981 150.374C96.3612 150.009 97.1197 149.435 97.7049 148.704C98.2133 148.824 98.7422 148.827 99.252 148.713C100.869 149.545 106.556 152.604 107.219 154.299C107.428 154.832 106.687 155.805 105.453 155.079ZM107.889 153.311C106.745 151.601 100.151 147.644 99.2084 147.644L99.2068 147.636C98.7 147.784 98.1592 147.765 97.6639 147.582C97.5459 147.54 97.4168 147.539 97.2987 147.582C97.1805 147.624 97.0808 147.706 97.0165 147.814C96.5606 148.479 95.9328 149.009 95.1999 149.347C94.467 149.684 93.6564 149.817 92.8541 149.731C94.5998 147.318 95.0803 146.654 95.7096 145.784C95.8205 145.632 95.9867 145.529 96.1724 145.499C99.6592 144.949 102.152 144.965 103.623 145.567C104.139 145.817 104.705 145.95 105.278 145.956C105.852 145.962 106.419 145.841 106.94 145.601L110.28 151.684C109.524 152.284 108.725 152.828 107.889 153.311ZM111.821 152.281L107.41 144.248L108.69 143.545L113.101 151.577L111.821 152.281Z" fill="black"/>
<defs>
<filter id="filter0_d_1885_518" x="-56.1" y="0.899994" width="310.778" height="310.2" filterUnits="userSpaceOnUse" color-interpolation-filters="sRGB">
<feFlood flood-opacity="0" result="BackgroundImageFix"/>
<feColorMatrix in="SourceAlpha" type="matrix" values="0 0 0 0 0 0 0 0 0 0 0 0 0 0 0 0 0 0 127 0" result="hardAlpha"/>
<feOffset dy="4"/>
<feGaussianBlur stdDeviation="64.55"/>
<feColorMatrix type="matrix" values="0 0 0 0 0 0 0 0 0 0 0 0 0 0 0 0 0 0 0.04 0"/>
<feBlend mode="normal" in2="BackgroundImageFix" result="effect1_dropShadow_1885_518"/>
<feBlend mode="normal" in="SourceGraphic" in2="effect1_dropShadow_1885_518" result="shape"/>
</filter>
</defs>
</svg>
