<svg width="73" height="72" viewBox="0 0 73 72" fill="none" xmlns="http://www.w3.org/2000/svg">
<rect width="72.8" height="72" rx="20" fill="#E0F8F8"/>
<path d="M25.943 44.4666L25.9194 44.4H25.8488H24.75C23.2544 44.4 22.0375 43.1831 22.0375 41.6875V41.6867V41.6858V41.6848V41.6835V41.6822V41.6807V41.679V41.6772V41.6753V41.6732V41.671V41.6686V41.6661V41.6634V41.6606V41.6577V41.6546V41.6514V41.648V41.6445V41.6408V41.6371V41.6332V41.6291V41.6249V41.6206V41.6161V41.6115V41.6068V41.6019V41.5969V41.5918V41.5866V41.5812V41.5757V41.57V41.5642V41.5583V41.5523V41.5461V41.5398V41.5334V41.5268V41.5202V41.5134V41.5065V41.4994V41.4922V41.4849V41.4775V41.47V41.4623V41.4545V41.4466V41.4386V41.4305V41.4222V41.4139V41.4054V41.3968V41.388V41.3792V41.3702V41.3612V41.352V41.3427V41.3333V41.3237V41.3141V41.3043V41.2945V41.2845V41.2744V41.2642V41.2539V41.2435V41.233V41.2224V41.2117V41.2008V41.1899V41.1789V41.1677V41.1565V41.1451V41.1337V41.1221V41.1104V41.0987V41.0868V41.0748V41.0628V41.0506V41.0384V41.026V41.0136V41.001V40.9884V40.9756V40.9628V40.9498V40.9368V40.9237V40.9105V40.8972V40.8838V40.8703V40.8567V40.8431V40.8293V40.8155V40.8015V40.7875V40.7734V40.7592V40.7449V40.7306V40.7161V40.7016V40.687V40.6723V40.6575V40.6426V40.6277V40.6126V40.5975V40.5823V40.567V40.5517V40.5363V40.5208V40.5052V40.4895V40.4738V40.458V40.4421V40.4261V40.4101V40.394V40.3778V40.3615V40.3452V40.3288V40.3123V40.2958V40.2792V40.2625V40.2458V40.229V40.2121V40.1951V40.1781V40.161V40.1439V40.1267V40.1094V40.0921V40.0747V40.0572V40.0397V40.0221V40.0045V39.9867V39.969V39.9512V39.9333V39.9153V39.8973V39.8793V39.8612V39.843V39.8248V39.8065V39.7882V39.7698V39.7513V39.7328V39.7143V39.6957V39.677V39.6583V39.6396V39.6208V39.602V39.5831V39.5641V39.5451V39.5261V39.507V39.4879V39.4687V39.4495V39.4303V39.411V39.3916V39.3722V39.3528V39.3333V39.3138V39.2943V39.2747V39.2551V39.2354V39.2157V39.1959V39.1762V39.1564V39.1365V39.1166V39.0967V39.0768V39.0568V39.0368V39.0167V38.9966V38.9765V38.9564V38.9362V38.916V38.8958V38.8755V38.8552V38.8349V38.8146V38.7942V38.7738V38.7534V38.733V38.7125V38.692V38.6715V38.651V38.6304V38.6098V38.5892V38.5686V38.548V38.5273V38.5066V38.4859V38.4652V38.4445V38.4238V38.403V38.3822V38.3615V38.3407V38.3198V38.299V38.2782V38.2573V38.2365V38.2156V38.1947V38.1738V38.1529V38.132V38.1111V38.0901V38.0692V38.0483V38.0273V38.0064V37.9854V37.9645V37.9435V37.9225V37.9016V37.8806V37.8596V37.8386V37.8177V37.7967V37.7757V37.7548V37.7338V37.7128V37.6919V37.6709V37.65V37.629V37.6081V37.5871V37.5662V37.5453V37.5244V37.5034V37.4825V37.4617V37.4408V37.4199V37.399V37.3782V37.3573V37.3365V37.3157V37.2949V37.2741V37.2534V37.2326V37.2119V37.1911V37.1704V37.1497V37.1291V37.1084V37.0878V37.0672V37.0466V37.026V37.0055V36.9849V36.9644V36.9439V36.9235V36.903V36.8826V36.8622V36.8419V36.8215V36.8012V36.781V36.7607V36.7405V36.7203V36.7001V36.68V36.6599V36.6398V36.6198V36.5997V36.5798V36.5598V36.5399V36.52V36.5002V36.4804V36.4606V36.4409V36.4212V36.4015V36.3819V36.3623V36.3428V36.3233V36.3038V36.2844V36.265V36.2457V36.2264V36.2072V36.188V36.1688V36.1497V36.1306V36.1116V36.0926V36.0737V36.0548V36.0359V36.0172V35.9984V35.9797V35.9611V35.9425V35.924V35.9055V35.8871V35.8687V35.8504V35.8321V35.8139V35.7957V35.7776V35.7596V35.7416V35.7237V35.7058V35.688V35.6702V35.6525V35.6349V35.6173V35.5998V35.5823V35.565V35.5476V35.5304V35.5132V35.496V35.479V35.462V35.445V35.4282V35.4114V35.3946V35.378V35.3614V35.3449V35.3284V35.312V35.2957V35.2795V35.2633V35.2472V35.2312V35.2152V35.1994V35.1836V35.1678V35.1522V35.1366V35.1211V35.1057V35.0904V35.0751V35.06V35.0449V35.0299V35.0149V35.0001V34.9853V34.9706V34.956V34.9415V34.9271V34.9127V34.8984V34.8843V34.8702V34.8562V34.8423V34.8284V34.8147V34.801V34.7875V34.774V34.7606V34.7473V34.7342V34.7211V34.708V34.6951V34.6823V34.6696V34.657V34.6444V34.632V34.6197V34.6074V34.5953V34.5832V34.5713V34.5595V34.5477V34.5361V34.5245V34.5131V34.5018V34.4905V34.4794V34.4684V34.4575V34.4466V34.4359V34.4253V34.4148V34.4045V34.3942V34.384V34.374V34.364V34.3542V34.3444V34.3348V34.3253V34.3159V34.3067V34.2975V34.2884V34.2795V34.2707V34.262V34.2534V34.2449V34.2366V34.2283V34.2202V34.2122V34.2044V34.1966V34.189V34.1814V34.1741V34.1668V34.1596V34.1526V34.1457V34.1389V34.1323V34.1258V34.1194V34.1131V34.107V34.101V34.0951V34.0893V34.0837V34.0782V34.0728V34.0676V34.0625C22.0375 26.3637 28.3012 20.1 36 20.1C43.6988 20.1 49.9625 26.3637 49.9625 34.0625V34.0676V34.0728V34.0782V34.0837V34.0893V34.0951V34.1009V34.1069V34.1131V34.1193V34.1257V34.1323V34.1389V34.1457V34.1526V34.1596V34.1667V34.174V34.1814V34.1889V34.1965V34.2043V34.2122V34.2201V34.2283V34.2365V34.2448V34.2533V34.2619V34.2706V34.2794V34.2883V34.2974V34.3066V34.3158V34.3252V34.3347V34.3443V34.3541V34.3639V34.3739V34.3839V34.3941V34.4044V34.4147V34.4252V34.4358V34.4465V34.4573V34.4683V34.4793V34.4904V34.5016V34.513V34.5244V34.536V34.5476V34.5593V34.5712V34.5831V34.5952V34.6073V34.6195V34.6319V34.6443V34.6568V34.6695V34.6822V34.695V34.7079V34.7209V34.734V34.7472V34.7605V34.7739V34.7874V34.8009V34.8146V34.8283V34.8421V34.856V34.8701V34.8841V34.8983V34.9126V34.9269V34.9414V34.9559V34.9705V34.9852V35V35.0148V35.0297V35.0448V35.0599V35.075V35.0903V35.1056V35.121V35.1365V35.1521V35.1677V35.1835V35.1993V35.2151V35.2311V35.2471V35.2632V35.2794V35.2956V35.3119V35.3283V35.3448V35.3613V35.3779V35.3946V35.4113V35.4281V35.445V35.4619V35.4789V35.496V35.5131V35.5303V35.5476V35.5649V35.5823V35.5998V35.6173V35.6348V35.6525V35.6702V35.6879V35.7058V35.7236V35.7416V35.7596V35.7776V35.7957V35.8139V35.8321V35.8504V35.8687V35.8871V35.9055V35.924V35.9425V35.9611V35.9797V35.9984V36.0172V36.036V36.0548V36.0737V36.0926V36.1116V36.1306V36.1497V36.1688V36.188V36.2072V36.2265V36.2458V36.2651V36.2845V36.3039V36.3234V36.3429V36.3624V36.382V36.4016V36.4213V36.441V36.4607V36.4805V36.5003V36.5201V36.54V36.5599V36.5799V36.5999V36.6199V36.6399V36.66V36.6801V36.7003V36.7204V36.7406V36.7609V36.7811V36.8014V36.8217V36.842V36.8624V36.8828V36.9032V36.9237V36.9441V36.9646V36.9851V37.0057V37.0262V37.0468V37.0674V37.088V37.1086V37.1293V37.15V37.1707V37.1914V37.2121V37.2328V37.2536V37.2744V37.2952V37.316V37.3368V37.3576V37.3784V37.3993V37.4202V37.441V37.4619V37.4828V37.5037V37.5246V37.5456V37.5665V37.5874V37.6084V37.6293V37.6503V37.6712V37.6922V37.7132V37.7341V37.7551V37.7761V37.797V37.818V37.839V37.86V37.8809V37.9019V37.9229V37.9439V37.9648V37.9858V38.0067V38.0277V38.0486V38.0696V38.0905V38.1115V38.1324V38.1533V38.1742V38.1951V38.216V38.2369V38.2577V38.2786V38.2994V38.3203V38.3411V38.3619V38.3827V38.4035V38.4242V38.445V38.4657V38.4864V38.5071V38.5278V38.5484V38.5691V38.5897V38.6103V38.6309V38.6514V38.672V38.6925V38.713V38.7334V38.7539V38.7743V38.7947V38.8151V38.8354V38.8557V38.876V38.8963V38.9165V38.9367V38.9569V38.977V38.9972V39.0172V39.0373V39.0573V39.0773V39.0973V39.1172V39.1371V39.1569V39.1767V39.1965V39.2162V39.236V39.2556V39.2752V39.2948V39.3144V39.3339V39.3534V39.3728V39.3922V39.4115V39.4308V39.4501V39.4693V39.4885V39.5076V39.5267V39.5457V39.5647V39.5837V39.6026V39.6214V39.6402V39.659V39.6777V39.6963V39.7149V39.7334V39.7519V39.7704V39.7888V39.8071V39.8254V39.8436V39.8618V39.8799V39.898V39.916V39.9339V39.9518V39.9696V39.9874V40.0051V40.0227V40.0403V40.0578V40.0753V40.0927V40.1101V40.1273V40.1445V40.1617V40.1788V40.1958V40.2127V40.2296V40.2464V40.2632V40.2798V40.2965V40.313V40.3295V40.3459V40.3622V40.3784V40.3946V40.4107V40.4268V40.4427V40.4586V40.4744V40.4902V40.5058V40.5214V40.5369V40.5523V40.5677V40.583V40.5982V40.6133V40.6283V40.6432V40.6581V40.6729V40.6876V40.7022V40.7167V40.7312V40.7456V40.7598V40.774V40.7881V40.8022V40.8161V40.8299V40.8437V40.8574V40.8709V40.8844V40.8978V40.9111V40.9243V40.9374V40.9504V40.9634V40.9762V40.989V41.0016V41.0141V41.0266V41.0389V41.0512V41.0634V41.0754V41.0874V41.0992V41.111V41.1227V41.1342V41.1457V41.157V41.1683V41.1794V41.1905V41.2014V41.2122V41.2229V41.2336V41.2441V41.2545V41.2648V41.2749V41.285V41.295V41.3048V41.3146V41.3242V41.3337V41.3432V41.3524V41.3616V41.3707V41.3797V41.3885V41.3972V41.4058V41.4143V41.4227V41.4309V41.4391V41.4471V41.455V41.4627V41.4704V41.4779V41.4853V41.4926V41.4998V41.5068V41.5137V41.5205V41.5272V41.5337V41.5402V41.5464V41.5526V41.5586V41.5645V41.5703V41.576V41.5815V41.5869V41.5921V41.5972V41.6022V41.6071V41.6118V41.6164V41.6208V41.6251V41.6293V41.6334V41.6373V41.641V41.6447V41.6482V41.6515V41.6547V41.6578V41.6607V41.6635V41.6662V41.6687V41.6711V41.6733V41.6754V41.6773V41.6791V41.6807V41.6822V41.6836V41.6848V41.6858V41.6867V41.6875C49.9625 43.1831 48.7456 44.4 47.25 44.4H46.3125H46.2125V44.5V45.4375C46.2125 47.967 44.1545 50.025 41.625 50.025H38.6513H38.5806L38.557 50.0916C38.1837 51.1442 37.1784 51.9 36 51.9C34.5044 51.9 33.2875 50.6831 33.2875 49.1875C33.2875 47.6919 34.5044 46.475 36 46.475C37.1784 46.475 38.1837 47.2308 38.557 48.2834L38.5806 48.35H38.6513H41.625C42.9374 48.35 44.0489 47.4776 44.412 46.2829L44.4665 46.1037L44.2872 46.1581C44.038 46.2339 43.7737 46.275 43.5 46.275C42.0044 46.275 40.7875 45.0581 40.7875 43.5625V35.9375C40.7875 34.4419 42.0044 33.225 43.5 33.225C44.6784 33.225 45.6837 33.9808 46.057 35.0334L46.0806 35.1H46.1513H47.25C47.567 35.1 47.8711 35.1551 48.1541 35.2555L48.2875 35.3028V35.1613V34.0625C48.2875 27.2871 42.7754 21.775 36 21.775C29.2246 21.775 23.7125 27.2871 23.7125 34.0625V35.1613V35.3028L23.8459 35.2555C24.1289 35.1551 24.433 35.1 24.75 35.1H25.8488H25.9194L25.943 35.0334C26.3163 33.9808 27.3216 33.225 28.5 33.225C29.9956 33.225 31.2125 34.4419 31.2125 35.9375V43.5625C31.2125 45.0581 29.9956 46.275 28.5 46.275C27.3216 46.275 26.3163 45.5192 25.943 44.4666ZM25.7875 36.875V36.775H25.6875H24.75C24.1778 36.775 23.7125 37.2403 23.7125 37.8125V41.6875C23.7125 42.2597 24.1778 42.725 24.75 42.725H25.6875H25.7875V42.625V36.875ZM46.2125 42.625V42.725H46.3125H47.25C47.8222 42.725 48.2875 42.2597 48.2875 41.6875V37.8125C48.2875 37.2403 47.8222 36.775 47.25 36.775H46.3125H46.2125V36.875V42.625ZM28.5 34.9C27.9278 34.9 27.4625 35.3653 27.4625 35.9375V43.5625C27.4625 44.1347 27.9278 44.6 28.5 44.6C29.0722 44.6 29.5375 44.1347 29.5375 43.5625V35.9375C29.5375 35.3653 29.0722 34.9 28.5 34.9ZM34.9625 49.1875C34.9625 49.7597 35.4278 50.225 36 50.225C36.5722 50.225 37.0375 49.7597 37.0375 49.1875C37.0375 48.6153 36.5722 48.15 36 48.15C35.4278 48.15 34.9625 48.6153 34.9625 49.1875ZM43.5 44.6C44.0722 44.6 44.5375 44.1347 44.5375 43.5625V35.9375C44.5375 35.3653 44.0722 34.9 43.5 34.9C42.9278 34.9 42.4625 35.3653 42.4625 35.9375V43.5625C42.4625 44.1347 42.9278 44.6 43.5 44.6Z" fill="#008080" stroke="#E0F8F8" stroke-width="0.2"/>
</svg>
