<svg width="32" height="32" viewBox="0 0 32 32" fill="none" xmlns="http://www.w3.org/2000/svg">
<path d="M24.7238 12.9052C24.7238 8.0909 20.8103 4.17383 15.9999 4.17383C11.1898 4.17383 7.27637 8.0909 7.27637 12.9052C7.27637 15.3247 8.24422 17.5741 10.002 19.2387C11.0837 20.2632 11.7119 21.737 11.7474 23.2983C11.3797 23.5809 11.1384 24.0203 11.1384 24.5188C11.1384 24.9405 11.3091 25.3224 11.5839 25.6013C11.3091 25.8803 11.1384 26.2624 11.1384 26.684C11.1384 27.5356 11.8311 28.2279 12.6826 28.2279H13.4106C13.4395 29.6333 14.5874 30.7694 15.9999 30.7694C17.4127 30.7694 18.5606 29.6333 18.5895 28.2279H19.3175C20.1691 28.2279 20.8617 27.5356 20.8617 26.684C20.8617 26.2624 20.691 25.8803 20.4162 25.6013C20.691 25.3224 20.8617 24.9405 20.8617 24.5188C20.8617 24.0237 20.6234 23.5871 20.26 23.3043C20.2939 21.7396 20.9226 20.2621 22.0053 19.2345C23.7583 17.5711 24.7238 15.3235 24.7238 12.9052ZM19.9386 24.5188C19.9386 24.8613 19.6601 25.1396 19.3175 25.1396H12.6826C12.3401 25.1396 12.0615 24.8613 12.0615 24.5188C12.0615 24.1762 12.3401 23.8974 12.6826 23.8974H19.3175C19.6601 23.8974 19.9386 24.1762 19.9386 24.5188ZM15.9999 29.8463C15.0961 29.8463 14.3572 29.1251 14.3293 28.2279H17.6709C17.643 29.1251 16.9041 29.8463 15.9999 29.8463ZM19.3175 27.3048H18.1333H13.8668H12.6826C12.3401 27.3048 12.0615 27.0266 12.0615 26.684C12.0615 26.3415 12.3401 26.0626 12.6826 26.0626H19.3175C19.6601 26.0626 19.9386 26.3415 19.9386 26.684C19.9386 27.0266 19.6601 27.3048 19.3175 27.3048ZM19.3458 22.9743H19.3175H12.6826H12.6619C12.5501 21.2808 11.8259 19.6949 10.6366 18.5681C9.06513 17.0801 8.19944 15.0687 8.19944 12.9052C8.19944 8.59991 11.6988 5.0969 15.9999 5.0969C20.3013 5.0969 23.8007 8.59991 23.8007 12.9052C23.8007 15.0675 22.9374 17.0777 21.3701 18.5651C20.1811 19.6931 19.4573 21.2802 19.3458 22.9743Z" fill="black"/>
<path d="M21.2023 10.7386L20.4772 9.47957C20.2963 9.16647 19.9156 9.02464 19.5749 9.14363L18.8417 9.39784C18.4697 9.09495 18.0577 8.85637 17.6148 8.6869L17.4682 7.92548C17.4003 7.57031 17.0881 7.3125 16.7263 7.3125H15.2726C14.9108 7.3125 14.5989 7.57031 14.5313 7.92488L14.3843 8.6869C13.942 8.85637 13.5301 9.09495 13.1572 9.39784L12.424 9.14363C12.083 9.02524 11.7032 9.16647 11.522 9.48017L10.7969 10.738C10.6166 11.0511 10.6839 11.4495 10.9562 11.6857L11.54 12.1929C11.5024 12.4285 11.4835 12.6671 11.4835 12.9044C11.4835 13.1412 11.5024 13.3804 11.54 13.6154L10.9583 14.1178C10.6842 14.354 10.6166 14.753 10.7972 15.0661L11.5223 16.3245C11.7032 16.6388 12.0818 16.78 12.4228 16.6617L13.1536 16.4093C13.5283 16.7121 13.9417 16.9501 14.3847 17.1184L14.531 17.8786C14.5992 18.2344 14.9108 18.4922 15.2726 18.4922H16.7263C17.0881 18.4922 17.4 18.2344 17.4679 17.8792L17.6145 17.1184C18.058 16.9501 18.4715 16.7115 18.8453 16.4093L19.5752 16.6611C19.9171 16.78 20.296 16.6382 20.4769 16.3245L21.202 15.0667C21.3825 14.753 21.3149 14.354 21.0415 14.1184L20.455 13.6112C20.4922 13.378 20.5112 13.1406 20.5112 12.9044C20.5112 12.6683 20.4922 12.4309 20.455 12.1971L21.0427 11.6857C21.3152 11.4495 21.3825 11.0511 21.2023 10.7386ZM19.531 12.2692C19.5688 12.4784 19.5881 12.6923 19.5881 12.9044C19.5881 13.1166 19.5688 13.3299 19.531 13.5391C19.4832 13.8029 19.5776 14.0733 19.7774 14.2458L20.3327 14.726L19.7461 15.744L19.0535 15.5048C18.8035 15.4183 18.5307 15.4694 18.3237 15.643C17.9904 15.9237 17.6178 16.1382 17.2161 16.2819C16.964 16.3714 16.7768 16.5877 16.7272 16.8462L16.5878 17.5691H15.4114L15.272 16.8462C15.2224 16.5877 15.0352 16.3714 14.7831 16.2819C14.3813 16.1388 14.0087 15.9237 13.6749 15.643C13.4685 15.47 13.1956 15.4183 12.9456 15.5048L12.253 15.744L11.6665 14.726L12.2164 14.2506C12.4165 14.0793 12.5115 13.8083 12.4643 13.5433C12.4258 13.3323 12.4066 13.1172 12.4066 12.9044C12.4066 12.6911 12.4258 12.476 12.464 12.265C12.5118 12.0018 12.4174 11.7308 12.2188 11.5595L11.6659 11.0793L12.2524 10.0607L12.9472 10.3023C13.1969 10.3894 13.4784 10.3353 13.6815 10.1629C14.0124 9.88221 14.3834 9.66647 14.7843 9.52284C15.0355 9.43269 15.2224 9.21695 15.272 8.95853L15.4114 8.23558H16.5878L16.7272 8.95853C16.7768 9.21695 16.9637 9.43269 17.2146 9.52284C17.6157 9.66647 17.9868 9.88221 18.3173 10.1629C18.5211 10.3359 18.8032 10.3894 19.0511 10.3023L19.7464 10.0607L20.3333 11.0793L19.7774 11.5625C19.5773 11.7356 19.4829 12.006 19.531 12.2692Z" fill="black"/>
<path d="M15.9998 10.6191C14.7417 10.6191 13.7183 11.6426 13.7183 12.901C13.7183 14.1588 14.7417 15.1822 15.9998 15.1822C17.2579 15.1822 18.2817 14.1588 18.2817 12.901C18.2817 11.6426 17.2579 10.6191 15.9998 10.6191ZM15.9998 14.2592C15.2507 14.2592 14.6413 13.6498 14.6413 12.901C14.6413 12.1516 15.2507 11.5422 15.9998 11.5422C16.7489 11.5422 17.3586 12.1516 17.3586 12.901C17.3586 13.6498 16.7489 14.2592 15.9998 14.2592Z" fill="black"/>
<path d="M16.4612 2.60487V1.69201C16.4612 1.4372 16.2544 1.23047 15.9996 1.23047C15.7448 1.23047 15.5381 1.4372 15.5381 1.69201V2.60487C15.5381 2.85968 15.7448 3.06641 15.9996 3.06641C16.2544 3.06641 16.4612 2.85968 16.4612 2.60487Z" fill="black"/>
<path d="M10.8519 4.44673C10.9303 4.44673 11.0096 4.4269 11.0824 4.38483C11.3032 4.25742 11.3786 3.97497 11.2512 3.75442L10.7948 2.96355C10.6674 2.7424 10.3849 2.66668 10.1644 2.79468C9.94354 2.92209 9.86812 3.20454 9.99552 3.42509L10.452 4.21596C10.5373 4.36379 10.6923 4.44673 10.8519 4.44673Z" fill="black"/>
<path d="M6.85242 8.15354C6.92514 8.19561 7.00446 8.21544 7.08289 8.21544C7.24214 8.21544 7.39719 8.13251 7.48283 7.98467C7.61023 7.76412 7.53481 7.48167 7.31396 7.35427L6.52339 6.89753C6.30314 6.77073 6.02099 6.84585 5.89298 7.0664C5.76558 7.28696 5.841 7.56941 6.06185 7.69681L6.85242 8.15354Z" fill="black"/>
<path d="M4.79064 12.4395C4.53583 12.4395 4.3291 12.6462 4.3291 12.901C4.3291 13.1558 4.53583 13.3625 4.79064 13.3625H5.7035C5.95831 13.3625 6.16504 13.1558 6.16504 12.901C6.16504 12.6462 5.95831 12.4395 5.7035 12.4395H4.79064Z" fill="black"/>
<path d="M6.29292 18.9677C6.37135 18.9677 6.45068 18.9478 6.52339 18.9058L7.31396 18.449C7.53481 18.3216 7.61023 18.0392 7.48283 17.8186C7.35512 17.5981 7.07297 17.5224 6.85242 17.6498L6.06185 18.1065C5.841 18.2339 5.76558 18.5163 5.89298 18.7369C5.97862 18.8847 6.13367 18.9677 6.29292 18.9677Z" fill="black"/>
<path d="M24.6859 18.449L25.4764 18.9058C25.5492 18.9478 25.6285 18.9677 25.7069 18.9677C25.8662 18.9677 26.0212 18.8847 26.1069 18.7369C26.2343 18.5163 26.1588 18.2339 25.938 18.1065L25.1474 17.6498C24.9269 17.5224 24.6447 17.5981 24.517 17.8186C24.3896 18.0392 24.465 18.3216 24.6859 18.449Z" fill="black"/>
<path d="M27.2094 13.3625C27.4642 13.3625 27.6709 13.1558 27.6709 12.901C27.6709 12.6462 27.4642 12.4395 27.2094 12.4395H26.2965C26.0417 12.4395 25.835 12.6462 25.835 12.901C25.835 13.1558 26.0417 13.3625 26.2965 13.3625H27.2094Z" fill="black"/>
<path d="M25.1474 8.15354L25.938 7.69681C26.1588 7.56941 26.2343 7.28696 26.1069 7.0664C25.9788 6.84585 25.697 6.77073 25.4764 6.89753L24.6859 7.35427C24.465 7.48167 24.3896 7.76412 24.517 7.98467C24.6026 8.13251 24.7577 8.21544 24.9169 8.21544C24.9954 8.21544 25.0747 8.19561 25.1474 8.15354Z" fill="black"/>
<path d="M21.1478 4.4466C21.307 4.4466 21.4624 4.36366 21.5477 4.21583L22.0042 3.42496C22.1316 3.20441 22.0561 2.92196 21.8353 2.79455C21.615 2.66655 21.332 2.74287 21.2049 2.96342L20.7485 3.75429C20.621 3.97484 20.6965 4.25729 20.9173 4.3847C20.99 4.42676 21.0694 4.4466 21.1478 4.4466Z" fill="black"/>
</svg>
