<svg width="90" height="22" viewBox="0 0 90 22" fill="none" xmlns="http://www.w3.org/2000/svg">
<path d="M6.97405 13.392V15H1.41805V6.684H3.29005V13.392H6.97405ZM7.87976 11.892C7.87976 11.332 7.96376 10.844 8.13176 10.428C8.30776 10.004 8.53576 9.652 8.81576 9.372C9.09576 9.092 9.41576 8.88 9.77576 8.736C10.1438 8.592 10.5198 8.52 10.9038 8.52C11.7998 8.52 12.5078 8.796 13.0278 9.348C13.5478 9.892 13.8078 10.696 13.8078 11.76C13.8078 11.864 13.8038 11.98 13.7958 12.108C13.7878 12.228 13.7798 12.336 13.7718 12.432H9.71576C9.75576 12.8 9.92776 13.092 10.2318 13.308C10.5358 13.524 10.9438 13.632 11.4558 13.632C11.7838 13.632 12.1038 13.604 12.4158 13.548C12.7358 13.484 12.9958 13.408 13.1958 13.32L13.4358 14.772C13.3398 14.82 13.2118 14.868 13.0518 14.916C12.8918 14.964 12.7118 15.004 12.5118 15.036C12.3198 15.076 12.1118 15.108 11.8878 15.132C11.6638 15.156 11.4398 15.168 11.2158 15.168C10.6478 15.168 10.1518 15.084 9.72776 14.916C9.31176 14.748 8.96376 14.52 8.68376 14.232C8.41176 13.936 8.20776 13.588 8.07176 13.188C7.94376 12.788 7.87976 12.356 7.87976 11.892ZM12.0798 11.208C12.0718 11.056 12.0438 10.908 11.9958 10.764C11.9558 10.62 11.8878 10.492 11.7918 10.38C11.7038 10.268 11.5878 10.176 11.4438 10.104C11.3078 10.032 11.1358 9.996 10.9278 9.996C10.7278 9.996 10.5558 10.032 10.4118 10.104C10.2678 10.168 10.1478 10.256 10.0518 10.368C9.95576 10.48 9.87976 10.612 9.82376 10.764C9.77576 10.908 9.73976 11.056 9.71576 11.208H12.0798ZM17.7196 13.752C17.8956 13.752 18.0636 13.748 18.2236 13.74C18.3836 13.732 18.5116 13.72 18.6076 13.704V12.348C18.5356 12.332 18.4276 12.316 18.2836 12.3C18.1396 12.284 18.0076 12.276 17.8876 12.276C17.7196 12.276 17.5596 12.288 17.4076 12.312C17.2636 12.328 17.1356 12.364 17.0236 12.42C16.9116 12.476 16.8236 12.552 16.7596 12.648C16.6956 12.744 16.6636 12.864 16.6636 13.008C16.6636 13.288 16.7556 13.484 16.9396 13.596C17.1316 13.7 17.3916 13.752 17.7196 13.752ZM17.5756 8.52C18.1036 8.52 18.5436 8.58 18.8956 8.7C19.2476 8.82 19.5276 8.992 19.7356 9.216C19.9516 9.44 20.1036 9.712 20.1916 10.032C20.2796 10.352 20.3236 10.708 20.3236 11.1V14.82C20.0676 14.876 19.7116 14.94 19.2556 15.012C18.7996 15.092 18.2476 15.132 17.5996 15.132C17.1916 15.132 16.8196 15.096 16.4836 15.024C16.1556 14.952 15.8716 14.836 15.6316 14.676C15.3916 14.508 15.2076 14.292 15.0796 14.028C14.9516 13.764 14.8876 13.44 14.8876 13.056C14.8876 12.688 14.9596 12.376 15.1036 12.12C15.2556 11.864 15.4556 11.66 15.7036 11.508C15.9516 11.356 16.2356 11.248 16.5556 11.184C16.8756 11.112 17.2076 11.076 17.5516 11.076C17.7836 11.076 17.9876 11.088 18.1636 11.112C18.3476 11.128 18.4956 11.152 18.6076 11.184V11.016C18.6076 10.712 18.5156 10.468 18.3316 10.284C18.1476 10.1 17.8276 10.008 17.3716 10.008C17.0676 10.008 16.7676 10.032 16.4716 10.08C16.1756 10.12 15.9196 10.18 15.7036 10.26L15.4756 8.82C15.5796 8.788 15.7076 8.756 15.8596 8.724C16.0196 8.684 16.1916 8.652 16.3756 8.628C16.5596 8.596 16.7516 8.572 16.9516 8.556C17.1596 8.532 17.3676 8.52 17.5756 8.52ZM25.8644 10.272C25.7044 10.232 25.5164 10.192 25.3004 10.152C25.0844 10.104 24.8524 10.08 24.6044 10.08C24.4924 10.08 24.3564 10.092 24.1964 10.116C24.0444 10.132 23.9284 10.152 23.8484 10.176V15H22.0604V9.024C22.3804 8.912 22.7564 8.808 23.1884 8.712C23.6284 8.608 24.1164 8.556 24.6524 8.556C24.7484 8.556 24.8644 8.564 25.0004 8.58C25.1364 8.588 25.2724 8.604 25.4084 8.628C25.5444 8.644 25.6804 8.668 25.8164 8.7C25.9524 8.724 26.0684 8.756 26.1644 8.796L25.8644 10.272ZM27.2429 8.904C27.5469 8.816 27.9389 8.736 28.4189 8.664C28.8989 8.584 29.4029 8.544 29.9309 8.544C30.4669 8.544 30.9109 8.616 31.2629 8.76C31.6229 8.896 31.9069 9.092 32.1149 9.348C32.3229 9.604 32.4709 9.908 32.5589 10.26C32.6469 10.612 32.6909 11.004 32.6909 11.436V15H30.9029V11.652C30.9029 11.076 30.8269 10.668 30.6749 10.428C30.5229 10.188 30.2389 10.068 29.8229 10.068C29.6949 10.068 29.5589 10.076 29.4149 10.092C29.2709 10.1 29.1429 10.112 29.0309 10.128V15H27.2429V8.904ZM40.9001 11.652C40.9001 11.076 40.8241 10.668 40.6721 10.428C40.5281 10.188 40.2761 10.068 39.9161 10.068C39.8041 10.068 39.6881 10.076 39.5681 10.092C39.4481 10.1 39.3321 10.112 39.2201 10.128V15H37.4321V8.904C37.5841 8.864 37.7601 8.824 37.9601 8.784C38.1681 8.736 38.3841 8.696 38.6081 8.664C38.8401 8.624 39.0761 8.596 39.3161 8.58C39.5561 8.556 39.7921 8.544 40.0241 8.544C40.4801 8.544 40.8481 8.604 41.1281 8.724C41.4161 8.836 41.6521 8.972 41.8361 9.132C42.0921 8.948 42.3841 8.804 42.7121 8.7C43.0481 8.596 43.3561 8.544 43.6361 8.544C44.1401 8.544 44.5521 8.616 44.8721 8.76C45.2001 8.896 45.4601 9.092 45.6521 9.348C45.8441 9.604 45.9761 9.908 46.0481 10.26C46.1201 10.612 46.1561 11.004 46.1561 11.436V15H44.3681V11.652C44.3681 11.076 44.2921 10.668 44.1401 10.428C43.9961 10.188 43.7441 10.068 43.3841 10.068C43.2881 10.068 43.1521 10.092 42.9761 10.14C42.8081 10.188 42.6681 10.248 42.5561 10.32C42.6121 10.504 42.6481 10.7 42.6641 10.908C42.6801 11.108 42.6881 11.324 42.6881 11.556V15H40.9001V11.652ZM53.8038 11.832C53.8038 12.328 53.7318 12.784 53.5878 13.2C53.4438 13.608 53.2358 13.96 52.9638 14.256C52.6918 14.544 52.3638 14.768 51.9798 14.928C51.6038 15.088 51.1798 15.168 50.7078 15.168C50.2438 15.168 49.8198 15.088 49.4358 14.928C49.0598 14.768 48.7358 14.544 48.4638 14.256C48.1918 13.96 47.9798 13.608 47.8278 13.2C47.6758 12.784 47.5998 12.328 47.5998 11.832C47.5998 11.336 47.6758 10.884 47.8278 10.476C47.9878 10.068 48.2038 9.72 48.4758 9.432C48.7558 9.144 49.0838 8.92 49.4598 8.76C49.8438 8.6 50.2598 8.52 50.7078 8.52C51.1638 8.52 51.5798 8.6 51.9558 8.76C52.3398 8.92 52.6678 9.144 52.9398 9.432C53.2118 9.72 53.4238 10.068 53.5758 10.476C53.7278 10.884 53.8038 11.336 53.8038 11.832ZM51.9798 11.832C51.9798 11.28 51.8678 10.848 51.6438 10.536C51.4278 10.216 51.1158 10.056 50.7078 10.056C50.2998 10.056 49.9838 10.216 49.7598 10.536C49.5358 10.848 49.4238 11.28 49.4238 11.832C49.4238 12.384 49.5358 12.824 49.7598 13.152C49.9838 13.472 50.2998 13.632 50.7078 13.632C51.1158 13.632 51.4278 13.472 51.6438 13.152C51.8678 12.824 51.9798 12.384 51.9798 11.832ZM59.1128 10.272C58.9528 10.232 58.7648 10.192 58.5488 10.152C58.3328 10.104 58.1008 10.08 57.8528 10.08C57.7408 10.08 57.6048 10.092 57.4448 10.116C57.2928 10.132 57.1768 10.152 57.0968 10.176V15H55.3088V9.024C55.6288 8.912 56.0048 8.808 56.4368 8.712C56.8768 8.608 57.3648 8.556 57.9008 8.556C57.9968 8.556 58.1128 8.564 58.2488 8.58C58.3848 8.588 58.5208 8.604 58.6568 8.628C58.7928 8.644 58.9288 8.668 59.0648 8.7C59.2008 8.724 59.3168 8.756 59.4128 8.796L59.1128 10.272ZM60.0741 11.892C60.0741 11.332 60.1581 10.844 60.3261 10.428C60.5021 10.004 60.7301 9.652 61.0101 9.372C61.2901 9.092 61.6101 8.88 61.9701 8.736C62.3381 8.592 62.7141 8.52 63.0981 8.52C63.9941 8.52 64.7021 8.796 65.2221 9.348C65.7421 9.892 66.0021 10.696 66.0021 11.76C66.0021 11.864 65.9981 11.98 65.9901 12.108C65.9821 12.228 65.9741 12.336 65.9661 12.432H61.9101C61.9501 12.8 62.1221 13.092 62.4261 13.308C62.7301 13.524 63.1381 13.632 63.6501 13.632C63.9781 13.632 64.2981 13.604 64.6101 13.548C64.9301 13.484 65.1901 13.408 65.3901 13.32L65.6301 14.772C65.5341 14.82 65.4061 14.868 65.2461 14.916C65.0861 14.964 64.9061 15.004 64.7061 15.036C64.5141 15.076 64.3061 15.108 64.0821 15.132C63.8581 15.156 63.6341 15.168 63.4101 15.168C62.8421 15.168 62.3461 15.084 61.9221 14.916C61.5061 14.748 61.1581 14.52 60.8781 14.232C60.6061 13.936 60.4021 13.588 60.2661 13.188C60.1381 12.788 60.0741 12.356 60.0741 11.892ZM64.2741 11.208C64.2661 11.056 64.2381 10.908 64.1901 10.764C64.1501 10.62 64.0821 10.492 63.9861 10.38C63.8981 10.268 63.7821 10.176 63.6381 10.104C63.5021 10.032 63.3301 9.996 63.1221 9.996C62.9221 9.996 62.7501 10.032 62.6061 10.104C62.4621 10.168 62.3421 10.256 62.2461 10.368C62.1501 10.48 62.0741 10.612 62.0181 10.764C61.9701 10.908 61.9341 11.056 61.9101 11.208H64.2741Z" fill="#008080"/>
<path d="M89.2459 11.5869L85.1626 7.50359C85.0526 7.39733 84.9052 7.33854 84.7523 7.33987C84.5993 7.34119 84.453 7.40254 84.3449 7.5107C84.2367 7.61885 84.1753 7.76516 84.174 7.91811C84.1727 8.07106 84.2315 8.21841 84.3377 8.32843L87.4253 11.416L75.1668 11.416C75.0121 11.416 74.8637 11.4775 74.7544 11.5869C74.645 11.6963 74.5835 11.8446 74.5835 11.9993C74.5835 12.1541 74.645 12.3024 74.7544 12.4118C74.8637 12.5212 75.0121 12.5827 75.1668 12.5827L87.4253 12.5827L84.3377 15.6703C84.282 15.7241 84.2376 15.7884 84.207 15.8596C84.1764 15.9308 84.1604 16.0073 84.1597 16.0848C84.159 16.1622 84.1738 16.239 84.2031 16.3107C84.2324 16.3824 84.2757 16.4476 84.3305 16.5023C84.3853 16.5571 84.4504 16.6004 84.5221 16.6297C84.5938 16.6591 84.6706 16.6738 84.7481 16.6732C84.8255 16.6725 84.9021 16.6564 84.9732 16.6258C85.0444 16.5952 85.1088 16.5508 85.1626 16.4951L89.2459 12.4118C89.3553 12.3024 89.4167 12.154 89.4167 11.9993C89.4167 11.8447 89.3553 11.6963 89.2459 11.5869Z" fill="#111827"/>
</svg>
