<svg width="53" height="52" viewBox="0 0 53 52" fill="none" xmlns="http://www.w3.org/2000/svg">
<rect width="52.5778" height="52" rx="8" fill="#FFEE90" fill-opacity="0.7"/>
<g clip-path="url(#clip0_2751_11297)">
<path d="M21.3547 12.0645C19.8868 12.0645 18.4835 12.6926 17.5044 13.7883L18.2745 14.4758C19.0574 13.5994 20.1805 13.0967 21.3547 13.0967C21.9994 13.0967 22.6167 13.2407 23.1896 13.5256L23.6494 12.6012C22.932 12.2451 22.1604 12.0645 21.3547 12.0645Z" fill="#B59F28"/>
<path d="M16.3213 16.0777L17.3272 16.3074C17.3995 15.991 17.5089 15.6839 17.6524 15.3939L16.727 14.9355C16.5484 15.2989 16.4111 15.6829 16.3213 16.0777Z" fill="#B59F28"/>
<path d="M40.4516 34.7742C39.7796 34.7742 39.2119 35.2072 38.9982 35.8064H36.3226V32.7097H37.4498C37.6635 33.3089 38.2312 33.7419 38.9032 33.7419C39.7569 33.7419 40.4516 33.0472 40.4516 32.1935C40.4516 31.3399 39.7569 30.6452 38.9032 30.6452C38.2312 30.6452 37.6635 31.0782 37.4498 31.6774H36.3226V28.5806H39.9355C40.1662 28.5806 40.3695 28.4274 40.432 28.2049C40.495 27.9825 40.4026 27.7455 40.2059 27.6248L35.0493 24.4516H37.871C40.1476 24.4516 42 22.5992 42 20.3226C42 18.0459 40.1476 16.1935 37.871 16.1935C37.5881 16.1935 37.3058 16.2235 37.0266 16.2828C36.1874 13.7745 33.8467 12.0645 31.1613 12.0645C29.7894 12.0645 28.4914 12.5192 27.4323 13.3208C26.1079 11.2588 23.8343 10 21.3548 10C18.1275 10 15.3388 12.1037 14.4341 15.1659C11.9701 15.2769 10 17.3161 10 19.8065C10 22.368 12.0836 24.4516 14.6452 24.4516H16.9507L11.7941 27.6248C11.5974 27.7455 11.505 27.9825 11.568 28.2049C11.6305 28.4274 11.8338 28.5806 12.0645 28.5806H15.6774V31.6774H14.5502C14.3365 31.0782 13.7688 30.6452 13.0968 30.6452C12.2431 30.6452 11.5484 31.3399 11.5484 32.1935C11.5484 33.0472 12.2431 33.7419 13.0968 33.7419C13.7688 33.7419 14.3365 33.3089 14.5502 32.7097H15.6774V35.8064H13.0018C12.7881 35.2072 12.2204 34.7742 11.5484 34.7742C10.6947 34.7742 10 35.4689 10 36.3226C10 37.1763 10.6947 37.871 11.5484 37.871C12.2204 37.871 12.7881 37.4379 13.0018 36.8387H15.6774V39.9355H14.5502C14.3365 39.3363 13.7688 38.9032 13.0968 38.9032C12.2431 38.9032 11.5484 39.5979 11.5484 40.4516C11.5484 41.3053 12.2431 42 13.0968 42C13.7688 42 14.3365 41.567 14.5502 40.9677H15.6774V42H20.3226H31.6774H36.3226V40.9677H37.4498C37.6635 41.567 38.2312 42 38.9032 42C39.7569 42 40.4516 41.3053 40.4516 40.4516C40.4516 39.5979 39.7569 38.9032 38.9032 38.9032C38.2312 38.9032 37.6635 39.3363 37.4498 39.9355H36.3226V36.8387H38.9982C39.2119 37.4379 39.7796 37.871 40.4516 37.871C41.3053 37.871 42 37.1763 42 36.3226C42 35.4689 41.3053 34.7742 40.4516 34.7742ZM38.9032 31.6774C39.1881 31.6774 39.4194 31.9086 39.4194 32.1935C39.4194 32.4785 39.1881 32.7097 38.9032 32.7097C38.6183 32.7097 38.3871 32.4785 38.3871 32.1935C38.3871 31.9086 38.6183 31.6774 38.9032 31.6774ZM13.0968 32.7097C12.8119 32.7097 12.5806 32.4785 12.5806 32.1935C12.5806 31.9086 12.8119 31.6774 13.0968 31.6774C13.3817 31.6774 13.6129 31.9086 13.6129 32.1935C13.6129 32.4785 13.3817 32.7097 13.0968 32.7097ZM11.5484 36.8387C11.2635 36.8387 11.0323 36.6075 11.0323 36.3226C11.0323 36.0377 11.2635 35.8064 11.5484 35.8064C11.8333 35.8064 12.0645 36.0377 12.0645 36.3226C12.0645 36.6075 11.8333 36.8387 11.5484 36.8387ZM13.0968 40.9677C12.8119 40.9677 12.5806 40.7365 12.5806 40.4516C12.5806 40.1667 12.8119 39.9355 13.0968 39.9355C13.3817 39.9355 13.6129 40.1667 13.6129 40.4516C13.6129 40.7365 13.3817 40.9677 13.0968 40.9677ZM38.9032 39.9355C39.1881 39.9355 39.4194 40.1667 39.4194 40.4516C39.4194 40.7365 39.1881 40.9677 38.9032 40.9677C38.6183 40.9677 38.3871 40.7365 38.3871 40.4516C38.3871 40.1667 38.6183 39.9355 38.9032 39.9355ZM14.6452 23.4194C12.6534 23.4194 11.0323 21.7982 11.0323 19.8065C11.0323 17.8147 12.6534 16.1935 14.6452 16.1935C14.6725 16.1935 14.6988 16.1956 14.7257 16.1977L15.2341 16.2199L15.3316 15.8044C15.9928 12.9951 18.4692 11.0323 21.3548 11.0323C23.5381 11.0323 25.536 12.1703 26.656 14.0243C26.4062 14.2906 26.1698 14.5729 25.9659 14.8857L26.831 15.4483C27.7889 13.9757 29.408 13.0968 31.1613 13.0968C33.5479 13.0968 35.6083 14.7179 36.1714 17.039L36.3061 17.5938L36.8444 17.4044C37.1809 17.2857 37.5262 17.2258 37.871 17.2258C39.5788 17.2258 40.9677 18.6147 40.9677 20.3226C40.9677 22.0305 39.5788 23.4194 37.871 23.4194H33.3719L27.2263 19.6377C26.4883 19.183 25.5117 19.183 24.7737 19.6377L18.6281 23.4194H14.6452ZM25.3151 20.5166C25.7275 20.2627 26.2725 20.2627 26.6849 20.5166L38.112 27.5484H35.951L26 21.5061L16.049 27.5484H13.888L25.3151 20.5166ZM19.8065 32.1935V30.129C19.8065 29.8441 20.0377 29.6129 20.3226 29.6129H31.6774C31.9623 29.6129 32.1935 29.8441 32.1935 30.129V32.1935C32.1935 32.4785 31.9623 32.7097 31.6774 32.7097H20.3226C20.0377 32.7097 19.8065 32.4785 19.8065 32.1935ZM19.8065 36.3226V34.2581C19.8065 33.9732 20.0377 33.7419 20.3226 33.7419H31.6774C31.9623 33.7419 32.1935 33.9732 32.1935 34.2581V36.3226C32.1935 36.6075 31.9623 36.8387 31.6774 36.8387H20.3226C20.0377 36.8387 19.8065 36.6075 19.8065 36.3226ZM20.3226 40.9677C20.0377 40.9677 19.8065 40.7365 19.8065 40.4516V38.3871C19.8065 38.1022 20.0377 37.871 20.3226 37.871H31.6774C31.9623 37.871 32.1935 38.1022 32.1935 38.3871V40.4516C32.1935 40.7365 31.9623 40.9677 31.6774 40.9677H20.3226ZM35.2903 40.9677H33.1308C33.1886 40.8057 33.2258 40.6333 33.2258 40.4516V38.3871C33.2258 37.9892 33.0705 37.6294 32.8232 37.3548C33.071 37.0803 33.2258 36.7205 33.2258 36.3226V34.2581C33.2258 33.8601 33.0705 33.5004 32.8232 33.2258C33.071 32.9512 33.2258 32.5915 33.2258 32.1935V30.129C33.2258 29.2754 32.5311 28.5806 31.6774 28.5806H20.3226C19.4689 28.5806 18.7742 29.2754 18.7742 30.129V32.1935C18.7742 32.5915 18.9295 32.9512 19.1768 33.2258C18.929 33.5004 18.7742 33.8601 18.7742 34.2581V36.3226C18.7742 36.7205 18.9295 37.0803 19.1768 37.3548C18.929 37.6294 18.7742 37.9892 18.7742 38.3871V40.4516C18.7742 40.6333 18.8114 40.8057 18.8692 40.9677H16.7097V28.3551L26 22.7138L35.2903 28.3551V40.9677ZM40.4516 36.8387C40.1667 36.8387 39.9355 36.6075 39.9355 36.3226C39.9355 36.0377 40.1667 35.8064 40.4516 35.8064C40.7365 35.8064 40.9677 36.0377 40.9677 36.3226C40.9677 36.6075 40.7365 36.8387 40.4516 36.8387Z" fill="#B59F28"/>
<path d="M31.6777 17.2266H32.71V18.2588H31.6777V17.2266Z" fill="#B59F28"/>
<path d="M21.3545 17.2266H22.3868V18.2588H21.3545V17.2266Z" fill="#B59F28"/>
<path d="M29.6128 17.2266H30.6451V18.2588H29.6128V17.2266Z" fill="#B59F28"/>
<path d="M19.29 17.2266H20.3223V18.2588H19.29V17.2266Z" fill="#B59F28"/>
<path d="M23.4194 17.2266H24.4517V18.2588H23.4194V17.2266Z" fill="#B59F28"/>
<path d="M27.5483 17.2266H28.5806V18.2588H27.5483V17.2266Z" fill="#B59F28"/>
<path d="M25.4839 17.2266H26.5161V18.2588H25.4839V17.2266Z" fill="#B59F28"/>
</g>
<defs>
<clipPath id="clip0_2751_11297">
<rect width="32" height="32" fill="white" transform="translate(10 10)"/>
</clipPath>
</defs>
</svg>
