<svg width="53" height="52" viewBox="0 0 53 52" fill="none" xmlns="http://www.w3.org/2000/svg">
<rect width="52.5778" height="52" rx="8" fill="#FFABAB" fill-opacity="0.7"/>
<g clip-path="url(#clip0_2751_10904)">
<path d="M41.1195 10.1687C40.9718 10.0393 40.7764 9.98008 40.5803 10.006L26.8979 11.8374C26.5595 11.8824 26.3076 12.1711 26.3076 12.5122V24.4897C26.3076 24.8655 26.6126 25.1705 26.9885 25.1705H40.6709C41.0467 25.1705 41.3517 24.8655 41.3517 24.4897V10.6807C41.3517 10.4839 41.2673 10.2974 41.1195 10.1687ZM39.99 23.8088H27.6693V13.1079L39.99 11.4589V23.8088Z" fill="#CF4141"/>
<path d="M24.265 26.5684C24.265 26.5684 24.2644 26.5684 24.2637 26.5684L11.3929 26.5949C11.017 26.5956 10.7134 26.9006 10.7134 27.2758V37.4892C10.7134 37.8317 10.968 38.121 11.3078 38.1646L24.1786 39.8027C24.2078 39.8061 24.2364 39.8082 24.265 39.8082C24.4298 39.8082 24.5905 39.7483 24.7151 39.638C24.8615 39.5086 24.9459 39.3227 24.9459 39.1273V27.2492C24.9459 27.0681 24.8744 26.8952 24.7457 26.7672C24.6184 26.6398 24.4448 26.5684 24.265 26.5684ZM23.5842 38.3546L12.0751 36.8894V27.9553L23.5842 27.9314V38.3546Z" fill="#CF4141"/>
<path d="M24.1778 12.1697L11.2417 13.8344C10.9019 13.8786 10.6479 14.168 10.6479 14.5098V24.4897C10.6479 24.8655 10.953 25.1706 11.3288 25.1706H24.265C24.6408 25.1706 24.9458 24.8655 24.9458 24.4897V12.8451C24.9458 12.649 24.8614 12.4632 24.715 12.3338C24.5686 12.2044 24.3712 12.1445 24.1778 12.1697ZM23.5841 23.8089H12.0097V15.1089L23.5841 13.6192V23.8089Z" fill="#CF4141"/>
<path d="M40.6718 26.5952L26.9894 26.5762H26.9888C26.8083 26.5762 26.6354 26.6477 26.5081 26.775C26.3801 26.903 26.3086 27.0759 26.3086 27.257V39.4681C26.3086 39.8085 26.5605 40.0972 26.8982 40.1428L40.5806 41.9934C40.6099 41.9974 40.6405 41.9995 40.6705 41.9995C40.8346 41.9995 40.9939 41.9403 41.1185 41.8313C41.2662 41.702 41.3513 41.5154 41.3513 41.3186V27.2761C41.3513 26.9003 41.047 26.5959 40.6718 26.5952ZM39.9896 40.5391L27.6689 38.873V27.9386L39.9896 27.9556V40.5391Z" fill="#CF4141"/>
</g>
<defs>
<clipPath id="clip0_2751_10904">
<rect width="32" height="32" fill="white" transform="translate(10 10)"/>
</clipPath>
</defs>
</svg>
