<svg width="73" height="72" viewBox="0 0 73 72" fill="none" xmlns="http://www.w3.org/2000/svg">
<rect width="72.8" height="72" rx="20" fill="#E0F8F8"/>
<g clip-path="url(#clip0_1739_563)">
<path d="M38.6667 25.8946C39.4629 25.1687 39.9666 24.1266 39.9666 22.9667C39.9666 20.7799 38.1873 19 36 19C33.8126 19 32.0333 20.7799 32.0333 22.9667C32.0333 24.1266 32.5371 25.1687 33.3332 25.8946C30.9821 26.348 29.2 28.4186 29.2 30.9V33.1667C29.2 33.48 29.4538 33.7333 29.7666 33.7333H42.2333C42.5461 33.7333 42.8 33.48 42.8 33.1667V30.9C42.8 28.4186 41.0178 26.348 38.6667 25.8946ZM33.1666 22.9667C33.1666 21.4044 34.4377 20.1333 36 20.1333C37.5623 20.1333 38.8333 21.4044 38.8333 22.9667C38.8333 24.529 37.5623 25.8 36 25.8C34.4377 25.8 33.1666 24.529 33.1666 22.9667ZM41.6666 32.6H30.3333V30.9C30.3333 28.7132 32.1126 26.9333 34.3 26.9333H37.7C39.8873 26.9333 41.6666 28.7132 41.6666 30.9V32.6Z" fill="#008080"/>
<path d="M28.4667 45.1622C29.2629 44.4363 29.7667 43.3942 29.7667 42.2342C29.7667 40.0475 27.9873 38.2676 25.8 38.2676C23.6127 38.2676 21.8333 40.0475 21.8333 42.2342C21.8333 43.3942 22.3371 44.4363 23.1333 45.1622C20.7822 45.6155 19 47.6861 19 50.1676V52.4342C19 52.7476 19.2539 53.0009 19.5667 53.0009H32.0333C32.3461 53.0009 32.6 52.7476 32.6 52.4342V50.1676C32.6 47.6861 30.8178 45.6155 28.4667 45.1622ZM22.9667 42.2342C22.9667 40.6719 24.2377 39.4009 25.8 39.4009C27.3623 39.4009 28.6333 40.6719 28.6333 42.2342C28.6333 43.7965 27.3623 45.0676 25.8 45.0676C24.2377 45.0676 22.9667 43.7965 22.9667 42.2342ZM31.4667 51.8676H20.1333V50.1676C20.1333 47.9808 21.9127 46.2009 24.1 46.2009H27.5C29.6873 46.2009 31.4667 47.9808 31.4667 50.1676V51.8676Z" fill="#008080"/>
<path d="M48.8666 45.1622C49.6628 44.4363 50.1666 43.3942 50.1666 42.2342C50.1666 40.0475 48.3872 38.2676 46.1999 38.2676C44.0126 38.2676 42.2332 40.0475 42.2332 42.2342C42.2332 43.3942 42.737 44.4363 43.5332 45.1622C41.1821 45.6155 39.3999 47.6861 39.3999 50.1676V52.4342C39.3999 52.7476 39.6538 53.0009 39.9666 53.0009H52.4332C52.746 53.0009 52.9999 52.7476 52.9999 52.4342V50.1676C52.9999 47.6861 51.2177 45.6155 48.8666 45.1622ZM43.3666 42.2342C43.3666 40.6719 44.6376 39.4009 46.1999 39.4009C47.7622 39.4009 49.0332 40.6719 49.0332 42.2342C49.0332 43.7965 47.7622 45.0676 46.1999 45.0676C44.6376 45.0676 43.3666 43.7965 43.3666 42.2342ZM51.8666 51.8676H40.5332V50.1676C40.5332 47.9808 42.3126 46.2009 44.4999 46.2009H47.8999C50.0872 46.2009 51.8666 47.9808 51.8666 50.1676V51.8676Z" fill="#008080"/>
<path d="M22.4108 37.1152L21.2786 37.1594C21.2939 37.5499 21.325 37.9454 21.3715 38.3341L22.4969 38.1993C22.4538 37.8406 22.4249 37.4756 22.4108 37.1152Z" fill="#008080"/>
<path d="M21.3709 34.8086C21.325 35.1951 21.2933 35.59 21.2786 35.9827L22.4108 36.0269C22.4249 35.6643 22.4538 35.2999 22.4963 34.9423L21.3709 34.8086Z" fill="#008080"/>
<path d="M27.0688 24.8477C26.7588 25.084 26.4534 25.3367 26.1604 25.5996L26.918 26.4428C27.1878 26.2003 27.4694 25.9668 27.7556 25.7492L27.0688 24.8477Z" fill="#008080"/>
<path d="M22.6646 30.293C22.498 30.6471 22.3438 31.0121 22.2056 31.3798L23.2664 31.7782C23.3939 31.4393 23.5361 31.1027 23.6897 30.7769L22.6646 30.293Z" fill="#008080"/>
<path d="M21.835 32.5C21.7273 32.8746 21.6338 33.2605 21.5562 33.6447L22.6674 33.8685C22.7388 33.5143 22.8249 33.1585 22.9247 32.8122L21.835 32.5Z" fill="#008080"/>
<path d="M25.3167 26.4219C25.0453 26.7075 24.7846 27.005 24.5398 27.307L25.421 28.0199C25.6465 27.7411 25.8879 27.4657 26.1384 27.2022L25.3167 26.4219Z" fill="#008080"/>
<path d="M29.0486 23.5742C28.7057 23.7573 28.364 23.9584 28.032 24.1721L28.6462 25.1252C28.9522 24.9274 29.2673 24.7421 29.5824 24.5738L29.0486 23.5742Z" fill="#008080"/>
<path d="M23.836 28.25C23.6144 28.5736 23.4036 28.909 23.2092 29.2485L24.1924 29.8117C24.3715 29.4989 24.5664 29.189 24.771 28.8909L23.836 28.25Z" fill="#008080"/>
<path d="M33.3151 49.9023L33.0913 51.0136C33.4727 51.0906 33.8648 51.1524 34.2564 51.1983L34.3878 50.0729C34.028 50.0304 33.6665 49.9732 33.3151 49.9023Z" fill="#008080"/>
<path d="M38.7206 49.8945C38.3687 49.9659 38.0078 50.0243 37.6462 50.0685L37.7828 51.1939C38.1738 51.1463 38.5648 51.0828 38.9456 51.0058L38.7206 49.8945Z" fill="#008080"/>
<path d="M36.5627 50.1562C36.2006 50.1704 35.8345 50.1721 35.4747 50.158L35.4299 51.2901C35.6186 51.2981 35.809 51.3015 36.0017 51.3015C36.2046 51.3003 36.4069 51.2964 36.608 51.2885L36.5627 50.1562Z" fill="#008080"/>
<path d="M45.8418 25.6035L45.0847 26.4467C45.3545 26.6892 45.6163 26.9442 45.8639 27.2049L46.6867 26.4257C46.4181 26.1424 46.1342 25.8659 45.8418 25.6035Z" fill="#008080"/>
<path d="M47.4625 27.3105L46.5813 28.0234C46.8074 28.3028 47.0261 28.5969 47.2313 28.8961L48.1657 28.2552C47.9436 27.9316 47.7073 27.6137 47.4625 27.3105Z" fill="#008080"/>
<path d="M50.7216 35.9844L49.5894 36.0286C49.5967 36.2071 49.6001 36.3873 49.6001 36.5669C49.6001 36.7511 49.5967 36.9341 49.5894 37.1171L50.7216 37.1613C50.7295 36.9641 50.7335 36.7658 50.7335 36.5658C50.7335 36.3714 50.7295 36.177 50.7216 35.9844Z" fill="#008080"/>
<path d="M48.7931 29.252L47.8093 29.8158C47.989 30.1292 48.1578 30.4539 48.312 30.7803L49.3371 30.2963C49.1705 29.9427 48.9874 29.5914 48.7931 29.252Z" fill="#008080"/>
<path d="M49.7954 31.3828L48.7346 31.7817C48.8616 32.1195 48.976 32.4668 49.0758 32.8136L50.1655 32.5014C50.0578 32.1251 49.9331 31.7489 49.7954 31.3828Z" fill="#008080"/>
<path d="M50.4432 33.6465L49.3325 33.8698C49.4039 34.2245 49.4617 34.586 49.5037 34.9442L50.6291 34.8104C50.5832 34.4228 50.5208 34.0313 50.4432 33.6465Z" fill="#008080"/>
<path d="M43.9714 24.1738L43.3577 25.127C43.6603 25.3219 43.9595 25.5321 44.2479 25.7526L44.9358 24.851C44.6236 24.6124 44.2995 24.3852 43.9714 24.1738Z" fill="#008080"/>
<path d="M41.8955 23.0605L41.4417 24.0987C41.772 24.2432 42.1007 24.403 42.4197 24.5741L42.9558 23.5756C42.6107 23.3898 42.2537 23.2164 41.8955 23.0605Z" fill="#008080"/>
</g>
<defs>
<clipPath id="clip0_1739_563">
<rect width="34" height="34" fill="white" transform="translate(19 19)"/>
</clipPath>
</defs>
</svg>
