<svg width="73" height="72" viewBox="0 0 73 72" fill="none" xmlns="http://www.w3.org/2000/svg">
<rect width="72.8" height="72" rx="20" fill="#E0F8F8"/>
<path d="M36.399 20C27.3555 20 19.999 27.3572 19.999 36.4C19.999 45.4428 27.3555 52.8 36.399 52.8C45.4425 52.8 52.799 45.4428 52.799 36.4C52.799 27.3572 45.4425 20 36.399 20ZM36.399 51.4334C28.1096 51.4334 21.3657 44.6894 21.3657 36.4C21.3657 28.1106 28.1096 21.3666 36.399 21.3666C44.6885 21.3666 51.4324 28.1106 51.4324 36.4C51.4324 44.6894 44.6885 51.4334 36.399 51.4334Z" fill="#008080"/>
<path d="M32.985 26.834H28.885C27.7545 26.834 26.835 27.7535 26.835 28.884V32.984C26.835 34.1144 27.7545 35.034 28.885 35.034H32.985C34.1154 35.034 35.035 34.1144 35.035 32.984V28.884C35.035 27.7535 34.1154 26.834 32.985 26.834ZM33.6682 32.984C33.6682 33.361 33.3613 33.6673 32.9849 33.6673H28.8849C28.5085 33.6673 28.2015 33.3611 28.2015 32.984V28.884C28.2015 28.507 28.5085 28.2006 28.8849 28.2006H32.9849C33.3613 28.2006 33.6682 28.5069 33.6682 28.884V32.984Z" fill="#008080"/>
<path d="M43.9186 26.834H39.8186C38.6881 26.834 37.7686 27.7535 37.7686 28.884V32.984C37.7686 34.1144 38.6881 35.034 39.8186 35.034H43.9186C45.049 35.034 45.9686 34.1144 45.9686 32.984V28.884C45.9686 27.7535 45.049 26.834 43.9186 26.834ZM44.6019 32.984C44.6019 33.361 44.2949 33.6673 43.9186 33.6673H39.8186C39.4422 33.6673 39.1352 33.3611 39.1352 32.984V28.884C39.1352 28.507 39.4422 28.2006 39.8186 28.2006H43.9186C44.2949 28.2006 44.6019 28.5069 44.6019 28.884V32.984Z" fill="#008080"/>
<path d="M32.985 37.7676H28.885C27.7545 37.7676 26.835 38.6871 26.835 39.8176V43.9176C26.835 45.048 27.7545 45.9676 28.885 45.9676H32.985C34.1154 45.9676 35.035 45.048 35.035 43.9176V39.8176C35.035 38.6872 34.1154 37.7676 32.985 37.7676ZM33.6682 43.9176C33.6682 44.2946 33.3613 44.6009 32.9849 44.6009H28.8849C28.5085 44.6009 28.2015 44.2947 28.2015 43.9176V39.8176C28.2015 39.4406 28.5085 39.1342 28.8849 39.1342H32.9849C33.3613 39.1342 33.6682 39.4405 33.6682 39.8176V43.9176Z" fill="#008080"/>
<path d="M43.9186 37.7676H39.8186C38.6881 37.7676 37.7686 38.6871 37.7686 39.8176V43.9176C37.7686 45.048 38.6881 45.9676 39.8186 45.9676H43.9186C45.049 45.9676 45.9686 45.048 45.9686 43.9176V39.8176C45.9686 38.6872 45.049 37.7676 43.9186 37.7676ZM44.6019 43.9176C44.6019 44.2946 44.2949 44.6009 43.9186 44.6009H39.8186C39.4422 44.6009 39.1352 44.2947 39.1352 43.9176V39.8176C39.1352 39.4406 39.4422 39.1342 39.8186 39.1342H43.9186C44.2949 39.1342 44.6019 39.4405 44.6019 39.8176V43.9176Z" fill="#008080"/>
</svg>
