<svg width="53" height="52" viewBox="0 0 53 52" fill="none" xmlns="http://www.w3.org/2000/svg">
<rect width="52.5778" height="52" rx="8" fill="#CAFFD2" fill-opacity="0.7"/>
<g clip-path="url(#clip0_2751_13626)">
<path d="M26.0002 34.728C21.2002 34.728 17.2729 30.8007 17.2729 26.0007C17.2729 21.2007 21.2002 17.2734 26.0002 17.2734C30.8002 17.2734 34.7275 21.2007 34.7275 26.0007C34.7275 30.8007 30.8002 34.728 26.0002 34.728ZM26.0002 18.2431C21.7336 18.2431 18.2426 21.734 18.2426 26.0007C18.2426 30.2674 21.7336 33.7583 26.0002 33.7583C30.2669 33.7583 33.7578 30.2674 33.7578 26.0007C33.7578 21.734 30.2669 18.2431 26.0002 18.2431Z" fill="#26BB46"/>
<path d="M26.0002 34.728C23.3821 34.728 21.3457 30.8977 21.3457 26.0007C21.3457 21.1037 23.3821 17.2734 26.0002 17.2734C28.6184 17.2734 30.6548 21.1037 30.6548 26.0007C30.6548 30.8977 28.6184 34.728 26.0002 34.728ZM26.0002 18.2431C24.0124 18.2431 22.3154 21.7825 22.3154 26.0007C22.3154 30.2189 24.0124 33.7583 26.0002 33.7583C27.9881 33.7583 29.6851 30.2189 29.6851 26.0007C29.6851 21.7825 27.9881 18.2431 26.0002 18.2431Z" fill="#26BB46"/>
<path d="M26.0002 30.6548C21.1033 30.6548 17.2729 28.6184 17.2729 26.0002C17.2729 23.3821 21.1033 21.3457 26.0002 21.3457C30.8972 21.3457 34.7275 23.3821 34.7275 26.0002C34.7275 28.6184 30.8972 30.6548 26.0002 30.6548ZM26.0002 22.3154C21.782 22.3154 18.2426 24.0124 18.2426 26.0002C18.2426 27.9881 21.782 29.6851 26.0002 29.6851C30.2184 29.6851 33.7578 27.9881 33.7578 26.0002C33.7578 24.0124 30.2184 22.3154 26.0002 22.3154Z" fill="#26BB46"/>
<path d="M26 34.728C25.7091 34.728 25.5151 34.534 25.5151 34.2431V17.7583C25.5151 17.4674 25.7091 17.2734 26 17.2734C26.2909 17.2734 26.4848 17.4674 26.4848 17.7583V34.2431C26.4848 34.534 26.2909 34.728 26 34.728Z" fill="#26BB46"/>
<path d="M34.2426 26.4853H17.7578C17.4669 26.4853 17.2729 26.2914 17.2729 26.0005C17.2729 25.7096 17.4669 25.5156 17.7578 25.5156H34.2426C34.5336 25.5156 34.7275 25.7096 34.7275 26.0005C34.7275 26.2914 34.5336 26.4853 34.2426 26.4853Z" fill="#26BB46"/>
<path d="M15.5757 20.5705C14.9939 20.5705 14.3636 20.4736 13.7818 20.2311C12.5212 19.7463 11.503 18.8251 10.9697 17.613C10.3879 16.4008 10.3394 14.9948 10.8242 13.7342C11.3091 12.4736 12.2303 11.5039 13.4424 10.9705C14.6545 10.3887 16.0121 10.3402 17.2727 10.7766C18.5333 11.2614 19.5515 12.1827 20.0848 13.3948C20.6667 14.6069 20.7151 15.9645 20.2303 17.2736C19.7454 18.5342 18.8242 19.5524 17.6121 20.1342C16.9818 20.4251 16.2545 20.5705 15.5757 20.5705ZM15.5757 11.4554C14.9939 11.4554 14.4121 11.6008 13.8788 11.8433C12.8606 12.2796 12.0848 13.0554 11.697 14.0736C11.3091 15.0917 11.3576 16.2069 11.8424 17.2251C12.2788 18.1948 13.103 18.9705 14.1212 19.3584C15.1394 19.7463 16.2545 19.6978 17.2242 19.2614C18.1939 18.8251 18.9697 18.0008 19.3576 16.9827C19.7454 15.9645 19.697 14.8493 19.2121 13.8796C18.7273 12.8614 17.9515 12.1342 16.9333 11.7463C16.497 11.5524 16.0121 11.4554 15.5757 11.4554Z" fill="#26BB46"/>
<path d="M15.5758 17.71C14.2667 17.71 13.2485 16.207 13.2485 14.9464C13.2485 13.6858 14.3152 12.6191 15.5758 12.6191C16.8364 12.6191 17.9031 13.6858 17.9031 14.9464C17.9031 16.207 16.8849 17.71 15.5758 17.71ZM15.5758 13.5888C14.8485 13.5888 14.2182 14.2191 14.2182 14.9464C14.2182 15.7222 14.897 16.7404 15.5758 16.7404C16.2546 16.7404 16.9334 15.7222 16.9334 14.9464C16.9334 14.2191 16.3031 13.5888 15.5758 13.5888Z" fill="#26BB46"/>
<path d="M18.1938 19.6496C18.0969 19.6496 18.0484 19.6496 17.9514 19.6011L17.1272 19.1647L16.6908 18.9223C16.2059 18.6799 15.915 18.1465 15.915 17.6617V16.9829C15.915 16.692 16.109 16.498 16.3999 16.498C16.6908 16.498 16.8847 16.692 16.8847 16.9829V17.6617C16.8847 17.8556 16.9817 18.0011 17.1756 18.098L17.5635 18.3405L18.3393 18.7768C18.5817 18.9223 18.6787 19.2132 18.5332 19.4556C18.5332 19.5526 18.3878 19.6496 18.1938 19.6496Z" fill="#26BB46"/>
<path d="M12.8607 19.6004C12.6667 19.6004 12.5213 19.5034 12.4243 19.358C12.2788 19.1155 12.3758 18.8246 12.6182 18.6792L13.8788 18.0004C14.1213 17.8549 14.1698 17.661 14.1698 17.564V16.8852C14.1698 16.5943 14.3637 16.4004 14.6546 16.4004C14.9455 16.4004 15.1395 16.5943 15.1395 16.8852V17.564C15.1395 18.0974 14.8485 18.5822 14.3637 18.8731L13.1031 19.5519C13.0061 19.6004 12.9576 19.6004 12.8607 19.6004Z" fill="#26BB46"/>
<path d="M15.5757 20.5705C14.9939 20.5705 14.3636 20.4736 13.7818 20.2311C12.5212 19.7463 11.503 18.8251 10.9697 17.613C10.3879 16.4008 10.3394 14.9948 10.8242 13.7342C11.3091 12.4736 12.2303 11.5039 13.4424 10.9705C14.6545 10.3887 16.0121 10.3402 17.2727 10.7766C18.5333 11.2614 19.5515 12.1827 20.0848 13.3948C20.6667 14.6069 20.7151 15.9645 20.2303 17.2736C19.7454 18.5342 18.8242 19.5524 17.6121 20.1342C16.9818 20.4251 16.2545 20.5705 15.5757 20.5705ZM15.5757 11.4554C14.9939 11.4554 14.4121 11.6008 13.8788 11.8433C12.8606 12.2796 12.0848 13.0554 11.697 14.0736C11.3091 15.0917 11.3576 16.2069 11.8424 17.2251C12.2788 18.1948 13.103 18.9705 14.1212 19.3584C15.1394 19.7463 16.2545 19.6978 17.2242 19.2614C18.1939 18.8251 18.9697 18.0008 19.3576 16.9827C19.7454 15.9645 19.697 14.8493 19.2121 13.8796C18.7273 12.8614 17.9515 12.1342 16.9333 11.7463C16.497 11.5524 16.0121 11.4554 15.5757 11.4554Z" fill="#26BB46"/>
<path d="M15.5758 17.71C14.2667 17.71 13.2485 16.207 13.2485 14.9464C13.2485 13.6858 14.3152 12.6191 15.5758 12.6191C16.8364 12.6191 17.9031 13.6858 17.9031 14.9464C17.9031 16.207 16.8849 17.71 15.5758 17.71ZM15.5758 13.5888C14.8485 13.5888 14.2182 14.2191 14.2182 14.9464C14.2182 15.7222 14.897 16.7404 15.5758 16.7404C16.2546 16.7404 16.9334 15.7222 16.9334 14.9464C16.9334 14.2191 16.3031 13.5888 15.5758 13.5888Z" fill="#26BB46"/>
<path d="M18.1938 19.6496C18.0969 19.6496 18.0484 19.6496 17.9514 19.6011L17.1272 19.1647L16.6908 18.9223C16.2059 18.6799 15.915 18.1465 15.915 17.6617V16.9829C15.915 16.692 16.109 16.498 16.3999 16.498C16.6908 16.498 16.8847 16.692 16.8847 16.9829V17.6617C16.8847 17.8556 16.9817 18.0011 17.1756 18.098L17.5635 18.3405L18.3393 18.7768C18.5817 18.9223 18.6787 19.2132 18.5332 19.4556C18.5332 19.5526 18.3878 19.6496 18.1938 19.6496Z" fill="#26BB46"/>
<path d="M12.8607 19.6004C12.6667 19.6004 12.5213 19.5034 12.4243 19.358C12.2788 19.1155 12.3758 18.8246 12.6182 18.6792L13.8788 18.0004C14.1213 17.8549 14.1698 17.661 14.1698 17.564V16.8852C14.1698 16.5943 14.3637 16.4004 14.6546 16.4004C14.9455 16.4004 15.1395 16.5943 15.1395 16.8852V17.564C15.1395 18.0974 14.8485 18.5822 14.3637 18.8731L13.1031 19.5519C13.0061 19.6004 12.9576 19.6004 12.8607 19.6004Z" fill="#26BB46"/>
<path d="M36.4727 20.6193C35.8909 20.6193 35.309 20.5223 34.7272 20.2799C33.4666 19.795 32.4484 18.8738 31.8666 17.6617C30.7515 15.092 31.8666 12.0859 34.3878 10.9708C35.6484 10.389 37.0545 10.389 38.3151 10.8738C39.5272 11.3587 40.4969 12.2799 41.0303 13.4435C41.6121 14.6556 41.6606 16.0132 41.1757 17.2738C40.6909 18.5344 39.7696 19.5526 38.5575 20.1344C37.8787 20.4738 37.1999 20.6193 36.4727 20.6193ZM36.5212 11.5041C35.9393 11.5041 35.3575 11.6496 34.7757 11.892C32.7393 12.7647 31.8181 15.189 32.7393 17.2738C33.709 19.3102 36.1333 20.2314 38.1696 19.2617C40.206 18.292 41.1272 15.8678 40.1575 13.8314C39.7212 12.8617 38.9454 12.1344 37.9757 11.7466C37.4909 11.5526 37.006 11.5041 36.5212 11.5041Z" fill="#26BB46"/>
<path d="M36.5211 17.71C35.212 17.71 34.1938 16.207 34.1938 14.9464C34.1938 13.6858 35.2605 12.6191 36.5211 12.6191C37.7817 12.6191 38.8484 13.6858 38.8484 14.9464C38.8484 16.207 37.8302 17.71 36.5211 17.71ZM36.5211 13.5888C35.7938 13.5888 35.1635 14.2191 35.1635 14.9464C35.1635 15.7222 35.8423 16.7404 36.5211 16.7404C37.1999 16.7404 37.8787 15.7222 37.8787 14.9464C37.8787 14.2191 37.2484 13.5888 36.5211 13.5888Z" fill="#26BB46"/>
<path d="M39.1391 19.6496C39.0422 19.6496 38.9937 19.6496 38.8967 19.6011L38.0725 19.1647L37.6361 18.9223C37.1513 18.6799 36.8604 18.1465 36.8604 17.6617V16.9829C36.8604 16.692 37.0543 16.498 37.3452 16.498C37.6361 16.498 37.83 16.692 37.83 16.9829V17.6617C37.83 17.8556 37.927 18.0011 38.121 18.098L38.5088 18.3405L39.2846 18.7768C39.527 18.9223 39.624 19.2132 39.4785 19.4556C39.4785 19.5526 39.3331 19.6496 39.1391 19.6496Z" fill="#26BB46"/>
<path d="M33.806 19.6004C33.612 19.6004 33.4666 19.5034 33.3696 19.358C33.2242 19.1155 33.3211 18.8246 33.5635 18.6792L34.8242 18.0004C35.0666 17.8549 35.1151 17.661 35.1151 17.564V16.8852C35.1151 16.5943 35.309 16.4004 35.5999 16.4004C35.8908 16.4004 36.0848 16.5943 36.0848 16.8852V17.564C36.0848 18.0974 35.7939 18.5822 35.309 18.8731L34.0484 19.5519C33.9514 19.6004 33.9029 19.6004 33.806 19.6004Z" fill="#26BB46"/>
<path d="M15.5274 41.5161C14.8971 41.5161 14.3153 41.4191 13.685 41.1767C12.4243 40.6918 11.4547 39.7706 10.9213 38.5585C9.75768 36.0373 10.8728 33.0312 13.394 31.8676C15.9153 30.7524 18.8728 31.8676 20.0365 34.3888C20.6183 35.6009 20.6668 36.9585 20.1819 38.2676C19.6971 39.5282 18.7759 40.5464 17.5637 41.1282C16.9334 41.3706 16.2547 41.5161 15.5274 41.5161ZM15.4789 32.4009C14.9456 32.4009 14.3637 32.4979 13.8304 32.7403C11.794 33.71 10.8728 36.1343 11.8425 38.1706C12.2789 39.1403 13.0547 39.9161 14.0728 40.304C15.091 40.6918 16.2062 40.6918 17.2243 40.207C18.194 39.7706 18.9698 38.9464 19.3577 37.9282C19.7456 36.91 19.6971 35.7949 19.2122 34.8252C18.485 33.2737 17.0304 32.4009 15.4789 32.4009Z" fill="#26BB46"/>
<path d="M15.5758 38.7044C14.2667 38.7044 13.2485 37.2014 13.2485 35.9408C13.2485 34.6802 14.3152 33.6135 15.5758 33.6135C16.1576 33.5651 16.7394 33.8075 17.1758 34.2438C17.6607 34.6802 17.9031 35.3105 17.9031 35.9408C17.9031 37.2014 16.8849 38.7044 15.5758 38.7044ZM15.6728 34.5832H15.6243C14.8485 34.5832 14.2667 35.2135 14.2667 35.9408C14.2667 36.7166 14.9455 37.7348 15.6243 37.7348C16.3031 37.7348 16.9819 36.7166 16.9819 35.9408C16.9819 35.5529 16.8364 35.2135 16.5455 34.9226C16.2546 34.6802 15.9637 34.5832 15.6728 34.5832Z" fill="#26BB46"/>
<path d="M18.1938 40.6434C18.0969 40.6434 18.0484 40.6434 17.9514 40.5949L17.1272 40.1585L16.6908 39.9161C16.2059 39.6737 15.915 39.1403 15.915 38.6555V37.9282C15.915 37.6373 16.109 37.4434 16.3999 37.4434C16.6908 37.4434 16.8847 37.6373 16.8847 37.9282V38.607C16.8847 38.8009 16.9817 38.9464 17.1756 39.0434L17.5635 39.2858L18.3393 39.7221C18.5817 39.8676 18.6787 40.1585 18.5332 40.4009C18.5332 40.5464 18.3878 40.6434 18.1938 40.6434Z" fill="#26BB46"/>
<path d="M12.8607 40.5477C12.6667 40.5477 12.5213 40.4507 12.4243 40.3052C12.2788 40.0628 12.3758 39.7719 12.6182 39.6264L13.8788 38.9477C14.1213 38.8022 14.1698 38.6083 14.1698 38.5113V37.8325C14.1698 37.5416 14.3637 37.3477 14.6546 37.3477C14.9455 37.3477 15.1395 37.5416 15.1395 37.8325V38.5113C15.1395 39.0446 14.8485 39.5295 14.3637 39.8204L13.1031 40.4992C13.0061 40.5477 12.9576 40.5477 12.8607 40.5477Z" fill="#26BB46"/>
<path d="M15.5274 41.5161C14.8971 41.5161 14.3153 41.4191 13.685 41.1767C12.4243 40.6918 11.4547 39.7706 10.9213 38.5585C9.75768 36.0373 10.8728 33.0312 13.394 31.8676C15.9153 30.7524 18.8728 31.8676 20.0365 34.3888C20.6183 35.6009 20.6668 36.9585 20.1819 38.2676C19.6971 39.5282 18.7759 40.5464 17.5637 41.1282C16.9334 41.3706 16.2547 41.5161 15.5274 41.5161ZM15.4789 32.4009C14.9456 32.4009 14.3637 32.4979 13.8304 32.7403C11.794 33.71 10.8728 36.1343 11.8425 38.1706C12.2789 39.1403 13.0547 39.9161 14.0728 40.304C15.091 40.6918 16.2062 40.6918 17.2243 40.207C18.194 39.7706 18.9698 38.9464 19.3577 37.9282C19.7456 36.91 19.6971 35.7949 19.2122 34.8252C18.485 33.2737 17.0304 32.4009 15.4789 32.4009Z" fill="#26BB46"/>
<path d="M15.5758 38.7044C14.2667 38.7044 13.2485 37.2014 13.2485 35.9408C13.2485 34.6802 14.3152 33.6135 15.5758 33.6135C16.1576 33.5651 16.7394 33.8075 17.1758 34.2438C17.6607 34.6802 17.9031 35.3105 17.9031 35.9408C17.9031 37.2014 16.8849 38.7044 15.5758 38.7044ZM15.6728 34.5832H15.6243C14.8485 34.5832 14.2667 35.2135 14.2667 35.9408C14.2667 36.7166 14.9455 37.7348 15.6243 37.7348C16.3031 37.7348 16.9819 36.7166 16.9819 35.9408C16.9819 35.5529 16.8364 35.2135 16.5455 34.9226C16.2546 34.6802 15.9637 34.5832 15.6728 34.5832Z" fill="#26BB46"/>
<path d="M18.1938 40.6434C18.0969 40.6434 18.0484 40.6434 17.9514 40.5949L17.1272 40.1585L16.6908 39.9161C16.2059 39.6737 15.915 39.1403 15.915 38.6555V37.9282C15.915 37.6373 16.109 37.4434 16.3999 37.4434C16.6908 37.4434 16.8847 37.6373 16.8847 37.9282V38.607C16.8847 38.8009 16.9817 38.9464 17.1756 39.0434L17.5635 39.2858L18.3393 39.7221C18.5817 39.8676 18.6787 40.1585 18.5332 40.4009C18.5332 40.5464 18.3878 40.6434 18.1938 40.6434Z" fill="#26BB46"/>
<path d="M12.8607 40.5477C12.6667 40.5477 12.5213 40.4507 12.4243 40.3052C12.2788 40.0628 12.3758 39.7719 12.6182 39.6264L13.8788 38.9477C14.1213 38.8022 14.1698 38.6083 14.1698 38.5113V37.8325C14.1698 37.5416 14.3637 37.3477 14.6546 37.3477C14.9455 37.3477 15.1395 37.5416 15.1395 37.8325V38.5113C15.1395 39.0446 14.8485 39.5295 14.3637 39.8204L13.1031 40.4992C13.0061 40.5477 12.9576 40.5477 12.8607 40.5477Z" fill="#26BB46"/>
<path d="M36.4727 41.564C35.8909 41.564 35.3091 41.467 34.7272 41.2246C33.4666 40.7397 32.4484 39.8185 31.8666 38.6064C30.703 36.0852 31.8181 33.0791 34.3394 31.9155C35.6 31.3337 37.006 31.2852 38.2666 31.77C39.5272 32.2549 40.4969 33.1761 41.0303 34.3882C42.1939 36.9094 41.0788 39.9155 38.5575 41.0791C37.8788 41.4185 37.2 41.564 36.4727 41.564ZM36.4727 32.4003C35.8909 32.4003 35.3091 32.5458 34.7272 32.7882C32.6909 33.7579 31.7697 36.1822 32.7394 38.2185C33.2242 39.1882 34 39.964 35.0666 40.3518C36.0848 40.7397 37.2 40.6912 38.1697 40.2064C40.206 39.2367 41.1272 36.8125 40.1575 34.7761C39.7212 33.8064 38.9454 33.0306 37.9272 32.6912C37.4424 32.4973 36.9575 32.4003 36.4727 32.4003Z" fill="#26BB46"/>
<path d="M36.5211 38.7025C35.212 38.7025 34.1938 37.1995 34.1938 35.9389C34.1938 34.6783 35.2605 33.6116 36.5211 33.6116C37.1029 33.5631 37.6848 33.8055 38.1211 34.2419C38.606 34.6783 38.8484 35.3086 38.8484 35.9389C38.8484 37.1995 37.8302 38.7025 36.5211 38.7025ZM36.6181 34.5813H36.5696C35.7938 34.5813 35.212 35.2116 35.212 35.9389C35.212 36.7146 35.8908 37.7328 36.5696 37.7328C37.2484 37.7328 37.9272 36.7146 37.9272 35.9389C37.9272 35.551 37.7817 35.2116 37.4908 34.9207C37.1999 34.6783 36.909 34.5813 36.6181 34.5813Z" fill="#26BB46"/>
<path d="M39.1391 40.6414C39.0422 40.6414 38.9937 40.6414 38.8967 40.5929L38.0725 40.1566L37.6361 39.9141C37.1513 39.6717 36.8604 39.1384 36.8604 38.6535V37.9263C36.8604 37.6353 37.0543 37.4414 37.3452 37.4414C37.6361 37.4414 37.83 37.6353 37.83 37.9263V38.605C37.83 38.799 37.927 38.9444 38.121 39.0414L38.5088 39.2838L39.2846 39.7202C39.527 39.8656 39.624 40.1566 39.4785 40.399C39.4785 40.5444 39.3331 40.6414 39.1391 40.6414Z" fill="#26BB46"/>
<path d="M33.806 40.5457C33.612 40.5457 33.4666 40.4487 33.3696 40.3033C33.2242 40.0609 33.3211 39.7699 33.5635 39.6245L34.8242 38.9457C35.0666 38.8002 35.1151 38.6063 35.1151 38.5093V37.8306C35.1151 37.5396 35.309 37.3457 35.5999 37.3457C35.8908 37.3457 36.0848 37.5396 36.0848 37.8306V38.5093C36.0848 39.0427 35.7939 39.5275 35.309 39.8184L34.0484 40.4972C33.9514 40.5457 33.9029 40.5457 33.806 40.5457Z" fill="#26BB46"/>
<path d="M26.0002 39.4789C23.7699 39.4789 21.6851 38.9456 19.7457 37.9274C19.5033 37.7819 19.4063 37.491 19.5517 37.2486C19.6972 37.0062 19.9881 36.9092 20.2305 37.0547C22.0245 38.0244 23.9639 38.5092 26.0002 38.5092C26.776 38.5092 27.6002 38.4122 28.473 38.2668C28.7154 38.2183 29.0063 38.4122 29.0548 38.6547C29.1033 38.8971 28.9093 39.188 28.6669 39.2365C27.6972 39.3819 26.8245 39.4789 26.0002 39.4789Z" fill="#26BB46"/>
<path d="M31.0424 38.4614C30.8485 38.4614 30.6545 38.316 30.6061 38.122C30.5091 37.8796 30.6545 37.5887 30.897 37.4917C31.1394 37.3948 31.4303 37.2493 31.7212 37.1523L32.1576 38.0251C31.8667 38.1705 31.5273 38.316 31.2364 38.4129C31.1394 38.4614 31.0909 38.4614 31.0424 38.4614Z" fill="#26BB46"/>
<path d="M28.6181 39.2366C28.4242 39.2366 28.2302 39.0912 28.1817 38.8972C28.0848 38.6548 28.2302 38.3639 28.4726 38.2669C28.6181 38.2185 28.812 38.17 28.9575 38.1215C29.103 38.073 29.2484 38.073 29.3939 38.0245C29.6363 37.9275 29.9272 38.073 30.0242 38.3154C30.1211 38.5578 29.9757 38.8488 29.7333 38.9457C29.5878 38.9942 29.3939 39.0427 29.2484 39.0912C29.103 39.1397 28.9575 39.1397 28.812 39.1882C28.7151 39.2366 28.6666 39.2366 28.6181 39.2366Z" fill="#26BB46"/>
<path d="M37.491 32.4975C37.3941 32.4975 37.3456 32.4975 37.2486 32.449C37.0062 32.3036 36.9092 32.0127 37.0547 31.7703C37.9759 30.0733 38.4607 28.1339 38.5092 26.146C38.5577 25.4187 38.5092 24.643 38.3153 23.6733C38.2668 23.4309 38.4607 23.1399 38.7032 23.0915C38.9456 23.043 39.2365 23.2369 39.285 23.4793C39.4789 24.4975 39.5274 25.3703 39.4789 26.146C39.4304 28.2309 38.8971 30.3157 37.9274 32.1581C37.8304 32.4006 37.685 32.4975 37.491 32.4975Z" fill="#26BB46"/>
<path d="M38.0726 21.6367C37.8786 21.6367 37.6847 21.4912 37.6362 21.2973C37.5393 21.0549 37.3938 20.7639 37.2968 20.473C37.1999 20.2306 37.2968 19.9397 37.4908 19.8427C37.7332 19.7458 38.0241 19.8427 38.1211 20.0367C38.2665 20.3276 38.412 20.667 38.5574 20.9579C38.6544 21.2003 38.509 21.4912 38.2665 21.5882C38.1696 21.6367 38.1211 21.6367 38.0726 21.6367Z" fill="#26BB46"/>
<path d="M38.8 24.1576C38.5576 24.1576 38.3636 23.9637 38.3151 23.7697C38.2666 23.4303 38.2182 23.1394 38.1212 22.897C38.0242 22.6546 38.1697 22.3637 38.4121 22.2667C38.6545 22.1697 38.9454 22.3152 39.0424 22.5576C39.1394 22.897 39.1879 23.2364 39.2363 23.6243C39.2848 23.8667 39.0909 24.1576 38.8485 24.1576H38.8Z" fill="#26BB46"/>
<path d="M32.0121 14.9942C31.9152 14.9942 31.8667 14.9942 31.7697 14.9457C29.9758 13.976 28.0364 13.4912 26 13.4912C25.2243 13.4912 24.4 13.5882 23.5273 13.7336C23.2849 13.7821 22.994 13.5882 22.9455 13.3457C22.897 13.1033 23.0909 12.8124 23.3333 12.7639C24.2546 12.6185 25.1758 12.5215 26 12.5215C28.2303 12.5215 30.3152 13.0548 32.2546 14.073C32.497 14.2185 32.594 14.5094 32.4485 14.7518C32.3515 14.8972 32.2061 14.9942 32.0121 14.9942Z" fill="#26BB46"/>
<path d="M20.0848 14.8977C19.8908 14.8977 19.7454 14.8007 19.6484 14.6068C19.5514 14.3644 19.6484 14.0735 19.8423 13.9765C20.1332 13.831 20.4726 13.6856 20.7635 13.5401C21.006 13.4432 21.2969 13.5886 21.3938 13.831C21.4908 14.0735 21.3454 14.3644 21.1029 14.4614C20.8605 14.5583 20.5696 14.7038 20.2787 14.8007C20.2302 14.8977 20.1817 14.8977 20.0848 14.8977Z" fill="#26BB46"/>
<path d="M22.5092 13.9772C22.3153 13.9772 22.1213 13.8318 22.0729 13.6378C21.9759 13.3954 22.1213 13.1045 22.3638 13.056C22.5092 13.0075 22.7032 12.959 22.8486 12.9105C22.9941 12.8621 23.1395 12.8621 23.285 12.8136C23.5274 12.7166 23.8183 12.8621 23.9153 13.1045C24.0122 13.3469 23.8668 13.6378 23.6244 13.7348C23.4789 13.7833 23.285 13.8318 23.1395 13.8802C22.9941 13.9287 22.8486 13.9287 22.7032 13.9772C22.6062 13.9772 22.5577 13.9772 22.5092 13.9772Z" fill="#26BB46"/>
<path d="M13.2488 29.1046C13.0063 29.1046 12.8124 28.9591 12.7639 28.7167C12.57 27.9894 12.5215 27.1167 12.5215 26.05C12.5215 23.8682 13.0063 21.7834 14.0245 19.7955C14.17 19.5531 14.4609 19.4561 14.6548 19.6015C14.8972 19.747 14.9942 20.0379 14.8488 20.2318C13.9275 22.0258 13.4427 24.0137 13.4427 26.0015C13.4427 27.0197 13.4912 27.7955 13.6851 28.4743C13.7336 28.7167 13.5882 29.0076 13.3457 29.0561C13.3457 29.1046 13.2972 29.1046 13.2488 29.1046Z" fill="#26BB46"/>
<path d="M14.4119 32.449C14.218 32.449 14.0725 32.352 13.9755 32.1581C13.8301 31.8672 13.6846 31.5278 13.5392 31.2368C13.4422 30.9944 13.5876 30.7035 13.8301 30.6065C14.0725 30.5096 14.3634 30.655 14.4604 30.8975C14.5573 31.1399 14.7028 31.4308 14.7998 31.7217C14.8967 31.9641 14.7998 32.255 14.6058 32.352C14.5573 32.449 14.5089 32.449 14.4119 32.449Z" fill="#26BB46"/>
<path d="M13.4909 30.0253C13.297 30.0253 13.103 29.8799 13.0545 29.6859C12.9576 29.4435 12.8606 29.0556 12.8121 28.6678C12.7152 28.4253 12.9091 28.1829 13.1515 28.1344C13.3939 28.0859 13.6848 28.2799 13.7333 28.5223C13.7818 28.7647 13.8303 29.0556 13.9758 29.3466C14.0727 29.589 13.9273 29.8799 13.6848 29.9769C13.5879 30.0253 13.5394 30.0253 13.4909 30.0253Z" fill="#26BB46"/>
</g>
<defs>
<clipPath id="clip0_2751_13626">
<rect width="32" height="32" fill="white" transform="translate(10 10)"/>
</clipPath>
</defs>
</svg>
