<svg width="53" height="52" viewBox="0 0 53 52" fill="none" xmlns="http://www.w3.org/2000/svg">
<rect width="52.5778" height="52" rx="8" fill="#C5E5FF" fill-opacity="0.7"/>
<g clip-path="url(#clip0_2751_11451)">
<path d="M16.1885 23.0818C16.0335 22.8534 16.093 22.5424 16.3215 22.3874C16.55 22.2323 16.8609 22.2919 17.016 22.5204L17.5977 23.3779V16.9169C17.5977 16.6408 17.8216 16.4169 18.0977 16.4169H23.9265C24.2026 16.4169 24.4265 16.6408 24.4265 16.9169C24.4265 17.1931 24.2026 17.4169 23.9265 17.4169H18.5977V23.3778L19.1795 22.5203C19.3345 22.2919 19.6455 22.2324 19.874 22.3873C20.1025 22.5424 20.162 22.8533 20.007 23.0818L18.5114 25.2859C18.4183 25.423 18.2633 25.5052 18.0976 25.5052C17.9319 25.5052 17.777 25.4231 17.6839 25.2859L16.1885 23.0818ZM34.1937 26.4683C34.1006 26.3313 33.9457 26.2491 33.78 26.2491C33.6142 26.2491 33.4593 26.3312 33.3662 26.4683L31.8706 28.6724C31.7156 28.9009 31.7751 29.2119 32.0036 29.3669C32.2322 29.522 32.5431 29.4624 32.6981 29.2339L33.2799 28.3765V32.7299H27.9511C27.675 32.7299 27.4511 32.9538 27.4511 33.2299C27.4511 33.5061 27.675 33.7299 27.9511 33.7299H33.7799C34.056 33.7299 34.2799 33.5061 34.2799 33.2299V28.3764L34.8617 29.2339C34.9584 29.3764 35.1157 29.4533 35.2759 29.4533C35.3725 29.4533 35.4702 29.4253 35.5561 29.3669C35.7846 29.2119 35.8442 28.9009 35.6891 28.6724L34.1937 26.4683ZM41.4618 12.2119V20.5494C41.4618 21.4934 40.6938 22.2614 39.7498 22.2614H36.0567V23.1869H37.4015C38.247 23.1869 38.935 23.7817 38.935 24.5127V25.3385C38.935 25.6146 38.7111 25.8385 38.435 25.8385H27.7238C27.4476 25.8385 27.2238 25.6146 27.2238 25.3385V24.5127C27.2238 23.7817 27.9117 23.1869 28.7573 23.1869H30.1021V22.2614H26.409C25.465 22.2614 24.697 21.4934 24.697 20.5494V12.2119C24.697 11.2679 25.465 10.5 26.4089 10.5H39.7498C40.6938 10.5 41.4618 11.2679 41.4618 12.2119ZM25.697 12.2119V19.0346H40.4618V12.2119C40.4618 11.8194 40.1424 11.5 39.7498 11.5H26.4089C26.0163 11.5 25.697 11.8193 25.697 12.2119ZM37.4014 24.1869H28.7573C28.4568 24.1869 28.2238 24.362 28.2238 24.5127V24.8384H37.935V24.5127C37.935 24.362 37.7019 24.1869 37.4014 24.1869ZM35.0567 22.2614H31.1021V23.1869H35.0567V22.2614ZM40.4618 20.5494V20.0346H25.697V20.5494C25.697 20.942 26.0163 21.2614 26.4089 21.2614H39.7498C40.1424 21.2614 40.4618 20.942 40.4618 20.5494ZM27.3028 27.8735V36.211C27.3028 37.155 26.5348 37.923 25.5909 37.923H21.8978V38.8485H23.2425C24.0881 38.8485 24.7761 39.4432 24.7761 40.1742V41C24.7761 41.2761 24.5522 41.5 24.2761 41.5H13.5648C13.2887 41.5 13.0648 41.2761 13.0648 41V40.1742C13.0648 39.4432 13.7528 38.8484 14.5984 38.8484H15.9431V37.9229H12.25C11.3061 37.9229 10.5381 37.1549 10.5381 36.2109V27.8734C10.5381 26.9294 11.3061 26.1615 12.25 26.1615H25.591C26.5348 26.1616 27.3028 26.9295 27.3028 27.8735ZM11.538 27.8735V34.6962H26.3028V27.8735C26.3028 27.4809 25.9834 27.1616 25.5908 27.1616H12.25C11.8574 27.1616 11.538 27.4809 11.538 27.8735ZM23.2425 39.8484H14.5984C14.2979 39.8484 14.0648 40.0236 14.0648 40.1742V40.5H23.776V40.1742C23.776 40.0236 23.543 39.8484 23.2425 39.8484ZM20.8978 37.923H16.9431V38.8485H20.8978V37.923ZM26.3028 36.211V35.6962H11.538V36.211C11.538 36.6036 11.8574 36.923 12.25 36.923H25.5909C25.9835 36.923 26.3028 36.6036 26.3028 36.211Z" fill="#1769AA"/>
</g>
<defs>
<clipPath id="clip0_2751_11451">
<rect width="32" height="32" fill="white" transform="translate(10 10)"/>
</clipPath>
</defs>
</svg>
