<svg width="34" height="34" viewBox="0 0 34 34" fill="none" xmlns="http://www.w3.org/2000/svg">
<path d="M32.2889 16.5318L27.3665 7.56806C27.2983 7.44484 27.1842 7.35359 27.049 7.31423C26.9138 7.27486 26.7685 7.29058 26.6448 7.35794L24.4327 8.57243C24.3093 8.64039 24.2178 8.75453 24.1784 8.88981C24.1391 9.02509 24.1549 9.17047 24.2226 9.29407L24.4284 9.66881C24.0378 9.83101 23.6165 9.90585 23.194 9.88808C22.7715 9.87031 22.3579 9.76035 21.9824 9.56592C20.3497 8.89823 17.7407 8.86036 14.0064 9.44971C13.5418 9.52481 13.1258 9.78048 12.8489 10.161L12.3903 10.7949C10.6631 10.3344 10.3278 10.4 9.44877 9.89202L9.77714 9.29407C9.84478 9.17047 9.86065 9.02509 9.82126 8.88981C9.78187 8.75453 9.69044 8.64039 9.56702 8.57243L7.35487 7.35791C7.2312 7.29059 7.08593 7.2749 6.95074 7.31426C6.81555 7.35363 6.70141 7.44485 6.63321 7.56803L1.71085 16.5318C1.64321 16.6554 1.62734 16.8008 1.66673 16.9361C1.70611 17.0714 1.79754 17.1855 1.92096 17.2535L4.13312 18.468C4.25671 18.5357 4.40211 18.5516 4.53741 18.5122C4.6727 18.4728 4.78684 18.3813 4.85477 18.2579L4.90224 18.1714C5.20856 18.55 5.52351 18.9176 5.8471 19.274C5.68417 19.5354 5.60094 19.8386 5.6076 20.1465C5.61425 20.4544 5.71051 20.7537 5.88459 21.0077C6.05867 21.2618 6.30302 21.4596 6.58776 21.577C6.8725 21.6944 7.18527 21.7262 7.48782 21.6686C7.40752 21.973 7.41976 22.2944 7.52299 22.5918C7.62622 22.8891 7.81575 23.149 8.06737 23.3381C8.31899 23.5273 8.62128 23.6371 8.93563 23.6536C9.24998 23.6701 9.56212 23.5926 9.83217 23.4309C9.84705 23.715 9.93819 23.9899 10.096 24.2266C10.2539 24.4634 10.4726 24.6532 10.7291 24.7762C10.9857 24.8992 11.2707 24.9508 11.5541 24.9256C11.8375 24.9004 12.1089 24.7993 12.3397 24.6329C12.3321 24.942 12.4151 25.2466 12.5786 25.509C12.742 25.7714 12.9787 25.9803 13.2594 26.1098C13.5401 26.2393 13.8527 26.2838 14.1584 26.2378C14.4641 26.1918 14.7497 26.0573 14.9799 25.8509C17.0567 26.7413 19.704 27.3851 20.7968 25.4053C21.3186 25.448 21.8375 25.2952 22.253 24.9767C22.6684 24.6582 22.9506 24.1967 23.0448 23.6818C23.3167 23.6492 23.5793 23.5621 23.8168 23.4258C24.0543 23.2894 24.2619 23.1067 24.4272 22.8884C24.5925 22.6701 24.7122 22.4207 24.779 22.1551C24.8459 21.8896 24.8586 21.6133 24.8163 21.3427C25.2665 21.234 25.6633 20.9687 25.9358 20.5942C26.2084 20.2198 26.3389 19.7606 26.3039 19.2988C27.1748 18.8027 28.0086 18.2442 28.799 17.6279L29.1449 18.2579C29.2128 18.3813 29.327 18.4728 29.4623 18.5122C29.5976 18.5516 29.743 18.5357 29.8666 18.468L32.0787 17.2535C32.2021 17.1855 32.2936 17.0714 32.333 16.9361C32.3724 16.8008 32.3565 16.6554 32.2889 16.5318ZM4.17878 17.281L2.89838 16.5775L7.30921 8.54493L8.58963 9.24842L4.18883 17.2627L4.17878 17.281ZM6.7873 19.7702L7.676 18.6854C7.76595 18.5784 7.89441 18.5112 8.03356 18.4982C8.17271 18.4853 8.31136 18.5277 8.41948 18.6163C8.52761 18.7048 8.5965 18.8324 8.61125 18.9713C8.626 19.1103 8.58542 19.2495 8.4983 19.3588L7.60908 20.4436C7.19271 20.9515 6.35573 20.2991 6.7873 19.7702ZM8.61554 21.7302L10.6357 19.2643C10.7256 19.157 10.8541 19.0895 10.9934 19.0764C11.1327 19.0633 11.2716 19.1057 11.3798 19.1944C11.4881 19.2831 11.557 19.4109 11.5715 19.5501C11.586 19.6893 11.5451 19.8286 11.4575 19.9377L9.43732 22.4036C9.34752 22.511 9.21898 22.5786 9.07962 22.5917C8.94027 22.6048 8.80136 22.5624 8.6931 22.4737C8.58483 22.385 8.51595 22.2571 8.50143 22.1179C8.48691 21.9787 8.52792 21.8393 8.61554 21.7302ZM11.0067 23.0028L12.3535 21.3592C12.4433 21.2519 12.5718 21.1844 12.7112 21.1713C12.8505 21.1582 12.9894 21.2006 13.0976 21.2893C13.2058 21.378 13.2747 21.5058 13.2892 21.645C13.3038 21.7842 13.2628 21.9235 13.1753 22.0326L11.8285 23.6762C11.7386 23.7834 11.6101 23.8509 11.4708 23.8639C11.3316 23.877 11.1928 23.8346 11.0846 23.7459C10.9763 23.6573 10.9075 23.5295 10.8929 23.3904C10.8783 23.2512 10.9192 23.112 11.0067 23.0028ZM13.5151 24.3247L14.0733 23.643C14.163 23.5351 14.2917 23.467 14.4313 23.4536C14.571 23.4402 14.7102 23.4826 14.8188 23.5715C14.9273 23.6604 14.9963 23.7886 15.0107 23.9281C15.0251 24.0677 14.9837 24.2072 14.8956 24.3164L14.3369 24.9981C14.2471 25.1055 14.1185 25.1732 13.9791 25.1863C13.8397 25.1995 13.7008 25.1571 13.5925 25.0684C13.4842 24.9796 13.4153 24.8517 13.4008 24.7125C13.3863 24.5732 13.4274 24.4339 13.5151 24.3247ZM23.4532 20.0794L19.4486 17.7339C19.327 17.664 19.1827 17.6449 19.0472 17.6809C18.9116 17.7169 18.7958 17.805 18.7249 17.926C18.654 18.0469 18.6338 18.1911 18.6687 18.3269C18.7035 18.4627 18.7907 18.5793 18.9111 18.6512L22.9157 20.9961C23.169 21.1452 23.4425 21.257 23.7277 21.328C23.7764 21.4697 23.7923 21.6207 23.774 21.7695C23.7557 21.9182 23.7037 22.0609 23.6221 22.1866C23.5404 22.3123 23.4312 22.4177 23.3027 22.4948C23.1742 22.572 23.0298 22.6189 22.8804 22.6319L18.9723 20.5396C18.8482 20.4745 18.7034 20.461 18.5694 20.5022C18.4354 20.5434 18.3231 20.6359 18.257 20.7595C18.1909 20.8831 18.1763 21.0278 18.2164 21.1621C18.2565 21.2964 18.3481 21.4094 18.4712 21.4765L22.0195 23.3762C22.0045 23.529 21.9575 23.6769 21.8815 23.8103C21.8054 23.9437 21.7021 24.0596 21.5783 24.1503C21.4544 24.2411 21.3128 24.3047 21.1627 24.337C21.0126 24.3692 20.8574 24.3695 20.7072 24.3377L17.7194 23.0085C17.5909 22.9528 17.4456 22.9501 17.3151 23.001C17.1845 23.0519 17.0794 23.1523 17.0225 23.2803C16.9656 23.4083 16.9616 23.5536 17.0112 23.6846C17.0609 23.8156 17.1603 23.9216 17.2878 23.9797L19.7438 25.072C18.9492 26.116 16.927 25.4914 15.7078 25.0015L15.7174 24.9898C15.9264 24.7371 16.052 24.4258 16.0768 24.0988C16.1016 23.7718 16.0245 23.4451 15.856 23.1637C15.6876 22.8823 15.436 22.6601 15.136 22.5276C14.836 22.395 14.5023 22.3587 14.1809 22.4237C14.3143 22.1648 14.3739 21.8743 14.3534 21.5838C14.3329 21.2933 14.2329 21.0141 14.0645 20.7765C13.896 20.539 13.6655 20.3523 13.3982 20.2369C13.1308 20.1215 12.8369 20.0817 12.5485 20.122C12.6697 19.7692 12.6631 19.3851 12.5301 19.0365C12.397 18.688 12.1458 18.3973 11.8203 18.2151C11.4948 18.0328 11.1157 17.9706 10.749 18.0393C10.3823 18.108 10.0514 18.3032 9.81398 18.591L9.65608 18.7837C9.61076 18.4792 9.47798 18.1945 9.27388 17.9641C9.06979 17.7336 8.80315 17.5675 8.50638 17.4857C8.20961 17.404 7.8955 17.4102 7.6022 17.5036C7.3089 17.597 7.04905 17.7737 6.85424 18.012L6.51491 18.4262C6.15065 18.0177 5.79831 17.5955 5.45789 17.1596L8.93781 10.8225C9.9144 11.3822 10.4581 11.3998 11.7222 11.7182L9.99296 14.108C9.8828 14.2604 9.81501 14.4393 9.79652 14.6264C9.77803 14.8136 9.80949 15.0023 9.8877 15.1733C9.9659 15.3443 10.0881 15.4915 10.2417 15.6C10.3953 15.7084 10.575 15.7741 10.7623 15.7905C11.6947 15.8813 12.6351 15.738 13.4981 15.3736C14.3612 15.0093 15.1197 14.4354 15.7049 13.7039C16.2133 13.8237 16.7422 13.8269 17.252 13.7132C18.8695 14.5446 24.5565 17.604 25.2192 19.2986C25.4283 19.8322 24.6865 20.8055 23.4532 20.0794ZM25.8886 18.3112C24.7449 16.6012 18.1512 12.6445 17.2084 12.6445L17.2068 12.6362C16.7 12.7839 16.1592 12.765 15.6639 12.5822C15.5459 12.5396 15.4168 12.5394 15.2987 12.5816C15.1805 12.6238 15.0808 12.7059 15.0165 12.8136C14.5606 13.4793 13.9328 14.0091 13.1999 14.3466C12.467 14.6842 11.6564 14.8168 10.8541 14.7306C12.5998 12.3179 13.0803 11.6538 13.7096 10.7841C13.8205 10.6319 13.9867 10.5295 14.1724 10.4987C17.6592 9.94931 20.152 9.9654 21.6234 10.5672C22.1394 10.8175 22.7045 10.9504 23.2781 10.9563C23.8516 10.9622 24.4193 10.841 24.9405 10.6014L28.2804 16.6836C27.524 17.2838 26.7246 17.8278 25.8886 18.3112ZM29.8209 17.281L25.4101 9.24842L26.6905 8.54493L31.1014 16.5775L29.8209 17.281Z" fill="black"/>
</svg>
