<svg width="53" height="52" viewBox="0 0 53 52" fill="none" xmlns="http://www.w3.org/2000/svg">
<rect width="52.5778" height="52" rx="8" fill="#FFABAB" fill-opacity="0.7"/>
<path fill-rule="evenodd" clip-rule="evenodd" d="M29.3304 29.6681C29.4041 29.8391 29.5667 29.9551 29.7525 29.9689C29.765 29.9698 29.7773 29.9702 29.7898 29.9702C29.9618 29.9702 30.1229 29.8816 30.2145 29.7339L31.426 27.7817L33.6767 28.2426C33.8594 28.2799 34.0473 28.2128 34.1649 28.0684C34.2825 27.9239 34.31 27.7261 34.2363 27.555L32.5648 23.674C32.6159 23.6523 32.6682 23.63 32.7233 23.6064C33.5853 23.2373 34.0896 22.3637 33.9784 21.4326C33.9577 21.2597 33.9384 21.1058 33.9211 20.9677C33.8516 20.4136 33.8167 20.1355 33.8542 19.923C33.8917 19.7105 34.0196 19.4611 34.2744 18.9642C34.338 18.8402 34.4087 18.7023 34.4873 18.5468C34.9103 17.7099 34.7351 16.7165 34.0514 16.0749C33.9245 15.9557 33.8107 15.8502 33.7087 15.7555C33.2993 15.3757 33.0938 15.1851 32.986 14.9982C32.878 14.8114 32.8157 14.5381 32.6915 13.9937C32.6605 13.858 32.626 13.7067 32.5863 13.5371C32.3724 12.6241 31.5996 11.9757 30.6634 11.9237C30.4895 11.914 30.3346 11.9063 30.1956 11.8994C29.6378 11.8716 29.3579 11.8577 29.1551 11.7839C28.9524 11.7101 28.729 11.5408 28.2839 11.2036C28.173 11.1194 28.0493 11.0258 27.9099 10.9214C27.1591 10.3596 26.1505 10.3595 25.3998 10.9214C25.2604 11.0258 25.1367 11.1194 25.0258 11.2036C24.5806 11.5408 24.3573 11.7101 24.1545 11.7839C23.9518 11.8577 23.6718 11.8716 23.1141 11.8994C22.975 11.9063 22.8201 11.914 22.6463 11.9237C21.71 11.9757 20.9372 12.6242 20.7234 13.5371C20.6836 13.7067 20.6491 13.8579 20.6181 13.9937C20.494 14.5381 20.4316 14.8114 20.3237 14.9982C20.2158 15.1851 20.0103 15.3757 19.601 15.7555C19.4989 15.8502 19.3852 15.9557 19.2583 16.0749C18.5746 16.7166 18.3993 17.71 18.8223 18.5469C18.9009 18.7022 18.9716 18.8402 19.0351 18.9641C19.29 19.461 19.4179 19.7104 19.4554 19.9229C19.4929 20.1354 19.458 20.4135 19.3885 20.9675C19.3712 21.1057 19.3519 21.2596 19.3312 21.4326C19.22 22.3637 19.7243 23.2373 20.5863 23.6064C20.7464 23.675 20.8893 23.7352 21.0176 23.7893C21.0566 23.8057 21.0936 23.8214 21.1297 23.8366L19.0793 28.2406C19.0006 28.4095 19.0225 28.608 19.1357 28.7559C19.249 28.9037 19.4351 28.9765 19.6186 28.9442L21.882 28.5487L23.0363 30.5352C23.1261 30.6896 23.291 30.7839 23.4685 30.7839C23.476 30.7839 23.4836 30.7837 23.4912 30.7834C23.6773 30.775 23.8433 30.6638 23.9219 30.495L25.9625 26.1119C26.2898 26.0136 26.4883 25.964 26.655 25.964C26.8707 25.964 27.1386 26.0466 27.6722 26.2113C27.734 26.2304 27.7993 26.2506 27.8679 26.2716L29.3304 29.6681ZM31.2851 26.7321C31.08 26.6901 30.8704 26.7804 30.76 26.9582L29.8699 28.3926L29.0201 26.4196C29.6034 26.3386 30.1372 26.0118 30.4785 25.4899C30.5738 25.3441 30.6579 25.2139 30.7335 25.0969C31.0364 24.6277 31.1884 24.3923 31.3537 24.2536C31.4279 24.1913 31.5211 24.1351 31.6475 24.0724L32.9388 27.0707L31.2851 26.7321ZM23.4192 29.2045L22.5711 27.745C22.4659 27.5639 22.259 27.4677 22.0528 27.5037L20.3899 27.7942L22.0135 24.3069C22.1586 24.4511 22.3085 24.6829 22.5758 25.0969C22.6513 25.2139 22.7355 25.3442 22.8308 25.4899C23.2526 26.1351 23.9685 26.4827 24.7085 26.4353L23.4192 29.2045ZM26.6546 24.9635C26.3143 24.9635 25.974 25.0609 25.3425 25.2558C25.211 25.2964 25.0648 25.3415 24.9001 25.3912C24.4241 25.535 23.9401 25.3591 23.6676 24.9426C23.5735 24.7987 23.4904 24.67 23.4158 24.5545C22.6988 23.4441 22.6236 23.3811 21.4056 22.8678C21.2789 22.8144 21.1378 22.7549 20.9796 22.6872C20.5222 22.4912 20.2648 22.0454 20.3238 21.5512C20.3443 21.3804 20.3633 21.2284 20.3805 21.0919C20.5449 19.7806 20.5278 19.6839 19.9246 18.5077C19.8619 18.3853 19.7921 18.2491 19.7145 18.0957C19.49 17.6516 19.5795 17.1446 19.9423 16.804C20.0678 16.6863 20.18 16.5822 20.2808 16.4886C21.2499 15.5897 21.2989 15.5047 21.5929 14.2162C21.6235 14.0821 21.6575 13.9327 21.6968 13.7652C21.8102 13.2807 22.2046 12.9497 22.7015 12.9221C22.8733 12.9126 23.0262 12.9049 23.1636 12.8981C24.4837 12.8324 24.576 12.7988 25.6295 12.0006C25.7391 11.9176 25.8611 11.8251 25.9988 11.722C26.3973 11.4238 26.912 11.4238 27.3105 11.722C27.4481 11.8251 27.5702 11.9176 27.6798 12.0006C28.7333 12.7988 28.8256 12.8324 30.1457 12.8981C30.283 12.9049 30.436 12.9126 30.6078 12.9221C31.1046 12.9497 31.499 13.2807 31.6125 13.7652C31.6518 13.9327 31.6858 14.082 31.7164 14.2161C32.0104 15.5047 32.0594 15.5897 33.0285 16.4886C33.1293 16.5821 33.2415 16.6862 33.367 16.8039C33.7298 17.1445 33.8191 17.6515 33.5947 18.0956C33.5171 18.2491 33.4473 18.3854 33.3845 18.5078C32.7814 19.6839 32.7643 19.7806 32.9288 21.0921C32.9459 21.2285 32.965 21.3804 32.9854 21.5512C33.0445 22.0453 32.787 22.4912 32.3296 22.6871C32.1715 22.7548 32.0303 22.8143 31.9036 22.8677C30.6856 23.3811 30.6105 23.4441 29.8935 24.5544C29.8189 24.67 29.7358 24.7986 29.6416 24.9426C29.3693 25.3591 28.8857 25.5352 28.4091 25.3912C28.2445 25.3415 28.0982 25.2963 27.9668 25.2558C27.3352 25.0609 26.9948 24.9635 26.6546 24.9635ZM31.6169 18.4696C31.6169 15.7334 29.3908 13.5073 26.6546 13.5073C23.9184 13.5073 21.6923 15.7334 21.6923 18.4696C21.6923 21.2059 23.9184 23.432 26.6546 23.432C29.3908 23.432 31.6169 21.2059 31.6169 18.4696ZM26.6545 22.432C24.4697 22.432 22.6923 20.6545 22.6923 18.4696C22.6923 16.2848 24.4697 14.5073 26.6545 14.5073C28.8393 14.5073 30.6168 16.2848 30.6168 18.4696C30.6169 20.6545 28.8393 22.432 26.6545 22.432ZM29.4006 17.2907L25.9863 20.3892C25.8908 20.4759 25.7705 20.519 25.6504 20.519C25.5221 20.519 25.3941 20.4699 25.2968 20.3726L23.891 18.9668C23.6958 18.7716 23.6958 18.455 23.891 18.2597C24.0863 18.0645 24.4028 18.0645 24.5981 18.2597L25.6671 19.3287L28.7286 16.5502C28.9331 16.3647 29.2493 16.38 29.4349 16.5845C29.6205 16.7889 29.6051 17.1051 29.4006 17.2907ZM38.8928 33.6729C39.5519 33.014 39.8866 32.1827 39.8608 31.2689L39.6173 22.6731C39.5933 21.8242 38.7494 21.0637 37.8395 21.0637C37.8307 21.0637 37.822 21.0637 37.8133 21.0639C37.3694 21.071 35.922 21.3101 35.9325 24.0884L35.9503 28.7577C35.9507 28.8645 35.944 28.9682 35.9301 29.0692C35.8948 29.0271 35.8571 28.9859 35.8168 28.9457C35.1997 28.3286 34.1891 28.3208 33.516 28.9279C33.4992 28.9429 33.4835 28.9591 33.469 28.9763C32.7158 29.8668 31.7903 30.6468 31.0466 31.2735C30.7858 31.4933 30.5396 31.7009 30.3373 31.8831C29.4893 32.6475 29.3761 33.7007 29.3772 34.6301L29.3812 37.9554L28.95 37.9517C28.6581 37.9491 28.383 38.0609 28.1742 38.266C27.9655 38.4712 27.8491 38.7448 27.8466 39.0364L27.8354 40.3371C27.8329 40.6287 27.9445 40.9042 28.1497 41.113C28.3548 41.3217 28.6285 41.4381 28.92 41.4406L35.6773 41.4986C35.6805 41.4986 35.6836 41.4987 35.6868 41.4987C35.9748 41.4987 36.2466 41.3872 36.4531 41.1843C36.6618 40.9791 36.7781 40.7056 36.7806 40.414L36.7918 39.1132C36.7943 38.8217 36.6827 38.5461 36.4775 38.3374C36.2724 38.1286 35.9988 38.0123 35.7072 38.0098L35.1513 38.0051V37.4145L38.8928 33.6729ZM35.7918 39.1047L35.7806 40.4054C35.7804 40.4368 35.765 40.4586 35.752 40.4712C35.7391 40.484 35.719 40.4989 35.6858 40.4987L28.9285 40.4407C28.8972 40.4404 28.8755 40.425 28.8628 40.4121C28.8501 40.3991 28.835 40.3772 28.8353 40.3458L28.8465 39.0451C28.8468 39.0137 28.8622 38.9919 28.8751 38.9792C28.8879 38.9667 28.9096 38.9517 28.9405 38.9517H28.9413H28.9414L35.6986 39.0098C35.7496 39.0103 35.7923 39.0537 35.7918 39.1047ZM30.3812 37.9641L30.3772 34.6289C30.376 33.6105 30.5584 33.0302 31.0069 32.626C31.1967 32.4549 31.4258 32.2618 31.691 32.0383C32.4555 31.3939 33.4052 30.5936 34.2078 29.6513C34.4885 29.4159 34.8716 29.4148 35.1097 29.6529C35.3631 29.9062 35.3634 30.2076 35.1118 30.5487C34.7143 30.9956 34.2963 31.4004 33.854 31.8284C33.6416 32.0339 33.422 32.2464 33.2005 32.4679C33.0053 32.6632 33.0053 32.9797 33.2006 33.175C33.2982 33.2726 33.4261 33.3214 33.5541 33.3214C33.6821 33.3214 33.8101 33.2726 33.9076 33.1749C34.1233 32.9592 34.3399 32.7496 34.5494 32.5469C35.0115 32.0997 35.448 31.6774 35.8755 31.195C35.8778 31.1924 36.2104 30.7856 36.2104 30.7856C36.7111 30.1692 36.9531 29.5046 36.9503 28.7541L36.9325 24.0847C36.9278 22.8471 37.2715 22.0727 37.8293 22.0638C37.8328 22.0637 37.8361 22.0637 37.8395 22.0637C38.2108 22.0637 38.6088 22.3884 38.6176 22.7014L38.8611 31.2972C38.8793 31.9382 38.652 32.4997 38.1857 32.9659L34.2977 36.8539C34.204 36.9476 34.1513 37.0748 34.1513 37.2074V37.9965L30.3812 37.9641ZM29.3275 39.5536C29.41 39.3461 29.645 39.2448 29.8525 39.3273C30.0599 39.4097 30.1612 39.6448 30.0788 39.8522C29.9963 40.0597 29.7613 40.161 29.5538 40.0785C29.3463 39.996 29.245 39.761 29.3275 39.5536ZM23.8256 38.2661C23.6168 38.0609 23.3411 37.9496 23.0497 37.9519L22.6186 37.9556L22.6226 34.6302C22.6237 33.7007 22.5105 32.6476 21.6625 31.8832C21.4603 31.7009 21.214 31.4934 20.9532 31.2737C20.2096 30.6469 19.2841 29.8669 18.5309 28.9764C18.5164 28.9592 18.5007 28.9431 18.484 28.928C17.8105 28.3209 16.7998 28.3288 16.183 28.9458C16.1427 28.9861 16.105 29.0272 16.0698 29.0694C16.0558 28.9683 16.0491 28.8647 16.0496 28.7579L16.0674 24.0885C16.0779 21.3102 14.6305 21.0711 14.1865 21.0639C14.1778 21.0638 14.1692 21.0637 14.1604 21.0637C13.2505 21.0637 12.4065 21.8244 12.3826 22.6731L12.1391 31.269C12.1133 32.1828 12.448 33.0141 13.107 33.673L16.8485 37.4146V38.0052L16.2926 38.0099C16.001 38.0124 15.7274 38.1287 15.5223 38.3375C15.3171 38.5462 15.2055 38.8218 15.208 39.1134L15.2191 40.4141C15.2216 40.7057 15.338 40.9792 15.5467 41.1844C15.7531 41.3874 16.0249 41.4988 16.313 41.4988C16.3161 41.4988 16.3194 41.4988 16.3225 41.4987L23.0798 41.4407C23.3713 41.4382 23.645 41.3219 23.8501 41.1131C24.0553 40.9044 24.1669 40.6288 24.1644 40.3372L24.1532 39.0365C24.1508 38.7449 24.0343 38.4713 23.8256 38.2661ZM17.8485 37.2074C17.8485 37.0747 17.7958 36.9476 17.7021 36.8539L13.814 32.9658C13.3478 32.4996 13.1205 31.9382 13.1386 31.2972L13.3821 22.7014C13.3911 22.3855 13.7989 22.0584 14.1705 22.0638C14.7283 22.0727 15.072 22.8471 15.0673 24.0846L15.0495 28.7541C15.0467 29.5046 15.2887 30.1691 15.7903 30.7866L16.1113 31.1796C16.1135 31.1823 16.1221 31.1924 16.1243 31.195C16.5519 31.6774 16.9883 32.0997 17.4505 32.5469C17.66 32.7497 17.8765 32.9592 18.0922 33.1749C18.1898 33.2726 18.3178 33.3214 18.4458 33.3214C18.5737 33.3214 18.7017 33.2726 18.7993 33.175C18.9946 32.9797 18.9946 32.6632 18.7993 32.4679C18.5778 32.2464 18.3582 32.0339 18.1459 31.8284C17.7036 31.4003 17.2856 30.9956 16.888 30.5487C16.6365 30.2076 16.6368 29.9062 16.8901 29.6529C17.1283 29.4148 17.5114 29.4159 17.7921 29.6513C18.5946 30.5937 19.5443 31.394 20.3089 32.0384C20.5741 32.2619 20.8031 32.4549 20.993 32.6261C21.4415 33.0302 21.6239 33.6106 21.6226 34.629L21.6186 37.9642L17.8486 37.9966L17.8485 37.2074ZM23.137 40.4121C23.1243 40.4251 23.1025 40.4405 23.0712 40.4407L16.314 40.4988C16.282 40.4989 16.2606 40.4841 16.2477 40.4713C16.2348 40.4586 16.2193 40.4369 16.2191 40.4055L16.2079 39.1047C16.2076 39.0734 16.2226 39.0514 16.2353 39.0385C16.248 39.0256 16.2698 39.0101 16.3011 39.0099L23.0583 38.9518H23.0592C23.0901 38.9518 23.1118 38.9667 23.1246 38.9793C23.1375 38.992 23.153 39.0137 23.1532 39.0451L23.1644 40.3459C23.1647 40.3772 23.1496 40.3992 23.137 40.4121ZM22.6723 39.5536C22.7548 39.761 22.6535 39.996 22.446 40.0785C22.2386 40.161 22.0035 40.0597 21.9211 39.8522C21.8386 39.6448 21.9399 39.4098 22.1473 39.3273C22.3548 39.2448 22.5898 39.3461 22.6723 39.5536Z" fill="#CF4141"/>
</svg>
