<svg width="53" height="52" viewBox="0 0 53 52" fill="none" xmlns="http://www.w3.org/2000/svg">
<rect width="52.5778" height="52" rx="8" fill="#C5E5FF"/>
<path d="M39.3879 23.2553C39.2748 23.2476 39.167 23.2047 39.0795 23.1326C38.9921 23.0606 38.9293 22.963 38.9001 22.8535C38.6209 21.3992 37.856 20.1328 37.2732 18.8333C37.2748 18.6997 37.3228 18.5708 37.4089 18.4686C37.6674 18.157 37.8009 17.7604 37.7833 17.3559C37.7658 16.9514 37.5985 16.5678 37.314 16.2798L35.7205 14.6863C35.4292 14.4079 35.0469 14.2447 34.6444 14.2271C34.2419 14.2094 33.8467 14.3385 33.5322 14.5903C33.4459 14.6655 33.3383 14.7118 33.2245 14.7227C33.1106 14.7337 32.9961 14.7087 32.8972 14.6513C31.7363 13.9395 30.4702 13.4159 29.1457 13.0998C29.0355 13.0698 28.9374 13.006 28.8653 12.9173C28.7933 12.8286 28.7509 12.7195 28.7442 12.6054C28.7089 12.2009 28.5231 11.8243 28.2235 11.5502C27.9239 11.2761 27.5324 11.1243 27.1263 11.125H24.8737C24.4666 11.1247 24.0742 11.2774 23.7744 11.5529C23.4746 11.8284 23.2894 12.2064 23.2553 12.6121C23.2476 12.7252 23.2047 12.833 23.1326 12.9205C23.0606 13.0079 22.963 13.0706 22.8535 13.0998C21.5317 13.4153 20.2681 13.9376 19.1093 14.6474C19.01 14.7061 18.8948 14.7323 18.7799 14.7222C18.665 14.7121 18.5561 14.6662 18.4686 14.5911C18.157 14.3325 17.7604 14.199 17.3559 14.2166C16.9514 14.2341 16.5678 14.4015 16.2798 14.686L14.6863 16.2795C14.4014 16.5672 14.2338 16.9507 14.2161 17.3551C14.1983 17.7596 14.3317 18.1563 14.5903 18.4678C14.6653 18.5541 14.7115 18.6617 14.7224 18.7756C14.7334 18.8894 14.7085 19.0038 14.6513 19.1028C13.9396 20.2637 13.416 21.5298 13.0998 22.8543C13.0698 22.9645 13.006 23.0626 12.9173 23.1347C12.8286 23.2067 12.7195 23.2491 12.6054 23.2558C12.2009 23.2911 11.8243 23.4769 11.5502 23.7765C11.2761 24.0761 11.1243 24.4676 11.125 24.8737V27.1263C11.1247 27.5334 11.2774 27.9258 11.5529 28.2256C11.8283 28.5254 12.2064 28.7106 12.6121 28.7447C12.9693 28.7643 13.1156 29.0923 13.167 29.4041C13.2052 29.5381 13.2946 29.6518 13.4158 29.7206C13.537 29.7894 13.6805 29.8078 13.8151 29.7718C13.9498 29.7359 14.065 29.6484 14.1358 29.5284C14.2066 29.4083 14.2274 29.2652 14.1937 29.1299L14.1333 28.8999C14.0539 28.5725 13.8729 28.2788 13.6162 28.0607C13.3595 27.8427 13.0403 27.7117 12.7045 27.6864C12.5638 27.6747 12.4327 27.6107 12.337 27.507C12.2412 27.4033 12.1879 27.2674 12.1875 27.1263V24.8737C12.1875 24.7336 12.2399 24.5986 12.3343 24.4951C12.4286 24.3916 12.5583 24.3271 12.6977 24.3142C13.0346 24.2899 13.3551 24.1594 13.6131 23.9414C13.8711 23.7234 14.0532 23.4291 14.1333 23.101C14.4238 21.8849 14.9047 20.7223 15.5581 19.6564C15.7312 19.3675 15.8094 19.0317 15.7818 18.6961C15.7543 18.3605 15.6223 18.0419 15.4045 17.7851C15.3124 17.6791 15.2645 17.5418 15.2706 17.4015C15.2767 17.2613 15.3363 17.1286 15.4373 17.031L17.031 15.4373C17.1302 15.3393 17.2623 15.2817 17.4016 15.2756C17.5409 15.2695 17.6775 15.3154 17.7848 15.4043C18.043 15.6204 18.3618 15.7511 18.6974 15.7784C19.0329 15.8058 19.3687 15.7285 19.6585 15.5571C20.7235 14.9041 21.8851 14.4235 23.1002 14.1333C23.4275 14.0539 23.7213 13.8729 23.9393 13.6162C24.1573 13.3595 24.2884 13.0403 24.3136 12.7045C24.3253 12.5638 24.3893 12.4327 24.493 12.337C24.5967 12.2412 24.7326 12.1879 24.8737 12.1875H27.1263C27.2664 12.1875 27.4014 12.2399 27.5049 12.3343C27.6084 12.4286 27.6729 12.5583 27.6858 12.6977C27.7101 13.0346 27.8406 13.3551 28.0586 13.6131C28.2766 13.8711 28.5709 14.0532 28.899 14.1333C30.1152 14.4237 31.2777 14.9046 32.3436 15.5581C32.6325 15.7312 32.9683 15.8095 33.3039 15.7819C33.6396 15.7544 33.9581 15.6224 34.2149 15.4045C34.321 15.3126 34.4582 15.2647 34.5985 15.2708C34.7387 15.2769 34.8713 15.3364 34.969 15.4373L36.5627 17.031C36.6607 17.1302 36.7183 17.2623 36.7244 17.4016C36.7305 17.5409 36.6846 17.6775 36.5957 17.7848C36.3773 18.0418 36.2451 18.3609 36.2177 18.697C36.1903 19.0332 36.269 19.3695 36.4429 19.6585C37.0958 20.7235 37.5764 21.8851 37.8667 23.1002C37.9461 23.4275 38.1271 23.7213 38.3838 23.9393C38.6405 24.1573 38.9597 24.2884 39.2955 24.3136C39.4362 24.3253 39.5673 24.3893 39.663 24.493C39.7588 24.5967 39.8121 24.7326 39.8125 24.8737V27.1263C39.8125 27.2664 39.7601 27.4014 39.6657 27.5049C39.5714 27.6084 39.4417 27.6729 39.3023 27.6858C38.9675 27.7093 38.6487 27.8379 38.3915 28.0535C38.1343 28.269 37.9518 28.5603 37.8702 28.8858C37.7074 29.3047 37.795 29.7626 38.3199 29.7986C38.6955 29.807 38.8434 29.4635 38.9002 29.1457C38.9302 29.0355 38.994 28.9374 39.0827 28.8653C39.1714 28.7933 39.2805 28.7509 39.3946 28.7442C39.7991 28.7089 40.1757 28.5231 40.4498 28.2235C40.7239 27.9239 40.8757 27.5324 40.875 27.1263V24.8737C40.8753 24.4666 40.7226 24.0742 40.4471 23.7744C40.1716 23.4746 39.7936 23.2894 39.3879 23.2553Z" fill="#1769AA"/>
<path d="M33.8783 29.7192C33.9837 29.7192 34.0867 29.6879 34.1742 29.6292C34.2618 29.5705 34.3299 29.4871 34.3698 29.3895C34.8101 28.314 35.0348 27.1624 35.0313 26.0003C34.5372 14.0225 17.4648 14.019 16.9688 26.0003C16.9687 26.7146 17.2398 30.1357 18.3234 29.679C18.3879 29.6525 18.4466 29.6136 18.4961 29.5644C18.5456 29.5152 18.5849 29.4568 18.6117 29.3924C18.6386 29.3281 18.6526 29.259 18.6528 29.1893C18.653 29.1195 18.6394 29.0504 18.6129 28.9859C18.2254 28.0384 18.0278 27.0239 18.0313 26.0002C18.0337 23.8875 18.874 21.8621 20.3679 20.3682C21.8618 18.8743 23.8873 18.0339 26 18.0316C31.532 17.9179 35.5548 23.9172 33.3872 28.9859C33.3548 29.0666 33.3426 29.154 33.3516 29.2405C33.3606 29.327 33.3906 29.41 33.439 29.4823C33.4874 29.5546 33.5527 29.6139 33.6293 29.6552C33.7058 29.6965 33.7913 29.7185 33.8783 29.7192Z" fill="#1769AA"/>
<path d="M37.1562 30.7812H14.8438C14.4212 30.7817 14.0161 30.9498 13.7173 31.2486C13.4185 31.5473 13.2505 31.9525 13.25 32.375V39.2812C13.2505 39.7038 13.4185 40.1089 13.7173 40.4077C14.0161 40.7065 14.4212 40.8745 14.8438 40.875H37.1562C37.5788 40.8745 37.9839 40.7065 38.2827 40.4077C38.5815 40.1089 38.7495 39.7038 38.75 39.2812V32.375C38.7495 31.9525 38.5815 31.5473 38.2827 31.2486C37.9839 30.9498 37.5788 30.7817 37.1562 30.7812ZM37.6875 39.2812C37.6873 39.4221 37.6313 39.5571 37.5317 39.6567C37.4321 39.7563 37.2971 39.8123 37.1562 39.8125H14.8438C14.7029 39.8123 14.5679 39.7563 14.4683 39.6567C14.3687 39.5571 14.3127 39.4221 14.3125 39.2812V32.375C14.3127 32.2342 14.3687 32.0991 14.4683 31.9996C14.5679 31.9 14.7029 31.8439 14.8438 31.8438H37.1562C37.2971 31.8439 37.4321 31.9 37.5317 31.9996C37.6313 32.0991 37.6873 32.2342 37.6875 32.375V39.2812Z" fill="#1769AA"/>
<path d="M26.3347 32.6191H25.6654C25.1696 32.6197 24.6943 32.8169 24.3437 33.1675C23.9932 33.518 23.796 33.9934 23.7954 34.4891V38.5054C23.7981 38.6445 23.8553 38.777 23.9546 38.8744C24.054 38.9718 24.1875 39.0264 24.3267 39.0264C24.4658 39.0264 24.5994 38.9718 24.6987 38.8744C24.798 38.777 24.8552 38.6445 24.8579 38.5054V36.3591H27.1422V38.5054C27.145 38.6444 27.2022 38.7769 27.3015 38.8742C27.4008 38.9716 27.5344 39.0261 27.6734 39.0261C27.8125 39.0261 27.9461 38.9716 28.0454 38.8742C28.1447 38.7768 28.2019 38.6444 28.2047 38.5054V34.4891C28.2041 33.9934 28.0069 33.518 27.6563 33.1675C27.3058 32.8169 26.8304 32.6197 26.3347 32.6191ZM27.1422 35.2966H24.8579V34.4891C24.8581 34.275 24.9432 34.0698 25.0946 33.9184C25.246 33.767 25.4513 33.6818 25.6654 33.6816H26.3346C26.5487 33.6818 26.754 33.767 26.9054 33.9184C27.0568 34.0698 27.1419 34.275 27.1421 34.4891L27.1422 35.2966Z" fill="#1769AA"/>
<path d="M31.8332 32.6191H29.8252C29.6843 32.6191 29.5492 32.6751 29.4495 32.7747C29.3499 32.8744 29.2939 33.0095 29.2939 33.1504V38.5054C29.2967 38.6445 29.3538 38.777 29.4532 38.8744C29.5525 38.9718 29.6861 39.0264 29.8252 39.0264C29.9643 39.0264 30.0979 38.9718 30.1972 38.8744C30.2966 38.777 30.3537 38.6445 30.3564 38.5054V36.3591H31.8332C32.3254 36.3534 32.7955 36.1538 33.1415 35.8038C33.4875 35.4537 33.6815 34.9813 33.6815 34.4891C33.6815 33.9969 33.4875 33.5246 33.1415 33.1745C32.7955 32.8244 32.3254 32.6249 31.8332 32.6191ZM31.8332 35.2966H30.3564V33.6816H31.8332C32.0452 33.6849 32.2474 33.7714 32.3962 33.9225C32.545 34.0736 32.6284 34.2771 32.6284 34.4891C32.6284 34.7012 32.545 34.9047 32.3962 35.0558C32.2474 35.2069 32.0452 35.2934 31.8332 35.2966Z" fill="#1769AA"/>
<path d="M20.1669 33.6816H22.1749C22.3144 33.6796 22.4475 33.6227 22.5455 33.5233C22.6434 33.4239 22.6983 33.2899 22.6983 33.1504C22.6983 33.0108 22.6434 32.8769 22.5455 32.7775C22.4475 32.6781 22.3144 32.6212 22.1749 32.6191H20.1669C19.6709 32.6191 19.1953 32.8162 18.8446 33.1669C18.4939 33.5175 18.2969 33.9932 18.2969 34.4891C18.2969 34.9851 18.4939 35.4607 18.8446 35.8114C19.1953 36.1621 19.6709 36.3591 20.1669 36.3591H20.8361C21.0481 36.3624 21.2504 36.4489 21.3991 36.6C21.5479 36.7511 21.6313 36.9546 21.6313 37.1667C21.6313 37.3787 21.5479 37.5822 21.3991 37.7333C21.2503 37.8844 21.0481 37.9709 20.8361 37.9741H18.8281C18.6872 37.9741 18.5521 38.0301 18.4525 38.1297C18.3528 38.2294 18.2969 38.3645 18.2969 38.5054C18.2969 38.6463 18.3528 38.7814 18.4525 38.881C18.5521 38.9807 18.6872 39.0366 18.8281 39.0366H20.8361C21.3283 39.0309 21.7984 38.8313 22.1444 38.4813C22.4904 38.1312 22.6844 37.6588 22.6844 37.1666C22.6844 36.6744 22.4903 36.202 22.1443 35.852C21.7983 35.5019 21.3282 35.3024 20.8361 35.2966H20.1669C19.9549 35.2934 19.7526 35.2069 19.6039 35.0558C19.4551 34.9047 19.3717 34.7012 19.3717 34.4891C19.3717 34.2771 19.4551 34.0736 19.6039 33.9225C19.7526 33.7714 19.9549 33.6849 20.1669 33.6816Z" fill="#1769AA"/>
</svg>
