<svg width="53" height="52" viewBox="0 0 53 52" fill="none" xmlns="http://www.w3.org/2000/svg">
<rect width="52.5778" height="52" rx="8" fill="#CAFFD2" fill-opacity="0.7"/>
<g clip-path="url(#clip0_2751_11045)">
<path d="M37.1497 33.2738C38.2028 32.6166 38.9055 31.4478 38.9055 30.1176C38.9055 28.0673 37.2374 26.3993 35.1871 26.3993C33.1368 26.3993 31.4687 28.0673 31.4687 30.1176C31.4687 31.4486 32.1722 32.618 33.2263 33.275C32.3347 33.5672 31.5117 34.0564 30.8255 34.7121C30.7678 34.6658 30.7095 34.6202 30.6503 34.5755C30.638 34.5637 30.6251 34.5523 30.6111 34.5418C30.5957 34.5302 30.5795 34.5202 30.5632 34.5109C30.1562 34.2124 29.7187 33.9532 29.2563 33.739C29.2302 33.7235 29.2027 33.7108 29.1741 33.7012C28.8671 33.5634 28.5493 33.4456 28.2225 33.3488C29.5895 32.5865 30.5166 31.1265 30.5166 29.4533C30.5166 26.9952 28.5168 24.9955 26.0588 24.9955C23.6008 24.9955 21.601 26.9952 21.601 29.4533C21.601 31.1264 22.528 32.5865 23.895 33.3488C23.5681 33.4456 23.2502 33.5635 22.943 33.7013C22.9147 33.711 22.8873 33.7236 22.8612 33.7389C22.3987 33.9531 21.9612 34.2124 21.5542 34.511C21.5378 34.5202 21.5217 34.5303 21.5063 34.5418C21.4923 34.5523 21.4794 34.5638 21.467 34.5755C21.4068 34.6211 21.3473 34.6676 21.2884 34.7149C20.6025 34.0591 19.7797 33.5698 18.8882 33.2776C19.9418 32.6207 20.6448 31.452 20.6448 30.1216C20.6448 28.0721 18.9773 26.4046 16.9278 26.4046C14.8783 26.4046 13.2109 28.0721 13.2109 30.1216C13.2109 31.4512 13.913 32.6193 14.9656 33.2763C12.4459 34.1033 10.6211 36.4774 10.6211 39.2701C10.6211 39.5118 10.817 39.7076 11.0586 39.7076H18.4863C18.4466 40.0225 18.426 40.3431 18.426 40.6685C18.426 40.9101 18.6218 41.106 18.8635 41.106H24.6792C24.6798 41.106 24.6805 41.1061 24.6811 41.1061C24.6816 41.1061 24.6821 41.106 24.6826 41.106H27.4347C27.4352 41.106 27.4357 41.1061 27.4362 41.1061C27.4368 41.1061 27.4375 41.106 27.4381 41.106H33.2538C33.4954 41.106 33.6913 40.9101 33.6913 40.6685C33.6913 40.3431 33.6707 40.0225 33.631 39.7076H41.0587C41.3003 39.7076 41.4962 39.5118 41.4962 39.2701C41.4962 36.4762 39.6705 34.101 37.1496 33.2738H37.1497ZM32.3437 30.1176C32.3437 28.5498 33.6193 27.2743 35.1871 27.2743C36.7549 27.2743 38.0305 28.5498 38.0305 30.1176C38.0305 31.6855 36.7567 32.9592 35.1903 32.961C35.1892 32.961 35.1881 32.961 35.187 32.961C35.186 32.961 35.185 32.961 35.1839 32.961C33.6175 32.9592 32.3437 31.6845 32.3437 30.1176ZM26.2129 37.7695L26.8675 40.2311H25.25L25.9047 37.7695C25.9448 37.6188 25.9015 37.4581 25.7912 37.3477L25.4471 37.0036L26.0588 36.507L26.6705 37.0036L26.3263 37.3478C26.216 37.4581 26.1728 37.6188 26.2129 37.7695ZM23.0594 34.6141L25.3037 35.993L23.9657 37.0793L22.3942 34.9933C22.608 34.8548 22.83 34.7282 23.0594 34.6141ZM26.8139 35.993L29.0582 34.6141C29.2875 34.7281 29.5096 34.8548 29.7233 34.9933L28.152 37.0793L26.8139 35.993ZM22.4761 29.4533C22.4761 27.4777 24.0833 25.8705 26.0589 25.8705C28.0345 25.8705 29.6417 27.4777 29.6417 29.4533C29.6417 31.4288 28.0362 33.0342 26.0621 33.036C26.061 33.036 26.0599 33.036 26.0588 33.036C26.0578 33.036 26.0567 33.036 26.0557 33.036C24.0817 33.0342 22.4762 31.4277 22.4762 29.4533H22.4761ZM26.0589 33.911C26.06 33.911 26.061 33.911 26.0622 33.911C26.7522 33.9113 27.4182 34.0159 28.0456 34.2093L26.0588 35.43L24.072 34.2093C24.6995 34.016 25.3656 33.9113 26.0557 33.911C26.0568 33.911 26.0578 33.911 26.0589 33.911ZM14.0862 30.1216C14.0862 28.5546 15.361 27.2796 16.9281 27.2796C18.4952 27.2796 19.77 28.5545 19.77 30.1216C19.77 31.6888 18.4968 32.9618 16.9312 32.9635C16.9302 32.9635 16.9291 32.9635 16.928 32.9635C16.927 32.9635 16.9259 32.9635 16.9248 32.9635C15.3593 32.9617 14.0862 31.6875 14.0862 30.1216ZM11.5137 38.8326C11.7373 36.0423 14.079 33.8398 16.9255 33.8385H16.928C16.9291 33.8385 16.9301 33.8385 16.9312 33.8385C18.308 33.8393 19.6361 34.368 20.6368 35.302C19.6845 36.2641 18.9858 37.4775 18.6499 38.8326H11.5137ZM21.6922 35.5155L23.5397 37.9681C23.6112 38.063 23.7182 38.1247 23.8361 38.1391C23.8538 38.1412 23.8715 38.1423 23.8892 38.1423C23.989 38.1423 24.0865 38.1081 24.1649 38.0445L24.7641 37.5581L24.9943 37.7883L24.3446 40.2311H19.3151C19.4362 38.3452 20.3345 36.6676 21.6921 35.5155L21.6922 35.5155ZM27.7729 40.231L27.1232 37.7881L27.3533 37.558L27.9525 38.0445C28.0309 38.1081 28.1284 38.1423 28.2283 38.1423C28.2459 38.1423 28.2637 38.1412 28.2813 38.1391C28.3993 38.1247 28.5062 38.0629 28.5777 37.9681L30.4253 35.5155C31.7829 36.6676 32.6813 38.3451 32.8023 40.231H27.7729ZM33.4676 38.8326C33.1313 37.4761 32.4316 36.2616 31.4777 35.299C32.4788 34.3652 33.807 33.8367 35.1838 33.836C35.1849 33.836 35.186 33.836 35.187 33.836H35.1895C38.0376 33.8373 40.3804 36.0408 40.6038 38.8327H33.4676V38.8326ZM20.2703 18.7246C20.3075 18.7841 20.3168 18.8364 20.3022 18.9051L19.9749 20.4446C19.8554 21.0066 20.1775 21.5645 20.724 21.742L22.221 22.2285C22.2877 22.2501 22.3283 22.2842 22.3612 22.3461L23.1001 23.7358C23.3698 24.2431 23.9751 24.4636 24.5079 24.2481L25.9672 23.6585C26.0322 23.6323 26.0853 23.6323 26.1504 23.6585L27.6097 24.2481C27.7474 24.3038 27.89 24.3303 28.0304 24.3303C28.433 24.3303 28.8175 24.112 29.0175 23.7357L29.7563 22.3461C29.7892 22.2841 29.8299 22.25 29.8967 22.2283L31.3935 21.742C31.94 21.5643 32.262 21.0066 32.1425 20.4445L31.8153 18.905C31.8007 18.8363 31.81 18.784 31.8471 18.7246L32.6812 17.3899C32.9857 16.9025 32.8738 16.2682 32.421 15.9145L31.1807 14.9455C31.1254 14.9023 31.0989 14.8563 31.0892 14.7868L30.8702 13.2283C30.7902 12.6593 30.2957 12.2446 29.7225 12.2653L28.1496 12.3203C28.0799 12.3225 28.0296 12.3046 27.9774 12.2575L26.8078 11.2044C26.3808 10.8199 25.7366 10.8199 25.3097 11.2044L24.14 12.2576C24.0878 12.3046 24.038 12.3225 23.9679 12.3203L22.3951 12.2653C21.822 12.2458 21.3273 12.6593 21.2473 13.2283L21.0283 14.7868C21.0186 14.8563 20.992 14.9023 20.9367 14.9455L19.6965 15.9145C19.2437 16.2682 19.1318 16.9026 19.4363 17.39L20.2703 18.7246ZM20.2352 16.604L21.4753 15.635C21.7085 15.4529 21.8536 15.2017 21.8948 14.9086L22.1138 13.3501C22.1315 13.2238 22.236 13.137 22.3645 13.1397L23.9374 13.1946C24.233 13.205 24.5058 13.1057 24.7255 12.9078L25.8952 11.8546C25.99 11.7693 26.1276 11.7692 26.2223 11.8546L27.3919 12.9076C27.6118 13.1058 27.8845 13.2048 28.1802 13.1946L29.7531 13.1396C29.88 13.1358 29.986 13.2237 30.0037 13.35L30.2227 14.9085C30.2639 15.2016 30.4089 15.4528 30.6421 15.6349L31.8823 16.604C31.9828 16.6825 32.0067 16.818 31.9392 16.9261L31.105 18.2609C30.9483 18.5118 30.898 18.7975 30.9595 19.0868L31.2867 20.6264C31.3132 20.7511 31.2444 20.8703 31.1231 20.9097L29.6264 21.396C29.345 21.4874 29.1227 21.6738 28.9837 21.9352L28.2448 23.3248C28.185 23.4374 28.0557 23.4846 27.9373 23.4367L26.478 22.8471C26.3408 22.7916 26.1998 22.764 26.0587 22.764C25.9177 22.764 25.7765 22.7916 25.6393 22.8471L24.18 23.4367C24.0617 23.4846 23.9324 23.4375 23.8725 23.3248L23.1337 21.9352C22.9947 21.6738 22.7725 21.4874 22.4911 21.3961L20.9943 20.9097C20.873 20.8703 20.8042 20.7511 20.8307 20.6263L21.1579 19.0869C21.2195 18.7975 21.1691 18.5118 21.0123 18.2608L20.1783 16.9261C20.1107 16.818 20.1345 16.6824 20.2351 16.6038L20.2352 16.604ZM26.0588 21.3821C28.1315 21.3821 29.8178 19.6958 29.8178 17.6231C29.8178 15.5503 28.1315 13.8641 26.0588 13.8641C23.9862 13.8641 22.2998 15.5503 22.2998 17.6231C22.2998 19.6958 23.9861 21.3821 26.0588 21.3821ZM26.0588 14.7392C27.649 14.7392 28.9428 16.0329 28.9428 17.6231C28.9428 19.2134 27.649 20.5071 26.0588 20.5071C24.4687 20.5071 23.1748 19.2134 23.1748 17.6231C23.1748 16.0329 24.4686 14.7392 26.0588 14.7392ZM24.4138 17.8187C24.2644 17.6288 24.2973 17.3537 24.4873 17.2044C24.6772 17.055 24.9523 17.088 25.1016 17.2778L25.5925 17.9021L27.0427 16.3747C27.2091 16.1993 27.486 16.1923 27.6612 16.3586C27.8364 16.525 27.8436 16.802 27.6772 16.9771L25.8786 18.8715C25.7958 18.9587 25.681 19.0078 25.5613 19.0078C25.5545 19.0078 25.5478 19.0076 25.541 19.0073C25.414 19.0013 25.296 18.9406 25.2174 18.8407L24.4138 17.8187Z" fill="#26BB46"/>
</g>
<defs>
<clipPath id="clip0_2751_11045">
<rect width="32" height="32" fill="white" transform="translate(10 10)"/>
</clipPath>
</defs>
</svg>
