<svg width="82" height="80" viewBox="0 0 82 80" fill="none" xmlns="http://www.w3.org/2000/svg">
<path d="M13.4848 44.0714L11.9284 53.257C11.8247 53.6745 12.0322 54.0921 12.3434 54.3008C12.6547 54.5096 13.0697 54.5096 13.4848 54.4052L21.6816 50.1256L25.6243 52.2132C26.1431 52.5263 26.7656 52.3176 27.0769 51.7957C27.3882 51.2738 27.1807 50.6475 26.6619 50.3343L22.2003 47.9336C21.8891 47.7248 21.5778 47.7248 21.2665 47.9336L14.3148 51.4825L15.5599 43.8627C15.6637 43.5495 15.4561 43.132 15.2486 42.9233L9.74952 37.5998L17.3238 36.556C17.635 36.556 17.9463 36.2428 18.1538 36.0341L21.5778 29.1449L22.8229 31.7544C23.0304 32.2763 23.6529 32.4851 24.1717 32.2763C24.6905 32.0676 24.898 31.4413 24.6905 30.9194L22.5116 26.431C22.3041 26.1178 21.9928 25.8047 21.5778 25.8047C21.1628 25.8047 20.8515 26.0134 20.644 26.431L16.5975 34.7815L7.46686 35.8253C7.05184 35.9297 6.74057 36.1385 6.63681 36.556C6.53305 36.9735 6.63681 37.391 6.94808 37.5998L13.4848 44.0714Z" fill="#F1F1F1"/>
<path d="M64.9481 34.467L60.9016 26.1165C60.6941 25.8034 60.3828 25.4902 59.9678 25.4902C59.5527 25.4902 59.2415 25.699 59.0339 26.1165L56.855 30.6049C56.6475 31.1268 56.855 31.7531 57.3738 31.9619C57.8926 32.1707 58.5152 31.9619 58.7227 31.44L59.9678 28.8304L63.3917 35.7196C63.4955 36.0328 63.8068 36.2415 64.2218 36.2415L71.796 37.3897L66.2969 42.7132C66.0894 42.9219 65.9857 43.3395 65.9857 43.6526L67.2307 51.2725L60.4865 47.9323C60.1753 47.7235 59.864 47.7235 59.5527 47.9323L55.0912 50.333C54.5724 50.6462 54.3649 51.2725 54.6762 51.7944C54.9874 52.3163 55.61 52.525 56.025 52.2119L59.9678 50.1243L68.0608 54.4039C68.1646 54.5083 68.3721 54.5083 68.5796 54.5083C69.2021 54.5083 69.7209 53.882 69.6171 53.2557L68.0608 44.0701L74.7012 37.5985C75.0125 37.2853 75.1163 36.8678 75.0125 36.5547C74.9087 36.2415 74.4937 35.824 74.0787 35.824L64.9481 34.467Z" fill="#F1F1F1"/>
<path d="M28.6333 58.6848C28.9446 58.8935 29.3596 58.9979 29.7746 58.7891L40.7729 52.9438L51.7711 58.7891C51.8748 58.8935 52.0824 58.8935 52.2899 58.8935C52.9124 58.8935 53.4312 58.2672 53.3274 57.6409L51.2523 45.3239L60.1754 36.5559C60.4867 36.2427 60.5904 35.8252 60.4867 35.5121C60.3829 35.0945 60.0716 34.8858 59.6566 34.7814L47.3095 33.0069L41.8104 21.7337C41.6029 21.4206 41.2916 21.1074 40.8766 21.1074C40.4616 21.1074 40.1503 21.3162 39.9428 21.7337L34.4437 33.0069L21.9929 34.7814C21.5778 34.8858 21.2666 35.0945 21.1628 35.5121C21.0591 35.9296 21.1628 36.3471 21.4741 36.5559L30.3972 45.3239L28.322 57.6409C28.1145 58.0585 28.322 58.476 28.6333 58.6848ZM24.3793 36.5559L35.17 34.9902C35.4813 34.9902 35.7925 34.677 36 34.4683L40.8766 24.6564L45.6494 34.4683C45.7532 34.7814 46.0645 34.9902 46.4795 34.9902L57.2702 36.5559L49.3847 44.1757C49.1772 44.3845 49.0734 44.802 49.0734 45.1152L50.941 55.9708L41.2916 50.8562C40.9804 50.6474 40.6691 50.6474 40.3578 50.8562L30.7084 55.9708L32.4723 45.1152C32.5761 44.802 32.3686 44.3845 32.161 44.1757L24.3793 36.5559Z" fill="#F1F1F1"/>
<path d="M31.4144 69.6973L35.3325 64.9673L36.9263 66.3035L33.0083 71.0335L31.4144 69.6973Z" fill="#F1F1F1"/>
<path d="M39.7352 67.2441H41.8106V73.4027H39.7352V67.2441Z" fill="#F1F1F1"/>
<path d="M44.5863 66.3086L46.1801 64.9724L50.0982 69.7024L48.5044 71.0386L44.5863 66.3086Z" fill="#F1F1F1"/>
<path d="M31.4747 10.334L33.0686 8.9978L36.9866 13.7278L35.3928 15.064L31.4747 10.334Z" fill="#F1F1F1"/>
<path d="M39.7352 6.59766H41.8106V12.7562H39.7352V6.59766Z" fill="#F1F1F1"/>
<path d="M44.5802 13.7461L48.4983 9.0161L50.0921 10.3523L46.174 15.0823L44.5802 13.7461Z" fill="#F1F1F1"/>
</svg>
