<svg width="53" height="52" viewBox="0 0 53 52" fill="none" xmlns="http://www.w3.org/2000/svg">
<rect width="52.5778" height="52" rx="8" fill="#CAFFD2" fill-opacity="0.7"/>
<g clip-path="url(#clip0_2751_12982)">
<path d="M38.1598 14.8724C38.795 14.8724 39.3089 14.3585 39.3089 13.7233C39.3089 13.0882 38.795 12.5742 38.1598 12.5742C37.5247 12.5742 37.0107 13.0882 37.0107 13.7233C37.0107 14.3585 37.5295 14.8724 38.1598 14.8724ZM38.1598 13.3936C38.3441 13.3936 38.4944 13.5439 38.4944 13.7282C38.4944 13.9124 38.3441 14.0627 38.1598 14.0627C37.9707 14.0627 37.8253 13.9172 37.8253 13.7282C37.8253 13.5391 37.9756 13.3936 38.1598 13.3936Z" fill="#26BB46"/>
<path d="M39.4349 10.7168H15.8131C14.9162 10.7168 14.184 11.4489 14.184 12.3459V14.8332H12.5646C11.6677 14.8332 10.9355 15.5653 10.9355 16.4623V36.8889C10.9355 37.7859 11.6677 38.518 12.5646 38.518H23.3913V40.8744C23.3913 41.0974 23.5755 41.2816 23.7986 41.2816H31.4495C31.6725 41.2816 31.8568 41.0974 31.8568 40.8744V38.518H36.1865C37.0834 38.518 37.8155 37.7859 37.8155 36.8889V34.4016H39.4349C40.3319 34.4016 41.064 33.6695 41.064 32.7726V12.3459C41.064 11.4489 40.3319 10.7168 39.4349 10.7168ZM14.9986 12.3459C14.9986 11.895 15.3671 11.5313 15.8131 11.5313H39.4349C39.8859 11.5313 40.2495 11.8998 40.2495 12.3459V15.9192H24.7925L22.9743 14.0332C22.8337 13.8877 22.6398 13.8053 22.441 13.8053H18.4362C18.0289 13.8053 17.6943 14.1398 17.6943 14.5471V15.9192H14.9986V12.3459ZM12.5646 37.7083C12.1137 37.7083 11.7501 37.3398 11.7501 36.8938V16.4623C11.7501 16.0113 12.1186 15.6477 12.5646 15.6477H14.184V32.7774C14.184 33.6744 14.9162 34.4065 15.8131 34.4065H24.6568C24.8168 34.7168 24.8895 35.0659 24.8604 35.4247H24.2301C23.7646 35.4247 23.3913 35.8029 23.3913 36.2635V37.7083H12.5646ZM27.2216 29.1798C27.304 29.0344 27.4543 28.9423 27.624 28.9423C27.8762 28.9423 28.0798 29.1459 28.0798 29.398C28.0798 29.5629 27.9925 29.7132 27.8519 29.7956C27.6968 29.8877 27.5125 29.878 27.3234 29.7713C27.2992 29.7568 27.2749 29.7374 27.2652 29.7132C27.1101 29.4659 27.1731 29.2719 27.2216 29.1798ZM27.2168 28.2053C26.921 28.3071 26.6689 28.5059 26.5137 28.7871C26.281 29.2041 26.3101 29.7132 26.5816 30.1495C26.6689 30.2853 26.7852 30.3968 26.9258 30.4792C27.1489 30.6053 27.3913 30.6732 27.6289 30.6732C27.8519 30.6732 28.0701 30.615 28.264 30.5035C28.6519 30.2756 28.8943 29.8538 28.8943 29.4029C28.8943 28.8453 28.5307 28.375 28.0313 28.2053V26.1107L31.6337 32.6126C31.6289 32.6174 31.624 32.6271 31.6095 32.6319C30.3343 32.9616 29.5004 34.1544 29.5683 35.4247H25.6846C25.7574 34.1495 24.9186 32.9568 23.6192 32.5932L27.2168 26.1107V28.2053ZM31.0422 40.4671H24.2058L24.2301 36.2344H31.018C31.0325 36.2344 31.0422 36.2441 31.0422 36.2586V40.4671ZM37.001 36.8889C37.001 37.3398 36.6325 37.7035 36.1865 37.7035H31.8568V36.2586C31.8568 35.7932 31.4786 35.4198 31.018 35.4198H30.3877C30.3586 35.061 30.4362 34.712 30.5913 34.4016H37.001V36.8889ZM39.4349 33.5919H31.3816C31.5125 33.5192 31.6531 33.4562 31.8083 33.4174C32.0652 33.3495 32.2737 33.1701 32.3804 32.9277C32.4822 32.6901 32.4677 32.4235 32.3416 32.1956L28.1719 24.6853C28.0652 24.4865 27.8568 24.3604 27.6289 24.3604C27.3962 24.3653 27.1877 24.4816 27.0762 24.6804L22.9016 32.1956C22.7755 32.4235 22.7659 32.695 22.8677 32.9326C22.9695 33.175 23.178 33.3495 23.4349 33.4174C23.5901 33.4562 23.7259 33.5192 23.8616 33.5919H15.8131C15.3622 33.5919 14.9986 33.2235 14.9986 32.7774V16.7338H17.7622C18.1695 16.7338 18.504 16.3992 18.504 15.9919V14.6198H22.4071L24.2252 16.5059C24.3659 16.6513 24.5598 16.7338 24.7586 16.7338H40.2495V32.7726C40.2495 33.2235 39.8859 33.5919 39.4349 33.5919Z" fill="#26BB46"/>
<path d="M35.3864 14.8724C36.0215 14.8724 36.5355 14.3585 36.5355 13.7233C36.5355 13.0882 36.0215 12.5742 35.3864 12.5742C34.7512 12.5742 34.2373 13.0882 34.2373 13.7233C34.2373 14.3585 34.7512 14.8724 35.3864 14.8724ZM35.3864 13.3936C35.5706 13.3936 35.7209 13.5439 35.7209 13.7282C35.7209 13.9124 35.5706 14.0627 35.3864 14.0627C35.1973 14.0627 35.0518 13.9172 35.0518 13.7282C35.0518 13.5391 35.2022 13.3936 35.3864 13.3936Z" fill="#26BB46"/>
<path d="M32.6081 14.8724C33.2432 14.8724 33.7572 14.3585 33.7572 13.7233C33.7572 13.0882 33.2432 12.5742 32.6081 12.5742C31.9729 12.5742 31.459 13.0882 31.459 13.7233C31.459 14.3585 31.9729 14.8724 32.6081 14.8724ZM32.6081 13.3936C32.7923 13.3936 32.9426 13.5439 32.9426 13.7282C32.9426 13.9124 32.7923 14.0627 32.6081 14.0627C32.419 14.0627 32.2735 13.9172 32.2735 13.7282C32.2735 13.5391 32.4238 13.3936 32.6081 13.3936Z" fill="#26BB46"/>
<path d="M35.4739 20.2831C35.2364 20.5206 35.0861 20.8212 35.0279 21.1412H29.3309V20.5012C29.3309 20.0649 28.977 19.7109 28.5406 19.7109H26.703C26.2667 19.7109 25.9127 20.0649 25.9127 20.5012V21.1412H20.2206C20.1673 20.8261 20.017 20.5255 19.7746 20.2782C19.1588 19.6721 18.1067 19.6818 17.5055 20.2831C17.2 20.5885 17.0352 20.9909 17.0352 21.4176C17.0352 21.8491 17.2049 22.2564 17.5055 22.5521C17.8109 22.8673 18.2182 23.0273 18.64 23.0273C18.9067 23.0273 19.1782 22.9643 19.4352 22.8334C19.7115 22.6928 19.9394 22.46 20.0752 22.174C20.1091 22.1012 20.1382 22.0285 20.1624 21.9558H24.1139C21.9661 23.0031 20.3467 24.9715 19.7842 27.3473H19.1539C18.7176 27.3473 18.3636 27.7012 18.3636 28.1376V29.9752C18.3636 30.4115 18.7176 30.7655 19.1539 30.7655H20.9915C21.4279 30.7655 21.7818 30.4115 21.7818 29.9752V28.1376C21.7818 27.7012 21.4279 27.3473 20.9915 27.3473H20.623C21.3018 24.7873 23.3527 22.78 25.9273 22.1594V22.334C25.9273 22.7703 26.2812 23.1243 26.7176 23.1243H28.5552C28.9915 23.1243 29.3455 22.7703 29.3455 22.334V22.1594C31.9152 22.78 33.9661 24.7873 34.6497 27.3473H34.3152C33.8788 27.3473 33.5249 27.7012 33.5249 28.1376V29.9752C33.5249 30.4115 33.8788 30.7655 34.3152 30.7655H36.1527C36.5891 30.7655 36.943 30.4115 36.943 29.9752V28.1376C36.943 27.7012 36.5891 27.3473 36.1527 27.3473H35.4885C34.9212 24.9715 33.3018 22.9982 31.1588 21.9558H35.12C35.1976 22.1788 35.3236 22.3825 35.4933 22.5521C35.7988 22.8673 36.2061 23.0273 36.6279 23.0273C36.8945 23.0273 37.1661 22.9643 37.423 22.8334C37.6994 22.6928 37.9273 22.46 38.063 22.174C38.3782 21.5097 38.2667 20.7873 37.7673 20.2782C37.1321 19.677 36.08 19.6818 35.4739 20.2831ZM19.3333 21.8297C19.2752 21.9461 19.1782 22.0479 19.0618 22.1061C18.64 22.3194 18.2764 22.1837 18.0776 21.9752C17.9273 21.8297 17.8449 21.6309 17.8449 21.4176C17.8449 21.2091 17.9273 21.0103 18.0776 20.8552C18.2279 20.7049 18.4267 20.6225 18.64 20.6225C18.8485 20.6225 19.0521 20.7049 19.1976 20.8503C19.4497 21.1121 19.4982 21.4758 19.3333 21.8297ZM20.9818 29.9509L19.1685 29.9752L19.1442 28.1618H20.9576L20.9818 29.9509ZM36.1382 29.9509L34.3249 29.9752L34.3006 28.1618H36.1139L36.1382 29.9509ZM26.7321 22.3388L26.7224 21.7279C26.7321 21.6843 26.7321 21.6406 26.7273 21.5921V21.5873C26.7273 21.5728 26.737 21.5631 26.737 21.5485C26.737 21.5243 26.7273 21.5049 26.7224 21.4855L26.7079 20.5303H28.5212L28.5358 21.4855C28.5309 21.5097 28.5212 21.5291 28.5212 21.5534C28.5212 21.5679 28.5261 21.5776 28.5309 21.5921V21.597C28.5212 21.66 28.5261 21.7182 28.5406 21.7715L28.5503 22.3194L26.7321 22.3388ZM37.3067 21.8297C37.2485 21.9461 37.1515 22.0479 37.0352 22.1061C36.6133 22.3194 36.2497 22.1837 36.0509 21.9752C35.9006 21.8297 35.8182 21.6309 35.8182 21.4176C35.8182 21.2091 35.9006 21.0103 36.0509 20.8552C36.2012 20.7049 36.4 20.6225 36.6133 20.6225C36.8218 20.6225 37.0255 20.7049 37.1709 20.8503C37.423 21.1121 37.4715 21.4758 37.3067 21.8297Z" fill="#26BB46"/>
</g>
<defs>
<clipPath id="clip0_2751_12982">
<rect width="32" height="32" fill="white" transform="translate(10 10)"/>
</clipPath>
</defs>
</svg>
