<svg width="32" height="32" viewBox="0 0 32 32" fill="none" xmlns="http://www.w3.org/2000/svg">
<path d="M14.245 17.9538L14.3864 18.0952L14.5278 17.9538L20.2612 12.2205C20.5697 11.9119 21.0831 11.9119 21.3917 12.2205C21.7002 12.529 21.7002 13.0424 21.3917 13.351L14.9517 19.791C14.8021 19.9406 14.5994 20.0257 14.3864 20.0257C14.1734 20.0257 13.9708 19.9406 13.8212 19.791L10.5945 16.5643C10.2859 16.2557 10.2859 15.7424 10.5945 15.4338C10.9031 15.1253 11.4164 15.1253 11.725 15.4338L14.245 17.9538Z" fill="black" stroke="white" stroke-width="0.4"/>
<path d="M11.6995 4.47463L11.6995 4.47457C11.5676 4.58175 11.3568 4.6842 11.154 4.75874C10.9518 4.83304 10.7221 4.89268 10.5467 4.89268H8.24001C6.37713 4.89268 4.86667 6.40314 4.86667 8.26602V10.5593C4.86667 10.7333 4.81124 10.9587 4.73787 11.1596C4.66491 11.3594 4.56177 11.5691 4.44491 11.7032L2.64608 13.8218C2.64605 13.8218 2.64602 13.8219 2.64599 13.8219C1.61579 15.0407 1.61579 16.9714 2.64599 18.1901C2.64602 18.1902 2.64605 18.1902 2.64608 18.1902L4.44386 20.3076C4.44421 20.3081 4.44456 20.3085 4.44492 20.3089C4.56178 20.443 4.66491 20.6526 4.73787 20.8524C4.81124 21.0533 4.86667 21.2787 4.86667 21.4527V23.7327C4.86667 25.5956 6.37713 27.106 8.24001 27.106H10.5333C10.7069 27.106 10.9353 27.1612 11.1392 27.2344C11.3419 27.3072 11.5562 27.4105 11.6911 27.5283C11.6913 27.5285 11.6915 27.5286 11.6917 27.5288L13.7968 29.3408C13.7969 29.3409 13.797 29.341 13.7971 29.341C14.4109 29.8671 15.2035 30.1327 16 30.1327C16.7964 30.1327 17.5882 29.8672 18.2014 29.329L18.2029 29.3278L20.3095 27.5144L20.3138 27.5107L20.3139 27.5108C20.4458 27.4036 20.6565 27.3012 20.8593 27.2266C21.0615 27.1523 21.2912 27.0927 21.4667 27.0927H23.7333C25.5962 27.0927 27.1067 25.5822 27.1067 23.7194V21.4527C27.1067 21.277 27.1664 21.0471 27.2428 20.844C27.3191 20.6411 27.4257 20.4286 27.5421 20.2951C27.5424 20.2949 27.5426 20.2946 27.5428 20.2943L29.3548 18.1892L11.6995 4.47463ZM11.6995 4.47463L11.7038 4.47093M11.6995 4.47463L11.7038 4.47093M11.7038 4.47093L13.8102 2.65787M11.7038 4.47093L13.8102 2.65787M13.8102 2.65787C15.0418 1.60216 16.9711 1.60207 18.2029 2.6576L13.8102 2.65787ZM5.66173 12.7222L5.66088 12.7232L3.86123 14.8428C3.86118 14.8429 3.86113 14.8429 3.86108 14.843C3.59161 15.1588 3.46334 15.5807 3.46334 15.9927C3.46334 16.4046 3.59158 16.8265 3.86099 17.1423C3.86107 17.1423 3.86115 17.1424 3.86123 17.1425L5.66027 19.2614C5.66038 19.2615 5.66049 19.2617 5.6606 19.2618C6.12457 19.8138 6.46667 20.7283 6.46667 21.4394V23.7194C6.46667 24.6965 7.26288 25.4927 8.24001 25.4927H10.5467C11.2723 25.4927 12.1991 25.8356 12.7493 26.3107L12.7495 26.3109L14.8562 28.1243L14.8568 28.1248C15.173 28.3947 15.5986 28.5227 16.0133 28.5227C16.428 28.5227 16.8537 28.3947 17.1699 28.1248L17.1705 28.1243L19.2754 26.3124C19.2757 26.3122 19.276 26.3119 19.2763 26.3116C19.8291 25.8473 20.7567 25.4927 21.48 25.4927H23.7467C24.7238 25.4927 25.52 24.6965 25.52 23.7194V21.4527C25.52 20.7271 25.8629 19.8002 26.338 19.2501L26.3383 19.2498L28.1516 17.1432L28.1521 17.1425C28.4221 16.8263 28.55 16.4007 28.55 15.986C28.55 15.5713 28.4221 15.1457 28.1521 14.8295L28.1516 14.8289L26.3383 12.7222L26.338 12.722C25.8629 12.1718 25.52 11.245 25.52 10.5193V8.26602C25.52 7.28889 24.7238 6.49268 23.7467 6.49268H21.48C20.7544 6.49268 19.8275 6.14977 19.2774 5.67465L19.2771 5.67444L17.1705 3.8611L17.1699 3.86057C16.8537 3.59064 16.428 3.46268 16.0133 3.46268C15.5986 3.46268 15.173 3.59064 14.8568 3.86057L14.8557 3.86158L12.7502 5.68723C12.1992 6.14991 11.2589 6.49268 10.5467 6.49268H8.24001C7.26288 6.49268 6.46667 7.28889 6.46667 8.26602V10.546C6.46667 11.2584 6.12367 12.1854 5.66173 12.7222ZM18.2032 2.65787L20.3083 4.46986C20.3085 4.47007 20.3088 4.47027 20.309 4.47047C20.4439 4.58822 20.6581 4.69151 20.8608 4.76425C21.0647 4.83746 21.2932 4.89268 21.4667 4.89268H23.7333C25.5962 4.89268 27.1067 6.40314 27.1067 8.26602V10.5327C27.1067 10.7084 27.1664 10.9382 27.2428 11.1414C27.3191 11.3443 27.4257 11.5568 27.5421 11.6902C27.5424 11.6905 27.5426 11.6908 27.5428 11.691L29.3548 13.7962C29.3549 13.7963 29.355 13.7963 29.355 13.7964C30.4105 15.0281 30.4106 16.9572 29.3551 18.1889L18.2032 2.65787Z" fill="black" stroke="white" stroke-width="0.4"/>
</svg>
