<svg width="255" height="312" viewBox="0 0 255 312" fill="none" xmlns="http://www.w3.org/2000/svg">
<g filter="url(#filter0_d_1743_2324)">
<rect x="73" y="126" width="52.5778" height="52" rx="8" fill="white"/>
<rect x="73.5" y="126.5" width="51.5778" height="51" rx="7.5" stroke="#D2D2D2"/>
</g>
<path d="M97.245 153.954L97.3864 154.095L97.5278 153.954L103.261 148.22C103.57 147.912 104.083 147.912 104.392 148.22C104.7 148.529 104.7 149.042 104.392 149.351L97.9517 155.791C97.8021 155.941 97.5994 156.026 97.3864 156.026C97.1734 156.026 96.9708 155.941 96.8212 155.791L93.5945 152.564C93.2859 152.256 93.2859 151.742 93.5945 151.434C93.9031 151.125 94.4164 151.125 94.725 151.434L97.245 153.954Z" fill="black" stroke="white" stroke-width="0.4"/>
<path d="M94.6995 140.475L94.6995 140.475C94.5676 140.582 94.3568 140.684 94.154 140.759C93.9518 140.833 93.7221 140.893 93.5467 140.893H91.24C89.3771 140.893 87.8667 142.403 87.8667 144.266V146.559C87.8667 146.733 87.8112 146.959 87.7379 147.16C87.6649 147.359 87.5618 147.569 87.4449 147.703L85.6461 149.822C85.646 149.822 85.646 149.822 85.646 149.822C84.6158 151.041 84.6158 152.971 85.646 154.19C85.646 154.19 85.646 154.19 85.6461 154.19L87.4439 156.308C87.4442 156.308 87.4446 156.308 87.4449 156.309C87.5618 156.443 87.6649 156.653 87.7379 156.852C87.8112 157.053 87.8667 157.279 87.8667 157.453V159.733C87.8667 161.596 89.3771 163.106 91.24 163.106H93.5333C93.7069 163.106 93.9353 163.161 94.1392 163.234C94.3419 163.307 94.5562 163.41 94.6911 163.528C94.6913 163.528 94.6915 163.529 94.6917 163.529L96.7968 165.341C96.7969 165.341 96.797 165.341 96.7971 165.341C97.4109 165.867 98.2035 166.133 99 166.133C99.7964 166.133 100.588 165.867 101.201 165.329L101.203 165.328L103.31 163.514L103.314 163.511L103.314 163.511C103.446 163.404 103.657 163.301 103.859 163.227C104.062 163.152 104.291 163.093 104.467 163.093H106.733C108.596 163.093 110.107 161.582 110.107 159.719V157.453C110.107 157.277 110.166 157.047 110.243 156.844C110.319 156.641 110.426 156.429 110.542 156.295C110.542 156.295 110.543 156.295 110.543 156.294L112.355 154.189L94.6995 140.475ZM94.6995 140.475L94.7038 140.471M94.6995 140.475L94.7038 140.471M94.7038 140.471L96.8102 138.658M94.7038 140.471L96.8102 138.658M96.8102 138.658C98.0418 137.602 99.9711 137.602 101.203 138.658L96.8102 138.658ZM88.6617 148.722L88.6609 148.723L86.8612 150.843C86.8612 150.843 86.8611 150.843 86.8611 150.843C86.5916 151.159 86.4633 151.581 86.4633 151.993C86.4633 152.405 86.5916 152.826 86.861 153.142C86.8611 153.142 86.8611 153.142 86.8612 153.143L88.6603 155.261C88.6604 155.262 88.6605 155.262 88.6606 155.262C89.1246 155.814 89.4667 156.728 89.4667 157.439V159.719C89.4667 160.696 90.2629 161.493 91.24 161.493H93.5467C94.2723 161.493 95.1991 161.836 95.7493 162.311L95.7495 162.311L97.8562 164.124L97.8568 164.125C98.173 164.395 98.5986 164.523 99.0133 164.523C99.428 164.523 99.8537 164.395 100.17 164.125L100.17 164.124L102.275 162.312C102.276 162.312 102.276 162.312 102.276 162.312C102.829 161.847 103.757 161.493 104.48 161.493H106.747C107.724 161.493 108.52 160.696 108.52 159.719V157.453C108.52 156.727 108.863 155.8 109.338 155.25L109.338 155.25L111.152 153.143L111.152 153.143C111.422 152.826 111.55 152.401 111.55 151.986C111.55 151.571 111.422 151.146 111.152 150.829L111.152 150.829L109.338 148.722L109.338 148.722C108.863 148.172 108.52 147.245 108.52 146.519V144.266C108.52 143.289 107.724 142.493 106.747 142.493H104.48C103.754 142.493 102.828 142.15 102.277 141.675L102.277 141.674L100.17 139.861L100.17 139.861C99.8537 139.591 99.428 139.463 99.0133 139.463C98.5986 139.463 98.173 139.591 97.8568 139.861L97.8557 139.862L95.7502 141.687C95.1992 142.15 94.2589 142.493 93.5467 142.493H91.24C90.2629 142.493 89.4667 143.289 89.4667 144.266V146.546C89.4667 147.258 89.1237 148.185 88.6617 148.722ZM101.203 138.658L103.308 140.47C103.309 140.47 103.309 140.47 103.309 140.47C103.444 140.588 103.658 140.692 103.861 140.764C104.065 140.837 104.293 140.893 104.467 140.893H106.733C108.596 140.893 110.107 142.403 110.107 144.266V146.533C110.107 146.708 110.166 146.938 110.243 147.141C110.319 147.344 110.426 147.557 110.542 147.69C110.542 147.691 110.543 147.691 110.543 147.691L112.355 149.796C112.355 149.796 112.355 149.796 112.355 149.796C113.411 151.028 113.411 152.957 112.355 154.189L101.203 138.658Z" fill="black" stroke="white" stroke-width="0.4"/>
<defs>
<filter id="filter0_d_1743_2324" x="-56.1" y="0.899994" width="310.778" height="310.2" filterUnits="userSpaceOnUse" color-interpolation-filters="sRGB">
<feFlood flood-opacity="0" result="BackgroundImageFix"/>
<feColorMatrix in="SourceAlpha" type="matrix" values="0 0 0 0 0 0 0 0 0 0 0 0 0 0 0 0 0 0 127 0" result="hardAlpha"/>
<feOffset dy="4"/>
<feGaussianBlur stdDeviation="64.55"/>
<feColorMatrix type="matrix" values="0 0 0 0 0 0 0 0 0 0 0 0 0 0 0 0 0 0 0.04 0"/>
<feBlend mode="normal" in2="BackgroundImageFix" result="effect1_dropShadow_1743_2324"/>
<feBlend mode="normal" in="SourceGraphic" in2="effect1_dropShadow_1743_2324" result="shape"/>
</filter>
</defs>
</svg>
