<svg width="30" height="30" viewBox="0 0 30 30" fill="none" xmlns="http://www.w3.org/2000/svg">
<path d="M13.4381 3.06289C14.3006 2.32539 15.7131 2.32539 16.5881 3.06289L18.5631 4.76289C18.9381 5.08789 19.6381 5.35039 20.1381 5.35039H22.2631C23.5881 5.35039 24.6756 6.43789 24.6756 7.76289V9.88789C24.6756 10.3754 24.9381 11.0879 25.2631 11.4629L26.9631 13.4379C27.7006 14.3004 27.7006 15.7129 26.9631 16.5879L25.2631 18.5629C24.9381 18.9379 24.6756 19.6379 24.6756 20.1379V22.2629C24.6756 23.5879 23.5881 24.6754 22.2631 24.6754H20.1381C19.6506 24.6754 18.9381 24.9379 18.5631 25.2629L16.5881 26.9629C15.7256 27.7004 14.3131 27.7004 13.4381 26.9629L11.4631 25.2629C11.0881 24.9379 10.3881 24.6754 9.88808 24.6754H7.72558C6.40059 24.6754 5.31309 23.5879 5.31309 22.2629V20.1254C5.31309 19.6379 5.05059 18.9379 4.73809 18.5629L3.05059 16.5754C2.32559 15.7129 2.32559 14.3129 3.05059 13.4504L4.73809 11.4629C5.05059 11.0879 5.31309 10.3879 5.31309 9.90039V7.75039C5.31309 6.42539 6.40059 5.33789 7.72558 5.33789H9.88808C10.3756 5.33789 11.0881 5.07539 11.4631 4.75039L13.4381 3.06289Z" fill="#F1F1F1"/>
<path d="M13.4882 18.9621C13.2382 18.9621 13.0007 18.8621 12.8257 18.6871L9.80068 15.6621C9.43818 15.2996 9.43818 14.6996 9.80068 14.3371C10.1632 13.9746 10.7632 13.9746 11.1257 14.3371L13.4882 16.6996L18.8632 11.3246C19.2257 10.9621 19.8257 10.9621 20.1882 11.3246C20.5507 11.6871 20.5507 12.2871 20.1882 12.6496L14.1507 18.6871C13.9757 18.8621 13.7382 18.9621 13.4882 18.9621Z" fill="#008080"/>
</svg>
