<svg width="53" height="52" viewBox="0 0 53 52" fill="none" xmlns="http://www.w3.org/2000/svg">
<rect width="52.5778" height="52" rx="8" fill="#C5E5FF"/>
<path d="M39.3879 23.2553C39.2748 23.2476 39.167 23.2047 39.0795 23.1326C38.9921 23.0606 38.9293 22.963 38.9001 22.8535C38.6209 21.3992 37.856 20.1328 37.2732 18.8333C37.2748 18.6997 37.3228 18.5708 37.4089 18.4686C37.6674 18.157 37.8009 17.7604 37.7833 17.3559C37.7658 16.9514 37.5985 16.5678 37.314 16.2798L35.7205 14.6863C35.4292 14.4079 35.0469 14.2447 34.6444 14.2271C34.2419 14.2094 33.8467 14.3385 33.5322 14.5903C33.4459 14.6655 33.3383 14.7118 33.2245 14.7227C33.1106 14.7337 32.9961 14.7087 32.8972 14.6513C31.7363 13.9395 30.4702 13.4159 29.1457 13.0998C29.0355 13.0698 28.9374 13.006 28.8653 12.9173C28.7933 12.8286 28.7509 12.7195 28.7442 12.6054C28.7089 12.2009 28.5231 11.8243 28.2235 11.5502C27.9239 11.2761 27.5324 11.1243 27.1263 11.125H24.8737C24.4666 11.1247 24.0742 11.2774 23.7744 11.5529C23.4746 11.8284 23.2894 12.2064 23.2553 12.6121C23.2476 12.7252 23.2047 12.833 23.1326 12.9205C23.0606 13.0079 22.963 13.0706 22.8535 13.0998C21.5317 13.4153 20.2681 13.9376 19.1093 14.6474C19.01 14.7061 18.8948 14.7323 18.7799 14.7222C18.665 14.7121 18.5561 14.6662 18.4686 14.5911C18.157 14.3325 17.7604 14.199 17.3559 14.2166C16.9514 14.2341 16.5678 14.4015 16.2798 14.686L14.6863 16.2795C14.4014 16.5672 14.2338 16.9507 14.2161 17.3551C14.1983 17.7596 14.3317 18.1563 14.5903 18.4678C14.6653 18.5541 14.7115 18.6617 14.7224 18.7756C14.7334 18.8894 14.7085 19.0038 14.6513 19.1028C13.9396 20.2637 13.416 21.5298 13.0998 22.8543C13.0698 22.9645 13.006 23.0626 12.9173 23.1347C12.8286 23.2067 12.7195 23.2491 12.6054 23.2558C12.2009 23.2911 11.8243 23.4769 11.5502 23.7765C11.2761 24.0761 11.1243 24.4676 11.125 24.8737V27.1263C11.1247 27.5334 11.2774 27.9258 11.5529 28.2256C11.8283 28.5254 12.2064 28.7106 12.6121 28.7447C12.9693 28.7643 13.1156 29.0923 13.167 29.4041C13.2052 29.5381 13.2946 29.6518 13.4158 29.7206C13.537 29.7894 13.6805 29.8078 13.8151 29.7718C13.9498 29.7359 14.065 29.6484 14.1358 29.5284C14.2066 29.4083 14.2274 29.2652 14.1937 29.1299L14.1333 28.8999C14.0539 28.5725 13.8729 28.2788 13.6162 28.0607C13.3595 27.8427 13.0403 27.7117 12.7045 27.6864C12.5638 27.6747 12.4327 27.6107 12.337 27.507C12.2412 27.4033 12.1879 27.2674 12.1875 27.1263V24.8737C12.1875 24.7336 12.2399 24.5986 12.3343 24.4951C12.4286 24.3916 12.5583 24.3271 12.6977 24.3142C13.0346 24.2899 13.3551 24.1594 13.6131 23.9414C13.8711 23.7234 14.0532 23.4291 14.1333 23.101C14.4238 21.8849 14.9047 20.7223 15.5581 19.6564C15.7312 19.3675 15.8094 19.0317 15.7818 18.6961C15.7543 18.3605 15.6223 18.0419 15.4045 17.7851C15.3124 17.6791 15.2645 17.5418 15.2706 17.4015C15.2767 17.2613 15.3363 17.1286 15.4373 17.031L17.031 15.4373C17.1302 15.3393 17.2623 15.2817 17.4016 15.2756C17.5409 15.2695 17.6775 15.3154 17.7848 15.4043C18.043 15.6204 18.3618 15.7511 18.6974 15.7784C19.0329 15.8058 19.3687 15.7285 19.6585 15.5571C20.7235 14.9041 21.8851 14.4235 23.1002 14.1333C23.4275 14.0539 23.7213 13.8729 23.9393 13.6162C24.1573 13.3595 24.2884 13.0403 24.3136 12.7045C24.3253 12.5638 24.3893 12.4327 24.493 12.337C24.5967 12.2412 24.7326 12.1879 24.8737 12.1875H27.1263C27.2664 12.1875 27.4014 12.2399 27.5049 12.3343C27.6084 12.4286 27.6729 12.5583 27.6858 12.6977C27.7101 13.0346 27.8406 13.3551 28.0586 13.6131C28.2766 13.8711 28.5709 14.0532 28.899 14.1333C30.1152 14.4237 31.2777 14.9046 32.3436 15.5581C32.6325 15.7312 32.9683 15.8095 33.3039 15.7819C33.6396 15.7544 33.9581 15.6224 34.2149 15.4045C34.321 15.3126 34.4582 15.2647 34.5985 15.2708C34.7387 15.2769 34.8713 15.3364 34.969 15.4373L36.5627 17.031C36.6607 17.1302 36.7183 17.2623 36.7244 17.4016C36.7305 17.5409 36.6846 17.6775 36.5957 17.7848C36.3773 18.0418 36.2451 18.3609 36.2177 18.697C36.1903 19.0332 36.269 19.3695 36.4429 19.6585C37.0958 20.7235 37.5764 21.8851 37.8667 23.1002C37.9461 23.4275 38.1271 23.7213 38.3838 23.9393C38.6405 24.1573 38.9597 24.2884 39.2955 24.3136C39.4362 24.3253 39.5673 24.3893 39.663 24.493C39.7588 24.5967 39.8121 24.7326 39.8125 24.8737V27.1263C39.8125 27.2664 39.7601 27.4014 39.6657 27.5049C39.5714 27.6084 39.4417 27.6729 39.3023 27.6858C38.9675 27.7093 38.6487 27.8379 38.3915 28.0535C38.1343 28.269 37.9518 28.5603 37.8702 28.8858C37.7074 29.3047 37.795 29.7626 38.3199 29.7986C38.6955 29.807 38.8434 29.4635 38.9002 29.1457C38.9302 29.0355 38.994 28.9374 39.0827 28.8653C39.1714 28.7933 39.2805 28.7509 39.3946 28.7442C39.7991 28.7089 40.1757 28.5231 40.4498 28.2235C40.7239 27.9239 40.8757 27.5324 40.875 27.1263V24.8737C40.8753 24.4666 40.7226 24.0742 40.4471 23.7744C40.1716 23.4746 39.7936 23.2894 39.3879 23.2553Z" fill="#1769AA"/>
<path d="M33.8782 29.7192C33.9836 29.7192 34.0866 29.6879 34.1742 29.6292C34.2617 29.5705 34.3298 29.4871 34.3698 29.3895C34.81 28.314 35.0348 27.1624 35.0313 26.0003C34.5371 14.0225 17.4648 14.019 16.9687 26.0003C16.9687 26.7146 17.2397 30.1357 18.3233 29.679C18.3879 29.6525 18.4465 29.6136 18.496 29.5644C18.5455 29.5152 18.5848 29.4568 18.6117 29.3924C18.6386 29.3281 18.6525 29.259 18.6527 29.1893C18.6529 29.1195 18.6393 29.0504 18.6128 28.9859C18.2254 28.0384 18.0278 27.0239 18.0313 26.0002C18.0336 23.8875 18.8739 21.8621 20.3678 20.3682C21.8617 18.8743 23.8872 18.0339 25.9999 18.0316C31.532 17.9179 35.5548 23.9172 33.3872 28.9859C33.3547 29.0666 33.3425 29.154 33.3515 29.2405C33.3605 29.327 33.3906 29.41 33.4389 29.4823C33.4873 29.5546 33.5527 29.6139 33.6292 29.6552C33.7058 29.6965 33.7912 29.7185 33.8782 29.7192Z" fill="#1769AA"/>
<path d="M37.1562 30.7812H14.8438C14.4212 30.7817 14.0161 30.9498 13.7173 31.2486C13.4185 31.5473 13.2505 31.9525 13.25 32.375V39.2812C13.2505 39.7038 13.4185 40.1089 13.7173 40.4077C14.0161 40.7065 14.4212 40.8745 14.8438 40.875H37.1562C37.5788 40.8745 37.9839 40.7065 38.2827 40.4077C38.5815 40.1089 38.7495 39.7038 38.75 39.2812V32.375C38.7495 31.9525 38.5815 31.5473 38.2827 31.2486C37.9839 30.9498 37.5788 30.7817 37.1562 30.7812ZM37.6875 39.2812C37.6873 39.4221 37.6313 39.5571 37.5317 39.6567C37.4321 39.7563 37.2971 39.8123 37.1562 39.8125H14.8438C14.7029 39.8123 14.5679 39.7563 14.4683 39.6567C14.3687 39.5571 14.3127 39.4221 14.3125 39.2812V32.375C14.3127 32.2342 14.3687 32.0991 14.4683 31.9996C14.5679 31.9 14.7029 31.8439 14.8438 31.8438H37.1562C37.2971 31.8439 37.4321 31.9 37.5317 31.9996C37.6313 32.0991 37.6873 32.2342 37.6875 32.375V39.2812Z" fill="#1769AA"/>
</svg>
