<svg width="23" height="19" viewBox="0 0 23 19" fill="none" xmlns="http://www.w3.org/2000/svg">
<path d="M20.8745 2.32873C20.8745 2.32873 19.1857 3.32643 18.2466 3.60921C17.7425 3.02966 17.0727 2.61888 16.3276 2.43244C15.5825 2.24601 14.7981 2.2929 14.0805 2.56679C13.363 2.84068 12.7467 3.32834 12.3154 3.96382C11.884 4.59931 11.6582 5.35194 11.6685 6.11995V6.95687C10.1977 6.995 8.74032 6.66881 7.42615 6.00734C6.11197 5.34587 4.98178 4.36966 4.13623 3.16565C4.13623 3.16565 0.788574 10.6979 8.3208 14.0456C6.5972 15.2155 4.54394 15.8022 2.4624 15.7194C9.99463 19.904 19.2007 15.7194 19.2007 6.09485C19.1999 5.86172 19.1775 5.62918 19.1337 5.40021C19.9879 4.55784 20.8745 2.32873 20.8745 2.32873Z" stroke="#F1F1F1" stroke-width="2.08574" stroke-linecap="round" stroke-linejoin="round"/>
</svg>
