<svg width="32" height="32" viewBox="0 0 32 32" fill="none" xmlns="http://www.w3.org/2000/svg">
<path d="M16.0004 0.400391C7.39803 0.400391 0.400391 7.3987 0.400391 16.0004C0.400391 24.6021 7.39803 31.6004 16.0004 31.6004C24.6028 31.6004 31.6004 24.6021 31.6004 16.0004C31.6004 7.3987 24.6028 0.400391 16.0004 0.400391ZM16.0004 30.3004C8.11532 30.3004 1.70037 23.8855 1.70037 16.0004C1.70037 8.11532 8.11532 1.70037 16.0004 1.70037C23.8855 1.70037 30.3004 8.11532 30.3004 16.0004C30.3004 23.8855 23.8855 30.3004 16.0004 30.3004Z" fill="#111827"/>
<path d="M12.7504 6.90039H8.85039C7.77509 6.90039 6.90039 7.77509 6.90039 8.85039V12.7504C6.90039 13.8257 7.77509 14.7004 8.85039 14.7004H12.7504C13.8257 14.7004 14.7004 13.8257 14.7004 12.7504V8.85039C14.7004 7.77509 13.8257 6.90039 12.7504 6.90039ZM13.4003 12.7504C13.4003 13.109 13.1083 13.4004 12.7503 13.4004H8.85033C8.49232 13.4004 8.20031 13.1091 8.20031 12.7504V8.85039C8.20031 8.49177 8.49232 8.20037 8.85033 8.20037H12.7503C13.1083 8.20037 13.4003 8.49171 13.4003 8.85039V12.7504Z" fill="#111827"/>
<path d="M23.1503 6.90039H19.2503C18.175 6.90039 17.3003 7.77509 17.3003 8.85039V12.7504C17.3003 13.8257 18.175 14.7004 19.2503 14.7004H23.1503C24.2256 14.7004 25.1003 13.8257 25.1003 12.7504V8.85039C25.1003 7.77509 24.2256 6.90039 23.1503 6.90039ZM23.8003 12.7504C23.8003 13.109 23.5083 13.4004 23.1503 13.4004H19.2503C18.8923 13.4004 18.6003 13.1091 18.6003 12.7504V8.85039C18.6003 8.49177 18.8923 8.20037 19.2503 8.20037H23.1503C23.5083 8.20037 23.8003 8.49171 23.8003 8.85039V12.7504Z" fill="#111827"/>
<path d="M12.7504 17.3008H8.85039C7.77509 17.3008 6.90039 18.1755 6.90039 19.2508V23.1508C6.90039 24.2261 7.77509 25.1008 8.85039 25.1008H12.7504C13.8257 25.1008 14.7004 24.2261 14.7004 23.1508V19.2508C14.7004 18.1755 13.8257 17.3008 12.7504 17.3008ZM13.4003 23.1508C13.4003 23.5094 13.1083 23.8008 12.7503 23.8008H8.85033C8.49232 23.8008 8.20031 23.5095 8.20031 23.1508V19.2508C8.20031 18.8922 8.49232 18.6008 8.85033 18.6008H12.7503C13.1083 18.6008 13.4003 18.8921 13.4003 19.2508V23.1508Z" fill="#111827"/>
<path d="M23.1503 17.3008H19.2503C18.175 17.3008 17.3003 18.1755 17.3003 19.2508V23.1508C17.3003 24.2261 18.175 25.1008 19.2503 25.1008H23.1503C24.2256 25.1008 25.1003 24.2261 25.1003 23.1508V19.2508C25.1003 18.1755 24.2256 17.3008 23.1503 17.3008ZM23.8003 23.1508C23.8003 23.5094 23.5083 23.8008 23.1503 23.8008H19.2503C18.8923 23.8008 18.6003 23.5095 18.6003 23.1508V19.2508C18.6003 18.8922 18.8923 18.6008 19.2503 18.6008H23.1503C23.5083 18.6008 23.8003 18.8921 23.8003 19.2508V23.1508Z" fill="#111827"/>
</svg>
