<svg width="312" height="312" viewBox="0 0 312 312" fill="none" xmlns="http://www.w3.org/2000/svg">
<g filter="url(#filter0_d_1796_1102)">
<rect x="130" y="126" width="52.5778" height="52" rx="8" fill="white"/>
<rect x="130.5" y="126.5" width="51.5778" height="51" rx="7.5" stroke="#D2D2D2"/>
</g>
<path d="M156 136.4C147.398 136.4 140.4 143.399 140.4 152C140.4 160.602 147.398 167.6 156 167.6C164.603 167.6 171.6 160.602 171.6 152C171.6 143.399 164.603 136.4 156 136.4ZM156 166.3C148.115 166.3 141.7 159.885 141.7 152C141.7 144.115 148.115 137.7 156 137.7C163.885 137.7 170.3 144.115 170.3 152C170.3 159.885 163.885 166.3 156 166.3Z" fill="#111827"/>
<path d="M152.75 142.9H148.85C147.775 142.9 146.9 143.775 146.9 144.85V148.75C146.9 149.826 147.775 150.7 148.85 150.7H152.75C153.826 150.7 154.7 149.826 154.7 148.75V144.85C154.7 143.775 153.826 142.9 152.75 142.9ZM153.4 148.75C153.4 149.109 153.108 149.4 152.75 149.4H148.85C148.492 149.4 148.2 149.109 148.2 148.75V144.85C148.2 144.492 148.492 144.2 148.85 144.2H152.75C153.108 144.2 153.4 144.492 153.4 144.85V148.75Z" fill="#111827"/>
<path d="M163.15 142.9H159.25C158.175 142.9 157.3 143.775 157.3 144.85V148.75C157.3 149.826 158.175 150.7 159.25 150.7H163.15C164.226 150.7 165.1 149.826 165.1 148.75V144.85C165.1 143.775 164.226 142.9 163.15 142.9ZM163.8 148.75C163.8 149.109 163.508 149.4 163.15 149.4H159.25C158.892 149.4 158.6 149.109 158.6 148.75V144.85C158.6 144.492 158.892 144.2 159.25 144.2H163.15C163.508 144.2 163.8 144.492 163.8 144.85V148.75Z" fill="#111827"/>
<path d="M152.75 153.301H148.85C147.775 153.301 146.9 154.175 146.9 155.251V159.151C146.9 160.226 147.775 161.101 148.85 161.101H152.75C153.826 161.101 154.7 160.226 154.7 159.151V155.251C154.7 154.176 153.826 153.301 152.75 153.301ZM153.4 159.151C153.4 159.509 153.108 159.801 152.75 159.801H148.85C148.492 159.801 148.2 159.509 148.2 159.151V155.251C148.2 154.892 148.492 154.601 148.85 154.601H152.75C153.108 154.601 153.4 154.892 153.4 155.251V159.151Z" fill="#111827"/>
<path d="M163.15 153.301H159.25C158.175 153.301 157.3 154.175 157.3 155.251V159.151C157.3 160.226 158.175 161.101 159.25 161.101H163.15C164.226 161.101 165.1 160.226 165.1 159.151V155.251C165.1 154.176 164.226 153.301 163.15 153.301ZM163.8 159.151C163.8 159.509 163.508 159.801 163.15 159.801H159.25C158.892 159.801 158.6 159.509 158.6 159.151V155.251C158.6 154.892 158.892 154.601 159.25 154.601H163.15C163.508 154.601 163.8 154.892 163.8 155.251V159.151Z" fill="#111827"/>
<defs>
<filter id="filter0_d_1796_1102" x="0.899994" y="0.899994" width="310.778" height="310.2" filterUnits="userSpaceOnUse" color-interpolation-filters="sRGB">
<feFlood flood-opacity="0" result="BackgroundImageFix"/>
<feColorMatrix in="SourceAlpha" type="matrix" values="0 0 0 0 0 0 0 0 0 0 0 0 0 0 0 0 0 0 127 0" result="hardAlpha"/>
<feOffset dy="4"/>
<feGaussianBlur stdDeviation="64.55"/>
<feColorMatrix type="matrix" values="0 0 0 0 0 0 0 0 0 0 0 0 0 0 0 0 0 0 0.04 0"/>
<feBlend mode="normal" in2="BackgroundImageFix" result="effect1_dropShadow_1796_1102"/>
<feBlend mode="normal" in="SourceGraphic" in2="effect1_dropShadow_1796_1102" result="shape"/>
</filter>
</defs>
</svg>
