<svg width="106" height="33" viewBox="0 0 106 33" fill="none" xmlns="http://www.w3.org/2000/svg">
<path d="M11.453 24.0726C12.3354 24.7333 12.9471 25.5834 13.2108 26.5154C13.4744 27.4474 13.3782 28.4194 12.9343 29.3088C12.4903 30.198 11.7185 30.9648 10.7165 31.5118C9.71445 32.0587 8.52711 32.3619 7.30453 32.3823C6.08195 32.4028 4.87901 32.1402 3.84772 31.6272C2.8164 31.1145 2.00305 30.3745 1.51041 29.501C1.01777 28.6273 0.868001 27.6594 1.07995 26.7194C1.29194 25.7794 1.85614 24.9096 2.70133 24.2198C2.83556 24.11 2.973 24.0028 3.09448 23.883C4.40816 22.5958 4.34105 21.1613 3.09448 20.0237C2.96981 19.9089 2.83556 19.7967 2.70133 19.6869C2.006 19.1155 1.50046 18.42 1.22885 17.661C0.957244 16.902 0.927838 16.1027 1.14322 15.3328C1.35857 14.5629 1.81215 13.8459 2.46433 13.2443C3.11652 12.6427 3.94749 12.1749 4.88466 11.8817C5.82183 11.5885 6.83673 11.4789 7.84071 11.5623C8.8447 11.6457 9.80725 11.9197 10.6443 12.3604C11.4814 12.801 12.1675 13.3949 12.6428 14.0902C13.118 14.7854 13.368 15.5609 13.3708 16.3489C13.3772 16.9961 13.2137 17.6374 12.8905 18.2333C12.5673 18.8293 12.0911 19.3673 11.4913 19.8141L11.4722 19.8316C9.87397 21.306 9.95067 22.718 11.4722 24.0726H11.453Z" fill="#174A73"/>
<path d="M7.1745 10.0424C10.5921 10.0424 13.3627 7.88001 13.3627 5.21259C13.3627 2.54517 10.5921 0.382812 7.1745 0.382812C3.75686 0.382812 0.986328 2.54517 0.986328 5.21259C0.986328 7.88001 3.75686 10.0424 7.1745 10.0424Z" fill="#1769AA"/>
<path d="M13.3621 16.3566C13.3685 17.0038 13.205 17.6451 12.8818 18.241C12.5585 18.837 12.0824 19.375 11.4826 19.8218L11.4634 19.8393C10.0474 21.144 9.94516 22.4014 10.9936 23.6113L3.00266 19.959C2.90037 19.8692 2.79489 19.7819 2.68301 19.6946C1.99005 19.1226 1.48683 18.4269 1.21723 17.6684C0.947609 16.9098 0.919825 16.1112 1.13623 15.3423C1.35266 14.5734 1.80669 13.8575 2.45885 13.257C3.11097 12.6564 3.9414 12.1895 4.87773 11.8968C5.81409 11.6041 6.82794 11.4946 7.83093 11.5778C8.83392 11.661 9.7956 11.9344 10.6322 12.3742C11.4688 12.814 12.1549 13.4067 12.6307 14.1009C13.1065 14.795 13.3576 15.5694 13.3621 16.3566Z" fill="#1769AA"/>
<path d="M30.0557 26.5508V6.51254H34.6931V26.5508H30.0557ZM43.6888 26.5508V10.2912H37.2766V6.51254H54.7385V10.2912H48.3262V26.5508H43.6888ZM63.0859 26.7798C61.3301 26.7798 59.7843 26.4363 58.4484 25.7493C57.1316 25.0622 56.1107 24.1271 55.3855 22.9439C54.6603 21.7416 54.2977 20.3771 54.2977 18.8504C54.2977 17.3046 54.6507 15.9401 55.3568 14.7568C56.082 13.5546 57.0649 12.6194 58.3053 11.9515C59.5458 11.2645 60.9485 10.921 62.5133 10.921C64.021 10.921 65.376 11.2454 66.5782 11.8942C67.7996 12.524 68.7634 13.44 69.4695 14.6423C70.1756 15.8256 70.5286 17.2473 70.5286 18.9076C70.5286 19.0794 70.5191 19.2798 70.5 19.5088C70.4809 19.7187 70.4618 19.9191 70.4428 20.1099H57.9332V17.5049H68.0954L66.3779 18.2779C66.3779 17.4763 66.2157 16.7798 65.8912 16.1881C65.5668 15.5965 65.1183 15.1385 64.5458 14.8141C63.9733 14.4706 63.3053 14.2988 62.542 14.2988C61.7786 14.2988 61.1011 14.4706 60.5095 14.8141C59.937 15.1385 59.4885 15.6061 59.1641 16.2168C58.8397 16.8084 58.6775 17.5145 58.6775 18.3351V19.0221C58.6775 19.8618 58.8588 20.6061 59.2214 21.255C59.603 21.8847 60.1278 22.3714 60.7958 22.7149C61.4828 23.0393 62.2843 23.2015 63.2004 23.2015C64.021 23.2015 64.7366 23.0775 65.3473 22.8294C65.9771 22.5813 66.5496 22.2092 67.0649 21.713L69.4409 24.2893C68.7347 25.0909 67.8473 25.7111 66.7786 26.15C65.7099 26.5699 64.479 26.7798 63.0859 26.7798ZM80.9195 26.7798C79.2782 26.7798 77.8183 26.4363 76.5397 25.7493C75.2801 25.0622 74.2782 24.1271 73.5339 22.9439C72.8087 21.7416 72.4461 20.3771 72.4461 18.8504C72.4461 17.3046 72.8087 15.9401 73.5339 14.7568C74.2782 13.5546 75.2801 12.6194 76.5397 11.9515C77.8183 11.2645 79.2782 10.921 80.9195 10.921C82.5416 10.921 83.992 11.2645 85.2706 11.9515C86.5492 12.6194 87.5512 13.545 88.2764 14.7282C89.0015 15.9114 89.3641 17.2855 89.3641 18.8504C89.3641 20.3771 89.0015 21.7416 88.2764 22.9439C87.5512 24.1271 86.5492 25.0622 85.2706 25.7493C83.992 26.4363 82.5416 26.7798 80.9195 26.7798ZM80.9195 23.1157C81.6637 23.1157 82.3317 22.9439 82.9233 22.6004C83.5149 22.2569 83.9824 21.7702 84.326 21.1405C84.6695 20.4916 84.8412 19.7282 84.8412 18.8504C84.8412 17.9534 84.6695 17.1901 84.326 16.5603C83.9824 15.9305 83.5149 15.4439 82.9233 15.1004C82.3317 14.7568 81.6637 14.5851 80.9195 14.5851C80.1752 14.5851 79.5072 14.7568 78.9156 15.1004C78.324 15.4439 77.8469 15.9305 77.4843 16.5603C77.1408 17.1901 76.9691 17.9534 76.9691 18.8504C76.9691 19.7282 77.1408 20.4916 77.4843 21.1405C77.8469 21.7702 78.324 22.2569 78.9156 22.6004C79.5072 22.9439 80.1752 23.1157 80.9195 23.1157ZM97.6198 26.7798C96.3031 26.7798 95.034 26.6271 93.8126 26.3218C92.6103 25.9973 91.6561 25.5966 90.95 25.1195L92.4385 21.9134C93.1446 22.3523 93.9748 22.7149 94.929 23.0012C95.9023 23.2683 96.8565 23.4019 97.7916 23.4019C98.8221 23.4019 99.5473 23.2779 99.9672 23.0298C100.406 22.7817 100.626 22.4382 100.626 21.9992C100.626 21.6366 100.454 21.3695 100.11 21.1977C99.7859 21.0069 99.347 20.8637 98.7935 20.7683C98.2401 20.6729 97.6294 20.5775 96.9614 20.4821C96.3126 20.3866 95.6542 20.2626 94.9863 20.1099C94.3183 19.9382 93.7076 19.6901 93.1542 19.3656C92.6007 19.0412 92.1523 18.6023 91.8088 18.0488C91.4843 17.4954 91.3221 16.7798 91.3221 15.9019C91.3221 14.9286 91.5988 14.0698 92.1523 13.3255C92.7248 12.5813 93.5454 11.9992 94.6141 11.5794C95.6828 11.1404 96.9614 10.921 98.45 10.921C99.4996 10.921 100.568 11.0355 101.656 11.2645C102.744 11.4935 103.65 11.8274 104.376 12.2664L102.887 15.4439C102.143 15.0049 101.389 14.7091 100.626 14.5565C99.8813 14.3847 99.1561 14.2988 98.45 14.2988C97.4576 14.2988 96.7324 14.4324 96.2744 14.6996C95.8164 14.9668 95.5874 15.3103 95.5874 15.7301C95.5874 16.1118 95.7496 16.3981 96.074 16.5889C96.4176 16.7798 96.866 16.9324 97.4195 17.0469C97.9729 17.1614 98.5741 17.2664 99.2229 17.3618C99.8908 17.4382 100.559 17.5622 101.227 17.734C101.895 17.9057 102.496 18.1538 103.03 18.4782C103.584 18.7836 104.032 19.213 104.376 19.7664C104.719 20.3008 104.891 21.0069 104.891 21.8847C104.891 22.8389 104.605 23.6882 104.032 24.4325C103.46 25.1576 102.629 25.7302 101.542 26.15C100.473 26.5699 99.1657 26.7798 97.6198 26.7798Z" fill="#1769AA"/>
</svg>
