<svg width="109" height="27" viewBox="0 0 109 27" fill="none" xmlns="http://www.w3.org/2000/svg">
<path d="M0 2.08536V12.4798C4.87917 9.55629 7.31876 13.1294 12.1979 18.0019C16.225 22.0235 17.9919 23.1991 21.0414 23.1992H25.6156V19.3012C22.1596 15.9447 14.3326 8.25689 10.9781 4.68388C7.77246 1.26931 3.65938 2.08534 0 2.08536Z" fill="#008080"/>
<path d="M25.5846 12.8053L14.2156 2.08594H25.5846V12.8053Z" fill="#1769AA"/>
<path d="M0.180919 20.1697C0.161294 19.7544 0.234721 19.3393 0.396642 18.9499C0.558562 18.5604 0.805557 18.205 1.12242 17.9054L1.13246 17.8938C1.87432 17.0262 1.89892 16.2169 1.29545 15.4624L5.75638 17.6374C5.81456 17.6928 5.87442 17.7466 5.93778 17.8003C6.33098 18.1528 6.62351 18.5887 6.78984 19.0699C6.95618 19.5511 6.99127 20.0632 6.89208 20.5613C6.79288 21.0595 6.56242 21.5287 6.22074 21.9281C5.87907 22.3274 5.43657 22.6448 4.93182 22.8525C4.42705 23.0603 3.87534 23.1521 3.32476 23.12C2.77419 23.0878 2.24147 22.9327 1.77301 22.6682C1.30455 22.4037 0.914576 22.0377 0.637083 21.6022C0.359591 21.1667 0.20298 20.6749 0.180919 20.1697Z" fill="#174A73"/>
<path d="M31.992 22V5.2H35.208L45.12 17.296H43.56V5.2H47.4V22H44.208L34.272 9.904H35.832V22H31.992ZM54.9798 22V8.368H49.6038V5.2H64.2438V8.368H58.8678V22H54.9798ZM71.2923 22.192C69.8203 22.192 68.5243 21.904 67.4043 21.328C66.3003 20.752 65.4443 19.968 64.8363 18.976C64.2283 17.968 63.9243 16.824 63.9243 15.544C63.9243 14.248 64.2203 13.104 64.8123 12.112C65.4203 11.104 66.2443 10.32 67.2843 9.76C68.3243 9.184 69.5003 8.896 70.8123 8.896C72.0763 8.896 73.2123 9.168 74.2203 9.712C75.2443 10.24 76.0523 11.008 76.6443 12.016C77.2363 13.008 77.5323 14.2 77.5323 15.592C77.5323 15.736 77.5243 15.904 77.5083 16.096C77.4923 16.272 77.4763 16.44 77.4603 16.6H66.9723V14.416H75.4923L74.0523 15.064C74.0523 14.392 73.9163 13.808 73.6443 13.312C73.3723 12.816 72.9963 12.432 72.5163 12.16C72.0363 11.872 71.4763 11.728 70.8363 11.728C70.1963 11.728 69.6283 11.872 69.1323 12.16C68.6523 12.432 68.2763 12.824 68.0043 13.336C67.7323 13.832 67.5963 14.424 67.5963 15.112V15.688C67.5963 16.392 67.7483 17.016 68.0523 17.56C68.3723 18.088 68.8123 18.496 69.3723 18.784C69.9483 19.056 70.6203 19.192 71.3883 19.192C72.0763 19.192 72.6763 19.088 73.1883 18.88C73.7163 18.672 74.1963 18.36 74.6283 17.944L76.6203 20.104C76.0283 20.776 75.2843 21.296 74.3883 21.664C73.4923 22.016 72.4603 22.192 71.2923 22.192ZM86.2939 22.192C84.9179 22.192 83.6939 21.904 82.6219 21.328C81.5659 20.752 80.7259 19.968 80.1019 18.976C79.4939 17.968 79.1899 16.824 79.1899 15.544C79.1899 14.248 79.4939 13.104 80.1019 12.112C80.7259 11.104 81.5659 10.32 82.6219 9.76C83.6939 9.184 84.9179 8.896 86.2939 8.896C87.6539 8.896 88.8699 9.184 89.9419 9.76C91.0139 10.32 91.8539 11.096 92.4619 12.088C93.0699 13.08 93.3739 14.232 93.3739 15.544C93.3739 16.824 93.0699 17.968 92.4619 18.976C91.8539 19.968 91.0139 20.752 89.9419 21.328C88.8699 21.904 87.6539 22.192 86.2939 22.192ZM86.2939 19.12C86.9179 19.12 87.4779 18.976 87.9739 18.688C88.4699 18.4 88.8619 17.992 89.1499 17.464C89.4379 16.92 89.5819 16.28 89.5819 15.544C89.5819 14.792 89.4379 14.152 89.1499 13.624C88.8619 13.096 88.4699 12.688 87.9739 12.4C87.4779 12.112 86.9179 11.968 86.2939 11.968C85.6699 11.968 85.1099 12.112 84.6139 12.4C84.1179 12.688 83.7179 13.096 83.4139 13.624C83.1259 14.152 82.9819 14.792 82.9819 15.544C82.9819 16.28 83.1259 16.92 83.4139 17.464C83.7179 17.992 84.1179 18.4 84.6139 18.688C85.1099 18.976 85.6699 19.12 86.2939 19.12ZM100.345 22.192C99.2414 22.192 98.1774 22.064 97.1534 21.808C96.1454 21.536 95.3454 21.2 94.7534 20.8L96.0014 18.112C96.5934 18.48 97.2894 18.784 98.0894 19.024C98.9054 19.248 99.7054 19.36 100.489 19.36C101.353 19.36 101.961 19.256 102.313 19.048C102.681 18.84 102.865 18.552 102.865 18.184C102.865 17.88 102.721 17.656 102.433 17.512C102.161 17.352 101.793 17.232 101.329 17.152C100.865 17.072 100.353 16.992 99.7934 16.912C99.2494 16.832 98.6974 16.728 98.1374 16.6C97.5774 16.456 97.0654 16.248 96.6014 15.976C96.1374 15.704 95.7614 15.336 95.4734 14.872C95.2014 14.408 95.0654 13.808 95.0654 13.072C95.0654 12.256 95.2974 11.536 95.7614 10.912C96.2414 10.288 96.9294 9.8 97.8254 9.448C98.7214 9.08 99.7934 8.896 101.041 8.896C101.921 8.896 102.817 8.992 103.729 9.184C104.641 9.376 105.401 9.656 106.009 10.024L104.761 12.688C104.137 12.32 103.505 12.072 102.865 11.944C102.241 11.8 101.633 11.728 101.041 11.728C100.209 11.728 99.6014 11.84 99.2174 12.064C98.8334 12.288 98.6414 12.576 98.6414 12.928C98.6414 13.248 98.7774 13.488 99.0494 13.648C99.3374 13.808 99.7134 13.936 100.177 14.032C100.641 14.128 101.145 14.216 101.689 14.296C102.249 14.36 102.809 14.464 103.369 14.608C103.929 14.752 104.433 14.96 104.881 15.232C105.345 15.488 105.721 15.848 106.009 16.312C106.297 16.76 106.441 17.352 106.441 18.088C106.441 18.888 106.201 19.6 105.721 20.224C105.241 20.832 104.545 21.312 103.633 21.664C102.737 22.016 101.641 22.192 100.345 22.192Z" fill="#1769AA"/>
</svg>
