<svg width="67" height="16" viewBox="0 0 67 16" fill="none" xmlns="http://www.w3.org/2000/svg">
<path d="M0.437346 15.5V0.566665H3.29601L12.1067 11.3187H10.72V0.566665H14.1333V15.5H11.296L2.46401 4.748H3.85068V15.5H0.437346ZM20.871 15.5V3.38267H16.0923V0.566665H29.1056V3.38267H24.327V15.5H20.871ZM35.3709 15.6707C34.0625 15.6707 32.9105 15.4147 31.9149 14.9027C30.9336 14.3907 30.1727 13.6938 29.6322 12.812C29.0918 11.916 28.8216 10.8991 28.8216 9.76133C28.8216 8.60933 29.0847 7.59244 29.6109 6.71067C30.1514 5.81467 30.8838 5.11778 31.8082 4.62C32.7327 4.108 33.778 3.852 34.9442 3.852C36.0678 3.852 37.0776 4.09378 37.9736 4.57733C38.8838 5.04667 39.602 5.72933 40.1282 6.62533C40.6545 7.50711 40.9176 8.56667 40.9176 9.804C40.9176 9.932 40.9105 10.0813 40.8962 10.252C40.882 10.4084 40.8678 10.5578 40.8536 10.7H31.5309V8.75867H39.1042L37.8242 9.33467C37.8242 8.73733 37.7034 8.21822 37.4616 7.77733C37.2198 7.33644 36.8856 6.99511 36.4589 6.75333C36.0322 6.49733 35.5345 6.36933 34.9656 6.36933C34.3967 6.36933 33.8918 6.49733 33.4509 6.75333C33.0242 6.99511 32.69 7.34355 32.4482 7.79867C32.2065 8.23955 32.0856 8.76578 32.0856 9.37733V9.88933C32.0856 10.5151 32.2207 11.0698 32.4909 11.5533C32.7754 12.0227 33.1665 12.3853 33.6642 12.6413C34.1762 12.8831 34.7736 13.004 35.4562 13.004C36.0678 13.004 36.6011 12.9116 37.0562 12.7267C37.5256 12.5418 37.9522 12.2644 38.3362 11.8947L40.1069 13.8147C39.5807 14.412 38.9194 14.8742 38.1229 15.2013C37.3265 15.5142 36.4091 15.6707 35.3709 15.6707ZM48.7057 15.6707C47.4826 15.6707 46.3946 15.4147 45.4417 14.9027C44.503 14.3907 43.7564 13.6938 43.2017 12.812C42.6612 11.916 42.391 10.8991 42.391 9.76133C42.391 8.60933 42.6612 7.59244 43.2017 6.71067C43.7564 5.81467 44.503 5.11778 45.4417 4.62C46.3946 4.108 47.4826 3.852 48.7057 3.852C49.9146 3.852 50.9955 4.108 51.9484 4.62C52.9012 5.11778 53.6479 5.80755 54.1884 6.68933C54.7288 7.57111 54.999 8.59511 54.999 9.76133C54.999 10.8991 54.7288 11.916 54.1884 12.812C53.6479 13.6938 52.9012 14.3907 51.9484 14.9027C50.9955 15.4147 49.9146 15.6707 48.7057 15.6707ZM48.7057 12.94C49.2604 12.94 49.7581 12.812 50.199 12.556C50.6399 12.3 50.9884 11.9373 51.2444 11.468C51.5004 10.9844 51.6284 10.4156 51.6284 9.76133C51.6284 9.09289 51.5004 8.524 51.2444 8.05467C50.9884 7.58533 50.6399 7.22267 50.199 6.96667C49.7581 6.71067 49.2604 6.58267 48.7057 6.58267C48.151 6.58267 47.6532 6.71067 47.2124 6.96667C46.7715 7.22267 46.4159 7.58533 46.1457 8.05467C45.8897 8.524 45.7617 9.09289 45.7617 9.76133C45.7617 10.4156 45.8897 10.9844 46.1457 11.468C46.4159 11.9373 46.7715 12.3 47.2124 12.556C47.6532 12.812 48.151 12.94 48.7057 12.94ZM61.196 15.6707C60.2146 15.6707 59.2689 15.5569 58.3586 15.3293C57.4626 15.0876 56.7515 14.7889 56.2253 14.4333L57.3346 12.044C57.8609 12.3711 58.4795 12.6413 59.1906 12.8547C59.916 13.0538 60.6271 13.1533 61.324 13.1533C62.092 13.1533 62.6324 13.0609 62.9453 12.876C63.2724 12.6911 63.436 12.4351 63.436 12.108C63.436 11.8378 63.308 11.6387 63.052 11.5107C62.8102 11.3684 62.4831 11.2618 62.0706 11.1907C61.6582 11.1196 61.2031 11.0484 60.7053 10.9773C60.2217 10.9062 59.7311 10.8138 59.2333 10.7C58.7355 10.572 58.2804 10.3871 57.868 10.1453C57.4555 9.90356 57.1213 9.57644 56.8653 9.164C56.6235 8.75156 56.5026 8.21822 56.5026 7.564C56.5026 6.83867 56.7089 6.19867 57.1213 5.644C57.548 5.08933 58.1595 4.65555 58.956 4.34267C59.7524 4.01556 60.7053 3.852 61.8146 3.852C62.5969 3.852 63.3933 3.93733 64.204 4.108C65.0146 4.27867 65.6902 4.52755 66.2306 4.85467L65.1213 7.22267C64.5666 6.89556 64.0049 6.67511 63.436 6.56133C62.8813 6.43333 62.3409 6.36933 61.8146 6.36933C61.0751 6.36933 60.5346 6.46889 60.1933 6.668C59.852 6.86711 59.6813 7.12311 59.6813 7.436C59.6813 7.72044 59.8022 7.93378 60.044 8.076C60.3 8.21822 60.6342 8.332 61.0466 8.41733C61.4591 8.50267 61.9071 8.58089 62.3906 8.652C62.8884 8.70889 63.3862 8.80133 63.884 8.92933C64.3817 9.05733 64.8297 9.24222 65.228 9.484C65.6404 9.71156 65.9746 10.0316 66.2306 10.444C66.4866 10.8422 66.6146 11.3684 66.6146 12.0227C66.6146 12.7338 66.4013 13.3667 65.9746 13.9213C65.548 14.4618 64.9293 14.8884 64.1186 15.2013C63.3222 15.5142 62.348 15.6707 61.196 15.6707Z" fill="white"/>
</svg>
