<svg width="23" height="20" viewBox="0 0 23 20" fill="none" xmlns="http://www.w3.org/2000/svg">
<path d="M7.43866e-05 0.354194V9.59374C4.33711 6.99503 6.50563 10.1711 10.8427 14.5022C14.4223 18.077 15.9929 19.1219 18.7036 19.122H22.7695V15.6572C19.6975 12.6736 12.7401 5.84 9.75842 2.66399C6.90892 -0.371184 3.25285 0.354178 7.43866e-05 0.354194Z" fill="#ACACAC"/>
<path d="M22.7419 9.88278L12.6361 0.354492H22.7419V9.88278Z" fill="white"/>
<path d="M0.160891 16.4296C0.143447 16.0605 0.208715 15.6914 0.352645 15.3453C0.496573 14.9991 0.716124 14.6832 0.997781 14.4169L1.0067 14.4066C1.66614 13.6354 1.68801 12.916 1.15159 12.2454L5.11686 14.1786C5.16857 14.228 5.22178 14.2758 5.2781 14.3235C5.62761 14.6368 5.88764 15.0242 6.03549 15.452C6.18335 15.8798 6.21454 16.3349 6.12637 16.7777C6.03819 17.2205 5.83333 17.6376 5.52962 17.9926C5.22592 18.3476 4.83258 18.6297 4.38391 18.8143C3.93523 18.999 3.44482 19.0806 2.95542 19.0521C2.46602 19.0235 1.99249 18.8856 1.57608 18.6505C1.15967 18.4153 0.813031 18.09 0.566371 17.7029C0.319711 17.3159 0.1805 16.8787 0.160891 16.4296Z" fill="#ACACAC"/>
</svg>
