<svg width="323" height="44" viewBox="0 0 323 44" fill="none" xmlns="http://www.w3.org/2000/svg">
<rect width="323" height="44" rx="22" fill="#F4F4F4"/>
<rect x="182" width="141" height="44" rx="22" fill="#003566"/>
<path d="M42.5469 27.7734V29H36.5234V27.7734H42.5469ZM36.8281 17.625V29H35.3203V17.625H36.8281ZM41.75 22.5156V23.7422H36.5234V22.5156H41.75ZM42.4688 17.625V18.8594H36.5234V17.625H42.4688ZM45.6328 22.2266V29H44.1797V20.5469H45.5547L45.6328 22.2266ZM45.3359 24.4531L44.6641 24.4297C44.6693 23.8516 44.7448 23.3177 44.8906 22.8281C45.0365 22.3333 45.2526 21.9036 45.5391 21.5391C45.8255 21.1745 46.1823 20.8932 46.6094 20.6953C47.0365 20.4922 47.5312 20.3906 48.0938 20.3906C48.4896 20.3906 48.8542 20.4479 49.1875 20.5625C49.5208 20.6719 49.8099 20.8464 50.0547 21.0859C50.2995 21.3255 50.4896 21.6328 50.625 22.0078C50.7604 22.3828 50.8281 22.8359 50.8281 23.3672V29H49.3828V23.4375C49.3828 22.9948 49.3073 22.6406 49.1562 22.375C49.0104 22.1094 48.8021 21.9167 48.5312 21.7969C48.2604 21.6719 47.9427 21.6094 47.5781 21.6094C47.151 21.6094 46.7943 21.6849 46.5078 21.8359C46.2214 21.987 45.9922 22.1953 45.8203 22.4609C45.6484 22.7266 45.5234 23.0312 45.4453 23.375C45.3724 23.7135 45.3359 24.0729 45.3359 24.4531ZM50.8125 23.6562L49.8438 23.9531C49.849 23.4896 49.9245 23.0443 50.0703 22.6172C50.2214 22.1901 50.4375 21.8099 50.7188 21.4766C51.0052 21.1432 51.3568 20.8802 51.7734 20.6875C52.1901 20.4896 52.6667 20.3906 53.2031 20.3906C53.6562 20.3906 54.0573 20.4505 54.4062 20.5703C54.7604 20.6901 55.0573 20.875 55.2969 21.125C55.5417 21.3698 55.7266 21.6849 55.8516 22.0703C55.9766 22.4557 56.0391 22.9141 56.0391 23.4453V29H54.5859V23.4297C54.5859 22.9557 54.5104 22.5885 54.3594 22.3281C54.2135 22.0625 54.0052 21.8776 53.7344 21.7734C53.4688 21.6641 53.151 21.6094 52.7812 21.6094C52.4635 21.6094 52.1823 21.6641 51.9375 21.7734C51.6927 21.8828 51.487 22.0339 51.3203 22.2266C51.1536 22.4141 51.026 22.6302 50.9375 22.875C50.8542 23.1198 50.8125 23.3802 50.8125 23.6562ZM63.2109 27.5547V23.2031C63.2109 22.8698 63.1432 22.5807 63.0078 22.3359C62.8776 22.0859 62.6797 21.8932 62.4141 21.7578C62.1484 21.6224 61.8203 21.5547 61.4297 21.5547C61.0651 21.5547 60.7448 21.6172 60.4688 21.7422C60.1979 21.8672 59.9844 22.0312 59.8281 22.2344C59.6771 22.4375 59.6016 22.6562 59.6016 22.8906H58.1562C58.1562 22.5885 58.2344 22.2891 58.3906 21.9922C58.5469 21.6953 58.7708 21.4271 59.0625 21.1875C59.3594 20.9427 59.7135 20.75 60.125 20.6094C60.5417 20.4635 61.0052 20.3906 61.5156 20.3906C62.1302 20.3906 62.6719 20.4948 63.1406 20.7031C63.6146 20.9115 63.9844 21.2266 64.25 21.6484C64.5208 22.0651 64.6562 22.5885 64.6562 23.2188V27.1562C64.6562 27.4375 64.6797 27.737 64.7266 28.0547C64.7786 28.3724 64.8542 28.6458 64.9531 28.875V29H63.4453C63.3724 28.8333 63.3151 28.612 63.2734 28.3359C63.2318 28.0547 63.2109 27.7943 63.2109 27.5547ZM63.4609 23.875L63.4766 24.8906H62.0156C61.6042 24.8906 61.237 24.9245 60.9141 24.9922C60.5911 25.0547 60.3203 25.151 60.1016 25.2812C59.8828 25.4115 59.7161 25.5755 59.6016 25.7734C59.487 25.9661 59.4297 26.1927 59.4297 26.4531C59.4297 26.7188 59.4896 26.9609 59.6094 27.1797C59.7292 27.3984 59.9089 27.5729 60.1484 27.7031C60.3932 27.8281 60.6927 27.8906 61.0469 27.8906C61.4896 27.8906 61.8802 27.7969 62.2188 27.6094C62.5573 27.4219 62.8255 27.1927 63.0234 26.9219C63.2266 26.651 63.3359 26.388 63.3516 26.1328L63.9688 26.8281C63.9323 27.0469 63.8333 27.2891 63.6719 27.5547C63.5104 27.8203 63.2943 28.0755 63.0234 28.3203C62.7578 28.5599 62.4401 28.7604 62.0703 28.9219C61.7057 29.0781 61.2943 29.1562 60.8359 29.1562C60.263 29.1562 59.7604 29.0443 59.3281 28.8203C58.901 28.5964 58.5677 28.2969 58.3281 27.9219C58.0938 27.5417 57.9766 27.1172 57.9766 26.6484C57.9766 26.1953 58.0651 25.7969 58.2422 25.4531C58.4193 25.1042 58.6745 24.8151 59.0078 24.5859C59.3411 24.3516 59.7422 24.1745 60.2109 24.0547C60.6797 23.9349 61.2031 23.875 61.7812 23.875H63.4609ZM68.5 20.5469V29H67.0469V20.5469H68.5ZM66.9375 18.3047C66.9375 18.0703 67.0078 17.8724 67.1484 17.7109C67.2943 17.5495 67.5078 17.4688 67.7891 17.4688C68.0651 17.4688 68.276 17.5495 68.4219 17.7109C68.5729 17.8724 68.6484 18.0703 68.6484 18.3047C68.6484 18.5286 68.5729 18.7214 68.4219 18.8828C68.276 19.0391 68.0651 19.1172 67.7891 19.1172C67.5078 19.1172 67.2943 19.0391 67.1484 18.8828C67.0078 18.7214 66.9375 18.5286 66.9375 18.3047ZM72.3906 17V29H70.9375V17H72.3906Z" fill="#000814" fill-opacity="0.7"/>
<path d="M224.141 26.0703C224.141 25.8359 224.104 25.6276 224.031 25.4453C223.964 25.263 223.841 25.0964 223.664 24.9453C223.487 24.7943 223.237 24.6484 222.914 24.5078C222.596 24.362 222.19 24.2135 221.695 24.0625C221.154 23.8958 220.654 23.7109 220.195 23.5078C219.742 23.2995 219.346 23.0599 219.008 22.7891C218.669 22.513 218.406 22.1979 218.219 21.8438C218.031 21.4844 217.938 21.0703 217.938 20.6016C217.938 20.138 218.034 19.7161 218.227 19.3359C218.424 18.9557 218.703 18.6276 219.062 18.3516C219.427 18.0703 219.857 17.8542 220.352 17.7031C220.846 17.5469 221.393 17.4688 221.992 17.4688C222.836 17.4688 223.562 17.625 224.172 17.9375C224.786 18.25 225.258 18.6693 225.586 19.1953C225.919 19.7214 226.086 20.3021 226.086 20.9375H224.141C224.141 20.5625 224.06 20.2318 223.898 19.9453C223.742 19.6536 223.503 19.4245 223.18 19.2578C222.862 19.0911 222.458 19.0078 221.969 19.0078C221.505 19.0078 221.12 19.0781 220.812 19.2188C220.505 19.3594 220.276 19.5495 220.125 19.7891C219.974 20.0286 219.898 20.2995 219.898 20.6016C219.898 20.8151 219.948 21.0104 220.047 21.1875C220.146 21.3594 220.297 21.5208 220.5 21.6719C220.703 21.8177 220.958 21.9557 221.266 22.0859C221.573 22.2161 221.935 22.3411 222.352 22.4609C222.982 22.6484 223.531 22.8568 224 23.0859C224.469 23.3099 224.859 23.5651 225.172 23.8516C225.484 24.138 225.719 24.4635 225.875 24.8281C226.031 25.1875 226.109 25.5964 226.109 26.0547C226.109 26.5339 226.013 26.9661 225.82 27.3516C225.628 27.7318 225.352 28.0573 224.992 28.3281C224.638 28.5938 224.211 28.7995 223.711 28.9453C223.216 29.0859 222.664 29.1562 222.055 29.1562C221.508 29.1562 220.969 29.0833 220.438 28.9375C219.911 28.7917 219.432 28.5703 219 28.2734C218.568 27.9714 218.224 27.5964 217.969 27.1484C217.714 26.6953 217.586 26.1667 217.586 25.5625H219.547C219.547 25.9323 219.609 26.2474 219.734 26.5078C219.865 26.7682 220.044 26.9818 220.273 27.1484C220.503 27.3099 220.768 27.4297 221.07 27.5078C221.378 27.5859 221.706 27.625 222.055 27.625C222.513 27.625 222.896 27.5599 223.203 27.4297C223.516 27.2995 223.75 27.1172 223.906 26.8828C224.062 26.6484 224.141 26.3776 224.141 26.0703ZM232.742 27.0078V20.5469H234.633V29H232.852L232.742 27.0078ZM233.008 25.25L233.641 25.2344C233.641 25.8021 233.578 26.3255 233.453 26.8047C233.328 27.2786 233.135 27.6927 232.875 28.0469C232.615 28.3958 232.281 28.6693 231.875 28.8672C231.469 29.0599 230.982 29.1562 230.414 29.1562C230.003 29.1562 229.625 29.0964 229.281 28.9766C228.938 28.8568 228.641 28.6719 228.391 28.4219C228.146 28.1719 227.956 27.8464 227.82 27.4453C227.685 27.0443 227.617 26.5651 227.617 26.0078V20.5469H229.5V26.0234C229.5 26.3307 229.536 26.5885 229.609 26.7969C229.682 27 229.781 27.1641 229.906 27.2891C230.031 27.4141 230.177 27.5026 230.344 27.5547C230.51 27.6068 230.688 27.6328 230.875 27.6328C231.411 27.6328 231.833 27.5286 232.141 27.3203C232.453 27.1068 232.674 26.8203 232.805 26.4609C232.94 26.1016 233.008 25.6979 233.008 25.25ZM236.57 17H238.453V27.1953L238.273 29H236.57V17ZM243.969 24.6953V24.8594C243.969 25.4844 243.898 26.0599 243.758 26.5859C243.622 27.1068 243.414 27.5599 243.133 27.9453C242.857 28.3307 242.513 28.6302 242.102 28.8438C241.695 29.0521 241.224 29.1562 240.688 29.1562C240.161 29.1562 239.703 29.0573 239.312 28.8594C238.922 28.6615 238.594 28.3802 238.328 28.0156C238.068 27.651 237.857 27.2161 237.695 26.7109C237.534 26.2057 237.419 25.6484 237.352 25.0391V24.5156C237.419 23.901 237.534 23.3438 237.695 22.8438C237.857 22.3385 238.068 21.9036 238.328 21.5391C238.594 21.1693 238.919 20.8854 239.305 20.6875C239.695 20.4896 240.151 20.3906 240.672 20.3906C241.214 20.3906 241.69 20.4948 242.102 20.7031C242.518 20.9115 242.865 21.2083 243.141 21.5938C243.417 21.974 243.622 22.4271 243.758 22.9531C243.898 23.4792 243.969 24.0599 243.969 24.6953ZM242.086 24.8594V24.6953C242.086 24.3151 242.055 23.9583 241.992 23.625C241.93 23.2865 241.826 22.9896 241.68 22.7344C241.539 22.4792 241.346 22.2786 241.102 22.1328C240.862 21.9818 240.562 21.9062 240.203 21.9062C239.87 21.9062 239.583 21.9635 239.344 22.0781C239.104 22.1927 238.904 22.349 238.742 22.5469C238.581 22.7448 238.453 22.974 238.359 23.2344C238.271 23.4948 238.211 23.776 238.18 24.0781V25.4922C238.227 25.8828 238.326 26.2422 238.477 26.5703C238.633 26.8932 238.852 27.1536 239.133 27.3516C239.414 27.5443 239.776 27.6406 240.219 27.6406C240.568 27.6406 240.862 27.5703 241.102 27.4297C241.341 27.2891 241.531 27.0938 241.672 26.8438C241.818 26.5885 241.922 26.2917 241.984 25.9531C242.052 25.6146 242.086 25.25 242.086 24.8594ZM250.305 26.7109C250.305 26.5234 250.258 26.3542 250.164 26.2031C250.07 26.0469 249.891 25.9062 249.625 25.7812C249.365 25.6562 248.979 25.5417 248.469 25.4375C248.021 25.3385 247.609 25.2214 247.234 25.0859C246.865 24.9453 246.547 24.776 246.281 24.5781C246.016 24.3802 245.81 24.1458 245.664 23.875C245.518 23.6042 245.445 23.2917 245.445 22.9375C245.445 22.5938 245.521 22.2682 245.672 21.9609C245.823 21.6536 246.039 21.3828 246.32 21.1484C246.602 20.9141 246.943 20.7292 247.344 20.5938C247.75 20.4583 248.203 20.3906 248.703 20.3906C249.411 20.3906 250.018 20.5104 250.523 20.75C251.034 20.9844 251.424 21.3047 251.695 21.7109C251.966 22.112 252.102 22.5651 252.102 23.0703H250.219C250.219 22.8464 250.161 22.638 250.047 22.4453C249.938 22.2474 249.771 22.0885 249.547 21.9688C249.323 21.8438 249.042 21.7812 248.703 21.7812C248.38 21.7812 248.112 21.8333 247.898 21.9375C247.69 22.0365 247.534 22.1667 247.43 22.3281C247.331 22.4896 247.281 22.6667 247.281 22.8594C247.281 23 247.307 23.1276 247.359 23.2422C247.417 23.3516 247.51 23.4531 247.641 23.5469C247.771 23.6354 247.948 23.7188 248.172 23.7969C248.401 23.875 248.688 23.9505 249.031 24.0234C249.677 24.1589 250.232 24.3333 250.695 24.5469C251.164 24.7552 251.523 25.026 251.773 25.3594C252.023 25.6875 252.148 26.1042 252.148 26.6094C252.148 26.9844 252.068 27.3281 251.906 27.6406C251.75 27.9479 251.521 28.2161 251.219 28.4453C250.917 28.6693 250.555 28.8438 250.133 28.9688C249.716 29.0938 249.247 29.1562 248.727 29.1562C247.961 29.1562 247.312 29.0208 246.781 28.75C246.25 28.474 245.846 28.1224 245.57 27.6953C245.299 27.263 245.164 26.8151 245.164 26.3516H246.984C247.005 26.7005 247.102 26.9792 247.273 27.1875C247.451 27.3906 247.669 27.5391 247.93 27.6328C248.195 27.7214 248.469 27.7656 248.75 27.7656C249.089 27.7656 249.372 27.7214 249.602 27.6328C249.831 27.5391 250.005 27.4141 250.125 27.2578C250.245 27.0964 250.305 26.9141 250.305 26.7109ZM257.25 27.6562C257.557 27.6562 257.833 27.5964 258.078 27.4766C258.328 27.3516 258.529 27.1797 258.68 26.9609C258.836 26.7422 258.922 26.4896 258.938 26.2031H260.711C260.701 26.75 260.539 27.2474 260.227 27.6953C259.914 28.1432 259.5 28.5 258.984 28.7656C258.469 29.026 257.898 29.1562 257.273 29.1562C256.628 29.1562 256.065 29.0469 255.586 28.8281C255.107 28.6042 254.708 28.2969 254.391 27.9062C254.073 27.5156 253.833 27.0651 253.672 26.5547C253.516 26.0443 253.438 25.4974 253.438 24.9141V24.6406C253.438 24.0573 253.516 23.5104 253.672 23C253.833 22.4844 254.073 22.0312 254.391 21.6406C254.708 21.25 255.107 20.9453 255.586 20.7266C256.065 20.5026 256.625 20.3906 257.266 20.3906C257.943 20.3906 258.536 20.526 259.047 20.7969C259.557 21.0625 259.958 21.4349 260.25 21.9141C260.547 22.388 260.701 22.9401 260.711 23.5703H258.938C258.922 23.2578 258.844 22.9766 258.703 22.7266C258.568 22.4714 258.375 22.2682 258.125 22.1172C257.88 21.9661 257.586 21.8906 257.242 21.8906C256.862 21.8906 256.547 21.9688 256.297 22.125C256.047 22.276 255.852 22.4844 255.711 22.75C255.57 23.0104 255.469 23.3047 255.406 23.6328C255.349 23.9557 255.32 24.2917 255.32 24.6406V24.9141C255.32 25.263 255.349 25.6016 255.406 25.9297C255.464 26.2578 255.562 26.5521 255.703 26.8125C255.849 27.0677 256.047 27.2734 256.297 27.4297C256.547 27.5807 256.865 27.6562 257.25 27.6562ZM264.047 22.1562V29H262.164V20.5469H263.961L264.047 22.1562ZM266.633 20.4922L266.617 22.2422C266.503 22.2214 266.378 22.2057 266.242 22.1953C266.112 22.1849 265.982 22.1797 265.852 22.1797C265.529 22.1797 265.245 22.2266 265 22.3203C264.755 22.4089 264.549 22.5391 264.383 22.7109C264.221 22.8776 264.096 23.0807 264.008 23.3203C263.919 23.5599 263.867 23.8281 263.852 24.125L263.422 24.1562C263.422 23.625 263.474 23.1328 263.578 22.6797C263.682 22.2266 263.839 21.8281 264.047 21.4844C264.26 21.1406 264.526 20.8724 264.844 20.6797C265.167 20.487 265.539 20.3906 265.961 20.3906C266.076 20.3906 266.198 20.401 266.328 20.4219C266.464 20.4427 266.565 20.4661 266.633 20.4922ZM269.828 20.5469V29H267.938V20.5469H269.828ZM267.812 18.3281C267.812 18.0417 267.906 17.8047 268.094 17.6172C268.286 17.4245 268.552 17.3281 268.891 17.3281C269.224 17.3281 269.487 17.4245 269.68 17.6172C269.872 17.8047 269.969 18.0417 269.969 18.3281C269.969 18.6094 269.872 18.8438 269.68 19.0312C269.487 19.2188 269.224 19.3125 268.891 19.3125C268.552 19.3125 268.286 19.2188 268.094 19.0312C267.906 18.8438 267.812 18.6094 267.812 18.3281ZM271.898 17H273.781V27.1953L273.602 29H271.898V17ZM279.297 24.6953V24.8594C279.297 25.4844 279.227 26.0599 279.086 26.5859C278.951 27.1068 278.742 27.5599 278.461 27.9453C278.185 28.3307 277.841 28.6302 277.43 28.8438C277.023 29.0521 276.552 29.1562 276.016 29.1562C275.49 29.1562 275.031 29.0573 274.641 28.8594C274.25 28.6615 273.922 28.3802 273.656 28.0156C273.396 27.651 273.185 27.2161 273.023 26.7109C272.862 26.2057 272.747 25.6484 272.68 25.0391V24.5156C272.747 23.901 272.862 23.3438 273.023 22.8438C273.185 22.3385 273.396 21.9036 273.656 21.5391C273.922 21.1693 274.247 20.8854 274.633 20.6875C275.023 20.4896 275.479 20.3906 276 20.3906C276.542 20.3906 277.018 20.4948 277.43 20.7031C277.846 20.9115 278.193 21.2083 278.469 21.5938C278.745 21.974 278.951 22.4271 279.086 22.9531C279.227 23.4792 279.297 24.0599 279.297 24.6953ZM277.414 24.8594V24.6953C277.414 24.3151 277.383 23.9583 277.32 23.625C277.258 23.2865 277.154 22.9896 277.008 22.7344C276.867 22.4792 276.674 22.2786 276.43 22.1328C276.19 21.9818 275.891 21.9062 275.531 21.9062C275.198 21.9062 274.911 21.9635 274.672 22.0781C274.432 22.1927 274.232 22.349 274.07 22.5469C273.909 22.7448 273.781 22.974 273.688 23.2344C273.599 23.4948 273.539 23.776 273.508 24.0781V25.4922C273.555 25.8828 273.654 26.2422 273.805 26.5703C273.961 26.8932 274.18 27.1536 274.461 27.3516C274.742 27.5443 275.104 27.6406 275.547 27.6406C275.896 27.6406 276.19 27.5703 276.43 27.4297C276.669 27.2891 276.859 27.0938 277 26.8438C277.146 26.5885 277.25 26.2917 277.312 25.9531C277.38 25.6146 277.414 25.25 277.414 24.8594ZM284.617 29.1562C283.992 29.1562 283.427 29.0547 282.922 28.8516C282.422 28.6432 281.995 28.3542 281.641 27.9844C281.292 27.6146 281.023 27.1797 280.836 26.6797C280.648 26.1797 280.555 25.6406 280.555 25.0625V24.75C280.555 24.0885 280.651 23.4896 280.844 22.9531C281.036 22.4167 281.305 21.9583 281.648 21.5781C281.992 21.1927 282.398 20.8984 282.867 20.6953C283.336 20.4922 283.844 20.3906 284.391 20.3906C284.995 20.3906 285.523 20.4922 285.977 20.6953C286.43 20.8984 286.805 21.1849 287.102 21.5547C287.404 21.9193 287.628 22.3542 287.773 22.8594C287.924 23.3646 288 23.9219 288 24.5312V25.3359H281.469V23.9844H286.141V23.8359C286.13 23.4974 286.062 23.1797 285.938 22.8828C285.818 22.5859 285.633 22.3464 285.383 22.1641C285.133 21.9818 284.799 21.8906 284.383 21.8906C284.07 21.8906 283.792 21.9583 283.547 22.0938C283.307 22.224 283.107 22.4141 282.945 22.6641C282.784 22.9141 282.659 23.2161 282.57 23.5703C282.487 23.9193 282.445 24.3125 282.445 24.75V25.0625C282.445 25.4323 282.495 25.776 282.594 26.0938C282.698 26.4062 282.849 26.6797 283.047 26.9141C283.245 27.1484 283.484 27.3333 283.766 27.4688C284.047 27.599 284.367 27.6641 284.727 27.6641C285.18 27.6641 285.583 27.5729 285.938 27.3906C286.292 27.2083 286.599 26.9505 286.859 26.6172L287.852 27.5781C287.669 27.8438 287.432 28.099 287.141 28.3438C286.849 28.5833 286.492 28.7786 286.07 28.9297C285.654 29.0807 285.169 29.1562 284.617 29.1562Z" fill="#F6F5F5"/>
</svg>
