<svg width="21" height="21" viewBox="0 0 21 21" fill="none" xmlns="http://www.w3.org/2000/svg">
<g clip-path="url(#clip0_1958_921)">
<path d="M10.2646 14.7031C12.3125 14.7031 13.9726 13.0429 13.9726 10.9951C13.9726 8.94723 12.3125 7.28711 10.2646 7.28711C8.21676 7.28711 6.55664 8.94723 6.55664 10.9951C6.55664 13.0429 8.21676 14.7031 10.2646 14.7031Z" stroke="#F1F1F1" stroke-width="1.91889" stroke-linecap="round" stroke-linejoin="round"/>
<path d="M1.92163 14.7033V7.28733C1.92163 4.7275 3.99679 2.65234 6.55662 2.65234H13.9726C16.5324 2.65234 18.6076 4.7275 18.6076 7.28733V14.7033C18.6076 17.2631 16.5324 19.3383 13.9726 19.3383H6.55662C3.99679 19.3383 1.92163 17.2631 1.92163 14.7033Z" stroke="#F1F1F1" stroke-width="2.08574"/>
<path d="M15.3628 5.90738L15.3726 5.89648" stroke="#F1F1F1" stroke-width="2.08574" stroke-linecap="round" stroke-linejoin="round"/>
</g>
<defs>
<clipPath id="clip0_1958_921">
<rect width="20.0231" height="20.0231" fill="white" transform="translate(0.25293 0.984375)"/>
</clipPath>
</defs>
</svg>
