<svg width="100" height="32" viewBox="0 0 100 32" fill="none" xmlns="http://www.w3.org/2000/svg">
<path d="M35.992 25V8.2H39.88V25H35.992ZM47.447 25V11.368H42.071V8.2H56.711V11.368H51.335V25H47.447ZM63.7344 25.192C62.2624 25.192 60.9664 24.904 59.8464 24.328C58.7424 23.752 57.8864 22.968 57.2784 21.976C56.6704 20.968 56.3664 19.824 56.3664 18.544C56.3664 17.248 56.6624 16.104 57.2544 15.112C57.8624 14.104 58.6864 13.32 59.7264 12.76C60.7664 12.184 61.9424 11.896 63.2544 11.896C64.5184 11.896 65.6544 12.168 66.6624 12.712C67.6864 13.24 68.4944 14.008 69.0864 15.016C69.6784 16.008 69.9744 17.2 69.9744 18.592C69.9744 18.736 69.9664 18.904 69.9504 19.096C69.9344 19.272 69.9184 19.44 69.9024 19.6H59.4144V17.416H67.9344L66.4944 18.064C66.4944 17.392 66.3584 16.808 66.0864 16.312C65.8144 15.816 65.4384 15.432 64.9584 15.16C64.4784 14.872 63.9184 14.728 63.2784 14.728C62.6384 14.728 62.0704 14.872 61.5744 15.16C61.0944 15.432 60.7184 15.824 60.4464 16.336C60.1744 16.832 60.0384 17.424 60.0384 18.112V18.688C60.0384 19.392 60.1904 20.016 60.4944 20.56C60.8144 21.088 61.2544 21.496 61.8144 21.784C62.3904 22.056 63.0624 22.192 63.8304 22.192C64.5184 22.192 65.1184 22.088 65.6304 21.88C66.1584 21.672 66.6384 21.36 67.0704 20.944L69.0624 23.104C68.4704 23.776 67.7264 24.296 66.8304 24.664C65.9344 25.016 64.9024 25.192 63.7344 25.192ZM78.7111 25.192C77.3351 25.192 76.1111 24.904 75.0391 24.328C73.9831 23.752 73.1431 22.968 72.5191 21.976C71.9111 20.968 71.6071 19.824 71.6071 18.544C71.6071 17.248 71.9111 16.104 72.5191 15.112C73.1431 14.104 73.9831 13.32 75.0391 12.76C76.1111 12.184 77.3351 11.896 78.7111 11.896C80.0711 11.896 81.2871 12.184 82.3591 12.76C83.4311 13.32 84.2711 14.096 84.8791 15.088C85.4871 16.08 85.7911 17.232 85.7911 18.544C85.7911 19.824 85.4871 20.968 84.8791 21.976C84.2711 22.968 83.4311 23.752 82.3591 24.328C81.2871 24.904 80.0711 25.192 78.7111 25.192ZM78.7111 22.12C79.3351 22.12 79.8951 21.976 80.3911 21.688C80.8871 21.4 81.2791 20.992 81.5671 20.464C81.8551 19.92 81.9991 19.28 81.9991 18.544C81.9991 17.792 81.8551 17.152 81.5671 16.624C81.2791 16.096 80.8871 15.688 80.3911 15.4C79.8951 15.112 79.3351 14.968 78.7111 14.968C78.0871 14.968 77.5271 15.112 77.0311 15.4C76.5351 15.688 76.1351 16.096 75.8311 16.624C75.5431 17.152 75.3991 17.792 75.3991 18.544C75.3991 19.28 75.5431 19.92 75.8311 20.464C76.1351 20.992 76.5351 21.4 77.0311 21.688C77.5271 21.976 78.0871 22.12 78.7111 22.12ZM92.7376 25.192C91.6336 25.192 90.5696 25.064 89.5456 24.808C88.5376 24.536 87.7376 24.2 87.1456 23.8L88.3936 21.112C88.9856 21.48 89.6816 21.784 90.4816 22.024C91.2976 22.248 92.0976 22.36 92.8816 22.36C93.7456 22.36 94.3536 22.256 94.7056 22.048C95.0736 21.84 95.2576 21.552 95.2576 21.184C95.2576 20.88 95.1136 20.656 94.8256 20.512C94.5536 20.352 94.1856 20.232 93.7216 20.152C93.2576 20.072 92.7456 19.992 92.1856 19.912C91.6416 19.832 91.0896 19.728 90.5296 19.6C89.9696 19.456 89.4576 19.248 88.9936 18.976C88.5296 18.704 88.1536 18.336 87.8656 17.872C87.5936 17.408 87.4576 16.808 87.4576 16.072C87.4576 15.256 87.6896 14.536 88.1536 13.912C88.6336 13.288 89.3216 12.8 90.2176 12.448C91.1136 12.08 92.1856 11.896 93.4336 11.896C94.3136 11.896 95.2096 11.992 96.1216 12.184C97.0336 12.376 97.7936 12.656 98.4016 13.024L97.1536 15.688C96.5296 15.32 95.8976 15.072 95.2576 14.944C94.6336 14.8 94.0256 14.728 93.4336 14.728C92.6016 14.728 91.9936 14.84 91.6096 15.064C91.2256 15.288 91.0336 15.576 91.0336 15.928C91.0336 16.248 91.1696 16.488 91.4416 16.648C91.7296 16.808 92.1056 16.936 92.5696 17.032C93.0336 17.128 93.5376 17.216 94.0816 17.296C94.6416 17.36 95.2016 17.464 95.7616 17.608C96.3216 17.752 96.8256 17.96 97.2736 18.232C97.7376 18.488 98.1136 18.848 98.4016 19.312C98.6896 19.76 98.8336 20.352 98.8336 21.088C98.8336 21.888 98.5936 22.6 98.1136 23.224C97.6336 23.832 96.9376 24.312 96.0256 24.664C95.1296 25.016 94.0336 25.192 92.7376 25.192Z" fill="#F6F5F5"/>
<path d="M19.3123 22.9224C19.9964 23.517 20.4705 24.2819 20.6749 25.1206C20.8793 25.9592 20.8047 26.8339 20.4605 27.6342C20.1164 28.4344 19.5182 29.1242 18.7415 29.6165C17.9647 30.1088 17.0444 30.3814 16.0967 30.3999C15.1491 30.4184 14.2166 30.182 13.4172 29.7205C12.6178 29.259 11.9873 28.5931 11.6055 27.8071C11.2236 27.021 11.1075 26.15 11.2718 25.3042C11.4361 24.4583 11.8735 23.6756 12.5286 23.0549C12.6326 22.9561 12.7392 22.8596 12.8333 22.7518C13.8516 21.5935 13.7996 20.3027 12.8333 19.279C12.7367 19.1758 12.6326 19.0747 12.5286 18.976C11.9896 18.4618 11.5977 17.8359 11.3872 17.153C11.1767 16.47 11.1539 15.7507 11.3208 15.0579C11.4878 14.3651 11.8394 13.7199 12.3449 13.1786C12.8504 12.6373 13.4945 12.2163 14.221 11.9525C14.9474 11.6887 15.7341 11.59 16.5123 11.665C17.2906 11.7401 18.0367 11.9867 18.6855 12.3832C19.3344 12.7797 19.8662 13.3141 20.2346 13.9397C20.603 14.5654 20.7967 15.2632 20.7989 15.9723C20.8039 16.5546 20.6772 17.1317 20.4266 17.668C20.1761 18.2042 19.807 18.6883 19.3421 19.0904L19.3272 19.1062C18.0884 20.4329 18.1479 21.7035 19.3272 22.9224H19.3123Z" fill="#C8C8C8"/>
<path d="M15.9998 10.2937C18.649 10.2937 20.7965 8.34791 20.7965 5.94764C20.7965 3.54737 18.649 1.60156 15.9998 1.60156C13.3507 1.60156 11.2031 3.54737 11.2031 5.94764C11.2031 8.34791 13.3507 10.2937 15.9998 10.2937Z" fill="#F6F5F5"/>
<path d="M20.7991 15.973C20.804 16.5553 20.6773 17.1324 20.4268 17.6687C20.1762 18.2049 19.8071 18.689 19.3422 19.0911L19.3274 19.1068C18.2298 20.2809 18.1505 21.4123 18.9632 22.5011L12.7691 19.2146C12.6898 19.1338 12.608 19.0552 12.5213 18.9766C11.9842 18.4619 11.5941 17.836 11.3851 17.1533C11.1761 16.4707 11.1546 15.7522 11.3223 15.0603C11.4901 14.3684 11.842 13.7242 12.3475 13.1837C12.853 12.6433 13.4967 12.2231 14.2225 11.9598C14.9483 11.6964 15.7342 11.5979 16.5117 11.6728C17.2891 11.7477 18.0346 11.9937 18.6831 12.3894C19.3315 12.7851 19.8633 13.3185 20.2322 13.9431C20.601 14.5677 20.7956 15.2646 20.7991 15.973Z" fill="#F6F5F5"/>
</svg>
