<svg width="16" height="16" viewBox="0 0 16 16" fill="none" xmlns="http://www.w3.org/2000/svg">
<path d="M6.50011 3.99833C6.6327 3.99836 6.75986 4.05106 6.85361 4.14483L10.3536 7.64483C10.4473 7.7386 10.5 7.86575 10.5 7.99833C10.5 8.13091 10.4473 8.25807 10.3536 8.35183L6.85361 11.8518C6.75931 11.9429 6.633 11.9933 6.50191 11.9922C6.37081 11.991 6.2454 11.9384 6.1527 11.8457C6.05999 11.753 6.00741 11.6276 6.00627 11.4965C6.00513 11.3654 6.05553 11.2391 6.14661 11.1448L9.29311 7.99833L6.14661 4.85183C6.07927 4.78095 6.03393 4.69206 6.01608 4.59593C5.99824 4.4998 6.00865 4.40056 6.04606 4.31023C6.08348 4.2199 6.14628 4.14236 6.22687 4.087C6.30746 4.03164 6.40237 4.00084 6.50011 3.99833Z" fill="black"/>
</svg>
