<svg width="42" height="48" viewBox="0 0 42 48" fill="none" xmlns="http://www.w3.org/2000/svg">
<rect width="42" height="48" rx="2" fill="#003566"/>
<path d="M11.44 13.216C12.0587 12.9707 12.6773 12.656 13.296 12.272C13.9253 11.888 14.48 11.4347 14.96 10.912H16.32V22H14.384V13.504C14.096 13.728 13.7333 13.9467 13.296 14.16C12.8587 14.3733 12.4373 14.5493 12.032 14.688L11.44 13.216ZM27.4138 19.024C27.4138 19.4827 27.3338 19.9093 27.1737 20.304C27.0138 20.6987 26.7738 21.04 26.4538 21.328C26.1338 21.616 25.7338 21.84 25.2538 22C24.7844 22.16 24.2404 22.24 23.6218 22.24C22.8964 22.24 22.2938 22.1387 21.8138 21.936C21.3338 21.7333 20.9498 21.4773 20.6618 21.168C20.3738 20.8587 20.1658 20.528 20.0378 20.176C19.9204 19.8133 19.8618 19.472 19.8618 19.152C19.8618 18.832 19.9044 18.5387 19.9898 18.272C20.0858 17.9947 20.2138 17.744 20.3738 17.52C20.5338 17.2853 20.7151 17.072 20.9178 16.88C21.1204 16.688 21.3338 16.5173 21.5578 16.368C21.0671 16.0267 20.6991 15.6587 20.4538 15.264C20.2191 14.8587 20.1018 14.368 20.1018 13.792C20.1018 13.376 20.1818 12.9813 20.3418 12.608C20.5124 12.224 20.7524 11.888 21.0618 11.6C21.3711 11.312 21.7444 11.0827 22.1818 10.912C22.6191 10.7413 23.1044 10.656 23.6378 10.656C24.2671 10.656 24.8004 10.7467 25.2378 10.928C25.6858 11.1093 26.0484 11.344 26.3258 11.632C26.6138 11.92 26.8218 12.24 26.9498 12.592C27.0778 12.944 27.1418 13.2853 27.1418 13.616C27.1418 14.2027 26.9818 14.7253 26.6618 15.184C26.3418 15.632 25.9738 15.9893 25.5578 16.256C26.1871 16.5973 26.6511 16.992 26.9498 17.44C27.2591 17.888 27.4138 18.416 27.4138 19.024ZM21.7658 19.12C21.7658 19.28 21.7978 19.4507 21.8618 19.632C21.9258 19.8133 22.0324 19.9787 22.1818 20.128C22.3311 20.2773 22.5231 20.4053 22.7578 20.512C22.9924 20.608 23.2858 20.656 23.6378 20.656C23.9578 20.656 24.2351 20.6133 24.4698 20.528C24.7044 20.4427 24.8964 20.3307 25.0458 20.192C25.1951 20.0427 25.3071 19.8773 25.3818 19.696C25.4564 19.504 25.4938 19.312 25.4938 19.12C25.4938 18.8213 25.4351 18.56 25.3178 18.336C25.2004 18.112 25.0298 17.92 24.8058 17.76C24.5924 17.5893 24.3364 17.4453 24.0378 17.328C23.7391 17.2 23.4084 17.088 23.0458 16.992C22.6618 17.2373 22.3524 17.536 22.1178 17.888C21.8831 18.2293 21.7658 18.64 21.7658 19.12ZM25.2538 13.648C25.2538 13.5093 25.2218 13.36 25.1578 13.2C25.1044 13.0293 25.0084 12.8747 24.8698 12.736C24.7418 12.5973 24.5764 12.48 24.3738 12.384C24.1711 12.288 23.9258 12.24 23.6378 12.24C23.3498 12.24 23.0991 12.288 22.8858 12.384C22.6831 12.4693 22.5178 12.5867 22.3898 12.736C22.2618 12.8747 22.1658 13.0293 22.1018 13.2C22.0378 13.36 22.0058 13.52 22.0058 13.68C22.0058 14.0853 22.1551 14.4693 22.4538 14.832C22.7631 15.1947 23.2751 15.4827 23.9898 15.696C24.3844 15.4507 24.6938 15.1733 24.9178 14.864C25.1418 14.544 25.2538 14.1387 25.2538 13.648Z" fill="white"/>
<path d="M10.204 38V28.298H16.056V29.46H11.562V32.386H15.552V33.534H11.562V38H10.204ZM17.0421 34.374C17.0421 33.73 17.1355 33.17 17.3221 32.694C17.5088 32.2087 17.7561 31.8073 18.0641 31.49C18.3721 31.1727 18.7268 30.9347 19.1281 30.776C19.5295 30.6173 19.9401 30.538 20.3601 30.538C21.3401 30.538 22.0915 30.846 22.6141 31.462C23.1368 32.0687 23.3981 32.9973 23.3981 34.248C23.3981 34.304 23.3981 34.3787 23.3981 34.472C23.3981 34.556 23.3935 34.6353 23.3841 34.71H18.4001C18.4561 35.466 18.6755 36.04 19.0581 36.432C19.4408 36.824 20.0381 37.02 20.8501 37.02C21.3075 37.02 21.6901 36.9827 21.9981 36.908C22.3155 36.824 22.5535 36.7447 22.7121 36.67L22.8941 37.762C22.7355 37.846 22.4555 37.9347 22.0541 38.028C21.6621 38.1213 21.2141 38.168 20.7101 38.168C20.0755 38.168 19.5248 38.0747 19.0581 37.888C18.6008 37.692 18.2228 37.426 17.9241 37.09C17.6255 36.754 17.4015 36.3573 17.2521 35.9C17.1121 35.4333 17.0421 34.9247 17.0421 34.374ZM22.0401 33.66C22.0495 33.072 21.9001 32.5913 21.5921 32.218C21.2935 31.8353 20.8781 31.644 20.3461 31.644C20.0475 31.644 19.7815 31.7047 19.5481 31.826C19.3241 31.938 19.1328 32.0873 18.9741 32.274C18.8155 32.4607 18.6895 32.6753 18.5961 32.918C18.5121 33.1607 18.4561 33.408 18.4281 33.66H22.0401ZM26.5704 31.042C26.7291 30.9393 26.9671 30.832 27.2844 30.72C27.6111 30.608 27.9844 30.552 28.4044 30.552C28.9271 30.552 29.3891 30.6453 29.7904 30.832C30.2011 31.0187 30.5464 31.28 30.8264 31.616C31.1064 31.952 31.3164 32.3533 31.4564 32.82C31.6058 33.2867 31.6804 33.8 31.6804 34.36C31.6804 34.948 31.5918 35.48 31.4144 35.956C31.2464 36.4227 31.0038 36.8193 30.6864 37.146C30.3691 37.4727 29.9864 37.7247 29.5384 37.902C29.0904 38.0793 28.5864 38.168 28.0264 38.168C27.4198 38.168 26.8831 38.126 26.4164 38.042C25.9498 37.958 25.5671 37.874 25.2684 37.79V27.36L26.5704 27.136V31.042ZM26.5704 36.866C26.7011 36.9033 26.8831 36.9407 27.1164 36.978C27.3591 37.006 27.6578 37.02 28.0124 37.02C28.7124 37.02 29.2724 36.7913 29.6924 36.334C30.1124 35.8673 30.3224 35.2093 30.3224 34.36C30.3224 33.9867 30.2851 33.6367 30.2104 33.31C30.1358 32.9833 30.0144 32.7033 29.8464 32.47C29.6784 32.2273 29.4591 32.0407 29.1884 31.91C28.9271 31.77 28.6098 31.7 28.2364 31.7C27.8818 31.7 27.5551 31.7607 27.2564 31.882C26.9578 32.0033 26.7291 32.1293 26.5704 32.26V36.866Z" fill="white"/>
</svg>
