<svg width="42" height="48" viewBox="0 0 42 48" fill="none" xmlns="http://www.w3.org/2000/svg">
<rect width="42" height="48" rx="2" fill="#003566"/>
<path d="M19.696 13.792C19.696 14.176 19.616 14.5547 19.456 14.928C19.296 15.2907 19.088 15.648 18.832 16C18.5867 16.3413 18.304 16.6773 17.984 17.008C17.664 17.328 17.344 17.6427 17.024 17.952C16.8533 18.112 16.6613 18.304 16.448 18.528C16.2347 18.752 16.032 18.976 15.84 19.2C15.648 19.424 15.4827 19.6427 15.344 19.856C15.2053 20.0587 15.1307 20.2293 15.12 20.368H20.048V22H12.992C12.9813 21.9147 12.976 21.8133 12.976 21.696C12.976 21.568 12.976 21.472 12.976 21.408C12.976 20.896 13.056 20.4267 13.216 20C13.3867 19.5627 13.6053 19.1573 13.872 18.784C14.1387 18.4107 14.4373 18.0587 14.768 17.728C15.0987 17.3973 15.4293 17.072 15.76 16.752C16.016 16.5067 16.2613 16.2667 16.496 16.032C16.7307 15.7973 16.9333 15.568 17.104 15.344C17.2853 15.1093 17.4293 14.8747 17.536 14.64C17.6427 14.3947 17.696 14.144 17.696 13.888C17.696 13.3333 17.536 12.9387 17.216 12.704C16.896 12.4693 16.5067 12.352 16.048 12.352C15.7493 12.352 15.472 12.3947 15.216 12.48C14.96 12.5653 14.7307 12.6667 14.528 12.784C14.336 12.9013 14.1653 13.024 14.016 13.152C13.8667 13.2693 13.7547 13.3653 13.68 13.44L12.72 12.08C13.168 11.6533 13.6907 11.312 14.288 11.056C14.896 10.7893 15.5467 10.656 16.24 10.656C17.424 10.656 18.2933 10.9387 18.848 11.504C19.4133 12.0587 19.696 12.8213 19.696 13.792ZM26.4858 13.296C26.2298 13.6053 25.9631 13.936 25.6858 14.288C25.4191 14.64 25.1578 15.008 24.9018 15.392C24.6458 15.776 24.4004 16.1707 24.1658 16.576C23.9311 16.9707 23.7178 17.3653 23.5258 17.76H26.4858V13.296ZM28.3738 10.912V17.76H29.6218V19.344H28.3738V22H26.4858V19.344H21.6217V17.968C21.8351 17.4987 22.1178 16.96 22.4698 16.352C22.8324 15.744 23.2324 15.12 23.6698 14.48C24.1071 13.84 24.5711 13.2107 25.0618 12.592C25.5524 11.9733 26.0431 11.4133 26.5338 10.912H28.3738Z" fill="white"/>
<path d="M14.558 36.656C14.4647 36.432 14.3387 36.1473 14.18 35.802C14.0307 35.4567 13.8673 35.0833 13.69 34.682C13.5127 34.2807 13.3213 33.87 13.116 33.45C12.92 33.0207 12.7333 32.6193 12.556 32.246C12.3787 31.8633 12.2107 31.5227 12.052 31.224C11.9027 30.9253 11.7813 30.6967 11.688 30.538C11.5853 31.6393 11.5013 32.834 11.436 34.122C11.3707 35.4007 11.3147 36.6933 11.268 38H9.938C9.97533 37.16 10.0173 36.3153 10.064 35.466C10.1107 34.6073 10.162 33.7673 10.218 32.946C10.2833 32.1153 10.3487 31.308 10.414 30.524C10.4887 29.74 10.568 28.998 10.652 28.298H11.842C12.094 28.7087 12.3647 29.194 12.654 29.754C12.9433 30.314 13.2327 30.902 13.522 31.518C13.8113 32.1247 14.0913 32.736 14.362 33.352C14.6327 33.9587 14.88 34.514 15.104 35.018C15.328 34.514 15.5753 33.9587 15.846 33.352C16.1167 32.736 16.3967 32.1247 16.686 31.518C16.9753 30.902 17.2647 30.314 17.554 29.754C17.8433 29.194 18.114 28.7087 18.366 28.298H19.556C19.8733 31.4247 20.1113 34.6587 20.27 38H18.94C18.8933 36.6933 18.8373 35.4007 18.772 34.122C18.7067 32.834 18.6227 31.6393 18.52 30.538C18.4267 30.6967 18.3007 30.9253 18.142 31.224C17.9927 31.5227 17.8293 31.8633 17.652 32.246C17.4747 32.6193 17.2833 33.0207 17.078 33.45C16.882 33.87 16.6953 34.2807 16.518 34.682C16.3407 35.0833 16.1727 35.4567 16.014 35.802C15.8647 36.1473 15.7433 36.432 15.65 36.656H14.558ZM24.7793 37.062C25.0873 37.062 25.358 37.0573 25.5913 37.048C25.834 37.0293 26.0346 37.0013 26.1933 36.964V34.794C26.1 34.7473 25.946 34.71 25.7313 34.682C25.526 34.6447 25.274 34.626 24.9753 34.626C24.7793 34.626 24.5693 34.64 24.3453 34.668C24.1306 34.696 23.93 34.7567 23.7433 34.85C23.566 34.934 23.4166 35.0553 23.2953 35.214C23.174 35.3633 23.1133 35.564 23.1133 35.816C23.1133 36.2827 23.2626 36.6093 23.5613 36.796C23.86 36.9733 24.266 37.062 24.7793 37.062ZM24.6673 30.538C25.19 30.538 25.6286 30.608 25.9833 30.748C26.3473 30.8787 26.6366 31.07 26.8513 31.322C27.0753 31.5647 27.234 31.8587 27.3273 32.204C27.4206 32.54 27.4673 32.9133 27.4673 33.324V37.874C27.3553 37.8927 27.1966 37.9207 26.9913 37.958C26.7953 37.986 26.5713 38.014 26.3193 38.042C26.0673 38.07 25.792 38.0933 25.4933 38.112C25.204 38.14 24.9146 38.154 24.6253 38.154C24.2146 38.154 23.8366 38.112 23.4913 38.028C23.146 37.944 22.8473 37.8133 22.5953 37.636C22.3433 37.4493 22.1473 37.2067 22.0073 36.908C21.8673 36.6093 21.7973 36.25 21.7973 35.83C21.7973 35.4287 21.8766 35.0833 22.0353 34.794C22.2033 34.5047 22.4273 34.2713 22.7073 34.094C22.9873 33.9167 23.314 33.786 23.6873 33.702C24.0606 33.618 24.4526 33.576 24.8633 33.576C24.994 33.576 25.1293 33.5853 25.2693 33.604C25.4093 33.6133 25.54 33.632 25.6613 33.66C25.792 33.6787 25.904 33.6973 25.9973 33.716C26.0906 33.7347 26.156 33.7487 26.1933 33.758V33.394C26.1933 33.1793 26.17 32.9693 26.1233 32.764C26.0766 32.5493 25.9926 32.3627 25.8713 32.204C25.75 32.036 25.582 31.9053 25.3673 31.812C25.162 31.7093 24.8913 31.658 24.5553 31.658C24.126 31.658 23.748 31.6907 23.4213 31.756C23.104 31.812 22.866 31.8727 22.7073 31.938L22.5533 30.86C22.7213 30.7853 23.0013 30.7153 23.3933 30.65C23.7853 30.5753 24.21 30.538 24.6673 30.538ZM32.3178 30.566C32.4298 30.566 32.5558 30.5753 32.6958 30.594C32.8451 30.6033 32.9898 30.622 33.1298 30.65C33.2698 30.6687 33.3958 30.692 33.5078 30.72C33.6291 30.7387 33.7178 30.7573 33.7738 30.776L33.5498 31.91C33.4471 31.8727 33.2744 31.8307 33.0318 31.784C32.7984 31.728 32.4951 31.7 32.1218 31.7C31.8791 31.7 31.6364 31.728 31.3938 31.784C31.1604 31.8307 31.0064 31.8633 30.9318 31.882V38H29.6298V31.028C29.9378 30.916 30.3204 30.8133 30.7778 30.72C31.2351 30.6173 31.7484 30.566 32.3178 30.566Z" fill="white"/>
</svg>
