<svg width="42" height="48" viewBox="0 0 42 48" fill="none" xmlns="http://www.w3.org/2000/svg">
<rect width="42" height="48" rx="2" fill="#003566"/>
<path d="M20.4 16.448C20.4 18.3147 20.0587 19.7493 19.376 20.752C18.6933 21.744 17.7493 22.24 16.544 22.24C15.3387 22.24 14.3947 21.744 13.712 20.752C13.0293 19.7493 12.688 18.3147 12.688 16.448C12.688 15.52 12.7733 14.6987 12.944 13.984C13.1253 13.2587 13.3813 12.6507 13.712 12.16C14.0533 11.6693 14.4587 11.296 14.928 11.04C15.408 10.784 15.9467 10.656 16.544 10.656C17.7493 10.656 18.6933 11.1573 19.376 12.16C20.0587 13.152 20.4 14.5813 20.4 16.448ZM18.4 16.448C18.4 15.872 18.368 15.3333 18.304 14.832C18.24 14.3307 18.1333 13.8987 17.984 13.536C17.8453 13.1627 17.6587 12.8693 17.424 12.656C17.1893 12.4427 16.896 12.336 16.544 12.336C16.192 12.336 15.8933 12.4427 15.648 12.656C15.4133 12.8693 15.2213 13.1627 15.072 13.536C14.9333 13.8987 14.832 14.3307 14.768 14.832C14.7147 15.3333 14.688 15.872 14.688 16.448C14.688 17.024 14.7147 17.5627 14.768 18.064C14.832 18.5653 14.9333 19.0027 15.072 19.376C15.2213 19.7387 15.4133 20.0267 15.648 20.24C15.8933 20.4533 16.192 20.56 16.544 20.56C16.896 20.56 17.1893 20.4533 17.424 20.24C17.6587 20.0267 17.8453 19.7387 17.984 19.376C18.1333 19.0027 18.24 18.5653 18.304 18.064C18.368 17.5627 18.4 17.024 18.4 16.448ZM25.6858 16.256C25.9951 16.256 26.2991 16.2293 26.5978 16.176C26.8964 16.112 27.1524 16.0213 27.3658 15.904C27.3764 15.7867 27.3818 15.6853 27.3818 15.6C27.3818 15.5147 27.3818 15.44 27.3818 15.376C27.3818 14.9493 27.3498 14.5493 27.2858 14.176C27.2324 13.792 27.1311 13.4613 26.9818 13.184C26.8431 12.896 26.6458 12.672 26.3898 12.512C26.1444 12.3413 25.8351 12.256 25.4618 12.256C25.1524 12.256 24.8858 12.32 24.6618 12.448C24.4484 12.576 24.2724 12.7413 24.1338 12.944C23.9951 13.1467 23.8938 13.3653 23.8298 13.6C23.7658 13.8347 23.7338 14.064 23.7338 14.288C23.7338 14.9387 23.8884 15.4293 24.1978 15.76C24.5178 16.0907 25.0138 16.256 25.6858 16.256ZM27.2058 17.424C26.9498 17.5413 26.6671 17.632 26.3578 17.696C26.0484 17.76 25.7498 17.792 25.4618 17.792C24.8004 17.792 24.2351 17.7067 23.7658 17.536C23.3071 17.3547 22.9284 17.1093 22.6298 16.8C22.3418 16.48 22.1284 16.112 21.9898 15.696C21.8511 15.28 21.7818 14.832 21.7818 14.352C21.7818 13.936 21.8511 13.5147 21.9898 13.088C22.1284 12.6507 22.3471 12.2507 22.6458 11.888C22.9444 11.5253 23.3231 11.232 23.7818 11.008C24.2404 10.7733 24.7844 10.656 25.4138 10.656C26.7151 10.656 27.6964 11.0773 28.3578 11.92C29.0298 12.752 29.3658 13.9307 29.3658 15.456C29.3658 17.6107 28.8111 19.2427 27.7018 20.352C26.5924 21.4613 24.8911 22.0213 22.5978 22.032L22.5178 20.416C23.1578 20.416 23.7338 20.3627 24.2458 20.256C24.7684 20.1493 25.2218 19.9787 25.6058 19.744C26.0004 19.5093 26.3311 19.2053 26.5978 18.832C26.8644 18.448 27.0671 17.9787 27.2058 17.424Z" fill="white"/>
<path d="M9.812 33.142C9.812 32.3113 9.93333 31.5787 10.176 30.944C10.428 30.3093 10.764 29.782 11.184 29.362C11.6133 28.9327 12.108 28.6107 12.668 28.396C13.2373 28.1813 13.8393 28.074 14.474 28.074C15.0993 28.074 15.6873 28.1813 16.238 28.396C16.798 28.6107 17.288 28.9327 17.708 29.362C18.128 29.782 18.4593 30.3093 18.702 30.944C18.954 31.5787 19.08 32.3113 19.08 33.142C19.08 33.9727 18.954 34.7053 18.702 35.34C18.4593 35.9747 18.128 36.5067 17.708 36.936C17.288 37.356 16.798 37.6733 16.238 37.888C15.6873 38.1027 15.0993 38.21 14.474 38.21C13.8393 38.21 13.2373 38.1027 12.668 37.888C12.108 37.6733 11.6133 37.356 11.184 36.936C10.764 36.5067 10.428 35.9747 10.176 35.34C9.93333 34.7053 9.812 33.9727 9.812 33.142ZM11.24 33.142C11.24 33.73 11.3147 34.2667 11.464 34.752C11.6133 35.228 11.8233 35.634 12.094 35.97C12.374 36.306 12.71 36.5673 13.102 36.754C13.5033 36.9313 13.9513 37.02 14.446 37.02C14.9407 37.02 15.384 36.9313 15.776 36.754C16.168 36.5673 16.4993 36.306 16.77 35.97C17.05 35.634 17.2647 35.228 17.414 34.752C17.5633 34.2667 17.638 33.73 17.638 33.142C17.638 32.554 17.5633 32.022 17.414 31.546C17.2647 31.0607 17.05 30.65 16.77 30.314C16.4993 29.978 16.168 29.7213 15.776 29.544C15.384 29.3573 14.9407 29.264 14.446 29.264C13.9513 29.264 13.5033 29.3573 13.102 29.544C12.71 29.7213 12.374 29.978 12.094 30.314C11.8233 30.65 11.6133 31.0607 11.464 31.546C11.3147 32.022 11.24 32.554 11.24 33.142ZM24.1805 38.168C23.5925 38.168 23.0745 38.0747 22.6265 37.888C22.1878 37.7013 21.8145 37.44 21.5065 37.104C21.2078 36.768 20.9838 36.3713 20.8345 35.914C20.6852 35.4473 20.6105 34.934 20.6105 34.374C20.6105 33.814 20.6898 33.3007 20.8485 32.834C21.0165 32.3673 21.2498 31.966 21.5485 31.63C21.8472 31.2847 22.2112 31.0187 22.6405 30.832C23.0792 30.636 23.5645 30.538 24.0965 30.538C24.4232 30.538 24.7498 30.566 25.0765 30.622C25.4032 30.678 25.7158 30.7667 26.0145 30.888L25.7205 31.994C25.5245 31.9007 25.2958 31.826 25.0345 31.77C24.7825 31.714 24.5118 31.686 24.2225 31.686C23.4945 31.686 22.9345 31.9147 22.5425 32.372C22.1598 32.8293 21.9685 33.4967 21.9685 34.374C21.9685 34.766 22.0105 35.1253 22.0945 35.452C22.1878 35.7787 22.3278 36.0587 22.5145 36.292C22.7105 36.5253 22.9578 36.7073 23.2565 36.838C23.5552 36.9593 23.9192 37.02 24.3485 37.02C24.6938 37.02 25.0065 36.9873 25.2865 36.922C25.5665 36.8567 25.7858 36.7867 25.9445 36.712L26.1265 37.804C26.0518 37.8507 25.9445 37.8973 25.8045 37.944C25.6645 37.9813 25.5058 38.014 25.3285 38.042C25.1512 38.0793 24.9598 38.1073 24.7545 38.126C24.5585 38.154 24.3672 38.168 24.1805 38.168ZM28.7423 30.72H31.5003V31.812H28.7423V35.172C28.7423 35.536 28.7703 35.8393 28.8263 36.082C28.8823 36.3153 28.9663 36.502 29.0783 36.642C29.1903 36.7727 29.3303 36.866 29.4983 36.922C29.6663 36.978 29.8623 37.006 30.0863 37.006C30.4783 37.006 30.791 36.964 31.0243 36.88C31.267 36.7867 31.435 36.7213 31.5283 36.684L31.7803 37.762C31.6496 37.8273 31.421 37.9067 31.0943 38C30.7676 38.1027 30.3943 38.154 29.9743 38.154C29.4796 38.154 29.069 38.0933 28.7423 37.972C28.425 37.8413 28.1683 37.65 27.9723 37.398C27.7763 37.146 27.6363 36.838 27.5523 36.474C27.4776 36.1007 27.4403 35.6713 27.4403 35.186V28.69L28.7423 28.466V30.72Z" fill="white"/>
</svg>
