<svg width="24" height="25" viewBox="0 0 24 25" fill="none" xmlns="http://www.w3.org/2000/svg">
<path d="M19.1646 4.44531H4.42265C4.01556 4.44531 3.68555 4.77532 3.68555 5.18241V19.9244C3.68555 20.3315 4.01556 20.6615 4.42265 20.6615H19.1646C19.5717 20.6615 19.9017 20.3315 19.9017 19.9244V5.18241C19.9017 4.77532 19.5717 4.44531 19.1646 4.44531Z" stroke="#003566" stroke-width="1.4742" stroke-linecap="round" stroke-linejoin="round"/>
<path d="M16.2161 2.97266V5.92105" stroke="#003566" stroke-width="1.4742" stroke-linecap="round" stroke-linejoin="round"/>
<path d="M7.37109 2.97266V5.92105" stroke="#003566" stroke-width="1.4742" stroke-linecap="round" stroke-linejoin="round"/>
<path d="M3.68555 8.87109H19.9017" stroke="#003566" stroke-width="1.4742" stroke-linecap="round" stroke-linejoin="round"/>
<path d="M8.47656 12.5547H11.0564L9.58221 14.3974C9.82461 14.3974 10.0633 14.4572 10.277 14.5715C10.4908 14.6857 10.6731 14.8509 10.8078 15.0524C10.9425 15.2539 11.0255 15.4856 11.0493 15.7268C11.0731 15.968 11.0371 16.2114 10.9444 16.4354C10.8517 16.6593 10.7052 16.857 10.5179 17.0108C10.3306 17.1647 10.1082 17.27 9.87047 17.3174C9.63276 17.3648 9.38702 17.3528 9.15503 17.2826C8.92303 17.2123 8.71194 17.086 8.54043 16.9147" stroke="#003566" stroke-width="1.4742" stroke-linecap="round" stroke-linejoin="round"/>
<path d="M13.2678 13.6603L14.742 12.5547V17.3458" stroke="#003566" stroke-width="1.4742" stroke-linecap="round" stroke-linejoin="round"/>
</svg>
