<svg width="24" height="25" viewBox="0 0 24 25" fill="none" xmlns="http://www.w3.org/2000/svg">
<path d="M6.99789 14.012L3.35083 16.9604V5.16679C3.35083 4.9713 3.42849 4.78381 3.56672 4.64558C3.70495 4.50735 3.89244 4.42969 4.08793 4.42969H15.8815C16.077 4.42969 16.2645 4.50735 16.4027 4.64558C16.5409 4.78381 16.6186 4.9713 16.6186 5.16679V13.2749C16.6186 13.4704 16.5409 13.6578 16.4027 13.7961C16.2645 13.9343 16.077 14.012 15.8815 14.012H6.99789Z" stroke="#003566" stroke-width="1.4742" stroke-linecap="round" stroke-linejoin="round"/>
<path d="M7.77344 14.0152V17.7007C7.77344 17.8961 7.8511 18.0836 7.98933 18.2219C8.12756 18.3601 8.31505 18.4378 8.51054 18.4378H17.3942L21.0412 21.3861V9.59257C21.0412 9.39708 20.9636 9.20959 20.8253 9.07136C20.6871 8.93313 20.4996 8.85547 20.3041 8.85547H16.6186" stroke="#003566" stroke-width="1.4742" stroke-linecap="round" stroke-linejoin="round"/>
</svg>
