<svg width="16" height="17" viewBox="0 0 16 17" fill="none" xmlns="http://www.w3.org/2000/svg">
<path d="M7.91346 4.48139C10.088 4.48139 11.8829 6.27628 11.8829 8.45085C11.8829 10.6599 10.088 12.4203 7.91346 12.4203C5.70437 12.4203 3.944 10.6599 3.944 8.45085C3.944 6.27628 5.70437 4.48139 7.91346 4.48139ZM7.91346 11.0396C9.32866 11.0396 10.4677 9.90057 10.4677 8.45085C10.4677 7.03565 9.32866 5.89659 7.91346 5.89659C6.46374 5.89659 5.32468 7.03565 5.32468 8.45085C5.32468 9.90057 6.49826 11.0396 7.91346 11.0396ZM12.9529 4.34332C12.9529 4.86108 12.5387 5.27528 12.021 5.27528C11.5032 5.27528 11.089 4.86108 11.089 4.34332C11.089 3.82557 11.5032 3.41136 12.021 3.41136C12.5387 3.41136 12.9529 3.82557 12.9529 4.34332ZM15.5762 5.27528C15.6453 6.55241 15.6453 10.3838 15.5762 11.6609C15.5072 12.9036 15.2311 13.9736 14.3336 14.9055C13.4362 15.803 12.3316 16.0791 11.089 16.1482C9.8119 16.2172 5.9805 16.2172 4.70337 16.1482C3.46076 16.0791 2.39073 15.803 1.45877 14.9055C0.561328 13.9736 0.285192 12.9036 0.216158 11.6609C0.147124 10.3838 0.147124 6.55241 0.216158 5.27528C0.285192 4.03267 0.561328 2.92812 1.45877 2.03068C2.39073 1.13324 3.46076 0.857102 4.70337 0.788068C5.9805 0.719034 9.8119 0.719034 11.089 0.788068C12.3316 0.857102 13.4362 1.13324 14.3336 2.03068C15.2311 2.92812 15.5072 4.03267 15.5762 5.27528ZM13.9194 13.0071C14.3336 12.0061 14.2301 9.58991 14.2301 8.45085C14.2301 7.34631 14.3336 4.93011 13.9194 3.8946C13.6433 3.23878 13.1255 2.68651 12.4697 2.44489C11.4342 2.03068 9.018 2.13423 7.91346 2.13423C6.7744 2.13423 4.3582 2.03068 3.35721 2.44489C2.66687 2.72102 2.14911 3.23878 1.87298 3.8946C1.45877 4.93011 1.56232 7.34631 1.56232 8.45085C1.56232 9.58991 1.45877 12.0061 1.87298 13.0071C2.14911 13.6974 2.66687 14.2152 3.35721 14.4913C4.3582 14.9055 6.7744 14.802 7.91346 14.802C9.018 14.802 11.4342 14.9055 12.4697 14.4913C13.1255 14.2152 13.6778 13.6974 13.9194 13.0071Z" fill="#333333"/>
</svg>
