<svg width="14" height="15" viewBox="0 0 14 15" fill="none" xmlns="http://www.w3.org/2000/svg">
<path d="M7.11296 3.74865C9.04592 3.74865 10.6414 5.3441 10.6414 7.27706C10.6414 9.2407 9.04592 10.8055 7.11296 10.8055C5.14933 10.8055 3.58455 9.2407 3.58455 7.27706C3.58455 5.3441 5.14933 3.74865 7.11296 3.74865ZM7.11296 9.5782C8.37092 9.5782 9.38342 8.5657 9.38342 7.27706C9.38342 6.0191 8.37092 5.0066 7.11296 5.0066C5.82433 5.0066 4.81183 6.0191 4.81183 7.27706C4.81183 8.5657 5.85501 9.5782 7.11296 9.5782ZM11.5925 3.62592C11.5925 4.08615 11.2243 4.45433 10.7641 4.45433C10.3039 4.45433 9.93569 4.08615 9.93569 3.62592C9.93569 3.1657 10.3039 2.79751 10.7641 2.79751C11.2243 2.79751 11.5925 3.1657 11.5925 3.62592ZM13.9243 4.45433C13.9857 5.58956 13.9857 8.99524 13.9243 10.1305C13.863 11.235 13.6175 12.1862 12.8198 13.0146C12.0221 13.8123 11.0402 14.0577 9.93569 14.1191C8.80046 14.1805 5.39478 14.1805 4.25955 14.1191C3.15501 14.0577 2.20387 13.8123 1.37546 13.0146C0.577734 12.1862 0.33228 11.235 0.270916 10.1305C0.209553 8.99524 0.209553 5.58956 0.270916 4.45433C0.33228 3.34979 0.577734 2.36797 1.37546 1.57024C2.20387 0.772514 3.15501 0.527059 4.25955 0.465696C5.39478 0.404332 8.80046 0.404332 9.93569 0.465696C11.0402 0.527059 12.0221 0.772514 12.8198 1.57024C13.6175 2.36797 13.863 3.34979 13.9243 4.45433ZM12.4516 11.3271C12.8198 10.4373 12.7277 8.28956 12.7277 7.27706C12.7277 6.29524 12.8198 4.14751 12.4516 3.22706C12.2061 2.6441 11.7459 2.1532 11.163 1.93842C10.2425 1.57024 8.09478 1.66229 7.11296 1.66229C6.10046 1.66229 3.95273 1.57024 3.06296 1.93842C2.44933 2.18388 1.9891 2.6441 1.74364 3.22706C1.37546 4.14751 1.46751 6.29524 1.46751 7.27706C1.46751 8.28956 1.37546 10.4373 1.74364 11.3271C1.9891 11.9407 2.44933 12.4009 3.06296 12.6464C3.95273 13.0146 6.10046 12.9225 7.11296 12.9225C8.09478 12.9225 10.2425 13.0146 11.163 12.6464C11.7459 12.4009 12.2368 11.9407 12.4516 11.3271Z" fill="white"/>
</svg>
