<svg width="16" height="16" viewBox="0 0 16 16" fill="none" xmlns="http://www.w3.org/2000/svg">
<path d="M15.7729 8.28097C15.7729 12.4844 12.3672 15.8901 8.16378 15.8901C7.36605 15.8901 6.59901 15.798 5.89332 15.5526C6.20014 15.0616 6.66037 14.2332 6.84446 13.5582C6.93651 13.2207 7.30469 11.748 7.30469 11.748C7.55014 12.2389 8.28651 12.6378 9.05355 12.6378C11.3547 12.6378 13.0115 10.5207 13.0115 7.91278C13.0115 5.39687 10.9558 3.4946 8.31719 3.4946C5.03423 3.4946 3.28537 5.70369 3.28537 8.09687C3.28537 9.2321 3.86832 10.6128 4.81946 11.073C4.97287 11.1344 5.06491 11.1037 5.0956 10.9503C5.0956 10.8582 5.24901 10.3366 5.31037 10.0912C5.31037 10.0298 5.31037 9.93778 5.24901 9.87642C4.94219 9.50824 4.69673 8.80256 4.69673 8.12756C4.69673 6.47074 5.95469 4.8446 8.1331 4.8446C9.97401 4.8446 11.2933 6.10256 11.2933 7.94347C11.2933 9.99915 10.2501 11.4105 8.90014 11.4105C8.16378 11.4105 7.61151 10.7969 7.76491 10.0605C7.97969 9.14006 8.40923 8.15824 8.40923 7.51392C8.40923 6.93097 8.10241 6.44006 7.4581 6.44006C6.69105 6.44006 6.07741 7.23778 6.07741 8.28097C6.07741 8.95597 6.29219 9.41619 6.29219 9.41619C6.29219 9.41619 5.55582 12.6071 5.40241 13.1901C5.24901 13.8651 5.31037 14.7855 5.37173 15.3685C2.54901 14.2639 0.554688 11.5332 0.554688 8.28097C0.554688 4.07756 3.96037 0.671875 8.16378 0.671875C12.3672 0.671875 15.7729 4.07756 15.7729 8.28097Z" fill="white"/>
</svg>
