<svg width="17" height="14" viewBox="0 0 17 14" fill="none" xmlns="http://www.w3.org/2000/svg">
<path d="M14.8886 4.09006C14.8886 4.24347 14.8886 4.36619 14.8886 4.5196C14.8886 8.78437 11.667 13.6628 5.74544 13.6628C3.90453 13.6628 2.21703 13.1412 0.805664 12.2207C1.05112 12.2514 1.29657 12.2821 1.57271 12.2821C3.07612 12.2821 4.4568 11.7605 5.56135 10.9014C4.14998 10.8707 2.95339 9.95028 2.55453 8.66165C2.7693 8.69233 2.95339 8.72301 3.16816 8.72301C3.4443 8.72301 3.75112 8.66165 3.99657 8.60028C2.52385 8.29347 1.4193 7.00483 1.4193 5.44006V5.40937C1.84885 5.65483 2.37044 5.77756 2.89203 5.80824C2.00225 5.22528 1.44998 4.24347 1.44998 3.13892C1.44998 2.52528 1.60339 1.97301 1.87953 1.51278C3.47498 3.44574 5.86816 4.73437 8.53748 4.88778C8.47612 4.64233 8.44544 4.39687 8.44544 4.15142C8.44544 2.37187 9.88748 0.929829 11.667 0.929829C12.5875 0.929829 13.4159 1.29801 14.0295 1.94233C14.7352 1.78892 15.4409 1.51278 16.0545 1.1446C15.8091 1.91165 15.3182 2.52528 14.6432 2.92415C15.2875 2.86278 15.9318 2.67869 16.4841 2.43324C16.0545 3.07756 15.5023 3.62983 14.8886 4.09006Z" fill="white"/>
</svg>
