<svg width="18" height="19" viewBox="0 0 18 19" fill="none" xmlns="http://www.w3.org/2000/svg">
<path d="M17.2154 9.45085C17.2154 14.1797 13.384 18.0111 8.65517 18.0111C7.75772 18.0111 6.8948 17.9075 6.10091 17.6314C6.44608 17.0791 6.96383 16.1472 7.17093 15.3878C7.27448 15.0081 7.68869 13.3513 7.68869 13.3513C7.96483 13.9036 8.79323 14.3523 9.65616 14.3523C12.2449 14.3523 14.1089 11.9706 14.1089 9.03665C14.1089 6.20625 11.7962 4.06619 8.82775 4.06619C5.13443 4.06619 3.16696 6.55142 3.16696 9.24375C3.16696 10.5209 3.82278 12.0741 4.89281 12.5919C5.06539 12.6609 5.16895 12.6264 5.20346 12.4538C5.20346 12.3503 5.37605 11.7635 5.44508 11.4874C5.44508 11.4183 5.44508 11.3148 5.37605 11.2457C5.03088 10.8315 4.75474 10.0376 4.75474 9.27827C4.75474 7.41435 6.16994 5.58494 8.62065 5.58494C10.6917 5.58494 12.1759 7.00014 12.1759 9.07116C12.1759 11.3838 11.0023 12.9716 9.48358 12.9716C8.65517 12.9716 8.03386 12.2812 8.20645 11.4528C8.44806 10.4173 8.9313 9.31278 8.9313 8.58793C8.9313 7.9321 8.58613 7.37983 7.86127 7.37983C6.99835 7.37983 6.30801 8.27727 6.30801 9.45085C6.30801 10.2102 6.54963 10.728 6.54963 10.728C6.54963 10.728 5.72122 14.3178 5.54863 14.9736C5.37605 15.733 5.44508 16.7685 5.51412 17.4243C2.33855 16.1817 0.0949392 13.1097 0.0949392 9.45085C0.0949392 4.72202 3.92633 0.890625 8.65517 0.890625C13.384 0.890625 17.2154 4.72202 17.2154 9.45085Z" fill="white"/>
</svg>
