<svg width="20" height="20" viewBox="0 0 20 20" fill="none" xmlns="http://www.w3.org/2000/svg">
<path d="M8.33333 5.83651V2.29317C8.33333 2.04234 8.1825 1.81567 7.95167 1.71734C7.72167 1.61984 7.4525 1.66901 7.27333 1.84484L0.19 8.71984C0.0683333 8.83734 0 8.99901 0 9.16817C0 9.33734 0.0683333 9.49901 0.19 9.61651L7.27333 16.4915C7.45417 16.6665 7.7225 16.7157 7.95167 16.619C8.1825 16.5207 8.33333 16.294 8.33333 16.0432V12.5015H9.515C13.3783 12.5015 16.94 14.6015 18.8092 17.9782L18.8267 18.0098C18.9383 18.2132 19.15 18.3348 19.375 18.3348C19.4267 18.3348 19.4783 18.329 19.53 18.3157C19.8067 18.2448 20 17.9957 20 17.7098C20 11.2315 14.7858 5.94817 8.33333 5.83651Z" fill="#003566"/>
</svg>
