<svg width="847" height="59" viewBox="0 0 847 59" fill="none" xmlns="http://www.w3.org/2000/svg">
<path d="M37.9688 23.2129V34.5879H35.8281V23.2129H37.9688ZM41.5 23.2129V24.9082H32.3359V23.2129H41.5ZM46.3203 32.791V28.8926C46.3203 28.6061 46.2708 28.3587 46.1719 28.1504C46.0729 27.9421 45.9219 27.7806 45.7188 27.666C45.5156 27.5514 45.2578 27.4941 44.9453 27.4941C44.6693 27.4941 44.4271 27.541 44.2188 27.6348C44.0156 27.7285 43.8594 27.8613 43.75 28.0332C43.6406 28.1999 43.5859 28.3926 43.5859 28.6113H41.5156C41.5156 28.2624 41.599 27.9316 41.7656 27.6191C41.9323 27.3014 42.1693 27.0202 42.4766 26.7754C42.7891 26.5254 43.1615 26.3301 43.5938 26.1895C44.0312 26.0488 44.5208 25.9785 45.0625 25.9785C45.7031 25.9785 46.2734 26.0879 46.7734 26.3066C47.2786 26.5202 47.6745 26.8431 47.9609 27.2754C48.2526 27.7077 48.3984 28.252 48.3984 28.9082V32.5957C48.3984 33.0176 48.4245 33.3796 48.4766 33.6816C48.5339 33.9785 48.6172 34.2363 48.7266 34.4551V34.5879H46.625C46.526 34.3743 46.4505 34.1035 46.3984 33.7754C46.3464 33.4421 46.3203 33.1139 46.3203 32.791ZM46.6094 29.4395L46.625 30.666H45.3203C44.9974 30.666 44.7135 30.6999 44.4688 30.7676C44.224 30.8301 44.0234 30.9238 43.8672 31.0488C43.7109 31.1686 43.5938 31.3145 43.5156 31.4863C43.4375 31.653 43.3984 31.8431 43.3984 32.0566C43.3984 32.265 43.4453 32.4525 43.5391 32.6191C43.638 32.7858 43.7786 32.9186 43.9609 33.0176C44.1484 33.1113 44.3672 33.1582 44.6172 33.1582C44.9818 33.1582 45.2995 33.0853 45.5703 32.9395C45.8411 32.7884 46.0521 32.6061 46.2031 32.3926C46.3542 32.179 46.4349 31.9759 46.4453 31.7832L47.0391 32.6738C46.9661 32.8874 46.8568 33.1139 46.7109 33.3535C46.5651 33.5931 46.3776 33.8171 46.1484 34.0254C45.9193 34.2337 45.6432 34.4056 45.3203 34.541C44.9974 34.6764 44.6224 34.7441 44.1953 34.7441C43.6484 34.7441 43.1589 34.6348 42.7266 34.416C42.2943 34.1973 41.9531 33.8978 41.7031 33.5176C41.4531 33.1374 41.3281 32.7051 41.3281 32.2207C41.3281 31.7728 41.4115 31.377 41.5781 31.0332C41.7448 30.6895 41.9922 30.4004 42.3203 30.166C42.6484 29.9264 43.0547 29.7467 43.5391 29.627C44.0286 29.502 44.5885 29.4395 45.2188 29.4395H46.6094ZM55.6328 26.1348H57.5078V34.3301C57.5078 35.0957 57.3411 35.7441 57.0078 36.2754C56.6797 36.8118 56.2188 37.2181 55.625 37.4941C55.0312 37.7754 54.3411 37.916 53.5547 37.916C53.2161 37.916 52.849 37.8691 52.4531 37.7754C52.0625 37.6816 51.6849 37.5332 51.3203 37.3301C50.9609 37.1322 50.6615 36.8743 50.4219 36.5566L51.3516 35.3379C51.6328 35.666 51.9505 35.9134 52.3047 36.0801C52.6589 36.252 53.0417 36.3379 53.4531 36.3379C53.8698 36.3379 54.224 36.2598 54.5156 36.1035C54.8125 35.9525 55.0391 35.7285 55.1953 35.4316C55.3568 35.14 55.4375 34.7806 55.4375 34.3535V28.0645L55.6328 26.1348ZM49.9219 30.4629V30.2988C49.9219 29.653 50 29.0671 50.1562 28.541C50.3125 28.0098 50.5365 27.554 50.8281 27.1738C51.125 26.7936 51.4818 26.4993 51.8984 26.291C52.3203 26.0827 52.7943 25.9785 53.3203 25.9785C53.8776 25.9785 54.3464 26.0801 54.7266 26.2832C55.112 26.4863 55.4297 26.7754 55.6797 27.1504C55.9349 27.5254 56.1328 27.9707 56.2734 28.4863C56.4193 28.9967 56.5312 29.5592 56.6094 30.1738V30.6191C56.5365 31.2181 56.4193 31.7676 56.2578 32.2676C56.1016 32.7676 55.8932 33.2051 55.6328 33.5801C55.3724 33.9499 55.0495 34.2363 54.6641 34.4395C54.2786 34.6426 53.8255 34.7441 53.3047 34.7441C52.7839 34.7441 52.3151 34.6374 51.8984 34.4238C51.4818 34.2103 51.125 33.9108 50.8281 33.5254C50.5365 33.14 50.3125 32.6868 50.1562 32.166C50 31.6452 49.9219 31.0775 49.9219 30.4629ZM51.9844 30.2988V30.4629C51.9844 30.8275 52.0208 31.1686 52.0938 31.4863C52.1667 31.804 52.2786 32.0853 52.4297 32.3301C52.5807 32.5697 52.7708 32.7572 53 32.8926C53.2292 33.028 53.5026 33.0957 53.8203 33.0957C54.2474 33.0957 54.5964 33.0072 54.8672 32.8301C55.1432 32.6478 55.3516 32.4004 55.4922 32.0879C55.638 31.7702 55.7318 31.4134 55.7734 31.0176V29.791C55.7474 29.4785 55.6901 29.1895 55.6016 28.9238C55.5182 28.6582 55.401 28.429 55.25 28.2363C55.099 28.0436 54.9062 27.8926 54.6719 27.7832C54.4375 27.6738 54.1589 27.6191 53.8359 27.6191C53.5234 27.6191 53.25 27.6895 53.0156 27.8301C52.7812 27.9655 52.5885 28.1556 52.4375 28.4004C52.2865 28.6452 52.1719 28.929 52.0938 29.252C52.0208 29.5749 51.9844 29.9238 51.9844 30.2988ZM64.0156 32.2754C64.0156 32.0983 63.9688 31.9395 63.875 31.7988C63.7812 31.6582 63.6042 31.5306 63.3438 31.416C63.0885 31.2962 62.7135 31.1842 62.2188 31.0801C61.7812 30.9863 61.3776 30.8691 61.0078 30.7285C60.638 30.5879 60.3203 30.4186 60.0547 30.2207C59.7891 30.0176 59.5807 29.7806 59.4297 29.5098C59.2839 29.2337 59.2109 28.916 59.2109 28.5566C59.2109 28.2077 59.2865 27.8796 59.4375 27.5723C59.5885 27.2598 59.8073 26.9863 60.0938 26.752C60.3802 26.5124 60.7292 26.3249 61.1406 26.1895C61.5521 26.0488 62.0156 25.9785 62.5312 25.9785C63.25 25.9785 63.8672 26.0957 64.3828 26.3301C64.9036 26.5645 65.3021 26.8874 65.5781 27.2988C65.8542 27.7051 65.9922 28.1634 65.9922 28.6738H63.9297C63.9297 28.4499 63.8776 28.2467 63.7734 28.0645C63.6745 27.8822 63.5208 27.7363 63.3125 27.627C63.1042 27.5124 62.8411 27.4551 62.5234 27.4551C62.237 27.4551 61.9948 27.502 61.7969 27.5957C61.6042 27.6895 61.4583 27.8118 61.3594 27.9629C61.2604 28.1139 61.2109 28.2806 61.2109 28.4629C61.2109 28.5983 61.237 28.7207 61.2891 28.8301C61.3464 28.9342 61.4375 29.0306 61.5625 29.1191C61.6875 29.2077 61.8568 29.2884 62.0703 29.3613C62.2891 29.4342 62.5573 29.5046 62.875 29.5723C63.5052 29.6973 64.0547 29.8639 64.5234 30.0723C64.9974 30.2754 65.3672 30.5462 65.6328 30.8848C65.8984 31.2233 66.0312 31.6556 66.0312 32.1816C66.0312 32.5566 65.9505 32.9004 65.7891 33.2129C65.6276 33.5202 65.3932 33.7884 65.0859 34.0176C64.7786 34.2467 64.4115 34.4264 63.9844 34.5566C63.5573 34.6816 63.0755 34.7441 62.5391 34.7441C61.763 34.7441 61.1068 34.6061 60.5703 34.3301C60.0339 34.0488 59.6276 33.6947 59.3516 33.2676C59.0755 32.8353 58.9375 32.3874 58.9375 31.9238H60.9141C60.9297 32.252 61.0182 32.515 61.1797 32.7129C61.3411 32.9108 61.5443 33.054 61.7891 33.1426C62.0391 33.2259 62.3021 33.2676 62.5781 33.2676C62.8906 33.2676 63.1536 33.2259 63.3672 33.1426C63.5807 33.054 63.7422 32.9368 63.8516 32.791C63.9609 32.64 64.0156 32.4681 64.0156 32.2754ZM67.6484 33.5801C67.6484 33.2676 67.7552 33.0046 67.9688 32.791C68.1823 32.5775 68.4714 32.4707 68.8359 32.4707C69.2005 32.4707 69.4896 32.5775 69.7031 32.791C69.9167 33.0046 70.0234 33.2676 70.0234 33.5801C70.0234 33.8874 69.9167 34.1478 69.7031 34.3613C69.4896 34.5697 69.2005 34.6738 68.8359 34.6738C68.4714 34.6738 68.1823 34.5697 67.9688 34.3613C67.7552 34.1478 67.6484 33.8874 67.6484 33.5801ZM67.6562 27.0254C67.6562 26.7129 67.763 26.4499 67.9766 26.2363C68.1901 26.0228 68.4792 25.916 68.8438 25.916C69.2083 25.916 69.4974 26.0228 69.7109 26.2363C69.9245 26.4499 70.0312 26.7129 70.0312 27.0254C70.0312 27.3327 69.9245 27.5931 69.7109 27.8066C69.4974 28.015 69.2083 28.1191 68.8438 28.1191C68.4792 28.1191 68.1901 28.015 67.9766 27.8066C67.763 27.5931 67.6562 27.3327 67.6562 27.0254Z" fill="#333333"/>
<path d="M89.1917 31.7129C89.1917 31.4473 89.15 31.2129 89.0667 31.0098C88.9885 30.8014 88.8479 30.6139 88.6448 30.4473C88.4469 30.2806 88.1708 30.1217 87.8167 29.9707C87.4677 29.8197 87.025 29.666 86.4885 29.5098C85.926 29.3431 85.4182 29.1582 84.9651 28.9551C84.512 28.7467 84.1239 28.5098 83.801 28.2441C83.4781 27.9785 83.2307 27.6738 83.0588 27.3301C82.887 26.9863 82.801 26.5931 82.801 26.1504C82.801 25.7077 82.8922 25.2988 83.0745 24.9238C83.2568 24.5488 83.5172 24.2233 83.8557 23.9473C84.1995 23.666 84.6083 23.4473 85.0823 23.291C85.5562 23.1348 86.0849 23.0566 86.6682 23.0566C87.5224 23.0566 88.2463 23.2207 88.8401 23.5488C89.439 23.8717 89.8948 24.2962 90.2073 24.8223C90.5198 25.3431 90.676 25.9004 90.676 26.4941H89.176C89.176 26.0671 89.0849 25.6895 88.9026 25.3613C88.7203 25.028 88.4443 24.7676 88.0745 24.5801C87.7047 24.3874 87.2359 24.291 86.6682 24.291C86.1318 24.291 85.689 24.3717 85.3401 24.5332C84.9911 24.6947 84.7307 24.9134 84.5588 25.1895C84.3922 25.4655 84.3088 25.7806 84.3088 26.1348C84.3088 26.3743 84.3583 26.5931 84.4573 26.791C84.5614 26.9837 84.7203 27.1634 84.9338 27.3301C85.1526 27.4967 85.4286 27.6504 85.762 27.791C86.1005 27.9316 86.5042 28.0671 86.9729 28.1973C87.6187 28.3796 88.176 28.5827 88.6448 28.8066C89.1135 29.0306 89.4989 29.2832 89.801 29.5645C90.1083 29.8405 90.3349 30.1556 90.4807 30.5098C90.6318 30.8587 90.7073 31.2546 90.7073 31.6973C90.7073 32.1608 90.6135 32.5801 90.426 32.9551C90.2385 33.3301 89.9703 33.6504 89.6213 33.916C89.2724 34.1816 88.8531 34.3874 88.3635 34.5332C87.8792 34.6738 87.3375 34.7441 86.7385 34.7441C86.2125 34.7441 85.6943 34.6712 85.1838 34.5254C84.6786 34.3796 84.2177 34.1608 83.801 33.8691C83.3896 33.5775 83.0588 33.2181 82.8088 32.791C82.564 32.3587 82.4417 31.8587 82.4417 31.291H83.9417C83.9417 31.6816 84.0172 32.0176 84.1682 32.2988C84.3193 32.5749 84.525 32.804 84.7854 32.9863C85.051 33.1686 85.3505 33.304 85.6838 33.3926C86.0224 33.4759 86.3739 33.5176 86.7385 33.5176C87.2646 33.5176 87.7099 33.4447 88.0745 33.2988C88.439 33.153 88.7151 32.9447 88.9026 32.6738C89.0953 32.403 89.1917 32.0827 89.1917 31.7129ZM96.8401 24.2207L93.0745 34.5879H91.5354L95.8713 23.2129H96.8635L96.8401 24.2207ZM99.9963 34.5879L96.2229 24.2207L96.1995 23.2129H97.1917L101.543 34.5879H99.9963ZM99.801 30.377V31.6113H93.4104V30.377H99.801ZM107.262 30.127H104.223V28.9004H107.262C107.851 28.9004 108.327 28.8066 108.692 28.6191C109.056 28.4316 109.322 28.1712 109.489 27.8379C109.66 27.5046 109.746 27.1243 109.746 26.6973C109.746 26.3066 109.66 25.9395 109.489 25.5957C109.322 25.252 109.056 24.9759 108.692 24.7676C108.327 24.554 107.851 24.4473 107.262 24.4473H104.574V34.5879H103.067V23.2129H107.262C108.121 23.2129 108.848 23.3613 109.442 23.6582C110.035 23.9551 110.486 24.3665 110.793 24.8926C111.101 25.4134 111.254 26.0098 111.254 26.6816C111.254 27.4108 111.101 28.0332 110.793 28.5488C110.486 29.0645 110.035 29.4577 109.442 29.7285C108.848 29.9941 108.121 30.127 107.262 30.127ZM111.723 32.8691V34.0332C111.723 34.5072 111.603 35.0072 111.364 35.5332C111.124 36.0645 110.788 36.5072 110.356 36.8613L109.535 36.291C109.702 36.0618 109.843 35.8275 109.957 35.5879C110.072 35.3535 110.158 35.1087 110.215 34.8535C110.278 34.6035 110.309 34.3379 110.309 34.0566V32.8691H111.723ZM120.653 30.9707H122.153C122.074 31.6895 121.869 32.3327 121.535 32.9004C121.202 33.4681 120.731 33.9186 120.121 34.252C119.512 34.5801 118.752 34.7441 117.84 34.7441C117.173 34.7441 116.567 34.6191 116.02 34.3691C115.478 34.1191 115.012 33.765 114.621 33.3066C114.231 32.8431 113.929 32.2884 113.715 31.6426C113.507 30.9915 113.403 30.2676 113.403 29.4707V28.3379C113.403 27.541 113.507 26.8197 113.715 26.1738C113.929 25.5228 114.233 24.9655 114.629 24.502C115.03 24.0384 115.512 23.6816 116.074 23.4316C116.637 23.1816 117.27 23.0566 117.973 23.0566C118.832 23.0566 119.559 23.2181 120.153 23.541C120.746 23.8639 121.207 24.3118 121.535 24.8848C121.869 25.4525 122.074 26.1113 122.153 26.8613H120.653C120.58 26.3301 120.444 25.8743 120.246 25.4941C120.048 25.1087 119.767 24.8118 119.403 24.6035C119.038 24.3952 118.561 24.291 117.973 24.291C117.468 24.291 117.022 24.3874 116.637 24.5801C116.257 24.7728 115.936 25.0462 115.676 25.4004C115.421 25.7546 115.228 26.179 115.098 26.6738C114.968 27.1686 114.903 27.7181 114.903 28.3223V29.4707C114.903 30.028 114.96 30.5514 115.074 31.041C115.194 31.5306 115.374 31.9603 115.614 32.3301C115.853 32.6999 116.158 32.9915 116.528 33.2051C116.897 33.4134 117.335 33.5176 117.84 33.5176C118.481 33.5176 118.991 33.416 119.371 33.2129C119.752 33.0098 120.038 32.7181 120.231 32.3379C120.429 31.9577 120.569 31.502 120.653 30.9707ZM132.965 28.541V29.2598C132.965 30.1139 132.858 30.8796 132.645 31.5566C132.431 32.2337 132.124 32.8092 131.723 33.2832C131.322 33.7572 130.84 34.1191 130.278 34.3691C129.72 34.6191 129.095 34.7441 128.403 34.7441C127.731 34.7441 127.114 34.6191 126.551 34.3691C125.994 34.1191 125.509 33.7572 125.098 33.2832C124.692 32.8092 124.377 32.2337 124.153 31.5566C123.929 30.8796 123.817 30.1139 123.817 29.2598V28.541C123.817 27.6868 123.926 26.9238 124.145 26.252C124.369 25.5749 124.684 24.9993 125.09 24.5254C125.496 24.0462 125.978 23.6816 126.535 23.4316C127.098 23.1816 127.715 23.0566 128.387 23.0566C129.08 23.0566 129.705 23.1816 130.262 23.4316C130.824 23.6816 131.306 24.0462 131.707 24.5254C132.114 24.9993 132.423 25.5749 132.637 26.252C132.856 26.9238 132.965 27.6868 132.965 28.541ZM131.473 29.2598V28.5254C131.473 27.8483 131.403 27.2493 131.262 26.7285C131.127 26.2077 130.926 25.7702 130.66 25.416C130.395 25.0618 130.069 24.7936 129.684 24.6113C129.304 24.429 128.871 24.3379 128.387 24.3379C127.918 24.3379 127.494 24.429 127.114 24.6113C126.739 24.7936 126.416 25.0618 126.145 25.416C125.879 25.7702 125.673 26.2077 125.528 26.7285C125.382 27.2493 125.309 27.8483 125.309 28.5254V29.2598C125.309 29.9421 125.382 30.5462 125.528 31.0723C125.673 31.5931 125.882 32.0332 126.153 32.3926C126.429 32.7467 126.754 33.015 127.129 33.1973C127.509 33.3796 127.934 33.4707 128.403 33.4707C128.892 33.4707 129.327 33.3796 129.707 33.1973C130.087 33.015 130.408 32.7467 130.668 32.3926C130.934 32.0332 131.134 31.5931 131.27 31.0723C131.405 30.5462 131.473 29.9421 131.473 29.2598ZM142.449 33.3613V34.5879H136.426V33.3613H142.449ZM136.731 23.2129V34.5879H135.223V23.2129H136.731ZM141.653 28.1035V29.3301H136.426V28.1035H141.653ZM142.371 23.2129V24.4473H136.426V23.2129H142.371ZM145.41 32.8691V34.0332C145.41 34.5072 145.291 35.0072 145.051 35.5332C144.811 36.0645 144.476 36.5072 144.043 36.8613L143.223 36.291C143.39 36.0618 143.53 35.8275 143.645 35.5879C143.759 35.3535 143.845 35.1087 143.903 34.8535C143.965 34.6035 143.996 34.3379 143.996 34.0566V32.8691H145.41ZM154.551 33.4004V34.5879H147.106V33.5488L150.832 29.4004C151.291 28.89 151.645 28.4577 151.895 28.1035C152.15 27.7441 152.327 27.4238 152.426 27.1426C152.53 26.8561 152.582 26.5645 152.582 26.2676C152.582 25.8926 152.504 25.554 152.348 25.252C152.197 24.9447 151.973 24.6999 151.676 24.5176C151.379 24.3353 151.02 24.2441 150.598 24.2441C150.093 24.2441 149.671 24.3431 149.332 24.541C148.999 24.7337 148.749 25.0046 148.582 25.3535C148.416 25.7025 148.332 26.1035 148.332 26.5566H146.887C146.887 25.916 147.028 25.3301 147.309 24.7988C147.59 24.2676 148.007 23.8457 148.559 23.5332C149.111 23.2155 149.791 23.0566 150.598 23.0566C151.317 23.0566 151.931 23.1842 152.442 23.4395C152.952 23.6895 153.343 24.0436 153.614 24.502C153.89 24.9551 154.028 25.4863 154.028 26.0957C154.028 26.429 153.97 26.7676 153.856 27.1113C153.746 27.4499 153.593 27.7884 153.395 28.127C153.202 28.4655 152.976 28.7988 152.715 29.127C152.46 29.4551 152.186 29.778 151.895 30.0957L148.848 33.4004H154.551ZM163.239 27.9941V29.7285C163.239 30.6608 163.155 31.4473 162.989 32.0879C162.822 32.7285 162.582 33.2441 162.27 33.6348C161.957 34.0254 161.58 34.3092 161.137 34.4863C160.699 34.6582 160.205 34.7441 159.653 34.7441C159.215 34.7441 158.811 34.6895 158.442 34.5801C158.072 34.4707 157.739 34.2962 157.442 34.0566C157.15 33.8118 156.9 33.4941 156.692 33.1035C156.483 32.7129 156.324 32.2389 156.215 31.6816C156.106 31.1243 156.051 30.4733 156.051 29.7285V27.9941C156.051 27.0618 156.134 26.2806 156.301 25.6504C156.473 25.0202 156.715 24.515 157.028 24.1348C157.34 23.7493 157.715 23.4733 158.153 23.3066C158.595 23.14 159.09 23.0566 159.637 23.0566C160.08 23.0566 160.486 23.1113 160.856 23.2207C161.231 23.3249 161.564 23.4941 161.856 23.7285C162.147 23.9577 162.395 24.265 162.598 24.6504C162.806 25.0306 162.965 25.4967 163.074 26.0488C163.184 26.6009 163.239 27.2493 163.239 27.9941ZM161.785 29.9629V27.752C161.785 27.2415 161.754 26.7936 161.692 26.4082C161.634 26.0176 161.548 25.6842 161.434 25.4082C161.319 25.1322 161.173 24.9082 160.996 24.7363C160.824 24.5645 160.624 24.4395 160.395 24.3613C160.171 24.278 159.918 24.2363 159.637 24.2363C159.293 24.2363 158.989 24.3014 158.723 24.4316C158.457 24.5566 158.233 24.7572 158.051 25.0332C157.874 25.3092 157.739 25.6712 157.645 26.1191C157.551 26.5671 157.504 27.1113 157.504 27.752V29.9629C157.504 30.4733 157.533 30.9238 157.59 31.3145C157.653 31.7051 157.744 32.0436 157.864 32.3301C157.983 32.6113 158.129 32.8431 158.301 33.0254C158.473 33.2077 158.671 33.3431 158.895 33.4316C159.124 33.515 159.377 33.5566 159.653 33.5566C160.007 33.5566 160.317 33.4889 160.582 33.3535C160.848 33.2181 161.069 33.0072 161.246 32.7207C161.429 32.429 161.564 32.0566 161.653 31.6035C161.741 31.1452 161.785 30.5983 161.785 29.9629ZM172.551 33.4004V34.5879H165.106V33.5488L168.832 29.4004C169.291 28.89 169.645 28.4577 169.895 28.1035C170.15 27.7441 170.327 27.4238 170.426 27.1426C170.53 26.8561 170.582 26.5645 170.582 26.2676C170.582 25.8926 170.504 25.554 170.348 25.252C170.197 24.9447 169.973 24.6999 169.676 24.5176C169.379 24.3353 169.02 24.2441 168.598 24.2441C168.093 24.2441 167.671 24.3431 167.332 24.541C166.999 24.7337 166.749 25.0046 166.582 25.3535C166.416 25.7025 166.332 26.1035 166.332 26.5566H164.887C164.887 25.916 165.028 25.3301 165.309 24.7988C165.59 24.2676 166.007 23.8457 166.559 23.5332C167.111 23.2155 167.791 23.0566 168.598 23.0566C169.317 23.0566 169.931 23.1842 170.442 23.4395C170.952 23.6895 171.343 24.0436 171.614 24.502C171.89 24.9551 172.028 25.4863 172.028 26.0957C172.028 26.429 171.97 26.7676 171.856 27.1113C171.746 27.4499 171.593 27.7884 171.395 28.127C171.202 28.4655 170.976 28.7988 170.715 29.127C170.46 29.4551 170.186 29.778 169.895 30.0957L166.848 33.4004H172.551ZM181.785 30.7598V31.9473H173.567V31.0957L178.66 23.2129H179.84L178.574 25.4941L175.207 30.7598H181.785ZM180.199 23.2129V34.5879H178.754V23.2129H180.199Z" fill="#828282"/>
<path d="M643.934 33.6839C644.286 33.6839 644.574 33.6572 644.798 33.6039C645.033 33.5399 645.219 33.4599 645.358 33.3639C645.497 33.2572 645.593 33.1346 645.646 32.9959C645.699 32.8572 645.726 32.7026 645.726 32.5319C645.726 32.1692 645.555 31.8706 645.214 31.6359C644.873 31.3906 644.286 31.1292 643.454 30.8519C643.091 30.7239 642.729 30.5799 642.366 30.4199C642.003 30.2492 641.678 30.0412 641.39 29.7959C641.102 29.5399 640.867 29.2359 640.686 28.8839C640.505 28.5212 640.414 28.0839 640.414 27.5719C640.414 27.0599 640.51 26.6012 640.702 26.1959C640.894 25.7799 641.166 25.4279 641.518 25.1399C641.87 24.8519 642.297 24.6332 642.798 24.4839C643.299 24.3239 643.865 24.2439 644.494 24.2439C645.241 24.2439 645.886 24.3239 646.43 24.4839C646.974 24.6439 647.422 24.8199 647.774 25.0119L647.054 26.9799C646.745 26.8199 646.398 26.6812 646.014 26.5639C645.641 26.4359 645.187 26.3719 644.654 26.3719C644.057 26.3719 643.625 26.4572 643.358 26.6279C643.102 26.7879 642.974 27.0386 642.974 27.3799C642.974 27.5826 643.022 27.7532 643.118 27.8919C643.214 28.0306 643.347 28.1586 643.518 28.2759C643.699 28.3826 643.902 28.4839 644.126 28.5799C644.361 28.6652 644.617 28.7559 644.894 28.8519C645.47 29.0652 645.971 29.2786 646.398 29.4919C646.825 29.6946 647.177 29.9346 647.454 30.2119C647.742 30.4892 647.955 30.8146 648.094 31.1879C648.233 31.5612 648.302 32.0146 648.302 32.5479C648.302 33.5826 647.939 34.3879 647.214 34.9639C646.489 35.5292 645.395 35.8119 643.934 35.8119C643.443 35.8119 643.001 35.7799 642.606 35.7159C642.211 35.6626 641.859 35.5932 641.55 35.5079C641.251 35.4226 640.99 35.3319 640.766 35.2359C640.553 35.1399 640.371 35.0492 640.222 34.9639L640.926 32.9799C641.257 33.1612 641.662 33.3266 642.142 33.4759C642.633 33.6146 643.23 33.6839 643.934 33.6839ZM650.062 35.5879V23.5559L652.446 23.1719V27.2039C652.606 27.1506 652.809 27.1026 653.054 27.0599C653.31 27.0066 653.556 26.9799 653.79 26.9799C654.473 26.9799 655.038 27.0759 655.486 27.2679C655.945 27.4492 656.308 27.7106 656.574 28.0519C656.852 28.3932 657.044 28.7986 657.15 29.2679C657.268 29.7372 657.326 30.2599 657.326 30.8359V35.5879H654.942V31.1239C654.942 30.3559 654.841 29.8119 654.638 29.4919C654.446 29.1719 654.084 29.0119 653.55 29.0119C653.337 29.0119 653.134 29.0332 652.942 29.0759C652.761 29.1079 652.596 29.1452 652.446 29.1879V35.5879H650.062ZM662.7 33.9239C662.935 33.9239 663.159 33.9186 663.372 33.9079C663.586 33.8972 663.756 33.8812 663.884 33.8599V32.0519C663.788 32.0306 663.644 32.0092 663.452 31.9879C663.26 31.9666 663.084 31.9559 662.924 31.9559C662.7 31.9559 662.487 31.9719 662.284 32.0039C662.092 32.0252 661.922 32.0732 661.772 32.1479C661.623 32.2226 661.506 32.3239 661.42 32.4519C661.335 32.5799 661.292 32.7399 661.292 32.9319C661.292 33.3052 661.415 33.5666 661.66 33.7159C661.916 33.8546 662.263 33.9239 662.7 33.9239ZM662.508 26.9479C663.212 26.9479 663.799 27.0279 664.268 27.1879C664.738 27.3479 665.111 27.5772 665.388 27.8759C665.676 28.1746 665.879 28.5372 665.996 28.9639C666.114 29.3906 666.172 29.8652 666.172 30.3879V35.3479C665.831 35.4226 665.356 35.5079 664.748 35.6039C664.14 35.7106 663.404 35.7639 662.54 35.7639C661.996 35.7639 661.5 35.7159 661.052 35.6199C660.615 35.5239 660.236 35.3692 659.916 35.1559C659.596 34.9319 659.351 34.6439 659.18 34.2919C659.01 33.9399 658.924 33.5079 658.924 32.9959C658.924 32.5052 659.02 32.0892 659.212 31.7479C659.415 31.4066 659.682 31.1346 660.012 30.9319C660.343 30.7292 660.722 30.5852 661.148 30.4999C661.575 30.4039 662.018 30.3559 662.476 30.3559C662.786 30.3559 663.058 30.3719 663.292 30.4039C663.538 30.4252 663.735 30.4572 663.884 30.4999V30.2759C663.884 29.8706 663.762 29.5452 663.516 29.2999C663.271 29.0546 662.844 28.9319 662.236 28.9319C661.831 28.9319 661.431 28.9639 661.036 29.0279C660.642 29.0812 660.3 29.1612 660.012 29.2679L659.708 27.3479C659.847 27.3052 660.018 27.2626 660.22 27.2199C660.434 27.1666 660.663 27.1239 660.908 27.0919C661.154 27.0492 661.41 27.0172 661.676 26.9959C661.954 26.9639 662.231 26.9479 662.508 26.9479ZM673.4 29.2839C673.187 29.2306 672.936 29.1772 672.648 29.1239C672.36 29.0599 672.051 29.0279 671.72 29.0279C671.571 29.0279 671.389 29.0439 671.176 29.0759C670.973 29.0972 670.819 29.1239 670.712 29.1559V35.5879H668.328V27.6199C668.755 27.4706 669.256 27.3319 669.832 27.2039C670.419 27.0652 671.069 26.9959 671.784 26.9959C671.912 26.9959 672.067 27.0066 672.248 27.0279C672.429 27.0386 672.611 27.0599 672.792 27.0919C672.973 27.1132 673.155 27.1452 673.336 27.1879C673.517 27.2199 673.672 27.2626 673.8 27.3159L673.4 29.2839ZM674.522 31.4439C674.522 30.6972 674.634 30.0466 674.858 29.4919C675.092 28.9266 675.396 28.4572 675.77 28.0839C676.143 27.7106 676.57 27.4279 677.05 27.2359C677.54 27.0439 678.042 26.9479 678.554 26.9479C679.748 26.9479 680.692 27.3159 681.386 28.0519C682.079 28.7772 682.426 29.8492 682.426 31.2679C682.426 31.4066 682.42 31.5612 682.41 31.7319C682.399 31.8919 682.388 32.0359 682.378 32.1639H676.97C677.023 32.6546 677.252 33.0439 677.658 33.3319C678.063 33.6199 678.607 33.7639 679.29 33.7639C679.727 33.7639 680.154 33.7266 680.57 33.6519C680.996 33.5666 681.343 33.4652 681.61 33.3479L681.93 35.2839C681.802 35.3479 681.631 35.4119 681.418 35.4759C681.204 35.5399 680.964 35.5932 680.698 35.6359C680.442 35.6892 680.164 35.7319 679.866 35.7639C679.567 35.7959 679.268 35.8119 678.97 35.8119C678.212 35.8119 677.551 35.6999 676.986 35.4759C676.431 35.2519 675.967 34.9479 675.594 34.5639C675.231 34.1692 674.959 33.7052 674.778 33.1719C674.607 32.6386 674.522 32.0626 674.522 31.4439ZM680.122 30.5319C680.111 30.3292 680.074 30.1319 680.01 29.9399C679.956 29.7479 679.866 29.5772 679.738 29.4279C679.62 29.2786 679.466 29.1559 679.274 29.0599C679.092 28.9639 678.863 28.9159 678.586 28.9159C678.319 28.9159 678.09 28.9639 677.898 29.0599C677.706 29.1452 677.546 29.2626 677.418 29.4119C677.29 29.5612 677.188 29.7372 677.114 29.9399C677.05 30.1319 677.002 30.3292 676.97 30.5319H680.122ZM686.602 28.6439C686.602 29.1239 686.447 29.4919 686.138 29.7479C685.839 29.9932 685.498 30.1159 685.114 30.1159C684.73 30.1159 684.383 29.9932 684.074 29.7479C683.775 29.4919 683.626 29.1239 683.626 28.6439C683.626 28.1639 683.775 27.8012 684.074 27.5559C684.383 27.2999 684.73 27.1719 685.114 27.1719C685.498 27.1719 685.839 27.2999 686.138 27.5559C686.447 27.8012 686.602 28.1639 686.602 28.6439ZM686.602 34.3239C686.602 34.8039 686.447 35.1719 686.138 35.4279C685.839 35.6732 685.498 35.7959 685.114 35.7959C684.73 35.7959 684.383 35.6732 684.074 35.4279C683.775 35.1719 683.626 34.8039 683.626 34.3239C683.626 33.8439 683.775 33.4812 684.074 33.2359C684.383 32.9799 684.73 32.8519 685.114 32.8519C685.498 32.8519 685.839 32.9799 686.138 33.2359C686.447 33.4812 686.602 33.8439 686.602 34.3239Z" fill="#333333"/>
<path d="M717.977 30.7247H715.674V37.6043H712.602V30.7247H710.084V27.8991H712.602V25.7186C712.602 23.2616 714.076 21.8795 716.319 21.8795C717.393 21.8795 718.53 22.0945 718.53 22.0945V24.5208H717.271C716.042 24.5208 715.674 25.2579 715.674 26.0564V27.8991H718.407L717.977 30.7247Z" fill="#4F4F4F"/>
<path d="M752.99 26.5478C752.99 26.7014 752.99 26.8242 752.99 26.9778C752.99 31.2468 749.765 36.1301 743.837 36.1301C741.995 36.1301 740.305 35.608 738.893 34.6866C739.138 34.7173 739.384 34.748 739.66 34.748C741.165 34.748 742.547 34.2259 743.653 33.366C742.24 33.3352 741.042 32.4139 740.643 31.1239C740.858 31.1547 741.042 31.1854 741.257 31.1854C741.534 31.1854 741.841 31.1239 742.087 31.0625C740.612 30.7554 739.507 29.4655 739.507 27.8991V27.8684C739.937 28.1141 740.459 28.237 740.981 28.2677C740.09 27.6841 739.538 26.7014 739.538 25.5957C739.538 24.9815 739.691 24.4286 739.968 23.9679C741.565 25.9028 743.96 27.1928 746.632 27.3463C746.571 27.1006 746.54 26.8549 746.54 26.6092C746.54 24.8279 747.983 23.3844 749.765 23.3844C750.686 23.3844 751.515 23.753 752.13 24.3979C752.836 24.2444 753.542 23.9679 754.157 23.5994C753.911 24.3672 753.42 24.9815 752.744 25.3807C753.389 25.3193 754.034 25.135 754.587 24.8893C754.157 25.5343 753.604 26.0871 752.99 26.5478Z" fill="#4F4F4F"/>
<path d="M822.922 29.7419C822.922 33.9495 819.513 37.3586 815.305 37.3586C814.507 37.3586 813.739 37.2664 813.032 37.0207C813.34 36.5293 813.8 35.7001 813.985 35.0244C814.077 34.6866 814.445 33.2124 814.445 33.2124C814.691 33.7038 815.428 34.103 816.196 34.103C818.499 34.103 820.158 31.9839 820.158 29.3733C820.158 26.8549 818.1 24.9507 815.459 24.9507C812.172 24.9507 810.422 27.162 810.422 29.5576C810.422 30.694 811.005 32.076 811.958 32.5367C812.111 32.5981 812.203 32.5674 812.234 32.4139C812.234 32.3217 812.387 31.7996 812.449 31.5539C812.449 31.4925 812.449 31.4004 812.387 31.3389C812.08 30.9704 811.835 30.264 811.835 29.5883C811.835 27.9298 813.094 26.3021 815.274 26.3021C817.117 26.3021 818.438 27.5613 818.438 29.404C818.438 31.4618 817.394 32.8746 816.042 32.8746C815.305 32.8746 814.752 32.2603 814.906 31.5232C815.121 30.6018 815.551 29.619 815.551 28.9741C815.551 28.3905 815.244 27.8991 814.599 27.8991C813.831 27.8991 813.217 28.6977 813.217 29.7419C813.217 30.4176 813.432 30.8782 813.432 30.8782C813.432 30.8782 812.695 34.0723 812.541 34.6559C812.387 35.3315 812.449 36.2529 812.51 36.8365C809.685 35.7308 807.688 32.9974 807.688 29.7419C807.688 25.5343 811.098 22.1252 815.305 22.1252C819.513 22.1252 822.922 25.5343 822.922 29.7419Z" fill="#4F4F4F"/>
<path d="M781.153 26.21C783.088 26.21 784.685 27.807 784.685 29.7419C784.685 31.7075 783.088 33.2738 781.153 33.2738C779.187 33.2738 777.621 31.7075 777.621 29.7419C777.621 27.807 779.187 26.21 781.153 26.21ZM781.153 32.0453C782.412 32.0453 783.426 31.0318 783.426 29.7419C783.426 28.4827 782.412 27.4692 781.153 27.4692C779.863 27.4692 778.849 28.4827 778.849 29.7419C778.849 31.0318 779.894 32.0453 781.153 32.0453ZM785.637 26.0871C785.637 26.5478 785.268 26.9163 784.808 26.9163C784.347 26.9163 783.978 26.5478 783.978 26.0871C783.978 25.6264 784.347 25.2579 784.808 25.2579C785.268 25.2579 785.637 25.6264 785.637 26.0871ZM787.971 26.9163C788.032 28.0527 788.032 31.4618 787.971 32.5981C787.91 33.7038 787.664 34.6559 786.865 35.4851C786.067 36.2836 785.084 36.5293 783.978 36.5908C782.842 36.6522 779.433 36.6522 778.297 36.5908C777.191 36.5293 776.239 36.2836 775.41 35.4851C774.611 34.6559 774.365 33.7038 774.304 32.5981C774.242 31.4618 774.242 28.0527 774.304 26.9163C774.365 25.8107 774.611 24.8279 775.41 24.0294C776.239 23.2308 777.191 22.9851 778.297 22.9237C779.433 22.8623 782.842 22.8623 783.978 22.9237C785.084 22.9851 786.067 23.2308 786.865 24.0294C787.664 24.8279 787.91 25.8107 787.971 26.9163ZM786.497 33.7959C786.865 32.9053 786.773 30.7554 786.773 29.7419C786.773 28.7591 786.865 26.6092 786.497 25.6878C786.251 25.1043 785.79 24.6129 785.207 24.3979C784.285 24.0294 782.136 24.1215 781.153 24.1215C780.139 24.1215 777.989 24.0294 777.099 24.3979C776.484 24.6436 776.024 25.1043 775.778 25.6878C775.41 26.6092 775.502 28.7591 775.502 29.7419C775.502 30.7554 775.41 32.9053 775.778 33.7959C776.024 34.4102 776.484 34.8709 777.099 35.1166C777.989 35.4851 780.139 35.393 781.153 35.393C782.136 35.393 784.285 35.4851 785.207 35.1166C785.79 34.8709 786.282 34.4102 786.497 33.7959Z" fill="#4F4F4F"/>
<rect x="0.491399" y="0.491399" width="846.017" height="58.0172" stroke="#E0E0E0" stroke-width="0.982798"/>
</svg>
