<svg width="19" height="15" viewBox="0 0 19 15" fill="none" xmlns="http://www.w3.org/2000/svg">
<path d="M16.6613 3.86108C16.6613 4.03366 16.6613 4.17173 16.6613 4.34432C16.6613 9.14219 13.037 14.6304 6.37518 14.6304C4.30415 14.6304 2.40572 14.0436 0.817933 13.0081C1.09407 13.0426 1.37021 13.0771 1.68086 13.0771C3.37219 13.0771 4.92546 12.4903 6.16808 11.5239C4.58029 11.4893 3.23413 10.4538 2.7854 9.00412C3.02702 9.03864 3.23413 9.07315 3.47575 9.07315C3.7864 9.07315 4.13157 9.00412 4.40771 8.93509C2.75089 8.58991 1.50827 7.1402 1.50827 5.37983V5.34531C1.99151 5.62145 2.5783 5.75952 3.16509 5.79403C2.1641 5.13821 1.54279 4.03366 1.54279 2.79105C1.54279 2.10071 1.71538 1.4794 2.02603 0.961647C3.82092 3.13622 6.51325 4.58594 9.51623 4.75852C9.44719 4.48239 9.41268 4.20625 9.41268 3.93011C9.41268 1.92812 11.035 0.305824 13.037 0.305824C14.0725 0.305824 15.0044 0.720028 15.6948 1.44489C16.4887 1.2723 17.2826 0.961647 17.9729 0.547443C17.6968 1.41037 17.1445 2.10071 16.3851 2.54943C17.11 2.4804 17.8348 2.2733 18.4561 1.99716C17.9729 2.72202 17.3516 3.34332 16.6613 3.86108Z" fill="#333333"/>
</svg>
