<svg width="20" height="15" viewBox="0 0 20 15" fill="none" xmlns="http://www.w3.org/2000/svg">
<path d="M18.827 2.92912C19.2412 4.37884 19.2412 7.48537 19.2412 7.48537C19.2412 7.48537 19.2412 10.5574 18.827 12.0416C18.6199 12.87 17.964 13.4913 17.1702 13.6984C15.6859 14.0781 9.81802 14.0781 9.81802 14.0781C9.81802 14.0781 3.91561 14.0781 2.43137 13.6984C1.63748 13.4913 0.981658 12.87 0.774556 12.0416C0.360351 10.5574 0.360351 7.48537 0.360351 7.48537C0.360351 7.48537 0.360351 4.37884 0.774556 2.92912C0.981658 2.10071 1.63748 1.44489 2.43137 1.23778C3.91561 0.823579 9.81802 0.823579 9.81802 0.823579C9.81802 0.823579 15.6859 0.823579 17.1702 1.23778C17.964 1.44489 18.6199 2.10071 18.827 2.92912ZM7.88507 10.2812L12.7865 7.48537L7.88507 4.68949V10.2812Z" fill="#333333"/>
</svg>
